<svg width="120" height="120" viewBox="0 0 120 120" fill="none" xmlns="http://www.w3.org/2000/svg">
<path d="M55 2.88675C58.094 1.10042 61.906 1.10042 65 2.88675L106.962 27.1132C110.056 28.8996 111.962 32.2008 111.962 35.7735V84.2265C111.962 87.7992 110.056 91.1004 106.962 92.8867L65 117.113C61.906 118.9 58.094 118.9 55 117.113L13.0385 92.8867C9.94446 91.1004 8.03848 87.7992 8.03848 84.2265V35.7735C8.03848 32.2008 9.94446 28.8996 13.0385 27.1132L55 2.88675Z" fill="url(#paint0_radial_138_8180)"/>
<path d="M27.6879 80.64H33.6079L33.1279 79.36H28.1679L27.6879 80.64ZM30.6159 75.328L32.5359 79.84L32.6639 80.16L34.2959 84H35.8159L30.6159 72.24L25.4159 84H26.9359L28.5999 80.064L28.7279 79.776L30.6159 75.328ZM42.6184 71.52V84H43.8984V71.52H42.6184ZM36.4584 80.32C36.4584 81.1093 36.6238 81.792 36.9544 82.368C37.2851 82.944 37.7278 83.3867 38.2824 83.696C38.8371 84.0053 39.4451 84.16 40.1064 84.16C40.7251 84.16 41.2638 84.0053 41.7224 83.696C42.1811 83.3867 42.5384 82.944 42.7944 82.368C43.0611 81.792 43.1944 81.1093 43.1944 80.32C43.1944 79.52 43.0611 78.8373 42.7944 78.272C42.5384 77.696 42.1811 77.2533 41.7224 76.944C41.2638 76.6347 40.7251 76.48 40.1064 76.48C39.4451 76.48 38.8371 76.6347 38.2824 76.944C37.7278 77.2533 37.2851 77.696 36.9544 78.272C36.6238 78.8373 36.4584 79.52 36.4584 80.32ZM37.7544 80.32C37.7544 79.7547 37.8664 79.2747 38.0904 78.88C38.3251 78.4853 38.6344 78.1867 39.0184 77.984C39.4024 77.7813 39.8184 77.68 40.2664 77.68C40.6398 77.68 41.0078 77.7813 41.3704 77.984C41.7331 78.1867 42.0318 78.4853 42.2664 78.88C42.5011 79.2747 42.6184 79.7547 42.6184 80.32C42.6184 80.8853 42.5011 81.3653 42.2664 81.76C42.0318 82.1547 41.7331 82.4533 41.3704 82.656C41.0078 82.8587 40.6398 82.96 40.2664 82.96C39.8184 82.96 39.4024 82.8587 39.0184 82.656C38.6344 82.4533 38.3251 82.1547 38.0904 81.76C37.8664 81.3653 37.7544 80.8853 37.7544 80.32ZM45.5834 80.32C45.5834 81.056 45.7488 81.7173 46.0794 82.304C46.4208 82.88 46.8794 83.3333 47.4554 83.664C48.0314 83.9947 48.6768 84.16 49.3914 84.16C50.1168 84.16 50.7621 83.9947 51.3274 83.664C51.9034 83.3333 52.3568 82.88 52.6874 82.304C53.0288 81.7173 53.1994 81.056 53.1994 80.32C53.1994 79.5733 53.0288 78.912 52.6874 78.336C52.3568 77.76 51.9034 77.3067 51.3274 76.976C50.7621 76.6453 50.1168 76.48 49.3914 76.48C48.6768 76.48 48.0314 76.6453 47.4554 76.976C46.8794 77.3067 46.4208 77.76 46.0794 78.336C45.7488 78.912 45.5834 79.5733 45.5834 80.32ZM46.8794 80.32C46.8794 79.808 46.9861 79.3547 47.1994 78.96C47.4234 78.5547 47.7221 78.24 48.0954 78.016C48.4794 77.792 48.9114 77.68 49.3914 77.68C49.8714 77.68 50.2981 77.792 50.6714 78.016C51.0554 78.24 51.3541 78.5547 51.5674 78.96C51.7914 79.3547 51.9034 79.808 51.9034 80.32C51.9034 80.832 51.7914 81.2853 51.5674 81.68C51.3541 82.0747 51.0554 82.3893 50.6714 82.624C50.2981 82.848 49.8714 82.96 49.3914 82.96C48.9114 82.96 48.4794 82.848 48.0954 82.624C47.7221 82.3893 47.4234 82.0747 47.1994 81.68C46.9861 81.2853 46.8794 80.832 46.8794 80.32ZM56.1578 71.52H54.8778V84H56.1578V71.52ZM62.3178 80.32C62.3178 79.52 62.1525 78.8373 61.8218 78.272C61.4911 77.696 61.0485 77.2533 60.4938 76.944C59.9498 76.6347 59.3418 76.48 58.6698 76.48C58.0618 76.48 57.5231 76.6347 57.0538 76.944C56.5951 77.2533 56.2325 77.696 55.9658 78.272C55.7098 78.8373 55.5818 79.52 55.5818 80.32C55.5818 81.1093 55.7098 81.792 55.9658 82.368C56.2325 82.944 56.5951 83.3867 57.0538 83.696C57.5231 84.0053 58.0618 84.16 58.6698 84.16C59.3418 84.16 59.9498 84.0053 60.4938 83.696C61.0485 83.3867 61.4911 82.944 61.8218 82.368C62.1525 81.792 62.3178 81.1093 62.3178 80.32ZM61.0218 80.32C61.0218 80.8853 60.9045 81.3653 60.6698 81.76C60.4458 82.1547 60.1418 82.4533 59.7578 82.656C59.3845 82.8587 58.9685 82.96 58.5098 82.96C58.1365 82.96 57.7685 82.8587 57.4058 82.656C57.0431 82.4533 56.7445 82.1547 56.5098 81.76C56.2751 81.3653 56.1578 80.8853 56.1578 80.32C56.1578 79.7547 56.2751 79.2747 56.5098 78.88C56.7445 78.4853 57.0431 78.1867 57.4058 77.984C57.7685 77.7813 58.1365 77.68 58.5098 77.68C58.9685 77.68 59.3845 77.7813 59.7578 77.984C60.1418 78.1867 60.4458 78.4853 60.6698 78.88C60.9045 79.2747 61.0218 79.7547 61.0218 80.32ZM66.9308 84.16C67.7201 84.16 68.4028 84.0053 68.9788 83.696C69.5655 83.376 70.0508 82.9067 70.4348 82.288L69.3948 81.632C69.1281 82.08 68.8028 82.416 68.4188 82.64C68.0348 82.8533 67.5921 82.96 67.0908 82.96C66.5895 82.96 66.1628 82.8533 65.8108 82.64C65.4588 82.4267 65.1921 82.1173 65.0108 81.712C64.8295 81.3067 64.7388 80.816 64.7388 80.24C64.7495 79.6747 64.8455 79.2 65.0268 78.816C65.2188 78.4213 65.4855 78.1227 65.8268 77.92C66.1788 77.7067 66.6001 77.6 67.0908 77.6C67.5068 77.6 67.8695 77.6907 68.1788 77.872C68.4881 78.0533 68.7281 78.304 68.8988 78.624C69.0801 78.944 69.1708 79.3227 69.1708 79.76C69.1708 79.8347 69.1548 79.9307 69.1228 80.048C69.0908 80.1547 69.0588 80.2347 69.0268 80.288L69.5388 79.552H64.2588V80.64H70.5468C70.5468 80.6187 70.5468 80.5707 70.5468 80.496C70.5575 80.4107 70.5628 80.3307 70.5628 80.256C70.5628 79.4773 70.4241 78.8053 70.1468 78.24C69.8695 77.6747 69.4695 77.2427 68.9468 76.944C68.4348 76.6347 67.8161 76.48 67.0908 76.48C66.3655 76.48 65.7255 76.64 65.1708 76.96C64.6268 77.28 64.2001 77.728 63.8908 78.304C63.5921 78.88 63.4428 79.552 63.4428 80.32C63.4428 81.0773 63.5868 81.744 63.8748 82.32C64.1735 82.896 64.5841 83.3493 65.1068 83.68C65.6401 84 66.2481 84.16 66.9308 84.16ZM82.7941 72.8L80.4101 76.944L78.0741 72.8H76.4741L79.7221 78.128L76.0741 84H77.6741L80.3941 79.312L83.0341 84H84.6341L81.0821 78.128L84.3941 72.8H82.7941ZM86.0691 72.8V84H87.4291V72.8H86.0691ZM89.4291 84C90.5171 84 91.4824 83.7653 92.3251 83.296C93.1677 82.8267 93.8291 82.176 94.3091 81.344C94.7891 80.5013 95.0291 79.52 95.0291 78.4C95.0291 77.28 94.7891 76.304 94.3091 75.472C93.8291 74.6293 93.1677 73.9733 92.3251 73.504C91.4824 73.0347 90.5171 72.8 89.4291 72.8H86.8211V74.16H89.4291C90.0584 74.16 90.6344 74.2613 91.1571 74.464C91.6797 74.656 92.1277 74.9387 92.5011 75.312C92.8744 75.6747 93.1624 76.1173 93.3651 76.64C93.5677 77.1627 93.6691 77.7493 93.6691 78.4C93.6691 79.0507 93.5677 79.6373 93.3651 80.16C93.1624 80.6827 92.8744 81.1307 92.5011 81.504C92.1277 81.8667 91.6797 82.1493 91.1571 82.352C90.6344 82.544 90.0584 82.64 89.4291 82.64H86.8211V84H89.4291Z" fill="#424254"/>
<g clip-path="url(#clip0_138_8180)">
<path d="M50.3125 32H69.6875C72.625 32 75 34.4359 75 37.4487V56.5513C75 59.5641 72.625 62 69.6875 62H50.3125C47.375 62 45 59.5641 45 56.5513V37.4487C45 34.4359 47.375 32 50.3125 32Z" fill="#470137"/>
<path d="M60.4805 40.4426L56.8701 46.7984L60.7212 53.5395C60.7453 53.5908 60.7573 53.6422 60.7453 53.6936C60.7332 53.7449 60.6851 53.7064 60.6129 53.7192H57.8569C57.6644 53.7192 57.532 53.7064 57.4477 53.578C57.195 53.0387 56.9302 52.5123 56.6775 51.973C56.4248 51.4466 56.148 50.9073 55.8591 50.3551C55.5703 49.803 55.2815 49.2509 54.9926 48.6859H54.9685C54.7158 49.2381 54.439 49.7902 54.1622 50.3423C53.8854 50.8944 53.6086 51.4466 53.3438 51.9858C53.067 52.5251 52.7902 53.0772 52.5134 53.6037C52.4653 53.7321 52.369 53.7449 52.2366 53.7449H49.589C49.5408 53.7449 49.5047 53.7706 49.5047 53.7064C49.4927 53.655 49.5047 53.6037 49.5288 53.5652L53.2716 47.0167L49.6251 40.4298C49.589 40.3784 49.5769 40.327 49.601 40.3014C49.6251 40.2628 49.6732 40.25 49.7213 40.25H52.4533C52.5134 40.25 52.5736 40.2628 52.6217 40.2757C52.6699 40.3014 52.706 40.3399 52.7421 40.3912C52.9708 40.9434 53.2355 41.4955 53.5123 42.0476C53.8012 42.5997 54.078 43.139 54.3788 43.6783C54.6677 44.2176 54.9324 44.7569 55.1852 45.309H55.2092C55.462 44.744 55.7267 44.1919 55.9915 43.6526C56.2563 43.1133 56.5331 42.5741 56.8099 42.0348C57.0867 41.4955 57.3514 40.9434 57.6162 40.4169C57.6283 40.3656 57.6523 40.3142 57.6884 40.2885C57.7366 40.2628 57.7847 40.25 57.8449 40.2628H60.3842C60.4444 40.25 60.5046 40.2885 60.5166 40.3527C60.5287 40.3656 60.5046 40.4169 60.4805 40.4426Z" fill="#FF61F6"/>
<path d="M66.5657 53.7494C65.6754 53.7624 64.785 53.5679 63.9789 53.1661C63.221 52.7902 62.5953 52.168 62.1622 51.4032C61.717 50.6125 61.5005 49.6274 61.5005 48.4478C61.4884 47.4886 61.717 46.5424 62.1622 45.7128C62.6194 44.8702 63.2811 44.1703 64.0752 43.7036C64.9174 43.1981 65.928 42.9518 67.1192 42.9518C67.1793 42.9518 67.2635 42.9518 67.3718 42.9648C67.4801 42.9777 67.6004 42.9777 67.7448 42.9907V38.8946C67.7448 38.8039 67.7809 38.752 67.8651 38.752H70.3075C70.3677 38.7391 70.4158 38.7909 70.4278 38.8428C70.4278 38.8557 70.4278 38.8687 70.4278 38.8687V51.2088C70.4278 51.4421 70.4398 51.7013 70.4519 51.9865C70.4759 52.2587 70.488 52.518 70.5 52.7383C70.5 52.8291 70.4639 52.9068 70.3797 52.9457C69.754 53.2309 69.0923 53.4383 68.4186 53.5679C67.8049 53.6846 67.1913 53.7494 66.5657 53.7494ZM67.7448 51.1569V45.4535C67.6365 45.4276 67.5282 45.4017 67.4199 45.3887C67.2876 45.3757 67.1552 45.3628 67.0229 45.3628C66.5537 45.3628 66.0844 45.4665 65.6633 45.6998C65.2543 45.9202 64.9054 46.2442 64.6407 46.659C64.376 47.0738 64.2436 47.6312 64.2436 48.3052C64.2316 48.7589 64.3038 49.2126 64.4482 49.6403C64.5685 49.9903 64.749 50.3014 64.9896 50.5607C65.2182 50.794 65.4949 50.9755 65.8077 51.0792C66.1326 51.1958 66.4695 51.2477 66.8063 51.2477C66.9868 51.2477 67.1552 51.2347 67.3117 51.2217C67.4681 51.2347 67.6004 51.2088 67.7448 51.1569Z" fill="#FF61F6"/>
</g>
<defs>
<radialGradient id="paint0_radial_138_8180" cx="0" cy="0" r="1" gradientUnits="userSpaceOnUse" gradientTransform="translate(60 60) rotate(90) scale(60)">
<stop stop-color="white"/>
<stop offset="1" stop-color="#E8FCF8"/>
</radialGradient>
<clipPath id="clip0_138_8180">
<rect width="30" height="30" fill="white" transform="translate(45 32)"/>
</clipPath>
</defs>
</svg>
