<svg width="196" height="202" viewBox="0 0 196 202" fill="none" xmlns="http://www.w3.org/2000/svg">
<g filter="url(#filter0_d_655_6582)">
<path d="M78 12.1915C90.376 5.04623 105.624 5.04623 118 12.1915L162.87 38.0975C175.247 45.2428 182.87 58.4479 182.87 72.7385V124.551C182.87 138.841 175.247 152.046 162.87 159.192L118 185.098C105.624 192.243 90.376 192.243 78 185.098L33.1295 159.192C20.7535 152.046 13.1295 138.841 13.1295 124.551V72.7385C13.1295 58.4479 20.7535 45.2428 33.1295 38.0975L78 12.1915Z" fill="white"/>
</g>
<path d="M61.0864 141.865H67.7464L67.2064 140.425H61.6264L61.0864 141.865ZM64.3804 135.889L66.5404 140.965L66.6844 141.325L68.5204 145.645H70.2304L64.3804 132.415L58.5304 145.645H60.2404L62.1124 141.217L62.2564 140.893L64.3804 135.889ZM77.8832 131.605V145.645H79.3232V131.605H77.8832ZM70.9532 141.505C70.9532 142.393 71.1392 143.161 71.5112 143.809C71.8832 144.457 72.3812 144.955 73.0052 145.303C73.6292 145.651 74.3132 145.825 75.0572 145.825C75.7532 145.825 76.3592 145.651 76.8752 145.303C77.3912 144.955 77.7932 144.457 78.0812 143.809C78.3812 143.161 78.5312 142.393 78.5312 141.505C78.5312 140.605 78.3812 139.837 78.0812 139.201C77.7932 138.553 77.3912 138.055 76.8752 137.707C76.3592 137.359 75.7532 137.185 75.0572 137.185C74.3132 137.185 73.6292 137.359 73.0052 137.707C72.3812 138.055 71.8832 138.553 71.5112 139.201C71.1392 139.837 70.9532 140.605 70.9532 141.505ZM72.4112 141.505C72.4112 140.869 72.5372 140.329 72.7892 139.885C73.0532 139.441 73.4012 139.105 73.8332 138.877C74.2652 138.649 74.7332 138.535 75.2372 138.535C75.6572 138.535 76.0712 138.649 76.4792 138.877C76.8872 139.105 77.2232 139.441 77.4872 139.885C77.7512 140.329 77.8832 140.869 77.8832 141.505C77.8832 142.141 77.7512 142.681 77.4872 143.125C77.2232 143.569 76.8872 143.905 76.4792 144.133C76.0712 144.361 75.6572 144.475 75.2372 144.475C74.7332 144.475 74.2652 144.361 73.8332 144.133C73.4012 143.905 73.0532 143.569 72.7892 143.125C72.5372 142.681 72.4112 142.141 72.4112 141.505ZM81.2189 141.505C81.2189 142.333 81.4049 143.077 81.7769 143.737C82.1609 144.385 82.6769 144.895 83.3249 145.267C83.9729 145.639 84.6989 145.825 85.5029 145.825C86.3189 145.825 87.0449 145.639 87.6809 145.267C88.3289 144.895 88.8389 144.385 89.2109 143.737C89.5949 143.077 89.7869 142.333 89.7869 141.505C89.7869 140.665 89.5949 139.921 89.2109 139.273C88.8389 138.625 88.3289 138.115 87.6809 137.743C87.0449 137.371 86.3189 137.185 85.5029 137.185C84.6989 137.185 83.9729 137.371 83.3249 137.743C82.6769 138.115 82.1609 138.625 81.7769 139.273C81.4049 139.921 81.2189 140.665 81.2189 141.505ZM82.6769 141.505C82.6769 140.929 82.7969 140.419 83.0369 139.975C83.2889 139.519 83.6249 139.165 84.0449 138.913C84.4769 138.661 84.9629 138.535 85.5029 138.535C86.0429 138.535 86.5229 138.661 86.9429 138.913C87.3749 139.165 87.7109 139.519 87.9509 139.975C88.2029 140.419 88.3289 140.929 88.3289 141.505C88.3289 142.081 88.2029 142.591 87.9509 143.035C87.7109 143.479 87.3749 143.833 86.9429 144.097C86.5229 144.349 86.0429 144.475 85.5029 144.475C84.9629 144.475 84.4769 144.349 84.0449 144.097C83.6249 143.833 83.2889 143.479 83.0369 143.035C82.7969 142.591 82.6769 142.081 82.6769 141.505ZM93.115 131.605H91.675V145.645H93.115V131.605ZM100.045 141.505C100.045 140.605 99.859 139.837 99.487 139.201C99.115 138.553 98.617 138.055 97.993 137.707C97.381 137.359 96.697 137.185 95.941 137.185C95.257 137.185 94.651 137.359 94.123 137.707C93.607 138.055 93.199 138.553 92.899 139.201C92.611 139.837 92.467 140.605 92.467 141.505C92.467 142.393 92.611 143.161 92.899 143.809C93.199 144.457 93.607 144.955 94.123 145.303C94.651 145.651 95.257 145.825 95.941 145.825C96.697 145.825 97.381 145.651 97.993 145.303C98.617 144.955 99.115 144.457 99.487 143.809C99.859 143.161 100.045 142.393 100.045 141.505ZM98.587 141.505C98.587 142.141 98.455 142.681 98.191 143.125C97.939 143.569 97.597 143.905 97.165 144.133C96.745 144.361 96.277 144.475 95.761 144.475C95.341 144.475 94.927 144.361 94.519 144.133C94.111 143.905 93.775 143.569 93.511 143.125C93.247 142.681 93.115 142.141 93.115 141.505C93.115 140.869 93.247 140.329 93.511 139.885C93.775 139.441 94.111 139.105 94.519 138.877C94.927 138.649 95.341 138.535 95.761 138.535C96.277 138.535 96.745 138.649 97.165 138.877C97.597 139.105 97.939 139.441 98.191 139.885C98.455 140.329 98.587 140.869 98.587 141.505ZM105.235 145.825C106.123 145.825 106.891 145.651 107.539 145.303C108.199 144.943 108.745 144.415 109.177 143.719L108.007 142.981C107.707 143.485 107.341 143.863 106.909 144.115C106.477 144.355 105.979 144.475 105.415 144.475C104.851 144.475 104.371 144.355 103.975 144.115C103.579 143.875 103.279 143.527 103.075 143.071C102.871 142.615 102.769 142.063 102.769 141.415C102.781 140.779 102.889 140.245 103.093 139.813C103.309 139.369 103.609 139.033 103.993 138.805C104.389 138.565 104.863 138.445 105.415 138.445C105.883 138.445 106.291 138.547 106.639 138.751C106.987 138.955 107.257 139.237 107.449 139.597C107.653 139.957 107.755 140.383 107.755 140.875C107.755 140.959 107.737 141.067 107.701 141.199C107.665 141.319 107.629 141.409 107.593 141.469L108.169 140.641H102.229V141.865H109.303C109.303 141.841 109.303 141.787 109.303 141.703C109.315 141.607 109.321 141.517 109.321 141.433C109.321 140.557 109.165 139.801 108.853 139.165C108.541 138.529 108.091 138.043 107.503 137.707C106.927 137.359 106.231 137.185 105.415 137.185C104.599 137.185 103.879 137.365 103.255 137.725C102.643 138.085 102.163 138.589 101.815 139.237C101.479 139.885 101.311 140.641 101.311 141.505C101.311 142.357 101.473 143.107 101.797 143.755C102.133 144.403 102.595 144.913 103.183 145.285C103.783 145.645 104.467 145.825 105.235 145.825ZM123.081 133.045L120.399 137.707L117.771 133.045H115.971L119.625 139.039L115.521 145.645H117.321L120.381 140.371L123.351 145.645H125.151L121.155 139.039L124.881 133.045H123.081ZM126.765 133.045V145.645H128.295V133.045H126.765ZM130.545 145.645C131.769 145.645 132.855 145.381 133.803 144.853C134.751 144.325 135.495 143.593 136.035 142.657C136.575 141.709 136.845 140.605 136.845 139.345C136.845 138.085 136.575 136.987 136.035 136.051C135.495 135.103 134.751 134.365 133.803 133.837C132.855 133.309 131.769 133.045 130.545 133.045H127.611V134.575H130.545C131.253 134.575 131.901 134.689 132.489 134.917C133.077 135.133 133.581 135.451 134.001 135.871C134.421 136.279 134.745 136.777 134.973 137.365C135.201 137.953 135.315 138.613 135.315 139.345C135.315 140.077 135.201 140.737 134.973 141.325C134.745 141.913 134.421 142.417 134.001 142.837C133.581 143.245 133.077 143.563 132.489 143.791C131.901 144.007 131.253 144.115 130.545 144.115H127.611V145.645H130.545Z" fill="#424254"/>
<g clip-path="url(#clip0_655_6582)">
<path d="M78.625 53.6445H117.375C123.25 53.6445 128 58.5163 128 64.542V102.747C128 108.773 123.25 113.645 117.375 113.645H78.625C72.75 113.645 68 108.773 68 102.747V64.542C68 58.5163 72.75 53.6445 78.625 53.6445Z" fill="#470137"/>
<path d="M98.961 70.5297L91.7401 83.2414L99.4424 96.7235C99.4906 96.8262 99.5146 96.9289 99.4906 97.0317C99.4665 97.1344 99.3702 97.0573 99.2258 97.083H93.7138C93.3287 97.083 93.0639 97.0573 92.8955 96.8005C92.39 95.722 91.8605 94.6691 91.355 93.5905C90.8495 92.5376 90.2959 91.4591 89.7183 90.3548C89.1406 89.2506 88.5629 88.1463 87.9852 87.0164H87.9371C87.4316 88.1206 86.878 89.2249 86.3244 90.3291C85.7708 91.4334 85.2172 92.5376 84.6877 93.6162C84.1341 94.6948 83.5805 95.799 83.0269 96.8519C82.9306 97.1087 82.738 97.1344 82.4733 97.1344H77.1779C77.0817 97.1344 77.0094 97.1857 77.0094 97.0573C76.9854 96.9546 77.0094 96.8519 77.0576 96.7749L84.5433 83.678L77.2501 70.5041C77.1779 70.4013 77.1539 70.2986 77.202 70.2473C77.2501 70.1702 77.3464 70.1445 77.4427 70.1445H82.9065C83.0269 70.1445 83.1472 70.1702 83.2435 70.1959C83.3398 70.2473 83.412 70.3243 83.4842 70.427C83.9415 71.5313 84.4711 72.6355 85.0247 73.7398C85.6023 74.844 86.1559 75.9226 86.7577 77.0011C87.3354 78.0797 87.8649 79.1583 88.3703 80.2625H88.4185C88.924 79.1326 89.4535 78.0283 89.983 76.9498C90.5126 75.8712 91.0662 74.7926 91.6198 73.7141C92.1734 72.6355 92.7029 71.5313 93.2324 70.4784C93.2565 70.3757 93.3046 70.2729 93.3769 70.2216C93.4731 70.1702 93.5694 70.1445 93.6898 70.1702H98.7685C98.8888 70.1445 99.0092 70.2216 99.0332 70.35C99.0573 70.3757 99.0092 70.4784 98.961 70.5297Z" fill="#FF61F6"/>
<path d="M111.131 97.1433C109.351 97.1692 107.57 96.7804 105.958 95.9767C104.442 95.2249 103.191 93.9805 102.324 92.451C101.434 90.8696 101.001 88.8993 101.001 86.5402C100.977 84.6217 101.434 82.7292 102.324 81.0701C103.239 79.385 104.562 77.985 106.15 77.0518C107.835 76.0407 109.856 75.5481 112.238 75.5481C112.359 75.5481 112.527 75.5481 112.744 75.5741C112.96 75.6 113.201 75.6 113.49 75.6259V67.4337C113.49 67.2523 113.562 67.1486 113.73 67.1486H118.615C118.735 67.1226 118.832 67.2263 118.856 67.33C118.856 67.356 118.856 67.3819 118.856 67.3819V92.0621C118.856 92.5287 118.88 93.0472 118.904 93.6176C118.952 94.162 118.976 94.6805 119 95.1212C119 95.3027 118.928 95.4582 118.759 95.536C117.508 96.1063 116.185 96.5211 114.837 96.7804C113.61 97.0137 112.383 97.1433 111.131 97.1433ZM113.49 91.9584V80.5516C113.273 80.4997 113.056 80.4479 112.84 80.422C112.575 80.396 112.31 80.3701 112.046 80.3701C111.107 80.3701 110.169 80.5775 109.327 81.0441C108.509 81.4849 107.811 82.133 107.281 82.9626C106.752 83.7922 106.487 84.9069 106.487 86.255C106.463 87.1623 106.608 88.0697 106.896 88.9252C107.137 89.6252 107.498 90.2474 107.979 90.7659C108.436 91.2325 108.99 91.5955 109.615 91.8028C110.265 92.0362 110.939 92.1399 111.613 92.1399C111.974 92.1399 112.31 92.1139 112.623 92.088C112.936 92.1139 113.201 92.0621 113.49 91.9584Z" fill="#FF61F6"/>
</g>
<defs>
<filter id="filter0_d_655_6582" x="5.12939" y="2.83258" width="185.741" height="199.624" filterUnits="userSpaceOnUse" color-interpolation-filters="sRGB">
<feFlood flood-opacity="0" result="BackgroundImageFix"/>
<feColorMatrix in="SourceAlpha" type="matrix" values="0 0 0 0 0 0 0 0 0 0 0 0 0 0 0 0 0 0 127 0" result="hardAlpha"/>
<feOffset dy="4"/>
<feGaussianBlur stdDeviation="4"/>
<feColorMatrix type="matrix" values="0 0 0 0 0.0627451 0 0 0 0 0.0941176 0 0 0 0 0.156863 0 0 0 0.04 0"/>
<feBlend mode="normal" in2="BackgroundImageFix" result="effect1_dropShadow_655_6582"/>
<feBlend mode="normal" in="SourceGraphic" in2="effect1_dropShadow_655_6582" result="shape"/>
</filter>
<clipPath id="clip0_655_6582">
<rect width="60" height="60" fill="white" transform="translate(68 53.6445)"/>
</clipPath>
</defs>
</svg>
