<svg width="9" height="18" viewBox="0 0 9 18" fill="none" xmlns="http://www.w3.org/2000/svg">
<path d="M4.58333 17.2291C3.36111 17.2291 2.32306 16.8019 1.46917 15.9474C0.614722 15.0935 0.1875 14.0624 0.1875 12.8541V3.83325C0.1875 2.95825 0.5 2.20825 1.125 1.58325C1.75 0.958252 2.5 0.645752 3.375 0.645752C4.25 0.645752 5 0.958252 5.625 1.58325C6.25 2.20825 6.5625 2.95825 6.5625 3.83325V11.9583C6.5625 12.5138 6.37167 12.986 5.99 13.3749C5.60778 13.7638 5.13889 13.9583 4.58333 13.9583C4.02778 13.9583 3.55889 13.7638 3.17667 13.3749C2.795 12.986 2.60417 12.5138 2.60417 11.9583V4.33325C2.60417 4.19436 2.64944 4.07631 2.74 3.97909C2.83 3.88186 2.94444 3.83325 3.08333 3.83325C3.23611 3.83325 3.35778 3.88186 3.44833 3.97909C3.53833 4.07631 3.58333 4.19436 3.58333 4.33325V11.9583C3.58333 12.2499 3.68056 12.4896 3.875 12.6774C4.06944 12.8646 4.30556 12.9583 4.58333 12.9583C4.86111 12.9583 5.09722 12.8646 5.29167 12.6774C5.48611 12.4896 5.58333 12.2499 5.58333 11.9583V3.83325C5.58333 3.22214 5.37167 2.70464 4.94833 2.28075C4.52444 1.85742 4 1.64575 3.375 1.64575C2.76389 1.64575 2.24667 1.85742 1.82333 2.28075C1.39944 2.70464 1.1875 3.22214 1.1875 3.83325V12.8541C1.1875 13.7846 1.5175 14.5833 2.1775 15.2499C2.83694 15.9166 3.63889 16.2499 4.58333 16.2499C5.52778 16.2499 6.33 15.9166 6.99 15.2499C7.64944 14.5833 7.97917 13.7846 7.97917 12.8541V4.33325C7.97917 4.19436 8.02778 4.07631 8.125 3.97909C8.22222 3.88186 8.34028 3.83325 8.47917 3.83325C8.61805 3.83325 8.73611 3.88186 8.83333 3.97909C8.93056 4.07631 8.97917 4.19436 8.97917 4.33325V12.8541C8.97917 14.0624 8.55222 15.0935 7.69833 15.9474C6.84389 16.8019 5.80556 17.2291 4.58333 17.2291Z" fill="#090920"/>
</svg>
