<svg width="86" height="86" viewBox="0 0 86 86" fill="none" xmlns="http://www.w3.org/2000/svg">
<g filter="url(#filter0_d_138_8099)">
<circle cx="43" cy="39" r="35" fill="white"/>
</g>
<path d="M25.0234 25.4735C25.279 24.908 25.6434 24.4585 26.3011 24.3715C26.5882 24.3338 26.8841 24.3548 27.1765 24.354C27.7025 24.3522 28.2285 24.3531 28.7536 24.354C29.2691 24.3548 29.5044 24.5164 29.5105 24.8747C29.5176 25.2444 29.2787 25.4112 28.7404 25.4121C28.0626 25.4129 27.3847 25.4094 26.7076 25.4138C26.2317 25.4165 26.0763 25.571 26.0763 26.0452C26.0754 33.1508 26.0754 40.2555 26.0763 47.3611C26.0763 47.8485 26.237 47.9863 26.7858 47.9863C35.8645 47.9863 44.9432 47.9863 54.0228 47.9863C54.151 47.9863 54.2801 47.9811 54.4083 47.9899C54.7103 48.0118 54.9097 48.2217 54.9097 48.5097C54.9106 48.7959 54.7103 49.0234 54.4109 49.033C53.9209 49.048 53.4292 49.0383 52.9392 49.0392C52.3913 49.0392 51.8433 49.0392 51.2462 49.0392C51.2462 49.3808 51.2471 49.7021 51.2462 50.0244C51.2436 50.9192 50.7598 51.4057 49.8562 51.4083C48.2905 51.4127 46.7249 51.4092 45.1592 51.4101C45.0582 51.4101 44.9581 51.4206 44.8211 51.4285C44.8844 51.5637 44.93 51.6682 44.9818 51.7692C45.7142 53.2023 46.4456 54.6353 47.1815 56.0666C47.3255 56.3459 47.4054 56.6137 47.1314 56.8605C46.8443 57.1186 46.4685 57.0115 46.256 56.5996C45.4657 55.0656 44.6587 53.5395 43.9053 51.9879C43.684 51.5321 43.4329 51.3855 42.9323 51.3969C41.3439 51.4338 39.7545 51.4171 38.1651 51.4048C37.8868 51.403 37.7322 51.4759 37.6014 51.7394C36.8085 53.3243 35.9936 54.8988 35.1848 56.4758C35.1269 56.59 35.0821 56.7498 34.9864 56.7963C34.8046 56.885 34.5535 56.9957 34.3989 56.9325C34.2453 56.8701 34.1338 56.6146 34.0846 56.4231C34.0538 56.3037 34.1601 56.1387 34.2277 56.0052C34.9425 54.6029 35.6625 53.2031 36.3791 51.8026C36.4353 51.6928 36.4818 51.5769 36.5564 51.4109C36.3843 51.4109 36.2605 51.4109 36.1367 51.4109C34.6176 51.4109 33.0985 51.3934 31.5802 51.418C30.7276 51.432 30.062 50.9183 30.1358 49.9805C30.1595 49.6811 30.1393 49.379 30.1393 49.0401C29.5026 49.0401 28.8985 49.0401 28.2944 49.0401C27.7333 49.0401 27.173 49.0418 26.6119 49.0392C25.8471 49.0365 25.3835 48.7152 25.0893 47.9907C25.0779 47.9626 25.0463 47.9424 25.0243 47.9187C25.0234 40.4355 25.0234 32.9541 25.0234 25.4735ZM31.2193 49.0576C31.207 49.1086 31.1974 49.1305 31.1974 49.1525C31.1947 49.3746 31.1939 49.5968 31.1939 49.8181C31.1939 50.3186 31.1939 50.3186 31.6865 50.3186C37.691 50.3186 43.6963 50.3186 49.7008 50.3186C49.7824 50.3186 49.8799 50.3458 49.9422 50.3107C50.0353 50.258 50.1644 50.1658 50.1705 50.0824C50.1969 49.7487 50.1811 49.4115 50.1811 49.0568C43.8438 49.0576 37.5408 49.0576 31.2193 49.0576Z" fill="#4583E6"/>
<path d="M54.162 45.2623C52.6569 45.5801 51.1993 45.4651 49.8119 44.8232C47.6122 43.8055 46.2608 42.0897 45.8569 39.6995C45.3283 36.5726 46.8878 33.6608 49.746 32.2997C53.2022 30.6541 57.5603 32.3524 58.9644 35.9113C59.9777 38.4798 59.5738 40.848 57.8571 42.9959C57.699 43.1935 57.6823 43.3208 57.8105 43.5394C58.7422 45.1297 59.6616 46.7269 60.5783 48.326C61.1464 49.3182 61.0112 50.3342 60.235 50.9989C59.2954 51.805 57.8746 51.5785 57.2038 50.4975C56.8165 49.8732 56.4635 49.2278 56.0956 48.592C55.4774 47.5216 54.8601 46.4495 54.2419 45.3791C54.2252 45.3474 54.2024 45.3202 54.162 45.2623ZM58.4199 38.5421C58.4603 35.395 55.8884 32.8046 52.6701 32.7528C49.5414 32.7019 46.9089 35.258 46.814 38.3367C46.7131 41.5927 49.3043 44.2805 52.4822 44.3604C55.6126 44.4395 58.4472 41.9009 58.4199 38.5421ZM55.2438 44.9505C55.2939 45.0445 55.3439 45.1464 55.401 45.2447C56.006 46.2949 56.6119 47.3442 57.2178 48.3936C57.5208 48.9187 57.8149 49.4482 58.1319 49.9645C58.3549 50.328 58.7246 50.4685 59.1259 50.3834C59.5184 50.2999 59.8293 50.0058 59.8425 49.5869C59.8504 49.3375 59.7582 49.0574 59.6326 48.8344C58.7615 47.2924 57.8694 45.7619 56.9834 44.2287C56.9386 44.1506 56.8833 44.0795 56.8455 44.0233C56.3063 44.3359 55.783 44.6388 55.2438 44.9505Z" fill="#4583E6"/>
<path d="M41.8923 34.5671C42.3866 34.2036 42.9126 33.9999 43.5352 34.1588C43.5984 34.1746 43.7187 34.0789 43.7714 34.006C44.6469 32.7951 45.5188 31.5816 46.3785 30.3592C46.4391 30.2732 46.4426 30.0941 46.3952 29.9957C46.058 29.3003 46.0799 28.6329 46.5699 28.0288C47.0371 27.4527 47.6588 27.2332 48.3841 27.4378C49.1489 27.6529 49.5695 28.1868 49.6784 28.9657C49.8321 30.0624 48.7836 31.0407 47.6289 30.8519C47.4024 30.815 47.3172 30.8896 47.2109 31.0407C46.3653 32.2296 45.5179 33.4177 44.6627 34.6005C44.5547 34.7498 44.5353 34.8507 44.6337 35.0272C45.0122 35.7007 44.9129 36.4708 44.4071 37.0425C43.933 37.579 43.1269 37.7704 42.4542 37.5061C41.7641 37.2357 41.3303 36.5745 41.3619 35.7965C41.3707 35.5813 41.3206 35.4575 41.1239 35.3539C40.6489 35.1054 40.1835 34.8367 39.7225 34.5627C39.5547 34.4635 39.4406 34.4486 39.2588 34.5706C38.6143 35 37.9399 35 37.2928 34.5741C37.1136 34.4565 37.0003 34.4573 36.8291 34.5601C36.3997 34.8182 35.9633 35.0668 35.519 35.2986C35.2775 35.425 35.1774 35.569 35.1844 35.8641C35.2099 36.8958 34.3862 37.6563 33.3395 37.6106C32.364 37.5685 31.6167 36.7097 31.694 35.7201C31.795 34.417 33.2798 33.6767 34.3845 34.395C34.5943 34.5311 34.7313 34.5425 34.9394 34.4134C35.3644 34.1491 35.8044 33.9059 36.2469 33.6706C36.4515 33.5617 36.5411 33.4414 36.5332 33.1876C36.5051 32.2393 37.1689 31.4823 38.0813 31.3778C38.9664 31.2769 39.7857 31.8722 39.9947 32.7688C40.0131 32.8478 40.0395 32.9356 40.0219 33.0102C39.9288 33.4203 40.144 33.61 40.4838 33.7759C40.9641 34.0113 41.419 34.2984 41.8923 34.5671ZM43.7802 35.8597C43.774 35.4803 43.4597 35.1774 43.0821 35.1862C42.7098 35.1958 42.3972 35.5278 42.4139 35.8966C42.4297 36.2478 42.7502 36.556 43.1005 36.5551C43.4746 36.5543 43.7872 36.2355 43.7802 35.8597ZM48.601 29.1106C48.5948 28.7304 48.2734 28.4186 47.9046 28.4353C47.5455 28.452 47.2496 28.7611 47.2478 29.122C47.2461 29.497 47.5666 29.8227 47.9327 29.8183C48.3086 29.8131 48.6071 29.497 48.601 29.1106ZM33.4519 35.1888C33.0761 35.1871 32.7574 35.5023 32.76 35.8729C32.7617 36.2408 33.0928 36.563 33.4598 36.5551C33.8111 36.5472 34.1281 36.2338 34.1386 35.8834C34.1483 35.5181 33.8251 35.1906 33.4519 35.1888ZM38.9629 33.1288C38.962 32.76 38.6354 32.4386 38.2648 32.4439C37.8969 32.4491 37.5676 32.7872 37.5808 33.1455C37.5931 33.4906 37.9206 33.8119 38.2648 33.8181C38.6266 33.8242 38.9638 33.4914 38.9629 33.1288Z" fill="#4583E6"/>
<path d="M37.7788 24.353C37.7788 23.9438 37.7604 23.5829 37.7832 23.2238C37.8236 22.5819 38.2592 22.062 38.9011 22.0366C40.09 21.9891 41.2825 21.9865 42.4714 22.0366C43.1493 22.0655 43.5954 22.6433 43.6051 23.3239C43.6095 23.6496 43.6059 23.9763 43.6059 24.3521C43.7587 24.3521 43.894 24.3521 44.0292 24.3521C47.5706 24.3521 51.1111 24.3521 54.6525 24.3521C55.7633 24.3521 56.363 24.9501 56.3639 26.0583C56.3656 27.5774 56.3657 29.0974 56.3613 30.6165C56.3604 30.7649 56.3481 30.9238 56.2954 31.0608C56.205 31.2926 55.9925 31.4349 55.7659 31.348C55.5894 31.2804 55.4349 31.0995 55.3269 30.9326C55.261 30.8308 55.297 30.6595 55.297 30.5199C55.2952 29.0939 55.2961 27.6678 55.2961 26.2418C55.2961 25.4928 55.2145 25.4102 54.4804 25.4102C46.8136 25.4102 39.1469 25.4102 31.4802 25.4102C31.3397 25.4102 31.1992 25.4146 31.0596 25.4023C30.7593 25.3751 30.5881 25.196 30.5731 24.9036C30.5582 24.6033 30.7373 24.4259 31.021 24.3644C31.1334 24.3407 31.2537 24.353 31.3705 24.353C33.3576 24.3521 35.3439 24.353 37.331 24.353C37.4575 24.353 37.5857 24.353 37.7788 24.353ZM42.554 24.3363C42.554 24.0035 42.5557 23.712 42.5531 23.4204C42.5513 23.2194 42.4732 23.0789 42.2475 23.0789C41.2096 23.078 40.1708 23.0718 39.1329 23.0885C39.0328 23.0903 38.8589 23.2255 38.8501 23.3116C38.8176 23.6523 38.837 23.9982 38.837 24.3372C40.1005 24.3363 41.3097 24.3363 42.554 24.3363Z" fill="#4583E6"/>
<path d="M36.6689 41.7957C36.6689 40.6506 36.668 39.5064 36.6689 38.3614C36.6698 37.7924 36.8524 37.6133 37.4276 37.6115C38.0115 37.6097 38.5955 37.608 39.1794 37.6124C39.6641 37.6159 39.8784 37.8126 39.8793 38.2832C39.8837 40.6427 39.8837 43.0022 39.8793 45.3616C39.8784 45.8191 39.6668 46.0149 39.2058 46.0185C38.5867 46.0228 37.9676 46.022 37.3486 46.0185C36.8647 46.0158 36.6715 45.8226 36.6698 45.3344C36.6663 44.1551 36.6689 42.9758 36.6689 41.7957ZM38.7772 38.6802C38.5349 38.6802 38.3145 38.6986 38.0976 38.6758C37.7973 38.6441 37.7288 38.768 37.7305 39.0516C37.742 40.8956 37.7358 42.7387 37.7376 44.5828C37.7376 44.696 37.749 44.8093 37.7551 44.9305C38.1125 44.9305 38.4418 44.9305 38.7772 44.9305C38.7772 42.8415 38.7772 40.7815 38.7772 38.6802Z" fill="#4583E6"/>
<path d="M35.049 43.1787C35.049 43.9022 35.0517 44.6258 35.0482 45.3493C35.0455 45.8165 34.8523 46.0149 34.394 46.0185C33.7635 46.0237 33.1339 46.0228 32.5034 46.0185C32.0494 46.0149 31.8413 45.8147 31.8396 45.3511C31.8334 43.8926 31.8334 42.4332 31.8396 40.9738C31.8413 40.5154 32.0442 40.3064 32.5008 40.2967C33.1304 40.2836 33.7609 40.2836 34.3913 40.2967C34.8506 40.3055 35.0464 40.5163 35.0482 40.972C35.0517 41.7079 35.049 42.4428 35.049 43.1787ZM32.946 44.9331C33.2999 44.9331 33.6291 44.9331 33.9584 44.9331C33.9584 43.7389 33.9584 42.571 33.9584 41.4128C33.5984 41.4128 33.2682 41.4128 32.946 41.4128C32.946 42.6026 32.946 43.7626 32.946 44.9331Z" fill="#4583E6"/>
<path d="M41.5043 43.1489C41.5043 42.4139 41.5016 41.6781 41.5051 40.9431C41.5078 40.5242 41.6948 40.3108 42.1163 40.3003C42.7696 40.2827 43.4238 40.2836 44.0762 40.2994C44.4995 40.31 44.7041 40.5111 44.7067 40.9343C44.7172 42.4165 44.7172 43.8988 44.7076 45.381C44.7049 45.8218 44.4889 46.0159 44.0508 46.0194C43.4089 46.0247 42.767 46.0255 42.1251 46.0185C41.7045 46.0141 41.5078 45.813 41.5051 45.3907C41.5007 44.6434 41.5043 43.8961 41.5043 43.1489ZM43.6003 44.9393C43.6003 43.7504 43.6003 42.5816 43.6003 41.4058C43.2464 41.4058 42.9162 41.4058 42.5878 41.4058C42.5878 42.5992 42.5878 43.7688 42.5878 44.9393C42.9382 44.9393 43.2596 44.9393 43.6003 44.9393Z" fill="#4583E6"/>
<path d="M47.3912 44.9594C47.9093 44.9594 48.3853 44.9559 48.8612 44.9603C49.2862 44.9647 49.5066 45.1438 49.5136 45.4748C49.5206 45.8155 49.2792 46.0166 48.8489 46.0184C48.2298 46.0219 47.6108 46.0228 46.9917 46.0184C46.521 46.0149 46.3402 45.8313 46.3358 45.3581C46.3314 44.9023 46.3296 44.4466 46.3375 43.9917C46.3445 43.6308 46.543 43.4245 46.86 43.4236C47.1708 43.4227 47.3746 43.6387 47.3886 43.9926C47.3948 44.1445 47.3904 44.2964 47.3904 44.4483C47.3912 44.5985 47.3912 44.7504 47.3912 44.9594Z" fill="#4583E6"/>
<path d="M52.6019 42.5008C55.0281 42.5193 56.9371 40.2327 56.4656 37.8451C56.405 37.5387 56.2979 37.241 56.2057 36.9424C56.0871 36.5613 56.1732 36.2856 56.4568 36.1653C56.7527 36.0397 57.039 36.189 57.2032 36.5543C58.4905 39.4248 56.7396 42.8029 53.6355 43.4378C50.4576 44.0876 47.5309 41.6394 47.6161 38.4018C47.6802 35.9739 49.5444 33.9253 51.953 33.6056C53.228 33.437 54.3792 33.7321 55.44 34.4355C55.8307 34.6936 55.9422 34.9755 55.7622 35.2679C55.5849 35.5577 55.2582 35.5954 54.8753 35.3346C53.9147 34.6813 52.8671 34.4873 51.7388 34.7279C49.9711 35.1037 48.7049 36.7027 48.6988 38.5538C48.6926 40.3907 49.9711 42.0038 51.7379 42.3779C52.0224 42.4376 52.3139 42.4604 52.6019 42.5008Z" fill="#4583E6"/>
<defs>
<filter id="filter0_d_138_8099" x="0" y="0" width="86" height="86" filterUnits="userSpaceOnUse" color-interpolation-filters="sRGB">
<feFlood flood-opacity="0" result="BackgroundImageFix"/>
<feColorMatrix in="SourceAlpha" type="matrix" values="0 0 0 0 0 0 0 0 0 0 0 0 0 0 0 0 0 0 127 0" result="hardAlpha"/>
<feOffset dy="4"/>
<feGaussianBlur stdDeviation="4"/>
<feColorMatrix type="matrix" values="0 0 0 0 0.0627451 0 0 0 0 0.0941176 0 0 0 0 0.156863 0 0 0 0.04 0"/>
<feBlend mode="normal" in2="BackgroundImageFix" result="effect1_dropShadow_138_8099"/>
<feBlend mode="normal" in="SourceGraphic" in2="effect1_dropShadow_138_8099" result="shape"/>
</filter>
</defs>
</svg>
