<svg width="43" height="40" viewBox="0 0 43 40" fill="none" xmlns="http://www.w3.org/2000/svg">
<path d="M43 10.3844C42.7207 11.3492 42.4638 12.322 42.1564 13.2778C41.5978 15.0171 40.1081 15.805 38.3648 15.3158C36.7001 14.848 35.0354 14.3791 33.3696 13.9147C32.038 13.5439 31.2034 12.7041 31.0497 11.3053C30.9993 10.8465 31.1193 10.3618 31.2057 9.89632C31.3066 9.34626 31.4625 8.80635 31.5803 8.25855C31.752 7.45262 31.3941 7.00851 30.582 7.00626C29.6587 7.00401 28.7355 7.00626 27.8123 7.00626C22.7194 7.00626 17.6266 7.00626 12.5337 7.00626C11.5679 7.00626 11.2314 7.44585 11.4546 8.39831C11.6206 9.1073 11.8102 9.81291 11.928 10.5298C12.1793 12.0537 11.3379 13.403 9.85943 13.838C8.08029 14.3622 6.29667 14.8705 4.5052 15.3496C2.8876 15.7824 1.41809 14.9776 0.88188 13.3838C0.45785 12.1247 -0.00993538 10.8815 0.00016059 9.51083C0.0248396 6.13044 2.13714 3.22122 5.35327 2.19324C8.19697 1.28361 11.1169 0.766235 14.0751 0.423575C17.7814 -0.00587731 21.4967 -0.102815 25.2165 0.105712C29.422 0.342418 33.5883 0.87106 37.611 2.18985C40.6196 3.17613 42.3819 5.28507 42.9237 8.42086C42.9349 8.48736 42.9731 8.54936 42.9989 8.61248C43 9.20312 43 9.79375 43 10.3844ZM10.0714 8.27545C10.0053 6.60047 11.0934 5.6638 12.7446 5.70325C15.8766 5.77877 19.0131 5.72467 22.1473 5.72467C24.9877 5.72467 27.828 5.71903 30.6683 5.72804C32.0133 5.73255 32.9096 6.62753 32.9108 7.96886C32.9108 8.25854 33.0443 8.3104 33.2641 8.37126C35.2654 8.92809 37.2655 9.49393 39.2656 10.0564C40.0385 10.2739 40.8103 10.4915 41.5709 10.7056C41.6101 10.6335 41.6303 10.6098 41.6348 10.5839C42.1777 7.51461 40.3874 4.43969 37.4259 3.4737C33.2372 2.10757 28.9027 1.56766 24.5255 1.36364C20.9022 1.19456 17.2845 1.30615 13.6802 1.76716C11.1854 2.08615 8.72083 2.54491 6.29779 3.23361C3.67621 3.97867 1.97897 5.61082 1.3934 8.3228C1.22401 9.10618 1.20719 9.89858 1.42145 10.709C1.93298 10.5681 2.41422 10.4317 2.89658 10.3032C3.38231 10.1725 3.72108 10.3314 3.82989 10.7338C3.92861 11.0956 3.69977 11.4101 3.22975 11.5465C2.75075 11.6851 2.27062 11.8148 1.75349 11.9591C1.91166 12.4167 2.02833 12.8495 2.20893 13.2542C2.51518 13.9417 3.30715 14.3419 4.01948 14.148C5.86255 13.6453 7.70225 13.1257 9.53523 12.5891C10.307 12.3637 10.7423 11.7336 10.6817 10.9356C10.6458 10.4678 10.5134 10.0068 10.4192 9.52211C9.01024 9.91549 7.65514 10.2976 6.29892 10.6718C5.89844 10.7823 5.5608 10.6031 5.46769 10.2536C5.36898 9.88167 5.53836 9.58185 5.94445 9.4511C6.31575 9.33162 6.6949 9.23242 7.06958 9.12647C8.07469 8.84017 9.07867 8.55612 10.0714 8.27545ZM41.2512 11.9557C38.3503 11.1385 35.4976 10.3348 32.6023 9.51985C32.5069 9.9617 32.3802 10.3788 32.3331 10.8048C32.2343 11.7021 32.6741 12.3637 33.5446 12.6151C35.3237 13.1291 37.1084 13.6284 38.8943 14.1165C39.7457 14.3498 40.5377 13.9372 40.8597 13.1144C41.0021 12.7526 41.1098 12.3772 41.2512 11.9557Z" fill="#4583E6"/>
<path d="M19.7412 12.401C20.9348 12.401 22.0666 12.401 23.268 12.401C23.268 12.1823 23.2658 11.9648 23.268 11.7472C23.277 10.8184 23.903 10.0891 24.8296 10.0373C25.736 9.98657 26.6491 9.98544 27.5555 10.035C28.5022 10.0869 29.1316 10.8195 29.1428 11.7698C29.1428 11.7979 29.1461 11.8261 29.1428 11.8543C29.0743 12.3266 29.2505 12.5802 29.6779 12.8654C30.4743 13.3985 31.1721 14.0861 31.8967 14.7263C33.5368 16.1736 35.1678 17.6299 36.8011 19.084C39.0772 21.1118 40.2943 23.6377 40.3156 26.7104C40.3313 28.9884 40.3325 31.2664 40.3145 33.5433C40.2999 35.3434 39.1669 36.7321 37.4271 37.1435C37.307 37.1717 37.1881 37.2089 37.0412 37.2495C37.0412 37.6451 37.0479 38.0374 37.0401 38.4296C37.0221 39.3144 36.3827 39.9784 35.5021 39.9896C34.2704 40.0054 33.0398 40.0009 31.8081 39.9919C30.8636 39.9851 30.2242 39.3438 30.1838 38.3721C30.1692 38.0092 30.1815 37.6451 30.1815 37.254C24.3853 37.254 18.6295 37.254 12.8255 37.254C12.8255 37.609 12.8311 37.9438 12.8243 38.2775C12.8041 39.3595 12.1625 39.9919 11.08 39.9941C9.93239 39.9964 8.78483 39.9975 7.63725 39.9941C6.60298 39.9907 5.97141 39.3528 5.96244 38.3135C5.95907 37.963 5.96244 37.6124 5.96244 37.2371C5.11999 37.0838 4.36953 36.7749 3.7705 36.1629C3.08398 35.4618 2.69248 34.6322 2.69135 33.6391C2.68911 31.1222 2.61171 28.6018 2.71828 26.0893C2.83718 23.3064 4.06103 20.9968 6.13407 19.1493C8.28003 17.2365 10.426 15.3249 12.5831 13.4256C12.9152 13.1325 13.3168 12.9206 13.6679 12.6478C13.7666 12.5712 13.8373 12.4156 13.8552 12.2871C13.9001 11.9557 13.8597 11.6074 13.9382 11.2873C14.1144 10.5693 14.6674 10.0779 15.3977 10.0429C16.3187 9.99897 17.2452 9.98882 18.1651 10.0373C19.1119 10.088 19.7311 10.8195 19.7389 11.7788C19.7423 11.9726 19.7412 12.1665 19.7412 12.401ZM21.5046 35.9521C26.5133 35.9521 31.5221 35.9532 36.5308 35.951C38.0295 35.9498 39.0548 34.9162 39.0559 33.4081C39.0581 31.2146 39.0682 29.0222 39.0536 26.8288C39.0368 24.2227 38.1001 22.0033 36.1673 20.2528C33.9025 18.2014 31.6062 16.1849 29.3234 14.1526C28.9958 13.8618 28.6212 13.713 28.1781 13.713C23.7291 13.7164 19.2813 13.704 14.8323 13.7344C14.4498 13.7367 13.9887 13.9159 13.6993 14.1672C11.3941 16.1725 9.10901 18.2014 6.84303 20.2528C4.89787 22.0146 3.96456 24.2464 3.95446 26.8705C3.94661 29.0211 3.95223 31.1718 3.95335 33.3224C3.95447 34.9478 4.94835 35.951 6.56258 35.951C11.5433 35.9521 16.5239 35.9521 21.5046 35.9521ZM7.22892 37.245C7.22892 37.6271 7.23341 37.9754 7.2278 38.3237C7.22331 38.5931 7.37138 38.7103 7.61593 38.7114C8.78819 38.7159 9.96045 38.7227 11.1327 38.7013C11.264 38.699 11.4905 38.5322 11.504 38.4206C11.55 38.0396 11.522 37.6485 11.522 37.245C10.076 37.245 8.68499 37.245 7.22892 37.245ZM31.485 37.2495C31.485 37.6474 31.4559 38.025 31.5019 38.3947C31.5165 38.513 31.7273 38.6956 31.8507 38.699C33.0365 38.7216 34.2233 38.7216 35.409 38.6979C35.5335 38.6956 35.7455 38.5096 35.7612 38.389C35.8084 38.0205 35.7781 37.6429 35.7781 37.2506C34.3321 37.2495 32.931 37.2495 31.485 37.2495ZM15.1307 12.3829C16.2715 12.3829 17.3664 12.3829 18.4826 12.3829C18.4826 12.2432 18.4826 12.1316 18.4826 12.0211C18.4826 11.4271 18.3637 11.3042 17.7781 11.3031C17.0792 11.302 16.3804 11.3087 15.6815 11.3009C15.3102 11.2963 15.1453 11.4868 15.1318 11.8385C15.1251 12.0065 15.1307 12.1755 15.1307 12.3829ZM27.8797 12.3931C27.8797 12.2533 27.8797 12.1564 27.8797 12.0594C27.883 11.4169 27.7708 11.3031 27.1281 11.3031C26.4427 11.302 25.7584 11.3076 25.073 11.302C24.7039 11.2986 24.5368 11.4868 24.5278 11.8419C24.5233 12.02 24.5267 12.1981 24.5267 12.3931C25.6563 12.3931 26.7411 12.3931 27.8797 12.3931Z" fill="#4583E6"/>
<path d="M21.4983 34.4113C19.4398 34.3549 17.5889 33.7406 15.9287 32.5413C15.5058 32.2358 15.4384 31.8244 15.7424 31.5054C15.9881 31.2473 16.3157 31.2405 16.687 31.5065C17.7022 32.237 18.8195 32.7059 20.0478 32.9437C24.2399 33.7553 28.5262 30.9632 29.4831 26.7736C30.0383 24.3422 29.6098 22.0947 28.1941 20.0432C28.0169 19.7862 27.8845 19.5371 28.0191 19.2283C28.2233 18.7594 28.8077 18.7233 29.142 19.1708C29.9856 20.2991 30.5566 21.5604 30.8112 22.9457C31.7659 28.1397 28.6709 32.9166 23.5657 34.1238C22.8926 34.2828 22.1893 34.3177 21.4983 34.4113Z" fill="#4583E6"/>
<path d="M11.9668 24.7943C12.0251 20.0929 15.4981 16.0486 20.1221 15.3835C22.4038 15.0555 24.5385 15.5064 26.5072 16.7204C26.5902 16.7722 26.6733 16.8241 26.7529 16.8815C27.0962 17.1352 27.1837 17.4778 26.9862 17.7923C26.7966 18.0944 26.4119 18.18 26.063 17.9557C25.1734 17.3797 24.2177 16.9751 23.1834 16.7463C18.7333 15.7623 14.1991 18.8338 13.4285 23.347C13.0673 25.4604 13.4509 27.4183 14.5682 29.2376C14.6052 29.2973 14.6456 29.3548 14.6793 29.4157C14.88 29.7798 14.8094 30.1495 14.5054 30.3434C14.1879 30.5462 13.8491 30.4651 13.6046 30.1055C12.8967 29.0595 12.42 27.912 12.1934 26.671C12.0823 26.0522 12.0408 25.4199 11.9668 24.7943Z" fill="#4583E6"/>
<path d="M26.2222 25.0353C26.8807 25.1852 27.1253 25.3915 27.1163 25.7578C27.1073 26.1298 26.8448 26.3338 26.2054 26.4397C26.2054 26.8658 26.211 27.2998 26.2043 27.7337C26.1976 28.1542 25.9485 28.4292 25.5851 28.436C25.2037 28.4439 24.9513 28.1621 24.9457 27.7146C24.9412 27.2953 24.9445 26.876 24.9445 26.398C24.6731 26.398 24.4263 26.398 24.1806 26.398C23.5232 26.398 22.8648 26.4116 22.2074 26.3935C21.6207 26.3766 21.3167 25.9077 21.5938 25.4118C22.4486 23.8822 23.3168 22.3605 24.2075 20.8512C24.5385 20.2899 24.9995 20.1107 25.4684 20.2538C25.9429 20.3992 26.211 20.7915 26.2189 21.4374C26.2323 22.6299 26.2222 23.8236 26.2222 25.0353ZM23.2372 25.059C23.8452 25.059 24.3814 25.059 24.9199 25.059C24.9199 24.0907 24.9199 23.1518 24.9199 22.0956C24.3309 23.1338 23.8003 24.067 23.2372 25.059Z" fill="#4583E6"/>
<path d="M18.026 27.3664C18.7248 27.3664 19.3631 27.3664 20.0003 27.3664C20.1259 27.3664 20.2538 27.3529 20.3772 27.3743C20.7384 27.4352 20.9729 27.6539 20.9706 28.0247C20.9684 28.3719 20.7496 28.6424 20.4041 28.6469C19.1758 28.6616 17.9463 28.6638 16.7191 28.6097C16.2042 28.5872 15.9855 28.0608 16.2502 27.6054C16.4263 27.3044 16.6529 27.0339 16.8582 26.7499C17.4662 25.9101 18.0843 25.0771 18.6766 24.2273C18.9066 23.8959 19.1118 23.5386 19.2711 23.1688C19.5516 22.5173 19.2779 21.9042 18.6463 21.6697C18.0462 21.4477 17.4426 21.7452 17.2059 22.3821C17.1723 22.4734 17.1555 22.576 17.1061 22.6582C16.93 22.9502 16.6854 23.1147 16.3355 22.9851C16.0045 22.8623 15.8497 22.6075 15.9058 22.257C16.1122 20.9709 17.5055 20.068 18.8123 20.3667C20.1158 20.6643 20.9751 22.0394 20.569 23.2928C20.3828 23.8688 20.0676 24.4166 19.74 24.9306C19.2891 25.6385 18.7708 26.3035 18.2817 26.9877C18.2043 27.0948 18.1325 27.2075 18.026 27.3664Z" fill="#4583E6"/>
</svg>
