<svg width="86" height="86" viewBox="0 0 86 86" fill="none" xmlns="http://www.w3.org/2000/svg">
<g filter="url(#filter0_d_138_8146)">
<circle cx="43" cy="39" r="35" fill="white"/>
</g>
<path d="M63.5587 53.2669C63.4896 53.505 63.4269 53.7463 63.3493 53.9812C62.7403 55.8221 61.0938 56.9903 59.0764 56.9934C55.7612 56.9998 52.446 56.9956 49.1297 56.9956C44.2095 56.9956 39.2893 56.9956 34.3691 56.9956C33.743 56.9956 33.4316 56.7989 33.4178 56.395C33.4039 55.9805 33.7313 55.7647 34.3776 55.7647C42.5599 55.7647 50.7432 55.7594 58.9255 55.7711C60.0734 55.7732 61.0301 55.432 61.7348 54.4977C62.2003 53.8802 62.3661 53.1702 62.3661 52.408C62.364 47.659 62.3651 42.9109 62.3651 38.1618C62.3651 34.9912 62.3651 31.8216 62.3651 28.6509C62.3651 28.4925 62.3651 28.3342 62.3651 28.111C62.211 28.111 62.0728 28.111 61.9335 28.111C60.0235 28.111 58.1145 28.111 56.2044 28.111C56.0982 28.111 55.9908 28.1184 55.8866 28.1056C55.5539 28.0631 55.3297 27.8059 55.3488 27.4807C55.3679 27.1405 55.5539 26.929 55.8951 26.9173C56.4649 26.8982 57.0356 26.9056 57.6054 26.9045C59.0382 26.9035 60.4699 26.9045 61.9027 26.9045C62.0451 26.9045 62.1876 26.9045 62.3215 26.9045C62.6011 25.0115 61.249 23.3406 59.4049 23.2439C59.2593 23.2364 59.1136 23.2322 58.968 23.2322C48.4516 23.2311 37.9351 23.2364 27.4176 23.2258C26.2484 23.2248 25.2897 23.5978 24.5977 24.5555C24.1024 25.24 23.96 26.0213 24.028 26.9056C24.2066 26.9056 24.3734 26.9056 24.5414 26.9056C34.0109 26.9056 43.4793 26.9056 52.9487 26.9056C53.1082 26.9056 53.2676 26.9003 53.426 26.9141C53.7651 26.9439 54.0032 27.1926 54.0032 27.504C54.0032 27.8133 53.7608 28.0748 53.4303 28.1078C53.2984 28.1216 53.1656 28.112 53.0327 28.112C43.5239 28.112 34.0151 28.112 24.5063 28.112C24.3607 28.112 24.2161 28.112 24.0099 28.112C24.0099 28.2683 24.0099 28.4075 24.0099 28.5467C24.0099 36.5048 24.0089 44.4638 24.011 52.4219C24.011 54.0917 24.9389 55.3268 26.4769 55.685C26.782 55.7562 27.1072 55.7583 27.424 55.7605C28.6974 55.7679 29.9707 55.7594 31.243 55.769C31.4354 55.77 31.6948 55.7775 31.8021 55.8933C31.9488 56.0528 32.0562 56.3238 32.0413 56.5375C32.019 56.8542 31.7362 56.986 31.4333 56.9913C30.7966 57.0019 30.1599 57.003 29.5232 56.9934C28.5167 56.9775 27.5037 57.0126 26.5056 56.9137C24.5254 56.7171 22.8269 54.8336 22.8248 52.8502C22.8142 43.9505 22.8131 35.0496 22.8248 26.1499C22.828 23.955 24.7444 22.1055 27.052 22.0056C27.2242 21.9982 27.3964 22.0003 27.5696 22.0003C37.9798 22.0003 48.391 22.0003 58.8011 22.0003C61.3532 22.0003 62.8795 23.1886 63.5141 25.6673C63.5205 25.6907 63.5449 25.7088 63.5609 25.729C63.5587 34.9083 63.5587 44.0876 63.5587 53.2669Z" fill="#4583E6"/>
<path d="M38.5777 34.8244C38.279 33.8986 37.9846 32.9855 37.6806 32.0438C34.8108 33.196 32.5351 35.0189 30.7653 37.5412C31.5572 38.1024 32.331 38.6509 33.1271 39.2153C33.4672 38.7975 33.7978 38.3904 34.1316 37.9855C34.224 37.8728 34.3229 37.7655 34.427 37.6623C34.7204 37.3711 35.0871 37.3488 35.3412 37.6018C35.5931 37.8526 35.575 38.1672 35.3167 38.4914C34.8469 39.0813 34.3431 39.65 33.9339 40.2803C32.8954 41.88 32.3831 43.6593 32.2853 45.5598C32.2523 46.206 31.8963 46.6184 31.25 46.6354C30.1637 46.662 29.0753 46.662 27.9879 46.6365C27.3024 46.6206 26.924 46.1912 26.9505 45.4981C27.1312 40.7714 29.0264 36.8524 32.5691 33.7402C34.916 31.6782 37.6647 30.4133 40.7524 29.9839C45.4781 29.3259 49.7447 30.4781 53.4478 33.5096C56.3092 35.8522 58.165 38.8539 58.958 42.4731C59.1748 43.4627 59.2481 44.4873 59.3342 45.4992C59.3927 46.188 58.9888 46.6206 58.3043 46.6365C57.218 46.662 56.1296 46.662 55.0433 46.6354C54.3981 46.6195 54.0367 46.2071 54.0101 45.5598C53.7975 40.4323 49.9849 36.1126 44.901 35.2984C42.2713 34.8775 39.7905 35.3569 37.4967 36.7376C37.3947 36.7993 37.298 36.8705 37.1917 36.9247C36.8739 37.0841 36.5348 36.9895 36.3669 36.7015C36.201 36.4177 36.2542 36.0956 36.5667 35.9054C37.0854 35.5886 37.6285 35.3133 38.1632 35.0231C38.2897 34.9519 38.4236 34.8967 38.5777 34.8244ZM48.6127 32.0395C48.3044 32.9994 48.0132 33.9103 47.7177 34.8308C49.9721 35.7799 51.7599 37.2457 53.1481 39.2291C53.958 38.6551 54.7329 38.1066 55.5301 37.5422C53.7699 35.0306 51.4963 33.2034 48.6127 32.0395ZM47.4637 31.6399C44.5619 30.8183 41.7154 30.813 38.8328 31.6452C39.1368 32.5891 39.4302 33.5 39.7299 34.429C42.029 33.7732 44.2866 33.7753 46.5676 34.4268C46.8652 33.5 47.1554 32.5986 47.4637 31.6399ZM31.081 45.3844C31.1862 43.5466 31.6815 41.8619 32.5138 40.2675C31.7028 39.6936 30.9279 39.1451 30.1201 38.5743C28.9031 40.7108 28.2685 42.9631 28.1569 45.3855C29.1518 45.3844 30.101 45.3844 31.081 45.3844ZM58.1406 45.3865C58.0173 42.9471 57.3881 40.7002 56.1742 38.5754C55.3579 39.1547 54.5756 39.7085 53.7784 40.2739C54.6394 41.8917 55.1049 43.5849 55.2176 45.3876C56.1965 45.3865 57.1457 45.3865 58.1406 45.3865Z" fill="#4583E6"/>
<path d="M39.9854 46.8394C39.9939 45.954 40.4456 45.0643 41.3491 44.4584C42.7 43.5528 44.0818 42.6929 45.4604 41.8288C46.1587 41.3909 47.0038 41.7129 47.1993 42.4836C47.2461 42.6674 47.2365 42.8811 47.1972 43.0692C46.9187 44.4138 46.6243 45.7552 46.3384 47.0987C46.2895 47.3304 46.2746 47.5706 46.2183 47.8002C45.8431 49.3361 44.3433 50.4118 42.8488 50.2226C41.1737 50.009 39.9917 48.7016 39.9854 46.8394ZM45.1001 47.0679C45.1033 45.9784 44.2211 45.0941 43.1379 45.1015C42.0655 45.1089 41.1971 45.9773 41.1939 47.0466C41.1907 48.1404 42.0655 49.0151 43.156 49.0088C44.2317 49.0013 45.0969 48.1382 45.1001 47.0679ZM44.2933 44.0322C44.7238 44.3309 45.132 44.6136 45.5603 44.9112C45.6953 44.2841 45.8324 43.6506 45.9855 42.9353C45.3754 43.3307 44.8365 43.6804 44.2933 44.0322Z" fill="#4583E6"/>
<path d="M30.1496 24.5352C30.6024 24.5384 30.8607 24.7637 30.8532 25.1506C30.8458 25.5343 30.5928 25.7352 30.1188 25.732C29.6575 25.7288 29.4087 25.512 29.4162 25.1198C29.4247 24.7361 29.6798 24.533 30.1496 24.5352Z" fill="#4583E6"/>
<path d="M33.043 25.7333C32.5891 25.7301 32.3266 25.5005 32.3383 25.1168C32.35 24.7437 32.6199 24.5322 33.0812 24.5364C33.5223 24.5407 33.803 24.7841 33.7913 25.1551C33.7796 25.5207 33.5011 25.7365 33.043 25.7333Z" fill="#4583E6"/>
<path d="M27.178 25.7333C26.7507 25.728 26.486 25.5058 26.4796 25.1476C26.4722 24.7607 26.7549 24.5312 27.2322 24.5365C27.6775 24.5407 27.9401 24.7788 27.9241 25.1636C27.9103 25.542 27.6542 25.7386 27.178 25.7333Z" fill="#4583E6"/>
<defs>
<filter id="filter0_d_138_8146" x="0" y="0" width="86" height="86" filterUnits="userSpaceOnUse" color-interpolation-filters="sRGB">
<feFlood flood-opacity="0" result="BackgroundImageFix"/>
<feColorMatrix in="SourceAlpha" type="matrix" values="0 0 0 0 0 0 0 0 0 0 0 0 0 0 0 0 0 0 127 0" result="hardAlpha"/>
<feOffset dy="4"/>
<feGaussianBlur stdDeviation="4"/>
<feColorMatrix type="matrix" values="0 0 0 0 0.0627451 0 0 0 0 0.0941176 0 0 0 0 0.156863 0 0 0 0.04 0"/>
<feBlend mode="normal" in2="BackgroundImageFix" result="effect1_dropShadow_138_8146"/>
<feBlend mode="normal" in="SourceGraphic" in2="effect1_dropShadow_138_8146" result="shape"/>
</filter>
</defs>
</svg>
