<svg width="40" height="40" viewBox="0 0 40 40" fill="none" xmlns="http://www.w3.org/2000/svg">
<path d="M35.8423 0.00417159C35.8496 0.0156497 35.8538 0.032345 35.8632 0.0365189C37.6256 0.730426 38.1452 1.98676 37.3898 3.73249C37.2979 3.94536 37.2082 4.15822 37.107 4.393C37.4972 4.5537 37.7842 4.76866 37.7331 5.23404C37.7278 5.28413 37.8698 5.36865 37.9574 5.4083C38.2642 5.54813 38.5783 5.6723 38.8882 5.80586C39.4944 6.06673 39.5998 6.32969 39.339 6.93594C37.9282 10.2166 36.5164 13.4962 35.1056 16.7759C34.972 17.0858 34.8427 17.3978 34.7028 17.7045C34.5234 18.0979 34.1957 18.2513 33.8587 18.1105C33.5237 17.9706 33.4037 17.6232 33.5748 17.2204C34.2875 15.5487 35.0065 13.8792 35.7244 12.2096C36.4934 10.4211 37.2625 8.63367 38.0471 6.80864C37.7811 6.68968 37.5254 6.57594 37.2239 6.44238C37.1466 6.61142 37.0767 6.75646 37.0131 6.90464C33.2639 15.5821 29.5168 24.2607 25.7613 32.935C25.657 33.1771 25.4942 33.414 25.3043 33.5966C24.1659 34.686 23.0087 35.7545 21.864 36.8366C21.4101 37.2654 20.8988 37.4 20.3259 37.1433C19.7583 36.8887 19.5068 36.4275 19.511 35.8004C19.5214 34.1987 19.5089 32.5969 19.5193 30.9963C19.5203 30.7834 19.5725 30.557 19.657 30.3608C22.681 23.3382 25.7123 16.3188 28.7363 9.29627C28.825 9.08966 28.8792 8.84966 28.8803 8.62427C28.8917 6.8535 28.8615 5.08274 28.8959 3.31197C28.9178 2.14537 28.1363 1.21981 26.8142 1.22503C18.9746 1.25112 11.135 1.25112 3.29649 1.22503C2.0485 1.22086 1.2252 2.07859 1.22729 3.32345C1.24294 14.4427 1.24294 25.5619 1.22729 36.6811C1.2252 37.8717 1.98902 38.7868 3.3351 38.7816C11.1486 38.7534 18.9621 38.7524 26.7745 38.7816C28.1791 38.7868 28.9137 37.8247 28.898 36.655C28.8625 34.0119 28.8865 31.3688 28.8865 28.7257C28.8865 28.6088 28.8803 28.4909 28.8907 28.374C28.9189 28.0589 29.1077 27.8732 29.4072 27.8262C29.714 27.7792 29.9457 27.9222 30.0552 28.2102C30.1084 28.3511 30.1189 28.5149 30.1189 28.6683C30.122 31.3761 30.1262 34.0849 30.1199 36.7927C30.1157 38.4205 29.1432 39.6351 27.5968 39.9524C27.3829 39.9962 27.1575 39.9983 26.9373 39.9983C19.0195 40.0004 11.1027 40.0004 3.18484 39.9993C1.3692 39.9993 0.066949 38.7325 0.00225389 36.9086C-0.000876514 36.8178 0.000166955 36.7259 0.000166955 36.6352C0.000166955 25.542 0.000166955 14.4489 0.000166955 3.3558C0.000166955 1.80833 0.722248 0.668864 2.0078 0.185737C2.18832 0.117912 2.37406 0.062607 2.55667 0.00208579C10.8909 0.00208579 19.225 0.00208579 27.5592 0.00208579C27.6051 0.0250421 27.649 0.0563477 27.697 0.0688694C29.0608 0.427823 29.9164 1.33251 30.0709 2.72345C30.1606 3.53319 30.1095 4.35753 30.121 5.17561C30.1241 5.41143 30.121 5.64621 30.121 5.88204C30.242 5.79647 30.2879 5.70882 30.3276 5.61699C30.6573 4.85631 30.9891 4.09666 31.3136 3.33284C31.5129 2.86224 31.8552 2.55337 32.3634 2.52415C32.6451 2.5085 32.7453 2.38328 32.8183 2.15894C33.1637 1.10295 33.7731 0.299476 34.9032 0C35.2173 0.00417388 35.5303 0.00417159 35.8423 0.00417159ZM24.768 32.143C26.8319 27.3639 28.8813 22.6172 30.9411 17.8496C29.6514 17.2934 28.394 16.7508 27.1085 16.1967C25.0424 20.9831 22.993 25.7288 20.9374 30.4923C22.2438 31.0547 23.4908 31.5921 24.768 32.143ZM32.4823 3.75649C30.8493 7.53594 29.2319 11.282 27.5999 15.0594C28.8907 15.6166 30.1502 16.1613 31.4316 16.7143C33.0625 12.938 34.684 9.18253 36.3139 5.40935C35.0221 4.85318 33.7658 4.31057 32.4823 3.75649ZM20.7798 35.9987C20.8101 36.0216 20.8403 36.0446 20.8716 36.0675C21.8995 35.1054 22.9273 34.1423 23.9854 33.151C22.8918 32.6804 21.8504 32.2307 20.7798 31.7695C20.7798 33.2147 20.7798 34.6067 20.7798 35.9987ZM35.9613 3.90988C36.1272 3.52693 36.3077 3.16797 36.4392 2.79232C36.6437 2.21007 36.3515 1.57355 35.8006 1.32938C35.2767 1.09669 34.634 1.28764 34.347 1.80103C34.1414 2.16833 33.9933 2.56798 33.8075 2.98119C34.5432 3.2984 35.2413 3.59893 35.9613 3.90988Z" fill="#4583E6"/>
<path d="M21.1096 6.39969C21.1096 5.78509 21.1096 5.21953 21.1096 4.62997C17.038 4.62997 12.9831 4.62997 8.90312 4.62997C8.90312 5.20075 8.90312 5.76735 8.90312 6.39865C9.0346 6.39865 9.17025 6.39865 9.3059 6.39865C11.3229 6.39865 13.341 6.39865 15.358 6.39865C15.4885 6.39865 15.6189 6.39552 15.7483 6.40804C16.0832 6.44039 16.269 6.64491 16.2971 6.96421C16.3243 7.27099 16.1667 7.49116 15.8693 7.58194C15.7358 7.62264 15.5886 7.63412 15.4467 7.63412C13.2857 7.63725 11.1257 7.63829 8.96468 7.63516C8.03182 7.63412 7.63739 7.23447 7.63635 6.30474C7.63635 5.70579 7.63217 5.10788 7.63739 4.50893C7.64365 3.82858 8.07982 3.36841 8.75077 3.36841C12.9163 3.3632 17.0808 3.3632 21.2463 3.36841C21.8766 3.36946 22.3138 3.76389 22.343 4.39936C22.3774 5.12666 22.3764 5.85709 22.343 6.58439C22.3148 7.21568 21.9058 7.60594 21.2515 7.62681C20.3677 7.65499 19.4818 7.64664 18.5969 7.62994C18.1639 7.6216 17.9239 7.35134 17.9437 6.96838C17.9615 6.6063 18.1994 6.40491 18.6397 6.40074C19.4474 6.39552 20.254 6.39969 21.1096 6.39969Z" fill="#4583E6"/>
<path d="M15.0465 15.17C11.9881 15.17 8.9297 15.17 5.87129 15.17C5.72833 15.17 5.58329 15.1762 5.44242 15.1595C5.12416 15.122 4.95095 14.9112 4.92173 14.6159C4.89147 14.3143 5.04486 14.0837 5.34225 13.9919C5.48729 13.947 5.65007 13.9418 5.80451 13.9418C11.9735 13.9397 18.1425 13.9397 24.3115 13.9397C24.3637 13.9397 24.4158 13.9387 24.468 13.9408C24.925 13.9585 25.2141 14.2037 25.211 14.5689C25.2078 14.9404 24.9292 15.17 24.4576 15.17C21.3199 15.171 18.1832 15.17 15.0465 15.17Z" fill="#4583E6"/>
<path d="M15.0631 11.3488C11.9921 11.3488 8.92017 11.3488 5.84924 11.3488C5.21168 11.3488 4.90594 11.1453 4.9122 10.73C4.91846 10.3158 5.23151 10.1113 5.86385 10.1113C11.9932 10.1113 18.1236 10.1102 24.2529 10.1133C24.4334 10.1133 24.6223 10.1186 24.7924 10.1707C25.0699 10.2563 25.2192 10.4765 25.2025 10.7645C25.1847 11.065 25.0178 11.2779 24.7058 11.33C24.5534 11.3551 24.3948 11.3499 24.2383 11.3499C21.1799 11.3499 18.1215 11.3488 15.0631 11.3488Z" fill="#4583E6"/>
<path d="M12.8698 18.9974C10.5397 18.9974 8.20858 18.9974 5.87851 18.9974C5.74807 18.9974 5.61764 18.9985 5.48825 18.9901C5.15017 18.9682 4.95712 18.7606 4.92269 18.4486C4.88721 18.1293 5.05312 17.8945 5.37138 17.8079C5.51955 17.7682 5.67921 17.7609 5.83364 17.7609C10.5334 17.7588 15.2332 17.7588 19.934 17.7588C20.0123 17.7588 20.0906 17.7557 20.1678 17.762C20.5925 17.7985 20.8565 18.0614 20.8356 18.4235C20.8147 18.7731 20.558 18.9943 20.1344 18.9953C17.9212 18.9995 15.708 18.9974 13.4948 18.9974C13.2861 18.9974 13.0774 18.9974 12.8698 18.9974Z" fill="#4583E6"/>
<path d="M7.51977 31.6462C8.27316 31.6483 8.9462 31.8862 9.53993 32.3475C9.81749 32.5624 10.0763 32.8045 10.3705 32.9944C11.463 33.6987 12.4992 33.632 13.2662 32.481C13.3309 32.384 13.3893 32.2817 13.4561 32.1868C13.6804 31.8675 14.0049 31.7819 14.3013 31.9593C14.5935 32.1335 14.6968 32.4821 14.5121 32.8087C13.5135 34.5784 11.9274 35.1857 10.0742 34.2487C9.66202 34.041 9.29993 33.7269 8.93472 33.4368C7.6836 32.4435 6.21961 32.7784 5.56014 34.2205C5.38066 34.6128 5.09162 34.762 4.7598 34.6326C4.3998 34.4928 4.27563 34.1808 4.41545 33.7676C4.84536 32.4988 6.09022 31.6483 7.51977 31.6462Z" fill="#4583E6"/>
<path d="M9.30215 22.8196C8.09277 22.8196 6.88235 22.8206 5.67296 22.8185C5.19923 22.8175 4.92062 22.5973 4.91228 22.2248C4.90393 21.8523 5.21175 21.5883 5.68757 21.5872C8.1199 21.5841 10.5533 21.5831 12.9856 21.5872C13.4802 21.5883 13.7452 21.8314 13.7317 22.2373C13.7192 22.6203 13.4656 22.8164 12.971 22.8175C11.748 22.8206 10.5251 22.8196 9.30215 22.8196Z" fill="#4583E6"/>
</svg>
