<svg width="80" height="80" viewBox="0 0 80 80" fill="none" xmlns="http://www.w3.org/2000/svg">
<circle cx="40" cy="40" r="40" fill="white"/>
<path d="M21 51.8476C21 43.323 21 34.7983 21 26.2737C21.3933 25.0899 22.2269 24.6302 23.4485 24.672C24.8131 24.719 26.1807 24.6793 27.5474 24.6866C27.7706 24.6877 27.9011 24.649 27.9574 24.3951C28.092 23.7829 28.4154 23.2678 28.8587 22.8269C29.4221 22.2658 29.9813 21.7027 30.5436 21.1405C32.0698 19.6172 34.0562 19.6193 35.5877 21.15C36.6841 22.2449 37.7722 23.3493 38.8801 24.4338C39.0189 24.5696 39.2557 24.6678 39.4497 24.672C40.5159 24.695 41.5842 24.6751 42.6514 24.6887C42.9206 24.6919 43.1105 24.6104 43.2993 24.4192C44.5334 23.1675 45.7749 21.9221 47.0226 20.6829C47.876 19.8356 49.1028 19.776 49.9291 20.5805C51.2352 21.8531 52.5028 23.1633 53.8006 24.4453C53.9278 24.5717 54.1448 24.671 54.3222 24.6731C55.8182 24.6908 57.3163 24.7096 58.8123 24.6762C60.2739 24.6438 61.0031 25.8171 60.9989 26.8776C60.9697 34.9718 60.9666 43.0659 61 51.1601C61.0052 52.4358 60.0944 53.4284 58.7351 53.4159C54.9867 53.3824 51.2384 53.4044 47.491 53.4044C47.3398 53.4044 47.1895 53.4044 47.0226 53.4044C47.152 54.3019 47.5182 55.0311 48.0763 55.6768C48.3173 55.9558 48.5718 56.1052 48.9714 56.1157C50.3912 56.1522 51.2968 57.4791 50.8096 58.7538C50.4997 59.5656 49.807 59.9992 48.8013 59.9992C43.6603 60.0003 38.5202 60.0003 33.3791 59.9992C33.2101 59.9992 33.0401 60.0013 32.8721 59.9898C32.1001 59.9386 31.5493 59.5489 31.23 58.8551C30.6302 57.5491 31.5618 56.1564 33.0578 56.0979C33.232 56.0906 33.4553 56.0937 33.57 55.9934C34.3462 55.3164 34.8115 54.4617 34.9617 53.4033C34.7677 53.4033 34.6122 53.4033 34.4568 53.4033C30.6823 53.4033 26.9079 53.4044 23.1345 53.4023C22.1246 53.4012 21.4309 52.9102 21.0824 51.9709C21.0616 51.9259 21.0261 51.8883 21 51.8476ZM41.0083 39.8145C40.903 39.9702 40.8383 40.1049 40.7392 40.2042C38.8405 42.1183 36.9397 44.0293 35.0358 45.9381C34.0311 46.9443 32.8836 46.9443 31.8862 45.9444C30.746 44.8014 29.6068 43.6563 28.4675 42.5122C27.4045 41.4454 27.4003 40.3348 28.4571 39.2743C30.3516 37.3759 32.2472 35.4764 34.1459 33.5811C34.245 33.4819 34.3785 33.4171 34.5987 33.2646C34.3733 33.1057 34.2419 33.0368 34.1417 32.9365C32.6384 31.4382 31.1382 29.9358 29.6391 28.4333C28.9349 27.7281 28.1493 27.0824 27.9386 26.0345C26.355 26.0345 24.8204 26.0345 23.2847 26.0345C22.5367 26.0345 22.3322 26.2361 22.3322 26.9779C22.3322 34.0806 22.3322 41.1832 22.3322 48.2869C22.3322 48.4237 22.3322 48.5596 22.3322 48.7152C23.2284 48.7152 24.0609 48.7121 24.8934 48.7163C25.3712 48.7184 25.6852 48.9942 25.6769 49.3912C25.6696 49.7883 25.3566 50.0453 24.8725 50.0474C24.3394 50.0495 23.8053 50.0474 23.2722 50.0474C22.9655 50.0474 22.6598 50.0474 22.3322 50.0474C22.3322 50.3911 22.3322 50.6764 22.3322 50.9616C22.3322 51.8779 22.4835 52.0325 23.389 52.0325C35.1265 52.0325 46.8651 52.0325 58.6026 52.0325C58.733 52.0325 58.8624 52.0315 58.9928 52.0273C59.3621 52.0148 59.5968 51.8068 59.6271 51.46C59.6678 51.0002 59.6365 50.5343 59.6365 50.0474C59.4278 50.0474 59.2598 50.0474 59.0929 50.0474C48.721 50.0474 38.3502 50.0474 27.9782 50.0474C27.8478 50.0474 27.7174 50.0557 27.5881 50.0432C27.2407 50.0087 27.0028 49.735 27.0018 49.3829C27.0007 49.0276 27.2334 48.757 27.5849 48.7226C27.7393 48.7069 27.8969 48.7152 28.0534 48.7152C38.4117 48.7152 48.77 48.7152 59.1284 48.7152C59.2922 48.7152 59.457 48.7152 59.6511 48.7152C59.6511 48.5219 59.6511 48.3809 59.6511 48.2399C59.6511 41.1633 59.6511 34.0868 59.6511 27.0093C59.6511 26.9184 59.6552 26.8264 59.649 26.7355C59.6166 26.2915 59.3642 26.0386 58.9239 26.0365C57.4404 26.0313 55.9569 26.0345 54.4734 26.0365C54.4119 26.0365 54.3514 26.0585 54.2898 26.071C54.3211 26.0961 54.3514 26.1222 54.3827 26.1473C54.1313 26.5307 53.9299 26.9612 53.6201 27.2872C52.6238 28.3341 51.5899 29.3455 50.5665 30.3662C49.6078 31.3212 48.6438 32.2709 47.6715 33.2343C47.7957 33.3649 47.8812 33.4599 47.972 33.5508C49.2228 34.8046 50.4799 36.0532 51.7193 37.3174C51.9029 37.5044 52.0657 37.751 52.1397 37.9996C52.7855 40.1509 53.4041 42.3105 54.0436 44.4639C54.2085 45.0187 54.1793 45.5286 53.763 45.9517C53.3374 46.3853 52.8262 46.4334 52.2514 46.2599C50.1398 45.6247 48.02 45.0197 45.9116 44.3772C45.6049 44.2831 45.2971 44.0909 45.0665 43.8663C43.7343 42.5634 42.4271 41.2375 41.0083 39.8145ZM32.5842 37.1638C31.9374 37.8116 31.325 38.4259 30.6969 39.0559C30.6907 39.0267 30.6886 39.0434 30.6969 39.0518C30.9598 39.3224 31.2248 39.5909 31.4867 39.8625C31.833 40.222 31.8581 40.5981 31.5587 40.8938C31.2728 41.1759 30.8732 41.1456 30.5248 40.806C30.2483 40.5364 29.9802 40.2575 29.7006 39.9733C29.6036 40.06 29.5337 40.1175 29.4701 40.1802C28.866 40.7715 28.865 41.0003 29.4607 41.598C30.5728 42.7138 31.6859 43.8297 32.7991 44.9445C33.3061 45.4523 33.6086 45.4533 34.1115 44.9476C36.0143 43.0388 37.9162 41.1299 39.819 39.22C39.9088 39.1291 39.9933 39.033 40.0579 38.965C38.491 37.3905 36.9418 35.8348 35.4458 34.3313C34.824 34.954 34.1855 35.5924 33.5147 36.2642C33.7735 36.5108 34.0739 36.7803 34.3535 37.0698C34.6665 37.3937 34.6717 37.8043 34.391 38.0759C34.1156 38.3423 33.7046 38.3214 33.3854 38.0059C33.0974 37.7196 32.8272 37.4198 32.5842 37.1638ZM46.7587 32.2511C48.6824 30.3297 50.6281 28.3727 52.5915 26.4346C52.9889 26.0418 53.1099 25.7012 52.5675 25.1422C51.5148 24.0598 50.4382 23.0003 49.3741 21.9304C48.5969 21.1489 48.3778 21.1583 47.6381 22.0109C47.6423 22.0224 47.6444 22.038 47.6527 22.0464C47.924 22.3264 48.1994 22.6033 48.4686 22.8854C48.8003 23.2344 48.8233 23.6366 48.5322 23.9208C48.2453 24.2008 47.8426 24.1684 47.4994 23.8278C47.2177 23.5488 46.9444 23.2594 46.6961 23.0045C46.0493 23.6491 45.4432 24.2541 44.7682 24.9269C45.0488 25.1819 45.3555 25.441 45.6393 25.7241C45.9731 26.0564 45.9867 26.4346 45.7019 26.7251C45.4317 27.0009 45.0154 26.9915 44.6983 26.6781C44.4124 26.396 44.1475 26.094 43.9065 25.8359C43.2763 26.4649 42.69 27.049 42.1215 27.6153C43.653 29.1449 45.2053 30.6974 46.7587 32.2511ZM37.3956 28.5451C40.7507 31.9042 44.1047 35.2612 47.4608 38.6203C47.7539 37.7384 48.358 37.122 49.2239 36.8535C45.8563 33.4777 42.496 30.1103 39.1701 26.7763C38.5901 27.354 37.985 27.9579 37.3956 28.5451ZM46.3956 39.6431C43.0447 36.2903 39.6886 32.9323 36.3649 29.6056C35.7754 30.1928 35.162 30.8051 34.5882 31.3776C37.9214 34.7158 41.2775 38.077 44.6253 41.4298C45.0686 40.4518 45.1396 40.3797 46.3956 39.6431ZM35.3112 56.0707C39.0846 56.0707 42.9112 56.0707 46.67 56.0707C46.3341 55.192 45.9992 54.3165 45.6581 53.4242C42.5523 53.4242 39.3965 53.4242 36.3231 53.4242C35.9757 54.3342 35.644 55.2004 35.3112 56.0707ZM40.9906 57.3266C38.4263 57.3266 35.8631 57.3255 33.2988 57.3297C33.1193 57.3297 32.9316 57.3412 32.7615 57.3945C32.4204 57.5021 32.266 57.7654 32.292 58.1154C32.3171 58.4498 32.4997 58.6744 32.8345 58.7434C32.9858 58.7747 33.1444 58.781 33.2998 58.781C38.4274 58.7831 43.5549 58.7831 48.6824 58.781C48.8379 58.781 48.9964 58.7747 49.1477 58.7423C49.4826 58.6733 49.6652 58.4487 49.6891 58.1144C49.7142 57.7633 49.5598 57.5011 49.2186 57.3945C49.0496 57.3412 48.8619 57.3308 48.6814 57.3308C46.1181 57.3255 43.5538 57.3266 40.9906 57.3266ZM35.838 23.3451C35.3362 22.8373 34.8626 22.317 34.3441 21.8448C33.6128 21.1782 32.483 21.1834 31.7527 21.8656C31.0402 22.5312 30.3516 23.2239 29.685 23.9354C29.0841 24.5759 28.9725 25.581 29.4951 26.2748C29.9813 26.9194 30.5905 27.4711 31.1288 28.0457C32.726 26.4524 34.2711 24.9102 35.838 23.3451ZM51.8508 41.8007C51.5294 40.6953 51.2185 39.6128 50.8931 38.5346C50.8597 38.4249 50.7564 38.311 50.6552 38.2514C49.8102 37.7635 48.7398 38.3789 48.7095 39.3527C48.697 39.7748 48.8838 40.0934 49.1373 40.4058C49.3626 40.6838 49.3282 41.0557 49.0935 41.2918C48.8462 41.5416 48.5145 41.5666 48.2098 41.3535C48.1034 41.2793 48.0085 41.1884 47.899 41.1205C47.1635 40.6691 46.2298 40.9972 45.9533 41.8017C45.7165 42.4882 45.971 42.9918 46.6575 43.1934C47.4399 43.4233 48.2213 43.6542 49.0048 43.8819C49.5661 44.0449 49.5692 44.046 49.8592 43.5298C50.314 42.718 50.9995 42.1674 51.8508 41.8007ZM32.1877 29.032C32.6384 29.4823 33.088 29.9326 33.474 30.3203C35.0243 28.7698 36.5839 27.212 38.1259 25.6698C37.7127 25.2529 37.2652 24.8005 36.8406 24.3711C35.2956 25.9195 33.7453 27.4721 32.1877 29.032ZM50.9097 44.4514C51.5513 44.6384 52.1408 44.8087 52.7907 44.9978C52.5925 44.3343 52.4151 43.7388 52.2284 43.114C51.6098 43.4222 51.1852 43.8276 50.9097 44.4514ZM40.6077 26.0574C40.7642 26.2351 40.9238 26.4148 41.0709 26.583C41.2378 26.4106 41.4027 26.2413 41.58 26.0574C41.241 26.0574 40.9051 26.0574 40.6077 26.0574Z" fill="#4583E6"/>
</svg>
