<svg width="80" height="80" viewBox="0 0 80 80" fill="none" xmlns="http://www.w3.org/2000/svg">
<circle cx="40" cy="40" r="40" fill="white"/>
<path d="M43.125 53.75H41.875V47.625C41.875 47.4592 41.8092 47.3003 41.6919 47.1831C41.5747 47.0658 41.4158 47 41.25 47C41.0842 47 40.9253 47.0658 40.8081 47.1831C40.6908 47.3003 40.625 47.4592 40.625 47.625V53.75H24.375V41.25H29.575C29.7408 41.25 29.8997 41.1842 30.0169 41.0669C30.1342 40.9497 30.2 40.7908 30.2 40.625C30.2 40.4592 30.1342 40.3003 30.0169 40.1831C29.8997 40.0658 29.7408 40 29.575 40H23.75C23.5842 40 23.4253 40.0658 23.3081 40.1831C23.1908 40.3003 23.125 40.4592 23.125 40.625V53.75H21.875C21.7092 53.75 21.5503 53.8158 21.4331 53.9331C21.3158 54.0503 21.25 54.2092 21.25 54.375V55.625C21.25 56.4538 21.5792 57.2487 22.1653 57.8347C22.7513 58.4208 23.5462 58.75 24.375 58.75H40.625C41.4538 58.75 42.2487 58.4208 42.8347 57.8347C43.4208 57.2487 43.75 56.4538 43.75 55.625V54.375C43.75 54.2092 43.6842 54.0503 43.5669 53.9331C43.4497 53.8158 43.2908 53.75 43.125 53.75ZM42.5 55.625C42.5 56.1223 42.3025 56.5992 41.9508 56.9508C41.5992 57.3025 41.1223 57.5 40.625 57.5H39.375V56.875C39.375 56.7092 39.3092 56.5503 39.1919 56.4331C39.0747 56.3158 38.9158 56.25 38.75 56.25C38.5842 56.25 38.4253 56.3158 38.3081 56.4331C38.1908 56.5503 38.125 56.7092 38.125 56.875V57.5H26.875V56.875C26.875 56.7092 26.8092 56.5503 26.6919 56.4331C26.5747 56.3158 26.4158 56.25 26.25 56.25C26.0842 56.25 25.9253 56.3158 25.8081 56.4331C25.6908 56.5503 25.625 56.7092 25.625 56.875V57.5H24.375C23.8777 57.5 23.4008 57.3025 23.0492 56.9508C22.6975 56.5992 22.5 56.1223 22.5 55.625V55H42.5V55.625Z" fill="#4285F4"/>
<path d="M53.75 25H55C55.1658 25 55.3247 24.9342 55.4419 24.8169C55.5592 24.6997 55.625 24.5408 55.625 24.375C55.625 24.2092 55.5592 24.0503 55.4419 23.9331C55.3247 23.8158 55.1658 23.75 55 23.75H53.75C53.2527 23.75 52.7758 23.9475 52.4242 24.2992C52.0725 24.6508 51.875 25.1277 51.875 25.625V26.25H51.25C51.0842 26.25 50.9253 26.3158 50.8081 26.4331C50.6908 26.5503 50.625 26.7092 50.625 26.875C50.625 27.0408 50.6908 27.1997 50.8081 27.3169C50.9253 27.4342 51.0842 27.5 51.25 27.5H51.875V29.375C51.875 29.5408 51.9408 29.6997 52.0581 29.8169C52.1753 29.9342 52.3342 30 52.5 30C52.6658 30 52.8247 29.9342 52.9419 29.8169C53.0592 29.6997 53.125 29.5408 53.125 29.375V27.5H53.75C53.9158 27.5 54.0747 27.4342 54.1919 27.3169C54.3092 27.1997 54.375 27.0408 54.375 26.875C54.375 26.7092 54.3092 26.5503 54.1919 26.4331C54.0747 26.3158 53.9158 26.25 53.75 26.25H53.125V25.625C53.125 25.4592 53.1908 25.3003 53.3081 25.1831C53.4253 25.0658 53.5842 25 53.75 25Z" fill="#4285F4"/>
<path d="M56.875 21.25H49.375C48.8777 21.25 48.4008 21.4475 48.0492 21.7992C47.6975 22.1508 47.5 22.6277 47.5 23.125V24.375C47.5 24.5408 47.5658 24.6997 47.6831 24.8169C47.8003 24.9342 47.9592 25 48.125 25C48.2908 25 48.4497 24.9342 48.5669 24.8169C48.6842 24.6997 48.75 24.5408 48.75 24.375V23.125C48.75 22.9592 48.8158 22.8003 48.9331 22.6831C49.0503 22.5658 49.2092 22.5 49.375 22.5H56.875C57.0408 22.5 57.1997 22.5658 57.3169 22.6831C57.4342 22.8003 57.5 22.9592 57.5 23.125V30.625C57.5 30.7908 57.4342 30.9497 57.3169 31.0669C57.1997 31.1842 57.0408 31.25 56.875 31.25H49.375C49.2092 31.25 49.0503 31.1842 48.9331 31.0669C48.8158 30.9497 48.75 30.7908 48.75 30.625V26.875C48.75 26.7092 48.6842 26.5503 48.5669 26.4331C48.4497 26.3158 48.2908 26.25 48.125 26.25C47.9592 26.25 47.8003 26.3158 47.6831 26.4331C47.5658 26.5503 47.5 26.7092 47.5 26.875V30.625C47.5 31.1223 47.6975 31.5992 48.0492 31.9508C48.4008 32.3025 48.8777 32.5 49.375 32.5H56.875C57.3723 32.5 57.8492 32.3025 58.2008 31.9508C58.5525 31.5992 58.75 31.1223 58.75 30.625V23.125C58.75 22.6277 58.5525 22.1508 58.2008 21.7992C57.8492 21.4475 57.3723 21.25 56.875 21.25Z" fill="#4285F4"/>
<path d="M50.625 46.25C50.625 46.7445 50.7716 47.2278 51.0463 47.6389C51.321 48.05 51.7115 48.3705 52.1683 48.5597C52.6251 48.7489 53.1278 48.7984 53.6127 48.702C54.0977 48.6055 54.5431 48.3674 54.8928 48.0178C55.2424 47.6681 55.4805 47.2227 55.577 46.7377C55.6734 46.2528 55.6239 45.7501 55.4347 45.2933C55.2455 44.8365 54.925 44.446 54.5139 44.1713C54.1028 43.8966 53.6195 43.75 53.125 43.75C52.462 43.75 51.8261 44.0134 51.3572 44.4822C50.8884 44.9511 50.625 45.587 50.625 46.25ZM54.375 46.25C54.375 46.4972 54.3017 46.7389 54.1643 46.9445C54.027 47.15 53.8318 47.3102 53.6034 47.4048C53.3749 47.4995 53.1236 47.5242 52.8811 47.476C52.6387 47.4278 52.4159 47.3087 52.2411 47.1339C52.0663 46.9591 51.9472 46.7363 51.899 46.4939C51.8508 46.2514 51.8755 46.0001 51.9702 45.7716C52.0648 45.5432 52.225 45.348 52.4305 45.2107C52.6361 45.0733 52.8778 45 53.125 45C53.4565 45 53.7745 45.1317 54.0089 45.3661C54.2433 45.6005 54.375 45.9185 54.375 46.25Z" fill="#4285F4"/>
<path d="M56.875 40.625H49.375C48.8777 40.625 48.4008 40.8225 48.0492 41.1742C47.6975 41.5258 47.5 42.0027 47.5 42.5V50C47.5 50.4973 47.6975 50.9742 48.0492 51.3258C48.4008 51.6775 48.8777 51.875 49.375 51.875H56.875C57.3723 51.875 57.8492 51.6775 58.2008 51.3258C58.5525 50.9742 58.75 50.4973 58.75 50V48.75C58.75 48.5842 58.6842 48.4253 58.5669 48.3081C58.4497 48.1908 58.2908 48.125 58.125 48.125C57.9592 48.125 57.8003 48.1908 57.6831 48.3081C57.5658 48.4253 57.5 48.5842 57.5 48.75V50C57.5 50.1658 57.4342 50.3247 57.3169 50.4419C57.1997 50.5592 57.0408 50.625 56.875 50.625H49.375C49.2092 50.625 49.0503 50.5592 48.9331 50.4419C48.8158 50.3247 48.75 50.1658 48.75 50V42.5C48.75 42.3342 48.8158 42.1753 48.9331 42.0581C49.0503 41.9408 49.2092 41.875 49.375 41.875H56.875C57.0408 41.875 57.1997 41.9408 57.3169 42.0581C57.4342 42.1753 57.5 42.3342 57.5 42.5V46.25C57.5 46.4158 57.5658 46.5747 57.6831 46.6919C57.8003 46.8092 57.9592 46.875 58.125 46.875C58.2908 46.875 58.4497 46.8092 58.5669 46.6919C58.6842 46.5747 58.75 46.4158 58.75 46.25V42.5C58.75 42.0027 58.5525 41.5258 58.2008 41.1742C57.8492 40.8225 57.3723 40.625 56.875 40.625Z" fill="#4285F4"/>
<path d="M35.2938 28.6563C35.3932 28.718 35.508 28.7504 35.625 28.7501C35.7228 28.7495 35.8192 28.7259 35.9063 28.6813L39.6563 26.8063C39.7586 26.7539 39.8445 26.6742 39.9045 26.576C39.9645 26.4779 39.9963 26.3651 39.9963 26.2501C39.9963 26.135 39.9645 26.0222 39.9045 25.9241C39.8445 25.8259 39.7586 25.7463 39.6563 25.6938L35.9063 23.8188C35.8111 23.7709 35.7053 23.748 35.5988 23.7525C35.4924 23.757 35.3889 23.7886 35.2981 23.8443C35.2073 23.9 35.1322 23.978 35.08 24.0709C35.0279 24.1638 35.0003 24.2685 35 24.3751V28.1251C34.9998 28.2313 35.0266 28.3358 35.078 28.4287C35.1294 28.5217 35.2037 28.6 35.2938 28.6563ZM36.25 25.3876L37.975 26.2501L36.25 27.1126V25.3876Z" fill="#4285F4"/>
<path d="M36.875 31.875C37.9875 31.875 39.0751 31.5451 40.0001 30.927C40.9251 30.3089 41.6461 29.4304 42.0718 28.4026C42.4976 27.3748 42.609 26.2438 42.3919 25.1526C42.1749 24.0615 41.6391 23.0592 40.8525 22.2725C40.0658 21.4859 39.0635 20.9501 37.9724 20.7331C36.8812 20.516 35.7502 20.6274 34.7224 21.0532C33.6946 21.4789 32.8161 22.1999 32.198 23.1249C31.5799 24.0499 31.25 25.1375 31.25 26.25C31.25 27.7418 31.8426 29.1726 32.8975 30.2275C33.9524 31.2824 35.3832 31.875 36.875 31.875ZM36.875 21.875C37.7403 21.875 38.5862 22.1316 39.3056 22.6123C40.0251 23.0931 40.5858 23.7763 40.917 24.5758C41.2481 25.3752 41.3347 26.2549 41.1659 27.1035C40.9971 27.9522 40.5804 28.7317 39.9686 29.3436C39.3567 29.9554 38.5772 30.3721 37.7285 30.5409C36.8799 30.7097 36.0002 30.6231 35.2008 30.292C34.4013 29.9608 33.7181 29.4001 33.2373 28.6806C32.7566 27.9612 32.5 27.1153 32.5 26.25C32.5 25.0897 32.9609 23.9769 33.7814 23.1564C34.6019 22.3359 35.7147 21.875 36.875 21.875Z" fill="#4285F4"/>
<path d="M43.125 34.375C43.222 34.375 43.3177 34.3524 43.4045 34.309C43.4913 34.2656 43.5668 34.2026 43.625 34.125L45.5 31.625C45.5995 31.4924 45.6422 31.3257 45.6187 31.1616C45.5953 30.9975 45.5076 30.8495 45.375 30.75C45.2424 30.6505 45.0757 30.6078 44.9116 30.6313C44.7475 30.6547 44.5995 30.7424 44.5 30.875L42.625 33.375C42.5255 33.5076 42.4828 33.6743 42.5063 33.8384C42.5297 34.0025 42.6174 34.1505 42.75 34.25C42.8582 34.3311 42.9898 34.375 43.125 34.375Z" fill="#4285F4"/>
<path d="M44.5 36.625C44.5582 36.7026 44.6337 36.7656 44.7205 36.809C44.8073 36.8524 44.903 36.875 45 36.875C45.1352 36.875 45.2668 36.8311 45.375 36.75L47.875 34.875C48.0076 34.7755 48.0953 34.6275 48.1187 34.4634C48.1422 34.2993 48.0995 34.1326 48 34C47.9005 33.8674 47.7525 33.7797 47.5884 33.7563C47.4243 33.7328 47.2576 33.7755 47.125 33.875L44.625 35.75C44.4924 35.8495 44.4047 35.9975 44.3813 36.1616C44.3578 36.3257 44.4005 36.4924 44.5 36.625Z" fill="#4285F4"/>
<path d="M50.6252 38.0001C50.6103 37.9172 50.5789 37.8382 50.5328 37.7678C50.4866 37.6974 50.4267 37.637 50.3567 37.5903C50.2866 37.5436 50.2079 37.5116 50.1251 37.4961C50.0424 37.4805 49.9574 37.4819 49.8752 37.5001L46.7502 38.1251C46.6681 38.1333 46.5885 38.1576 46.5158 38.1966C46.4431 38.2355 46.3788 38.2885 46.3266 38.3523C46.2211 38.4812 46.1711 38.6468 46.1877 38.8126C46.2043 38.9783 46.286 39.1307 46.4149 39.2362C46.5439 39.3417 46.7094 39.3916 46.8752 39.3751H47.0002L50.1252 38.7501C50.208 38.7352 50.2871 38.7038 50.3575 38.6576C50.4279 38.6115 50.4882 38.5516 50.5349 38.4816C50.5816 38.4115 50.6137 38.3328 50.6292 38.25C50.6447 38.1673 50.6433 38.0823 50.6252 38.0001Z" fill="#4285F4"/>
<path d="M21.875 38.125H29.375C29.5408 38.125 29.6997 38.0592 29.8169 37.9419C29.9342 37.8247 30 37.6658 30 37.5V27.5C30 27.3342 29.9342 27.1753 29.8169 27.0581C29.6997 26.9408 29.5408 26.875 29.375 26.875H21.875C21.7092 26.875 21.5503 26.9408 21.4331 27.0581C21.3158 27.1753 21.25 27.3342 21.25 27.5V37.5C21.25 37.6658 21.3158 37.8247 21.4331 37.9419C21.5503 38.0592 21.7092 38.125 21.875 38.125ZM22.5 28.125H28.75V36.875H22.5V28.125Z" fill="#4285F4"/>
<path d="M26.875 29.375H25.625C25.4592 29.375 25.3003 29.4408 25.1831 29.5581C25.0658 29.6753 25 29.8342 25 30C25 30.1658 25.0658 30.3247 25.1831 30.4419C25.3003 30.5592 25.4592 30.625 25.625 30.625H26.875C27.0408 30.625 27.1997 30.5592 27.3169 30.4419C27.4342 30.3247 27.5 30.1658 27.5 30C27.5 29.8342 27.4342 29.6753 27.3169 29.5581C27.1997 29.4408 27.0408 29.375 26.875 29.375Z" fill="#4285F4"/>
<path d="M26.875 31.875H24.375C24.2092 31.875 24.0503 31.9408 23.9331 32.0581C23.8158 32.1753 23.75 32.3342 23.75 32.5C23.75 32.6658 23.8158 32.8247 23.9331 32.9419C24.0503 33.0592 24.2092 33.125 24.375 33.125H26.875C27.0408 33.125 27.1997 33.0592 27.3169 32.9419C27.4342 32.8247 27.5 32.6658 27.5 32.5C27.5 32.3342 27.4342 32.1753 27.3169 32.0581C27.1997 31.9408 27.0408 31.875 26.875 31.875Z" fill="#4285F4"/>
<path d="M26.875 34.375H24.375C24.2092 34.375 24.0503 34.4408 23.9331 34.5581C23.8158 34.6753 23.75 34.8342 23.75 35C23.75 35.1658 23.8158 35.3247 23.9331 35.4419C24.0503 35.5592 24.2092 35.625 24.375 35.625H26.875C27.0408 35.625 27.1997 35.5592 27.3169 35.4419C27.4342 35.3247 27.5 35.1658 27.5 35C27.5 34.8342 27.4342 34.6753 27.3169 34.5581C27.1997 34.4408 27.0408 34.375 26.875 34.375Z" fill="#4285F4"/>
<path d="M42.5753 37.9375C42.5342 37.8661 42.4795 37.8035 42.4143 37.7532C42.349 37.703 42.2745 37.666 42.195 37.6446C42.1155 37.6231 42.0326 37.6175 41.9509 37.6281C41.8692 37.6387 41.7904 37.6652 41.719 37.7063C41.6476 37.7473 41.585 37.802 41.5347 37.8673C41.4844 37.9325 41.4475 38.007 41.4261 38.0865C41.4046 38.166 41.399 38.249 41.4096 38.3307C41.4202 38.4123 41.4467 38.4911 41.4878 38.5625L44.244 43.3313L34.244 47.0813C34.244 47.0813 34.244 47.0813 34.2003 47.0813H34.1503L32.5253 48.0188L31.444 48.6438C31.3017 48.7261 31.1445 48.7795 30.9815 48.8009C30.8184 48.8224 30.6528 48.8114 30.494 48.7688C30.175 48.6826 29.9031 48.4736 29.7378 48.1875L28.4878 46.025C28.3407 45.7421 28.3073 45.4137 28.3945 45.1069C28.4816 44.8002 28.6827 44.5384 28.9565 44.375L31.119 43.125L32.6815 45.8313C32.7366 45.9267 32.8159 46.0058 32.9114 46.0607C33.0068 46.1155 33.1151 46.1442 33.2253 46.1438C33.3352 46.1442 33.4433 46.1157 33.5386 46.061C33.634 46.0063 33.7132 45.9274 33.7684 45.8324C33.8235 45.7373 33.8526 45.6293 33.8527 45.5194C33.8529 45.4095 33.824 45.3015 33.769 45.2063L32.1565 42.4188L40.0003 35.95L40.2565 36.3938C40.2975 36.4652 40.3523 36.5278 40.4175 36.5781C40.4827 36.6283 40.5572 36.6653 40.6367 36.6867C40.7163 36.7082 40.7992 36.7138 40.8809 36.7032C40.9626 36.6926 41.0414 36.6661 41.1128 36.625C41.1842 36.584 41.2468 36.5293 41.2971 36.464C41.3473 36.3988 41.3842 36.3243 41.4057 36.2448C41.4272 36.1653 41.4328 36.0823 41.4222 36.0006C41.4116 35.919 41.3851 35.8402 41.344 35.7688L40.719 34.6875C40.6732 34.6092 40.6109 34.5418 40.5364 34.49C40.462 34.4382 40.3771 34.4032 40.2878 34.3875C40.1979 34.3706 40.1055 34.3736 40.0169 34.3962C39.9284 34.4189 39.8459 34.4607 39.7753 34.5188L31.0253 41.7313L28.3628 43.2688C27.885 43.5471 27.5129 43.9759 27.3048 44.4882C27.0967 45.0005 27.0644 45.5674 27.2128 46.1L26.5878 46.4563C26.2657 46.6412 26.0059 46.9176 25.8411 47.2504C25.6764 47.5832 25.6141 47.9574 25.6623 48.3256C25.7106 48.6938 25.867 49.0394 26.1119 49.3186C26.3567 49.5978 26.679 49.798 27.0378 49.8938C27.1968 49.9359 27.3607 49.9569 27.5253 49.9563C27.8541 49.9549 28.1769 49.8688 28.4628 49.7063L29.0878 49.35C29.388 49.6602 29.7656 49.8846 30.1815 50C30.3951 50.0598 30.616 50.0892 30.8378 50.0875C31.2771 50.0885 31.7087 49.972 32.0878 49.75L32.6315 49.4375L33.8815 51.6063C34.1299 52.0358 34.5385 52.3493 35.0176 52.4782C35.4967 52.607 36.0074 52.5407 36.4378 52.2938C36.6513 52.1708 36.8384 52.0069 36.9885 51.8115C37.1387 51.6161 37.2488 51.393 37.3126 51.155C37.3765 50.917 37.3928 50.6688 37.3607 50.4245C37.3285 50.1802 37.2485 49.9446 37.1253 49.7313L35.9878 47.75L45.3628 44.2313C45.4478 44.1993 45.5248 44.1492 45.5885 44.0844C45.6522 44.0197 45.701 43.9418 45.7315 43.8563C45.7619 43.7717 45.7738 43.6816 45.7662 43.5921C45.7587 43.5026 45.7319 43.4158 45.6878 43.3375L42.5753 37.9375ZM27.8128 48.6188C27.7416 48.6599 27.663 48.6866 27.5815 48.6973C27.5 48.7081 27.4172 48.7026 27.3378 48.6813C27.1776 48.6397 27.0405 48.5363 26.9565 48.3938C26.9154 48.3226 26.8887 48.244 26.8779 48.1625C26.8672 48.081 26.8727 47.9982 26.894 47.9188C26.9153 47.839 26.9523 47.7642 27.0027 47.6987C27.0531 47.6333 27.116 47.5785 27.1878 47.5375L27.7315 47.225L28.3565 48.3063L27.8128 48.6188ZM36.0378 50.3688C36.0789 50.4399 36.1056 50.5185 36.1163 50.6C36.1271 50.6816 36.1216 50.7644 36.1003 50.8438C36.0557 51.0026 35.9501 51.1375 35.8065 51.2188C35.6638 51.3008 35.4944 51.3231 35.3353 51.281C35.1761 51.2389 35.04 51.1357 34.9565 50.9938L33.7065 48.825L34.744 48.2313H34.794L36.0378 50.3688Z" fill="#4285F4"/>
</svg>
