<svg width="80" height="81" viewBox="0 0 80 81" fill="none" xmlns="http://www.w3.org/2000/svg">
<circle cx="40" cy="40.9521" r="40" fill="#4583E6"/>
<path d="M43.125 54.7021H41.875V48.5771C41.875 48.4114 41.8092 48.2524 41.6919 48.1352C41.5747 48.018 41.4158 47.9521 41.25 47.9521C41.0842 47.9521 40.9253 48.018 40.8081 48.1352C40.6908 48.2524 40.625 48.4114 40.625 48.5771V54.7021H24.375V42.2021H29.575C29.7408 42.2021 29.8997 42.1363 30.0169 42.0191C30.1342 41.9019 30.2 41.7429 30.2 41.5771C30.2 41.4114 30.1342 41.2524 30.0169 41.1352C29.8997 41.018 29.7408 40.9521 29.575 40.9521H23.75C23.5842 40.9521 23.4253 41.018 23.3081 41.1352C23.1908 41.2524 23.125 41.4114 23.125 41.5771V54.7021H21.875C21.7092 54.7021 21.5503 54.768 21.4331 54.8852C21.3158 55.0024 21.25 55.1614 21.25 55.3271V56.5771C21.25 57.406 21.5792 58.2008 22.1653 58.7869C22.7513 59.3729 23.5462 59.7021 24.375 59.7021H40.625C41.4538 59.7021 42.2487 59.3729 42.8347 58.7869C43.4208 58.2008 43.75 57.406 43.75 56.5771V55.3271C43.75 55.1614 43.6842 55.0024 43.5669 54.8852C43.4497 54.768 43.2908 54.7021 43.125 54.7021ZM42.5 56.5771C42.5 57.0744 42.3025 57.5513 41.9508 57.903C41.5992 58.2546 41.1223 58.4521 40.625 58.4521H39.375V57.8271C39.375 57.6614 39.3092 57.5024 39.1919 57.3852C39.0747 57.268 38.9158 57.2021 38.75 57.2021C38.5842 57.2021 38.4253 57.268 38.3081 57.3852C38.1908 57.5024 38.125 57.6614 38.125 57.8271V58.4521H26.875V57.8271C26.875 57.6614 26.8092 57.5024 26.6919 57.3852C26.5747 57.268 26.4158 57.2021 26.25 57.2021C26.0842 57.2021 25.9253 57.268 25.8081 57.3852C25.6908 57.5024 25.625 57.6614 25.625 57.8271V58.4521H24.375C23.8777 58.4521 23.4008 58.2546 23.0492 57.903C22.6975 57.5513 22.5 57.0744 22.5 56.5771V55.9521H42.5V56.5771Z" fill="white"/>
<path d="M53.75 25.9521H55C55.1658 25.9521 55.3247 25.8863 55.4419 25.7691C55.5592 25.6519 55.625 25.4929 55.625 25.3271C55.625 25.1614 55.5592 25.0024 55.4419 24.8852C55.3247 24.768 55.1658 24.7021 55 24.7021H53.75C53.2527 24.7021 52.7758 24.8997 52.4242 25.2513C52.0725 25.603 51.875 26.0799 51.875 26.5771V27.2021H51.25C51.0842 27.2021 50.9253 27.268 50.8081 27.3852C50.6908 27.5024 50.625 27.6614 50.625 27.8271C50.625 27.9929 50.6908 28.1519 50.8081 28.2691C50.9253 28.3863 51.0842 28.4521 51.25 28.4521H51.875V30.3271C51.875 30.4929 51.9408 30.6519 52.0581 30.7691C52.1753 30.8863 52.3342 30.9521 52.5 30.9521C52.6658 30.9521 52.8247 30.8863 52.9419 30.7691C53.0592 30.6519 53.125 30.4929 53.125 30.3271V28.4521H53.75C53.9158 28.4521 54.0747 28.3863 54.1919 28.2691C54.3092 28.1519 54.375 27.9929 54.375 27.8271C54.375 27.6614 54.3092 27.5024 54.1919 27.3852C54.0747 27.268 53.9158 27.2021 53.75 27.2021H53.125V26.5771C53.125 26.4114 53.1908 26.2524 53.3081 26.1352C53.4253 26.018 53.5842 25.9521 53.75 25.9521Z" fill="white"/>
<path d="M56.875 22.2021H49.375C48.8777 22.2021 48.4008 22.3997 48.0492 22.7513C47.6975 23.103 47.5 23.5799 47.5 24.0771V25.3271C47.5 25.4929 47.5658 25.6519 47.6831 25.7691C47.8003 25.8863 47.9592 25.9521 48.125 25.9521C48.2908 25.9521 48.4497 25.8863 48.5669 25.7691C48.6842 25.6519 48.75 25.4929 48.75 25.3271V24.0771C48.75 23.9114 48.8158 23.7524 48.9331 23.6352C49.0503 23.518 49.2092 23.4521 49.375 23.4521H56.875C57.0408 23.4521 57.1997 23.518 57.3169 23.6352C57.4342 23.7524 57.5 23.9114 57.5 24.0771V31.5771C57.5 31.7429 57.4342 31.9019 57.3169 32.0191C57.1997 32.1363 57.0408 32.2021 56.875 32.2021H49.375C49.2092 32.2021 49.0503 32.1363 48.9331 32.0191C48.8158 31.9019 48.75 31.7429 48.75 31.5771V27.8271C48.75 27.6614 48.6842 27.5024 48.5669 27.3852C48.4497 27.268 48.2908 27.2021 48.125 27.2021C47.9592 27.2021 47.8003 27.268 47.6831 27.3852C47.5658 27.5024 47.5 27.6614 47.5 27.8271V31.5771C47.5 32.0744 47.6975 32.5513 48.0492 32.903C48.4008 33.2546 48.8777 33.4521 49.375 33.4521H56.875C57.3723 33.4521 57.8492 33.2546 58.2008 32.903C58.5525 32.5513 58.75 32.0744 58.75 31.5771V24.0771C58.75 23.5799 58.5525 23.103 58.2008 22.7513C57.8492 22.3997 57.3723 22.2021 56.875 22.2021Z" fill="white"/>
<path d="M50.625 47.2021C50.625 47.6966 50.7716 48.18 51.0463 48.5911C51.321 49.0022 51.7115 49.3226 52.1683 49.5118C52.6251 49.7011 53.1278 49.7506 53.6127 49.6541C54.0977 49.5576 54.5431 49.3195 54.8928 48.9699C55.2424 48.6203 55.4805 48.1748 55.577 47.6899C55.6734 47.2049 55.6239 46.7023 55.4347 46.2454C55.2455 45.7886 54.925 45.3982 54.5139 45.1235C54.1028 44.8488 53.6195 44.7021 53.125 44.7021C52.462 44.7021 51.8261 44.9655 51.3572 45.4344C50.8884 45.9032 50.625 46.5391 50.625 47.2021ZM54.375 47.2021C54.375 47.4494 54.3017 47.6911 54.1643 47.8966C54.027 48.1022 53.8318 48.2624 53.6034 48.357C53.3749 48.4516 53.1236 48.4764 52.8811 48.4281C52.6387 48.3799 52.4159 48.2608 52.2411 48.086C52.0663 47.9112 51.9472 47.6885 51.899 47.446C51.8508 47.2035 51.8755 46.9522 51.9702 46.7238C52.0648 46.4954 52.225 46.3002 52.4305 46.1628C52.6361 46.0255 52.8778 45.9521 53.125 45.9521C53.4565 45.9521 53.7745 46.0838 54.0089 46.3183C54.2433 46.5527 54.375 46.8706 54.375 47.2021Z" fill="white"/>
<path d="M56.875 41.5771H49.375C48.8777 41.5771 48.4008 41.7747 48.0492 42.1263C47.6975 42.478 47.5 42.9549 47.5 43.4521V50.9521C47.5 51.4494 47.6975 51.9263 48.0492 52.278C48.4008 52.6296 48.8777 52.8271 49.375 52.8271H56.875C57.3723 52.8271 57.8492 52.6296 58.2008 52.278C58.5525 51.9263 58.75 51.4494 58.75 50.9521V49.7021C58.75 49.5364 58.6842 49.3774 58.5669 49.2602C58.4497 49.143 58.2908 49.0771 58.125 49.0771C57.9592 49.0771 57.8003 49.143 57.6831 49.2602C57.5658 49.3774 57.5 49.5364 57.5 49.7021V50.9521C57.5 51.1179 57.4342 51.2769 57.3169 51.3941C57.1997 51.5113 57.0408 51.5771 56.875 51.5771H49.375C49.2092 51.5771 49.0503 51.5113 48.9331 51.3941C48.8158 51.2769 48.75 51.1179 48.75 50.9521V43.4521C48.75 43.2864 48.8158 43.1274 48.9331 43.0102C49.0503 42.893 49.2092 42.8271 49.375 42.8271H56.875C57.0408 42.8271 57.1997 42.893 57.3169 43.0102C57.4342 43.1274 57.5 43.2864 57.5 43.4521V47.2021C57.5 47.3679 57.5658 47.5269 57.6831 47.6441C57.8003 47.7613 57.9592 47.8271 58.125 47.8271C58.2908 47.8271 58.4497 47.7613 58.5669 47.6441C58.6842 47.5269 58.75 47.3679 58.75 47.2021V43.4521C58.75 42.9549 58.5525 42.478 58.2008 42.1263C57.8492 41.7747 57.3723 41.5771 56.875 41.5771Z" fill="white"/>
<path d="M35.2938 29.6085C35.3932 29.6701 35.508 29.7026 35.625 29.7022C35.7228 29.7016 35.8192 29.6781 35.9063 29.6335L39.6563 27.7585C39.7586 27.706 39.8445 27.6263 39.9045 27.5282C39.9645 27.43 39.9963 27.3172 39.9963 27.2022C39.9963 27.0872 39.9645 26.9744 39.9045 26.8762C39.8445 26.7781 39.7586 26.6984 39.6563 26.646L35.9063 24.771C35.8111 24.723 35.7053 24.7002 35.5988 24.7046C35.4924 24.7091 35.3889 24.7407 35.2981 24.7964C35.2073 24.8522 35.1322 24.9302 35.08 25.0231C35.0279 25.116 35.0003 25.2207 35 25.3272V29.0772C34.9998 29.1834 35.0266 29.2879 35.078 29.3809C35.1294 29.4738 35.2037 29.5522 35.2938 29.6085ZM36.25 26.3397L37.975 27.2022L36.25 28.0647V26.3397Z" fill="white"/>
<path d="M36.875 32.8272C37.9875 32.8272 39.0751 32.4973 40.0001 31.8792C40.9251 31.2611 41.6461 30.3826 42.0718 29.3547C42.4976 28.3269 42.609 27.1959 42.3919 26.1048C42.1749 25.0136 41.6391 24.0113 40.8525 23.2247C40.0658 22.438 39.0635 21.9023 37.9724 21.6852C36.8812 21.4682 35.7502 21.5796 34.7224 22.0053C33.6946 22.4311 32.8161 23.152 32.198 24.0771C31.5799 25.0021 31.25 26.0896 31.25 27.2022C31.25 28.694 31.8426 30.1247 32.8975 31.1796C33.9524 32.2345 35.3832 32.8272 36.875 32.8272ZM36.875 22.8272C37.7403 22.8272 38.5862 23.0837 39.3056 23.5645C40.0251 24.0452 40.5858 24.7285 40.917 25.5279C41.2481 26.3273 41.3347 27.207 41.1659 28.0557C40.9971 28.9043 40.5804 29.6839 39.9686 30.2957C39.3567 30.9076 38.5772 31.3243 37.7285 31.4931C36.8799 31.6619 36.0002 31.5753 35.2008 31.2441C34.4013 30.913 33.7181 30.3522 33.2373 29.6328C32.7566 28.9133 32.5 28.0674 32.5 27.2022C32.5 26.0418 32.9609 24.929 33.7814 24.1086C34.6019 23.2881 35.7147 22.8272 36.875 22.8272Z" fill="white"/>
<path d="M43.125 35.3272C43.222 35.3272 43.3177 35.3046 43.4045 35.2612C43.4913 35.2178 43.5668 35.1548 43.625 35.0772L45.5 32.5772C45.5995 32.4445 45.6422 32.2779 45.6187 32.1138C45.5953 31.9497 45.5076 31.8016 45.375 31.7022C45.2424 31.6027 45.0757 31.56 44.9116 31.5834C44.7475 31.6069 44.5995 31.6945 44.5 31.8272L42.625 34.3272C42.5255 34.4598 42.4828 34.6264 42.5063 34.7905C42.5297 34.9546 42.6174 35.1027 42.75 35.2022C42.8582 35.2833 42.9898 35.3272 43.125 35.3272Z" fill="white"/>
<path d="M44.5 37.5772C44.5582 37.6548 44.6337 37.7178 44.7205 37.7612C44.8073 37.8046 44.903 37.8272 45 37.8272C45.1352 37.8272 45.2668 37.7833 45.375 37.7022L47.875 35.8272C48.0076 35.7277 48.0953 35.5796 48.1187 35.4155C48.1422 35.2514 48.0995 35.0848 48 34.9522C47.9005 34.8195 47.7525 34.7319 47.5884 34.7084C47.4243 34.685 47.2576 34.7277 47.125 34.8272L44.625 36.7022C44.4924 36.8016 44.4047 36.9497 44.3813 37.1138C44.3578 37.2779 44.4005 37.4445 44.5 37.5772Z" fill="white"/>
<path d="M50.6252 38.9522C50.6103 38.8694 50.5789 38.7903 50.5328 38.7199C50.4866 38.6495 50.4267 38.5892 50.3567 38.5425C50.2866 38.4958 50.2079 38.4637 50.1251 38.4482C50.0424 38.4327 49.9574 38.4341 49.8752 38.4522L46.7502 39.0772C46.6681 39.0854 46.5885 39.1097 46.5158 39.1487C46.4431 39.1877 46.3788 39.2406 46.3266 39.3045C46.2211 39.4334 46.1711 39.599 46.1877 39.7647C46.2043 39.9305 46.286 40.0829 46.4149 40.1883C46.5439 40.2938 46.7094 40.3438 46.8752 40.3272H47.0002L50.1252 39.7022C50.208 39.6874 50.2871 39.6559 50.3575 39.6098C50.4279 39.5636 50.4882 39.5037 50.5349 39.4337C50.5816 39.3637 50.6137 39.2849 50.6292 39.2022C50.6447 39.1194 50.6433 39.0344 50.6252 38.9522Z" fill="white"/>
<path d="M21.875 39.0771H29.375C29.5408 39.0771 29.6997 39.0113 29.8169 38.8941C29.9342 38.7769 30 38.6179 30 38.4521V28.4521C30 28.2864 29.9342 28.1274 29.8169 28.0102C29.6997 27.893 29.5408 27.8271 29.375 27.8271H21.875C21.7092 27.8271 21.5503 27.893 21.4331 28.0102C21.3158 28.1274 21.25 28.2864 21.25 28.4521V38.4521C21.25 38.6179 21.3158 38.7769 21.4331 38.8941C21.5503 39.0113 21.7092 39.0771 21.875 39.0771ZM22.5 29.0771H28.75V37.8271H22.5V29.0771Z" fill="white"/>
<path d="M26.875 30.3271H25.625C25.4592 30.3271 25.3003 30.393 25.1831 30.5102C25.0658 30.6274 25 30.7864 25 30.9521C25 31.1179 25.0658 31.2769 25.1831 31.3941C25.3003 31.5113 25.4592 31.5771 25.625 31.5771H26.875C27.0408 31.5771 27.1997 31.5113 27.3169 31.3941C27.4342 31.2769 27.5 31.1179 27.5 30.9521C27.5 30.7864 27.4342 30.6274 27.3169 30.5102C27.1997 30.393 27.0408 30.3271 26.875 30.3271Z" fill="white"/>
<path d="M26.875 32.8271H24.375C24.2092 32.8271 24.0503 32.893 23.9331 33.0102C23.8158 33.1274 23.75 33.2864 23.75 33.4521C23.75 33.6179 23.8158 33.7769 23.9331 33.8941C24.0503 34.0113 24.2092 34.0771 24.375 34.0771H26.875C27.0408 34.0771 27.1997 34.0113 27.3169 33.8941C27.4342 33.7769 27.5 33.6179 27.5 33.4521C27.5 33.2864 27.4342 33.1274 27.3169 33.0102C27.1997 32.893 27.0408 32.8271 26.875 32.8271Z" fill="white"/>
<path d="M26.875 35.3271H24.375C24.2092 35.3271 24.0503 35.393 23.9331 35.5102C23.8158 35.6274 23.75 35.7864 23.75 35.9521C23.75 36.1179 23.8158 36.2769 23.9331 36.3941C24.0503 36.5113 24.2092 36.5771 24.375 36.5771H26.875C27.0408 36.5771 27.1997 36.5113 27.3169 36.3941C27.4342 36.2769 27.5 36.1179 27.5 35.9521C27.5 35.7864 27.4342 35.6274 27.3169 35.5102C27.1997 35.393 27.0408 35.3271 26.875 35.3271Z" fill="white"/>
<path d="M42.5753 38.8894C42.5342 38.818 42.4795 38.7554 42.4143 38.7051C42.349 38.6549 42.2745 38.6179 42.195 38.5965C42.1155 38.575 42.0326 38.5694 41.9509 38.58C41.8692 38.5906 41.7904 38.6171 41.719 38.6582C41.6476 38.6992 41.585 38.7539 41.5347 38.8192C41.4844 38.8844 41.4475 38.9589 41.4261 39.0384C41.4046 39.1179 41.399 39.2009 41.4096 39.2826C41.4202 39.3642 41.4467 39.443 41.4878 39.5144L44.244 44.2832L34.244 48.0332C34.244 48.0332 34.244 48.0332 34.2003 48.0332H34.1503L32.5253 48.9707L31.444 49.5957C31.3017 49.678 31.1445 49.7314 30.9815 49.7528C30.8184 49.7743 30.6528 49.7633 30.494 49.7207C30.175 49.6345 29.9031 49.4255 29.7378 49.1394L28.4878 46.9769C28.3407 46.694 28.3073 46.3656 28.3945 46.0588C28.4816 45.7521 28.6827 45.4903 28.9565 45.3269L31.119 44.0769L32.6815 46.7832C32.7366 46.8786 32.8159 46.9577 32.9114 47.0126C33.0068 47.0674 33.1151 47.0961 33.2253 47.0957C33.3352 47.0961 33.4433 47.0676 33.5386 47.0129C33.634 46.9582 33.7132 46.8793 33.7684 46.7843C33.8235 46.6892 33.8526 46.5812 33.8527 46.4713C33.8529 46.3614 33.824 46.2534 33.769 46.1582L32.1565 43.3707L40.0003 36.9019L40.2565 37.3457C40.2975 37.4171 40.3523 37.4797 40.4175 37.53C40.4827 37.5802 40.5572 37.6172 40.6367 37.6386C40.7163 37.6601 40.7992 37.6657 40.8809 37.6551C40.9626 37.6445 41.0414 37.618 41.1128 37.5769C41.1842 37.5359 41.2468 37.4812 41.2971 37.4159C41.3473 37.3507 41.3842 37.2762 41.4057 37.1967C41.4272 37.1172 41.4328 37.0342 41.4222 36.9525C41.4116 36.8709 41.3851 36.7921 41.344 36.7207L40.719 35.6394C40.6732 35.5611 40.6109 35.4937 40.5364 35.4419C40.462 35.3901 40.3771 35.3551 40.2878 35.3394C40.1979 35.3225 40.1055 35.3255 40.0169 35.3482C39.9284 35.3708 39.8459 35.4127 39.7753 35.4707L31.0253 42.6832L28.3628 44.2207C27.885 44.499 27.5129 44.9278 27.3048 45.4401C27.0967 45.9524 27.0644 46.5193 27.2128 47.0519L26.5878 47.4082C26.2657 47.5931 26.0059 47.8695 25.8411 48.2023C25.6764 48.5351 25.6141 48.9093 25.6623 49.2775C25.7106 49.6457 25.867 49.9913 26.1119 50.2705C26.3567 50.5497 26.679 50.7499 27.0378 50.8457C27.1968 50.8878 27.3607 50.9088 27.5253 50.9082C27.8541 50.9068 28.1769 50.8207 28.4628 50.6582L29.0878 50.3019C29.388 50.6121 29.7656 50.8365 30.1815 50.9519C30.3951 51.0117 30.616 51.0411 30.8378 51.0394C31.2771 51.0404 31.7087 50.9239 32.0878 50.7019L32.6315 50.3894L33.8815 52.5582C34.1299 52.9877 34.5385 53.3012 35.0176 53.4301C35.4967 53.5589 36.0074 53.4926 36.4378 53.2457C36.6513 53.1227 36.8384 52.9588 36.9885 52.7634C37.1387 52.568 37.2488 52.3449 37.3126 52.1069C37.3765 51.8689 37.3928 51.6207 37.3607 51.3764C37.3285 51.1321 37.2485 50.8965 37.1253 50.6832L35.9878 48.7019L45.3628 45.1832C45.4478 45.1512 45.5248 45.1011 45.5885 45.0364C45.6522 44.9716 45.701 44.8937 45.7315 44.8082C45.7619 44.7236 45.7738 44.6336 45.7662 44.544C45.7587 44.4545 45.7319 44.3677 45.6878 44.2894L42.5753 38.8894ZM27.8128 49.5707C27.7416 49.6118 27.663 49.6385 27.5815 49.6492C27.5 49.66 27.4172 49.6545 27.3378 49.6332C27.1776 49.5916 27.0405 49.4882 26.9565 49.3457C26.9154 49.2745 26.8887 49.1959 26.8779 49.1144C26.8672 49.0329 26.8727 48.9501 26.894 48.8707C26.9153 48.7909 26.9523 48.7161 27.0027 48.6506C27.0531 48.5852 27.116 48.5304 27.1878 48.4894L27.7315 48.1769L28.3565 49.2582L27.8128 49.5707ZM36.0378 51.3207C36.0789 51.3919 36.1056 51.4704 36.1163 51.552C36.1271 51.6335 36.1216 51.7163 36.1003 51.7957C36.0557 51.9546 35.9501 52.0894 35.8065 52.1707C35.6638 52.2527 35.4944 52.2751 35.3353 52.2329C35.1761 52.1908 35.04 52.0876 34.9565 51.9457L33.7065 49.7769L34.744 49.1832H34.794L36.0378 51.3207Z" fill="white"/>
</svg>
