<svg width="500" height="501" viewBox="0 0 500 501" fill="none" xmlns="http://www.w3.org/2000/svg">
<path d="M93.1816 309.57C93.3469 307.537 94.1244 305.602 95.4116 304.02C96.6234 302.43 98.3016 301.259 100.212 300.67C101.842 300.206 103.579 300.294 105.155 300.92C106.73 301.546 108.054 302.674 108.922 304.13C109.656 302.668 110.837 301.476 112.293 300.729C113.749 299.981 115.405 299.715 117.022 299.97C118.988 300.333 120.792 301.302 122.182 302.74C123.65 304.152 124.648 305.981 125.042 307.98C125.513 310.533 125.148 313.171 124.002 315.5C122.64 317.87 120.734 319.882 118.442 321.37C114.722 323.92 109.832 327.12 109.832 327.12C109.832 327.12 105.352 324.17 101.372 322.12C98.914 320.92 96.7808 319.147 95.1516 316.95C93.7173 314.766 93.0264 312.178 93.1816 309.57Z" fill="#EBEBEB"/>
<path d="M371.892 199.12C372.052 197.086 372.83 195.15 374.122 193.57C375.328 191.979 377.003 190.807 378.912 190.22C380.542 189.757 382.28 189.844 383.855 190.47C385.43 191.096 386.754 192.224 387.622 193.68C388.357 192.218 389.537 191.027 390.993 190.279C392.449 189.531 394.105 189.266 395.722 189.52C397.688 189.884 399.492 190.852 400.882 192.29C402.35 193.704 403.352 195.532 403.752 197.53C404.211 200.09 403.836 202.73 402.682 205.06C401.323 207.432 399.417 209.445 397.122 210.93C393.412 213.48 388.512 216.68 388.512 216.68C388.512 216.68 384.042 213.68 380.052 211.68C377.594 210.48 375.461 208.707 373.832 206.51C372.405 204.321 371.725 201.728 371.892 199.12Z" fill="#EBEBEB"/>
<path d="M120.249 284.74C120.348 283.435 120.847 282.191 121.679 281.18C122.456 280.157 123.533 279.402 124.759 279.02C125.413 278.842 126.097 278.797 126.768 278.888C127.44 278.979 128.087 279.204 128.669 279.55C129.357 279.973 129.936 280.552 130.359 281.24C130.831 280.302 131.589 279.538 132.524 279.06C133.459 278.581 134.522 278.413 135.559 278.58C136.822 278.805 137.982 279.424 138.869 280.35C139.814 281.259 140.456 282.435 140.709 283.72C141.011 285.362 140.772 287.056 140.029 288.55C139.157 290.074 137.933 291.367 136.459 292.32C134.069 293.96 130.929 296.02 130.929 296.02C130.929 296.02 128.049 294.12 125.489 292.78C123.91 292.009 122.538 290.871 121.489 289.46C120.581 288.061 120.146 286.406 120.249 284.74Z" fill="#F5F5F5"/>
<path d="M354.78 223.6C354.885 222.296 355.384 221.054 356.21 220.04C356.988 219.02 358.065 218.269 359.29 217.89C360.338 217.601 361.452 217.662 362.462 218.062C363.473 218.463 364.325 219.182 364.89 220.11C365.222 219.456 365.693 218.882 366.27 218.43C366.806 218.013 367.421 217.709 368.078 217.537C368.734 217.365 369.419 217.329 370.09 217.43C371.353 217.662 372.511 218.285 373.4 219.21C374.346 220.117 374.989 221.294 375.24 222.58C375.541 224.221 375.302 225.916 374.56 227.41C373.691 228.936 372.466 230.229 370.99 231.18C368.6 232.81 365.46 234.87 365.46 234.87C365.46 234.87 362.59 232.98 360.02 231.63C358.439 230.862 357.066 229.723 356.02 228.31C355.112 226.914 354.678 225.262 354.78 223.6Z" fill="#F5F5F5"/>
<path d="M405.331 274.15C405.43 272.845 405.929 271.601 406.761 270.59C407.538 269.567 408.615 268.811 409.841 268.43C410.495 268.252 411.179 268.207 411.85 268.298C412.522 268.389 413.169 268.614 413.751 268.96C414.439 269.383 415.018 269.962 415.441 270.65C415.91 269.71 416.668 268.944 417.604 268.465C418.54 267.986 419.604 267.82 420.641 267.99C421.901 268.223 423.058 268.842 423.951 269.76C424.896 270.668 425.538 271.845 425.791 273.13C426.088 274.772 425.849 276.465 425.111 277.96C424.238 279.486 423.01 280.78 421.531 281.73C419.151 283.37 416.001 285.43 416.001 285.43C416.001 285.43 413.131 283.53 410.571 282.19C408.992 281.419 407.62 280.281 406.571 278.87C405.663 277.471 405.228 275.816 405.331 274.15Z" fill="#EBEBEB"/>
<path d="M126.9 326.18C126.967 325.321 127.299 324.503 127.85 323.84C128.352 323.168 129.051 322.669 129.85 322.41C130.281 322.292 130.732 322.262 131.175 322.322C131.618 322.383 132.045 322.531 132.43 322.76C132.88 323.044 133.26 323.427 133.54 323.88C133.76 323.449 134.07 323.07 134.45 322.77C134.804 322.497 135.21 322.298 135.643 322.186C136.076 322.074 136.527 322.052 136.97 322.12C137.802 322.27 138.565 322.679 139.15 323.29C139.781 323.883 140.217 324.653 140.4 325.5C140.595 326.584 140.437 327.702 139.95 328.69C139.375 329.698 138.565 330.552 137.59 331.18C136.02 332.26 133.94 333.61 133.94 333.61C133.94 333.61 132.05 332.36 130.36 331.48C129.323 330.967 128.422 330.217 127.73 329.29C127.126 328.37 126.835 327.279 126.9 326.18Z" fill="#F5F5F5"/>
<path d="M72.7902 84.2201C72.7902 84.2201 68.1802 88.2201 78.1902 97.4301C83.2535 102.246 88.6321 106.719 94.2902 110.82C94.2902 110.82 96.2902 113.08 94.2302 114.31C92.1702 115.54 87.0002 116.56 87.0002 119.65C87.0002 122.74 90.0002 124.76 95.0702 125.56C100.14 126.36 111.07 128.56 112 128.72C112.93 128.88 114.22 129.85 112.94 130.92C111.66 131.99 101.07 137.2 103.85 142.07C106.63 146.94 120.97 146.88 122.54 146.91C124.11 146.94 124.65 147.39 124.82 148.19C124.99 148.99 121.26 150.4 118.31 152C115.36 153.6 112.22 156 114.05 158.67C115.88 161.34 125.67 164.79 144.52 159.86L153.11 157.01L155.11 148.13C158.17 128.89 153.79 119.49 150.94 117.93C148.09 116.37 146.03 119.72 144.72 122.81C143.41 125.9 142.37 129.75 141.56 129.67C140.75 129.59 140.24 129.08 140.06 127.52C139.88 125.96 138.55 111.68 133.42 109.4C128.29 107.12 124.15 118.16 123.21 119.54C122.27 120.92 121.21 119.76 120.93 118.82C120.65 117.88 117.42 107.19 116.13 102.27C114.84 97.3501 112.65 94.5301 109.46 94.8301C106.27 95.1301 105.88 100.38 104.85 102.56C103.82 104.74 101.38 102.97 101.38 102.97C96.7353 97.7346 91.7441 92.8169 86.4402 88.2501C76.2702 79.2501 72.7002 84.3101 72.7002 84.3101" fill="#EBEBEB"/>
<path d="M154.26 158.84C146.82 152.16 133.79 140.07 122.55 129.75C111.31 119.43 101.13 110.09 93.7205 103.38L84.9405 95.4403C83.9405 94.5003 83.1005 93.7802 82.5505 93.2702L81.9305 92.7103L81.7305 92.5103C81.8075 92.562 81.881 92.6187 81.9505 92.6803C82.1005 92.8203 82.3205 93.0003 82.5905 93.2303L85.0005 95.3503C87.1005 97.2003 90.1205 99.8903 93.8405 103.23C101.29 109.91 111.49 119.23 122.73 129.54C133.97 139.85 147 151.98 154.4 158.69" fill="#E0E0E0"/>
<path d="M94.2891 118.5C94.5249 118.472 94.7632 118.472 94.9991 118.5H96.7791C98.2791 118.5 100.359 118.5 102.649 118.64L108.509 118.9L110.289 118.97C110.505 118.95 110.723 118.95 110.939 118.97C110.725 119.015 110.507 119.035 110.289 119.03C109.859 119.03 109.289 119.03 108.499 119.03C106.999 119.03 104.929 118.94 102.639 118.85L96.7691 118.62L94.9991 118.56C94.7608 118.571 94.5221 118.551 94.2891 118.5Z" fill="#E0E0E0"/>
<path d="M111.27 118.2C111.19 118.2 111.1 113.91 111.07 108.63C111.04 103.35 111.07 99.0503 111.16 99.0503C111.25 99.0503 111.32 103.34 111.35 108.62C111.38 113.9 111.34 118.2 111.27 118.2Z" fill="#E0E0E0"/>
<path d="M127.809 134.82C127.838 134.599 127.888 134.382 127.959 134.17C128.099 133.71 128.259 133.17 128.459 132.43C128.879 130.95 129.459 128.91 129.989 126.64C130.519 124.37 130.989 122.3 131.259 120.79C131.409 120.09 131.519 119.49 131.619 119.01C131.645 118.788 131.699 118.57 131.779 118.36C131.787 118.585 131.77 118.81 131.729 119.03C131.669 119.46 131.589 120.03 131.459 120.83C131.209 122.34 130.819 124.43 130.269 126.71C129.719 128.99 129.119 131.02 128.649 132.49C128.409 133.22 128.219 133.8 128.069 134.21C128.007 134.423 127.92 134.628 127.809 134.82Z" fill="#E0E0E0"/>
<path d="M112.52 138.5C112.702 138.404 112.897 138.333 113.1 138.29L114.72 137.84C116.09 137.46 117.98 136.97 120.08 136.44C122.18 135.91 124.08 135.44 125.46 135.12L127.09 134.75C127.29 134.701 127.494 134.667 127.7 134.65C127.516 134.744 127.321 134.815 127.12 134.86L125.51 135.31C124.14 135.69 122.24 136.18 120.15 136.71C118.06 137.24 116.15 137.71 114.77 138.03L113.13 138.4C112.929 138.451 112.725 138.484 112.52 138.5Z" fill="#E0E0E0"/>
<path d="M125.262 155.02C125.503 154.912 125.754 154.828 126.012 154.77L128.082 154.18C129.832 153.69 132.252 153.04 134.932 152.33C137.612 151.62 140.042 151 141.812 150.56L143.902 150.06C144.154 149.989 144.411 149.938 144.672 149.91C144.434 150.021 144.186 150.108 143.932 150.17L141.862 150.76C140.112 151.24 137.682 151.9 135.002 152.6C132.322 153.3 129.892 153.93 128.132 154.37L126.042 154.87C125.788 154.949 125.526 154.999 125.262 155.02Z" fill="#E0E0E0"/>
<path d="M144.18 149.9C144.21 149.619 144.267 149.341 144.35 149.07C144.49 148.5 144.67 147.74 144.9 146.84C145.36 144.95 145.99 142.34 146.6 139.44C147.21 136.54 147.71 133.89 148.05 131.98C148.22 131.06 148.36 130.3 148.46 129.71C148.498 129.429 148.558 129.152 148.64 128.88C148.64 129.165 148.616 129.449 148.57 129.73C148.5 130.27 148.4 131.05 148.25 132.01C147.96 133.94 147.5 136.59 146.88 139.49C146.26 142.39 145.6 145.01 145.09 146.89C144.83 147.83 144.61 148.58 144.45 149.1C144.377 149.373 144.287 149.64 144.18 149.9Z" fill="#E0E0E0"/>
<path d="M355.279 139.88C341.999 128.25 340.699 109.2 343.079 92.5002C343.479 89.7002 343.489 86.7102 345.079 84.3902C346.669 82.0702 349.969 80.7302 352.359 82.1802C354.359 83.3902 354.979 85.9102 355.929 88.0402C357.193 90.8848 359.239 93.3122 361.829 95.0402C363.519 96.1602 365.669 96.9602 367.539 96.1802C370.099 95.1102 370.739 91.8002 371.029 89.0002C371.555 83.8002 372.082 78.5969 372.609 73.3902C372.739 70.5838 373.327 67.8174 374.349 65.2002C375.499 62.6402 377.679 60.3902 380.419 59.9302C383.159 59.4702 386.269 61.3602 386.529 64.1502C386.517 65.3157 386.42 66.4788 386.239 67.6302C386.146 68.2151 386.231 68.8145 386.485 69.3498C386.738 69.8851 387.147 70.3314 387.659 70.6302C388.739 71.0802 389.939 70.4102 390.859 69.6302C394.039 67.1202 396.389 63.7002 398.609 60.2902C400.829 56.8802 402.999 53.3302 405.999 50.5002C408.999 47.6702 412.819 45.6702 416.839 45.8702C420.859 46.0702 424.839 49.0002 425.439 53.0302C426.039 57.0602 423.299 60.8202 420.439 63.7302C416.225 68.0648 411.409 71.7695 406.139 74.7302C405.129 75.1545 404.281 75.8902 403.719 76.8302C402.909 78.6202 404.479 80.6602 406.249 81.4702C408.249 82.3802 410.529 82.4102 412.679 82.9002C414.829 83.3902 417.079 84.6102 417.679 86.7502C418.519 89.7502 415.809 92.4602 413.249 94.1602C408.127 97.5799 402.454 100.09 396.479 101.58C394.349 102.11 392.119 102.58 390.309 103.8C388.499 105.02 387.199 107.5 387.999 109.5C388.799 111.5 391.289 112.5 393.479 112.32C395.669 112.14 397.729 111.19 399.859 110.64C403.859 109.64 408.769 110.4 410.859 113.98C411.486 115.201 411.822 116.551 411.839 117.923C411.857 119.296 411.555 120.654 410.959 121.89C409.74 124.35 408.04 126.54 405.959 128.33C399.092 134.974 390.586 139.678 381.309 141.96C372.089 144.08 363.759 144.03 355.259 139.85" fill="#F5F5F5"/>
<path d="M360.762 129.81C364.54 120.957 368.82 112.326 373.582 103.96C374.842 101.73 376.072 99.53 377.292 97.36C378.512 95.19 379.732 93.05 381.042 91.02C383.58 87.137 386.327 83.3948 389.272 79.81C392.062 76.37 394.832 73.21 397.442 70.27C400.052 67.33 402.562 64.65 404.942 62.27C408.665 58.5426 412.678 55.1152 416.942 52.02C418.452 50.92 419.652 50.11 420.472 49.57L421.412 48.96C421.514 48.8848 421.625 48.8211 421.742 48.77C421.648 48.8578 421.548 48.938 421.442 49.01L420.532 49.66C419.732 50.22 418.532 51.06 417.062 52.18C412.844 55.3309 408.867 58.7904 405.162 62.53C402.812 64.9 400.332 67.59 397.732 70.53C395.132 73.47 392.382 76.65 389.612 80.09C386.681 83.6605 383.953 87.3931 381.442 91.27C380.132 93.27 378.932 95.41 377.712 97.58L374.002 104.18C369.248 112.528 364.965 121.134 361.172 129.96" fill="#E0E0E0"/>
<path d="M381.191 91.0204C381.107 90.619 381.06 90.2105 381.051 89.8004C380.981 89.0104 380.931 87.8704 380.881 86.4604C380.791 83.6404 380.791 79.7404 380.811 75.4604C380.831 71.1804 380.812 67.2704 380.642 64.4604C380.572 63.0504 380.512 61.9104 380.452 61.1304C380.402 60.7219 380.402 60.3089 380.452 59.9004C380.563 60.2958 380.637 60.7009 380.672 61.1104C380.792 61.8904 380.911 63.0304 381.021 64.4304C381.251 67.2504 381.361 71.1504 381.341 75.4304C381.321 79.7104 381.291 83.5104 381.271 86.4304V89.7704C381.297 90.1888 381.27 90.6087 381.191 91.0204Z" fill="#E0E0E0"/>
<path d="M417.79 88.1804C417.308 88.2209 416.823 88.2209 416.34 88.1804C415.41 88.1804 414.06 88.1804 412.4 88.1804C409.08 88.1804 404.49 88.3404 399.4 88.7404C394.31 89.1404 389.78 89.7404 386.49 90.2204C384.84 90.4604 383.49 90.6904 382.6 90.8404C382.127 90.9474 381.645 91.0143 381.16 91.0404C381.612 90.8596 382.081 90.7256 382.56 90.6404C383.47 90.4304 384.79 90.1404 386.43 89.8504C389.72 89.2604 394.29 88.6304 399.36 88.2204C403.684 87.8647 408.023 87.7279 412.36 87.8104C414.02 87.8104 415.36 87.9304 416.3 88.0104C416.801 88.0173 417.3 88.0743 417.79 88.1804Z" fill="#E0E0E0"/>
<path d="M361.268 129.19C361.18 129.047 361.113 128.892 361.068 128.73L360.598 127.37C360.188 126.18 359.598 124.45 359.008 122.3C357.718 118 356.128 112.01 354.458 105.38C352.788 98.7502 351.258 92.7502 350.058 88.4302L348.628 83.3202C348.478 82.7702 348.348 82.3202 348.248 81.9302C348.192 81.7691 348.158 81.6007 348.148 81.4302C348.227 81.5815 348.294 81.7386 348.348 81.9002C348.468 82.2702 348.628 82.7202 348.818 83.2602C349.228 84.4502 349.768 86.1802 350.408 88.3302C351.698 92.6202 353.288 98.6102 354.958 105.25C356.628 111.89 358.158 117.88 359.358 122.25L360.788 127.36C360.938 127.91 361.068 128.36 361.168 128.75C361.22 128.892 361.253 129.04 361.268 129.19Z" fill="#E0E0E0"/>
<path d="M410.59 118.97C410.436 119.046 410.27 119.093 410.1 119.11L408.67 119.43L403.38 120.53C398.92 121.47 392.78 122.82 385.99 124.34C379.2 125.86 372.99 127.15 368.55 127.99C366.31 128.42 364.49 128.74 363.23 128.99L361.78 129.2C361.611 129.229 361.438 129.229 361.27 129.2C361.429 129.141 361.593 129.094 361.76 129.06L363.2 128.75L368.48 127.64C372.94 126.71 379.09 125.35 385.88 123.84C392.67 122.33 398.83 121.02 403.31 120.18C405.55 119.76 407.37 119.44 408.63 119.24L410.08 119.02C410.247 118.982 410.418 118.965 410.59 118.97Z" fill="#E0E0E0"/>
<path d="M473.369 466.32C473.369 466.47 373.369 466.59 250.009 466.59C126.649 466.59 26.6289 466.5 26.6289 466.32C26.6289 466.14 126.629 466.06 250.009 466.06C373.389 466.06 473.369 466.18 473.369 466.32Z" fill="#263238"/>
<path d="M315.699 223.96C316.246 214.7 316.799 205.44 317.359 196.18C317.429 195.06 317.599 193.77 318.559 193.18C319.027 192.996 319.53 192.918 320.032 192.952C320.533 192.987 321.021 193.133 321.459 193.38C337.879 199.99 349.929 218.31 351.369 235.94" fill="#4583E6"/>
<g opacity="0.3">
<path d="M321.278 202.78C325.125 205.3 328.336 208.676 330.66 212.644C332.985 216.611 334.36 221.063 334.678 225.65C334.861 226.758 334.625 227.895 334.018 228.84C333.707 229.179 333.328 229.449 332.906 229.633C332.484 229.818 332.029 229.912 331.568 229.91C330.646 229.9 329.731 229.759 328.848 229.49C326.638 228.92 324.308 228.3 322.668 226.7C321.169 225.111 320.311 223.024 320.258 220.84C320.219 218.675 320.44 216.512 320.918 214.4L323.718 219.18L320.718 203.7C320.671 203.564 320.654 203.42 320.668 203.276C320.682 203.133 320.726 202.995 320.798 202.87C320.968 202.65 321.448 202.73 321.418 203.01" fill="white"/>
</g>
<path d="M220.508 243.68C211.939 233.506 207.012 220.763 206.508 207.47L215.658 211.78L213.368 208.99C226.72 210.103 239.11 216.386 247.898 226.5" fill="#4583E6"/>
<g opacity="0.3">
<path d="M225.578 239.64C221.985 237.028 218.965 233.707 216.707 229.881C214.448 226.056 212.999 221.808 212.448 217.4C212.378 216.8 212.448 216.01 213.008 215.81C213.217 215.773 213.431 215.784 213.636 215.841C213.84 215.898 214.029 216 214.188 216.14L230.698 226.93C229.981 225.9 229.534 224.707 229.398 223.46L236.398 228.59C236.664 228.738 236.898 228.937 237.087 229.175C237.276 229.414 237.415 229.687 237.498 229.98C237.502 230.309 237.427 230.634 237.279 230.928C237.131 231.222 236.915 231.477 236.648 231.67C235.482 232.723 234.063 233.455 232.529 233.795C230.996 234.135 229.4 234.071 227.898 233.61L230.898 236.22C230.005 236.797 229.004 237.188 227.955 237.368C226.907 237.548 225.833 237.515 224.798 237.27C224.697 237.763 224.746 238.275 224.938 238.74C225.131 239.206 225.458 239.602 225.878 239.88" fill="white"/>
</g>
<path d="M406.999 330.95C406.999 330.95 419.799 344.18 425.619 343.08C425.619 343.08 405.399 321.57 396.899 301.72C392.839 292.333 388.002 283.302 382.439 274.72C386.269 268.12 389.679 260.65 391.239 253.1C386.94 258.086 382.039 262.52 376.649 266.3C376.209 265.68 375.759 265.07 375.299 264.45C379.822 260.358 382.837 254.863 383.859 248.85L363.649 247.98C364.282 247.069 364.853 246.117 365.359 245.13C355.431 236.597 344.315 229.553 332.359 224.22C309.109 210.99 257.359 206.62 232.159 228.13C209.589 241.29 203.539 258.13 185.759 262.3L175.219 261.15C175.219 261.15 171.119 283.15 184.589 292.98L174.589 290.66C174.589 290.66 176.429 299.42 186.269 309.08L180.129 308.33C180.129 308.33 182.789 322.11 191.289 325.42C191.289 325.42 178.009 327.08 174.289 322.11C174.289 322.11 169.869 342.71 189.979 350.48C189.979 350.48 129.719 357.54 146.659 431.31C150.659 448.54 174.409 460.94 201.759 466.93L398.759 466.16C410.759 462.24 425.079 422.48 425.609 406.49C426.139 390.5 418.179 359.61 418.179 359.61L425.639 369.54L406.999 330.95Z" fill="#4583E6"/>
<path d="M181.838 361.69C170.528 361.01 159.418 369.8 157.488 380.97C164.847 376.089 173.249 373.007 182.018 371.97C178.565 375.147 176.158 379.298 175.116 383.873C174.075 388.448 174.449 393.232 176.188 397.59C177.646 393.695 179.88 390.136 182.754 387.13C185.628 384.123 189.082 381.732 192.908 380.1C190.295 383.252 188.539 387.025 187.81 391.054C187.082 395.084 187.405 399.233 188.748 403.1" fill="#4583E6"/>
<path d="M188.748 403.12C188.68 402.989 188.627 402.852 188.588 402.71C188.498 402.44 188.338 402.04 188.178 401.51C187.738 399.936 187.463 398.321 187.358 396.69C187.204 394.112 187.464 391.526 188.128 389.03C188.997 385.728 190.577 382.656 192.758 380.03L192.988 380.34C189.199 381.976 185.779 384.36 182.932 387.348C180.085 390.336 177.87 393.867 176.418 397.73L176.198 398.33L175.958 397.74C174.749 394.697 174.19 391.435 174.316 388.163C174.441 384.891 175.249 381.681 176.688 378.74C177.955 376.142 179.706 373.811 181.848 371.87L182.048 372.32C173.321 373.349 164.953 376.397 157.608 381.22L157.168 381.51L157.268 380.99C157.712 378.577 158.557 376.254 159.768 374.12C160.841 372.186 162.188 370.418 163.768 368.87C166.292 366.316 169.343 364.343 172.708 363.09C174.86 362.284 177.123 361.812 179.418 361.69C180.218 361.69 180.828 361.69 181.228 361.69H181.698H181.848H181.698H181.228C180.818 361.69 180.228 361.69 179.428 361.69C177.156 361.864 174.922 362.373 172.798 363.2C169.49 364.473 166.498 366.448 164.028 368.99C162.489 370.524 161.179 372.272 160.138 374.18C158.965 376.281 158.147 378.562 157.718 380.93L157.368 380.7C164.763 375.819 173.198 372.737 181.998 371.7L182.808 371.61L182.198 372.15C180.122 374.05 178.425 376.327 177.198 378.86C175.782 381.74 174.985 384.885 174.858 388.092C174.73 391.298 175.275 394.496 176.458 397.48H175.998C177.582 393.292 180.051 389.495 183.238 386.35C186.011 383.606 189.283 381.417 192.878 379.9L193.638 379.58L193.108 380.21C190.943 382.787 189.364 385.803 188.478 389.05C187.802 391.514 187.515 394.068 187.628 396.62C187.706 398.237 187.947 399.842 188.348 401.41C188.478 401.95 188.618 402.36 188.688 402.63C188.724 402.791 188.744 402.955 188.748 403.12Z" fill="#263238"/>
<path d="M388.328 392.72C394.433 391.428 400.797 392.279 406.349 395.13C411.9 397.98 416.3 402.656 418.808 408.37" fill="#4583E6"/>
<path d="M418.808 408.37C418.708 408.42 417.938 406.47 415.988 403.76C413.447 400.227 410.103 397.348 406.231 395.361C402.359 393.374 398.07 392.335 393.718 392.33C390.378 392.33 388.338 392.83 388.328 392.72C388.784 392.554 389.257 392.437 389.738 392.37C391.057 392.122 392.396 391.988 393.738 391.97C398.168 391.87 402.553 392.877 406.496 394.899C410.438 396.921 413.814 399.894 416.318 403.55C417.079 404.646 417.748 405.803 418.318 407.01C418.533 407.443 418.697 407.9 418.808 408.37Z" fill="#263238"/>
<g opacity="0.3">
<path d="M318.868 409.34C311.608 410.5 302.368 415.99 298.998 422.5C298.278 423.89 298.938 424.08 298.998 425.64C298.999 426.426 299.221 427.196 299.638 427.863C300.055 428.529 300.651 429.065 301.358 429.41C301.716 429.555 302.101 429.624 302.487 429.611C302.874 429.599 303.253 429.505 303.601 429.336C303.949 429.167 304.258 428.927 304.507 428.632C304.756 428.336 304.94 427.991 305.048 427.62C304.181 432.948 305.344 438.408 308.308 442.92C310.35 441.769 311.996 440.025 313.028 437.92C312.838 441.827 313.45 445.731 314.826 449.392C316.201 453.054 318.312 456.395 321.028 459.21L317.488 445.4C316.218 440.4 314.988 436.15 315.328 431.02C315.688 425.54 318.948 420.92 321.478 416.38C317.998 417.89 313.968 424.73 310.538 428.9C310.332 425.271 310.954 421.643 312.355 418.289C313.756 414.935 315.901 411.944 318.628 409.54" fill="black"/>
</g>
<path d="M317.508 445.56C317.394 445.374 317.3 445.176 317.228 444.97C317.078 444.57 316.788 443.97 316.548 443.2C315.798 440.955 315.344 438.622 315.198 436.26C314.961 432.664 315.385 429.054 316.448 425.61C317.756 421.233 320.091 417.232 323.258 413.94L323.608 414.3C320.685 416.92 317.911 419.701 315.298 422.63C313.61 424.556 312.119 426.647 310.848 428.87L310.458 429.56L310.368 428.78C309.926 424.656 310.675 420.491 312.528 416.78C314.062 413.635 316.341 410.913 319.168 408.85L319.358 409.19C317.371 409.93 315.549 411.055 313.998 412.5C312.828 413.585 311.818 414.831 310.998 416.2C310.478 417.072 310.03 417.985 309.658 418.93C309.551 419.271 309.425 419.605 309.278 419.93C309.267 419.844 309.267 419.756 309.278 419.67C309.328 419.49 309.388 419.23 309.498 418.9C309.827 417.924 310.253 416.982 310.768 416.09C311.578 414.679 312.589 413.392 313.768 412.27C315.338 410.78 317.186 409.614 319.208 408.84L320.548 408.33L319.388 409.18C316.661 411.235 314.469 413.918 312.998 417C311.217 420.634 310.5 424.696 310.928 428.72L310.448 428.62C311.737 426.368 313.244 424.247 314.948 422.29C317.576 419.345 320.37 416.554 323.318 413.93L323.668 414.29C320.547 417.519 318.231 421.439 316.908 425.73C315.834 429.125 315.38 432.685 315.568 436.24C315.684 438.583 316.083 440.903 316.758 443.15C316.978 443.94 317.238 444.52 317.358 444.93C317.421 445.137 317.471 445.347 317.508 445.56Z" fill="#263238"/>
<path d="M198.859 444.5C202.787 448.858 207.956 451.908 213.669 453.24C213.98 453.364 214.317 453.406 214.649 453.36C214.98 453.314 215.294 453.184 215.559 452.98C216.139 452.34 215.659 451.33 215.179 450.62L208.829 441.24C213.35 444.813 218.71 447.168 224.399 448.08C225.349 448.23 226.519 448.23 226.999 447.41C227.136 447.049 227.187 446.662 227.147 446.278C227.107 445.894 226.978 445.525 226.769 445.2C225.769 443.06 224.769 440.95 223.589 438.89" fill="#4583E6"/>
<path d="M223.587 438.85C223.709 439.004 223.813 439.172 223.897 439.35L224.697 440.85C225.057 441.52 225.467 442.32 225.947 443.23C226.201 443.697 226.461 444.197 226.727 444.73C227.06 445.291 227.274 445.913 227.357 446.56C227.385 446.947 227.271 447.331 227.037 447.64C226.78 447.946 226.428 448.157 226.037 448.24C225.264 448.358 224.475 448.321 223.717 448.13C222.065 447.846 220.436 447.435 218.847 446.9C215.166 445.671 211.725 443.814 208.677 441.41L209.057 441.06L210.157 442.69L213.697 447.93L215.387 450.42C215.687 450.847 215.907 451.325 216.037 451.83C216.114 452.108 216.099 452.403 215.997 452.673C215.895 452.943 215.709 453.173 215.467 453.33C214.997 453.568 214.456 453.625 213.947 453.49C213.477 453.41 213.057 453.27 212.617 453.17C211.747 452.92 210.917 452.66 210.137 452.36C208.678 451.812 207.266 451.143 205.917 450.36C203.961 449.236 202.151 447.876 200.527 446.31C199.957 445.75 199.527 445.31 199.267 444.98C199.116 444.825 198.982 444.654 198.867 444.47C199.042 444.595 199.203 444.74 199.347 444.9C199.637 445.2 200.077 445.63 200.667 446.16C202.326 447.652 204.148 448.954 206.097 450.04C207.44 450.791 208.841 451.433 210.287 451.96C211.067 452.25 211.887 452.5 212.737 452.74C213.587 452.98 214.537 453.31 215.217 452.93C215.376 452.824 215.495 452.668 215.556 452.488C215.618 452.307 215.618 452.111 215.557 451.93C215.439 451.49 215.239 451.076 214.967 450.71C214.417 449.9 213.857 449.07 213.277 448.23C212.131 446.53 210.947 444.783 209.727 442.99L208.627 441.36L207.627 439.96L208.997 441C213.31 444.412 218.39 446.718 223.797 447.72C224.501 447.908 225.235 447.955 225.957 447.86C226.262 447.82 226.54 447.666 226.735 447.428C226.93 447.19 227.028 446.887 227.007 446.58C226.938 445.975 226.748 445.39 226.447 444.86C226.187 444.33 225.937 443.86 225.707 443.35L224.537 440.94L223.817 439.4C223.716 439.228 223.639 439.043 223.587 438.85Z" fill="#263238"/>
<g opacity="0.3">
<path d="M223.529 382.28C225.739 386.01 228.974 389.026 232.849 390.97C232.628 388.916 231.775 386.98 230.409 385.43C234.629 389.45 239.629 392.56 245.099 394.57C242.77 395.607 240.227 396.076 237.681 395.938C235.135 395.8 232.659 395.059 230.455 393.775C228.252 392.492 226.385 390.704 225.009 388.557C223.633 386.411 222.786 383.968 222.539 381.43" fill="black"/>
</g>
<g opacity="0.3">
<path d="M196.77 317.11C204.71 332.38 230.39 339.92 250.53 340.25C256.75 340.34 265.53 344.94 271.69 344.34C285.52 343.01 296.75 335.56 310.61 334.34C319.24 333.61 327.92 333.34 336.45 331.89C344.98 330.44 344.59 329.43 351.37 324.04C358.15 318.65 365.48 313.31 365.37 304.65C352.63 320.25 340.04 325.08 320.43 329.65C300.82 334.22 280.43 334.12 260.32 333.19C238.19 332.19 214.96 329.75 196.77 317.1" fill="black"/>
</g>
<path d="M265.089 199.99C265.179 199.99 265.259 201.12 265.559 202.91C265.956 205.24 266.592 207.522 267.459 209.72C268.347 211.914 269.456 214.012 270.769 215.98C271.368 216.764 271.925 217.579 272.439 218.42C272.439 218.42 272.209 218.25 271.859 217.87C271.361 217.34 270.897 216.779 270.469 216.19C269.047 214.256 267.874 212.149 266.979 209.92C266.083 207.675 265.484 205.321 265.199 202.92C265.105 202.2 265.052 201.476 265.039 200.75C265.019 200.496 265.036 200.24 265.089 199.99Z" fill="#4583E6"/>
<path d="M271.62 197.5C271.71 197.5 271.31 198.5 270.92 200.17C270.427 202.326 270.262 204.545 270.43 206.75C270.611 208.952 271.126 211.114 271.96 213.16C272.6 214.74 273.15 215.65 273.07 215.69C272.99 215.73 272.88 215.5 272.61 215.1C272.234 214.528 271.9 213.93 271.61 213.31C269.691 209.167 269.318 204.474 270.56 200.08C270.738 199.423 270.969 198.781 271.25 198.16C271.46 197.68 271.59 197.44 271.62 197.5Z" fill="#4583E6"/>
<path d="M149.23 363.7C149.349 363.556 149.483 363.425 149.63 363.31C149.9 363.07 150.29 362.69 150.84 362.31C152.377 361.089 154.001 359.983 155.7 359C161.345 355.802 167.487 353.577 173.87 352.42C180.235 351.261 186.683 350.619 193.15 350.5C195.63 350.44 197.63 350.42 199.01 350.42H200.61C200.797 350.404 200.984 350.404 201.17 350.42C200.987 350.466 200.799 350.489 200.61 350.49L199.02 350.57L193.16 350.82C186.724 351.025 180.311 351.694 173.97 352.82C167.641 353.976 161.535 356.13 155.88 359.2C154.183 360.155 152.543 361.211 150.97 362.36C149.86 363.25 149.26 363.73 149.23 363.7Z" fill="#4583E6"/>
<path d="M292.577 201.84C292.577 201.93 290.867 201.36 288.087 200.68C286.471 200.282 284.812 200.084 283.147 200.09C281.125 200.104 279.144 200.667 277.417 201.72C276.54 202.266 275.777 202.976 275.167 203.81C274.62 204.599 274.236 205.49 274.037 206.43C273.751 208.059 273.823 209.731 274.247 211.33C274.937 214.09 275.677 215.73 275.577 215.77C275.35 215.416 275.166 215.037 275.027 214.64C274.574 213.594 274.193 212.518 273.887 211.42C273.4 209.772 273.29 208.036 273.567 206.34C273.764 205.329 274.165 204.369 274.747 203.52C275.392 202.623 276.203 201.859 277.137 201.27C278.946 200.174 281.023 199.6 283.137 199.61C284.829 199.626 286.51 199.869 288.137 200.33C289.527 200.7 290.627 201.08 291.387 201.33C291.8 201.46 292.199 201.63 292.577 201.84Z" fill="#4583E6"/>
<path d="M442.609 452.44C441.529 445.26 438.009 438.19 431.999 434.1C425.989 430.01 417.339 429.53 411.619 434.02L387.879 466.12L438.419 466.33C441.239 463.72 443.179 456.24 442.609 452.44Z" fill="#4583E6"/>
<g opacity="0.3">
<path d="M409 465.66C413.27 463.88 416.42 460.05 418.36 455.85C420.3 451.65 421.15 447.05 422 442.5C422.7 438.73 423.36 434.66 421.72 431.18C421.329 431.159 420.939 431.24 420.588 431.415C420.237 431.591 419.938 431.854 419.72 432.18C419.282 432.843 418.96 433.578 418.77 434.35C414.86 446.69 408.83 457.35 398.98 465.7" fill="black"/>
</g>
<g opacity="0.3">
<path d="M258.879 214.91C263.879 229.32 264.509 244.91 263.969 260.1C263.699 267.68 263.129 275.34 260.759 282.55C258.389 289.76 254.039 296.55 247.579 300.55C241.479 304.32 233.939 305.31 226.819 304.37C219.699 303.43 212.939 300.7 206.529 297.48C199.209 293.8 192.159 289.4 186.479 283.48C180.799 277.56 176.139 269.29 175.199 261.16L185.739 262.31C185.739 262.31 193.849 261.45 206.459 249.25C220.239 235.93 222.749 234.3 233.069 227.36C241.073 222.067 249.755 217.879 258.879 214.91Z" fill="white"/>
</g>
<g opacity="0.3">
<path d="M302.437 303.73C304.431 302.606 306.737 302.165 309.005 302.473C311.272 302.782 313.377 303.824 314.997 305.44C316.601 303.343 318.772 301.749 321.252 300.845C323.733 299.942 326.42 299.766 328.997 300.34C325.872 301.569 322.963 303.287 320.377 305.43C317.907 307.7 316.127 310.96 316.437 314.3C313.347 310.972 309.794 308.106 305.887 305.79C304.267 304.79 302.137 303.98 300.617 305.1" fill="black"/>
</g>
<path d="M336.877 416.39C331.072 420.557 326.793 426.512 324.696 433.343C322.599 440.174 322.8 447.504 325.267 454.21" fill="#4583E6"/>
<path d="M325.268 454.21C325.186 454.09 325.122 453.959 325.078 453.82C324.978 453.55 324.808 453.17 324.638 452.65C324.15 451.205 323.779 449.724 323.528 448.22C322.654 443.231 322.974 438.106 324.46 433.264C325.946 428.422 328.556 424 332.078 420.36C333.13 419.268 334.271 418.265 335.488 417.36C335.908 417.03 336.268 416.8 336.488 416.64C336.708 416.48 336.858 416.41 336.868 416.43C336.464 416.816 336.04 417.18 335.598 417.52C334.446 418.494 333.357 419.539 332.338 420.65C328.934 424.304 326.404 428.683 324.939 433.457C323.473 438.231 323.111 443.276 323.878 448.21C324.1 449.702 324.417 451.178 324.828 452.63C325.01 453.146 325.157 453.674 325.268 454.21Z" fill="#263238"/>
<path d="M356.77 381.77C360.86 378.63 366.14 375.33 370.77 377.54C372.052 378.243 373.152 379.237 373.981 380.442C374.809 381.648 375.343 383.031 375.54 384.48C375.9 387.382 375.717 390.325 375 393.16C371.642 409.701 364.346 425.188 353.73 438.31C349.88 443.07 344.4 447.89 338.42 446.58C332.84 445.35 329.67 438.97 330 433.26C330.33 427.55 333.21 422.36 335.88 417.26C342.22 405.26 348.38 392.1 356.74 381.73" fill="#4583E6"/>
<path d="M356.77 381.77C356.691 381.901 356.604 382.028 356.51 382.15L355.71 383.22C355 384.16 353.97 385.57 352.71 387.42C349.225 392.694 346.034 398.155 343.15 403.78L337.15 415.42C335.03 419.62 332.36 423.96 330.97 429.04C330.223 431.62 330.083 434.337 330.56 436.98C331.063 439.731 332.425 442.252 334.45 444.18C335.5 445.125 336.757 445.811 338.12 446.18C339.517 446.541 340.977 446.579 342.39 446.29C345.282 445.544 347.921 444.035 350.03 441.92C352.188 439.832 354.153 437.552 355.9 435.11C357.7 432.75 359.32 430.31 360.9 427.89C366.501 418.948 370.737 409.221 373.47 399.03C374.07 396.763 374.584 394.557 375.01 392.41C375.463 390.376 375.667 388.294 375.62 386.21C375.5 382.28 373.44 378.71 370.51 377.52C369.164 376.951 367.683 376.774 366.24 377.01C365.024 377.215 363.84 377.582 362.72 378.1C361.17 378.835 359.688 379.705 358.29 380.7L357.19 381.48C356.95 381.65 356.81 381.73 356.81 381.73L357.16 381.44C357.4 381.24 357.75 380.97 358.23 380.62C359.606 379.58 361.08 378.676 362.63 377.92C363.76 377.369 364.962 376.982 366.2 376.77C367.805 376.474 369.462 376.692 370.936 377.392C372.41 378.092 373.626 379.239 374.41 380.67C375.377 382.354 375.916 384.249 375.98 386.19C376.049 388.302 375.857 390.415 375.41 392.48C374.98 394.64 374.48 396.86 373.89 399.14C371.177 409.379 366.947 419.154 361.34 428.14C359.78 430.58 358.15 433.02 356.34 435.4C354.575 437.87 352.59 440.176 350.41 442.29C348.233 444.47 345.507 446.022 342.52 446.78C341.03 447.083 339.49 447.038 338.02 446.65C336.575 446.251 335.245 445.514 334.14 444.5C332.046 442.495 330.645 439.875 330.14 437.02C329.648 434.304 329.795 431.51 330.57 428.86C332 423.68 334.7 419.34 336.82 415.16C338.94 410.98 341.04 407.1 342.9 403.55C345.816 397.93 349.062 392.487 352.62 387.25C353.9 385.41 354.96 384.02 355.69 383.1L356.54 382.1C356.612 381.987 356.689 381.877 356.77 381.77Z" fill="#263238"/>
<g opacity="0.3">
<path d="M357.268 396.03V396.08C358.268 393.26 360.398 392.45 362.688 391.62C364.978 390.79 367.748 390.88 369.588 392.48C371.708 394.32 371.978 397.56 371.408 400.31C371.273 401.282 370.875 402.198 370.258 402.96C369.938 403.33 369.509 403.589 369.032 403.699C368.556 403.808 368.057 403.763 367.608 403.57C366.608 403.02 366.298 401.57 365.238 401.13C364.178 400.69 362.778 401.68 361.498 402C360.622 402.169 359.715 402.031 358.929 401.608C358.144 401.185 357.529 400.504 357.188 399.68C356.958 399.097 356.847 398.474 356.861 397.847C356.874 397.22 357.013 396.603 357.268 396.03Z" fill="black"/>
</g>
<g opacity="0.3">
<path d="M361.628 381.95C362.141 382.179 362.57 382.564 362.852 383.051C363.134 383.538 363.255 384.101 363.198 384.66C363.148 385.916 362.874 387.152 362.388 388.31C362.038 389.31 361.448 390.42 360.388 390.46C360.09 390.452 359.8 390.368 359.544 390.216C359.289 390.063 359.076 389.848 358.928 389.59C358.641 389.068 358.48 388.486 358.458 387.89C358.358 386.527 358.57 385.159 359.078 383.89C359.296 383.229 359.707 382.647 360.258 382.22C360.535 382.01 360.874 381.896 361.223 381.896C361.571 381.896 361.91 382.01 362.188 382.22" fill="black"/>
</g>
<g opacity="0.3">
<path d="M373.608 384.41C374.121 384.639 374.55 385.024 374.832 385.51C375.114 385.997 375.235 386.56 375.178 387.12C375.127 388.375 374.852 389.611 374.368 390.77C374.018 391.77 373.418 392.88 372.368 392.92C372.07 392.913 371.779 392.829 371.523 392.676C371.268 392.524 371.055 392.308 370.908 392.05C370.612 391.531 370.45 390.947 370.438 390.35C370.34 388.988 370.548 387.621 371.048 386.35C371.27 385.688 371.684 385.106 372.238 384.68C372.515 384.468 372.854 384.354 373.203 384.354C373.551 384.354 373.89 384.468 374.168 384.68" fill="black"/>
</g>
<g opacity="0.3">
<path d="M368.547 379.83C369.059 380.064 369.485 380.452 369.766 380.94C370.048 381.427 370.17 381.99 370.117 382.55C370.063 383.802 369.788 385.034 369.307 386.19C368.947 387.19 368.357 388.31 367.307 388.34C367.01 388.333 366.719 388.249 366.463 388.097C366.207 387.944 365.995 387.729 365.847 387.47C365.559 386.952 365.401 386.372 365.387 385.78C365.279 384.418 365.488 383.048 365.997 381.78C366.215 381.115 366.63 380.533 367.187 380.11C367.463 379.901 367.801 379.788 368.147 379.788C368.494 379.788 368.831 379.901 369.107 380.11" fill="black"/>
</g>
<g opacity="0.3">
<path d="M364.669 420.71C363.871 426.761 362.225 432.669 359.779 438.26C357.313 443.874 353.542 448.818 348.779 452.68C346.579 454.4 343.999 455.88 341.209 455.95C337.259 456.05 333.659 453.22 331.879 449.69C330.099 446.16 329.879 442.06 330.059 438.12C331.969 441.31 334.119 444.71 337.579 446.12C339.108 446.633 340.73 446.809 342.334 446.636C343.937 446.463 345.484 445.946 346.869 445.12C349.629 443.448 352.043 441.262 353.979 438.68C358.264 433.45 361.786 427.639 364.439 421.42" fill="black"/>
</g>
<path d="M140.699 382.57C135.779 381.06 129.699 379.81 126.079 383.51C125.13 384.623 124.455 385.942 124.108 387.363C123.761 388.783 123.751 390.265 124.079 391.69C124.755 394.537 125.955 397.233 127.619 399.64C136.557 413.956 148.809 425.913 163.339 434.5C168.609 437.6 175.429 440.2 180.569 436.87C185.379 433.77 186.099 426.68 183.799 421.45C181.499 416.22 176.999 412.33 172.689 408.5C162.549 399.5 152.169 389.32 140.689 382.5" fill="#4583E6"/>
<path d="M140.7 382.57C140.7 382.57 140.84 382.63 141.11 382.78L142.26 383.46C143.26 384.07 144.75 385 146.6 386.27C151.766 389.933 156.711 393.896 161.41 398.14L171.18 406.88C174.63 410.05 178.68 413.17 181.83 417.52C183.487 419.729 184.607 422.293 185.1 425.01C185.614 427.868 185.211 430.815 183.95 433.43C183.266 434.762 182.28 435.916 181.07 436.8C179.827 437.683 178.397 438.264 176.89 438.5C173.815 438.846 170.704 438.348 167.89 437.06C165.1 435.843 162.423 434.381 159.89 432.69C157.37 431.09 154.98 429.37 152.67 427.64C148.287 424.252 144.175 420.527 140.37 416.5C136.91 412.853 133.715 408.963 130.81 404.86C129.46 402.93 128.21 401.02 127.06 399.15C125.915 397.373 124.991 395.462 124.31 393.46C123.692 391.62 123.534 389.656 123.85 387.74C124.084 386.125 124.82 384.625 125.955 383.453C127.089 382.281 128.564 381.496 130.17 381.21C131.407 380.981 132.668 380.92 133.92 381.03C135.638 381.202 137.336 381.537 138.99 382.03C139.56 382.19 139.99 382.32 140.27 382.42L140.7 382.58L140.26 382.47L138.96 382.13C137.302 381.689 135.609 381.391 133.9 381.24C132.669 381.15 131.432 381.224 130.22 381.46C128.783 381.751 127.458 382.445 126.4 383.46C124.07 385.61 123.4 389.67 124.66 393.39C125.345 395.357 126.265 397.234 127.4 398.98C128.56 400.84 129.814 402.73 131.16 404.65C137.294 413.235 144.671 420.859 153.05 427.27C155.35 429 157.73 430.71 160.24 432.27C162.735 433.945 165.375 435.391 168.13 436.59C170.843 437.838 173.842 438.329 176.81 438.01C178.251 437.791 179.62 437.24 180.81 436.4C181.958 435.568 182.89 434.475 183.53 433.21C184.75 430.696 185.142 427.861 184.65 425.11C184.177 422.466 183.091 419.97 181.48 417.82C178.4 413.54 174.38 410.41 170.93 407.22L161.21 398.43C156.54 394.161 151.635 390.155 146.52 386.43C144.7 385.13 143.24 384.18 142.25 383.54L141.12 382.82L140.7 382.57Z" fill="#263238"/>
<g opacity="0.3">
<path d="M145.239 396.09C143.309 393.8 141.039 393.78 138.599 393.81C136.159 393.84 133.599 394.9 132.439 397.03C131.099 399.51 131.979 402.63 133.439 405.03C133.898 405.894 134.591 406.612 135.439 407.1C135.865 407.339 136.357 407.434 136.842 407.371C137.327 407.308 137.778 407.09 138.129 406.75C138.879 405.88 138.669 404.43 139.489 403.63C140.309 402.83 141.999 403.28 143.299 403.14C144.178 402.991 144.979 402.544 145.568 401.874C146.156 401.204 146.495 400.351 146.529 399.46C146.556 398.211 146.093 397.002 145.239 396.09Z" fill="black"/>
</g>
<g opacity="0.3">
<path d="M136.207 384.43C135.806 384.827 135.541 385.34 135.447 385.896C135.354 386.452 135.438 387.024 135.687 387.53C136.164 388.683 136.841 389.743 137.687 390.66C138.357 391.45 139.317 392.31 140.297 391.98C140.573 391.868 140.816 391.687 141.002 391.454C141.188 391.221 141.31 390.944 141.357 390.65C141.447 390.063 141.396 389.463 141.207 388.9C140.815 387.585 140.132 386.374 139.207 385.36C138.77 384.813 138.177 384.412 137.507 384.21C137.172 384.118 136.816 384.137 136.493 384.266C136.17 384.394 135.898 384.623 135.717 384.92" fill="black"/>
</g>
<g opacity="0.3">
<path d="M125.858 390.94C125.458 391.335 125.193 391.847 125.1 392.401C125.006 392.956 125.09 393.526 125.338 394.03C125.814 395.184 126.491 396.243 127.338 397.16C128.018 397.95 128.968 398.81 129.958 398.48C130.234 398.367 130.475 398.185 130.661 397.952C130.846 397.72 130.969 397.444 131.018 397.15C131.105 396.562 131.05 395.962 130.858 395.4C130.47 394.083 129.786 392.872 128.858 391.86C128.421 391.313 127.829 390.912 127.158 390.71C126.823 390.618 126.467 390.637 126.145 390.766C125.822 390.894 125.549 391.123 125.368 391.42" fill="black"/>
</g>
<g opacity="0.3">
<path d="M128.999 384.88C128.599 385.275 128.334 385.786 128.24 386.341C128.147 386.896 128.23 387.465 128.479 387.97C128.955 389.124 129.632 390.183 130.479 391.1C131.159 391.89 132.109 392.75 133.099 392.42C133.375 392.307 133.617 392.126 133.803 391.893C133.988 391.66 134.111 391.384 134.159 391.09C134.246 390.502 134.191 389.902 133.999 389.34C133.611 388.023 132.927 386.812 131.999 385.8C131.562 385.253 130.969 384.852 130.299 384.65C129.964 384.558 129.608 384.577 129.285 384.706C128.962 384.834 128.69 385.063 128.509 385.36" fill="black"/>
</g>
<g opacity="0.3">
<path d="M147 421.8C149.857 427.176 153.456 432.125 157.69 436.5C161.947 440.903 167.197 444.223 173 446.18C175.66 447.03 178.59 447.51 181.23 446.6C184.97 445.31 187.34 441.4 187.77 437.47C188.2 433.54 187 429.61 185.42 425.99C184.75 429.65 183.93 433.59 181.17 436.09C179.928 437.107 178.48 437.843 176.927 438.247C175.373 438.651 173.75 438.713 172.17 438.43C168.998 437.834 165.97 436.636 163.25 434.9C157.409 431.497 152.077 427.289 147.41 422.4" fill="black"/>
</g>
<g opacity="0.3">
<path d="M143.278 416.37C142.988 416.77 142.698 417.18 142.418 417.59C143.653 415.598 145.279 413.877 147.197 412.531C149.116 411.185 151.288 410.242 153.581 409.759C155.875 409.276 158.243 409.263 160.541 409.721C162.84 410.178 165.022 411.097 166.956 412.422C168.889 413.746 170.534 415.449 171.791 417.428C173.048 419.406 173.891 421.618 174.269 423.932C174.646 426.245 174.551 428.611 173.989 430.886C173.427 433.161 172.409 435.299 170.998 437.17C159.755 432.574 149.578 425.715 141.098 417.02" fill="white"/>
</g>
<path d="M425.6 406.5C425.608 406.724 425.591 406.949 425.55 407.17C425.48 407.67 425.39 408.3 425.29 409.09C425.06 410.76 424.67 413.16 424.12 416.09C422.76 423.827 420.711 431.427 418 438.8C416.442 442.845 414.559 446.758 412.37 450.5C411.86 451.36 411.31 452.16 410.81 452.96L410.05 454.13L409.24 455.22L407.7 457.27C407.17 457.9 406.64 458.49 406.14 459.05C405.64 459.61 405.19 460.18 404.69 460.64L403.31 461.97L402.1 463.12L401 463.99L399.47 465.19C399.301 465.341 399.113 465.469 398.91 465.57C399.061 465.401 399.225 465.244 399.4 465.1L400.87 463.84L401.93 462.94L403.1 461.76L404.45 460.42C404.94 459.95 405.37 459.37 405.86 458.81L407.38 457.02L408.89 454.96L409.68 453.88C409.93 453.5 410.17 453.11 410.42 452.71C410.92 451.91 411.42 451.11 411.96 450.26C414.09 446.526 415.932 442.634 417.47 438.62C420.18 431.285 422.284 423.739 423.76 416.06C424.35 413.12 424.76 410.73 425.09 409.06C425.23 408.28 425.35 407.65 425.44 407.16C425.477 406.936 425.53 406.716 425.6 406.5Z" fill="#263238"/>
<path d="M195.539 345.84C195.67 345.66 195.825 345.499 195.999 345.36L197.389 344.06C197.999 343.49 198.749 342.81 199.649 342.06C200.549 341.31 201.549 340.4 202.709 339.48C204.999 337.59 207.809 335.48 211.019 333.18C214.229 330.88 217.859 328.59 221.779 326.31C225.699 324.03 229.549 322.07 233.089 320.39C236.629 318.71 239.909 317.39 242.689 316.32C244.069 315.77 245.339 315.32 246.449 314.94C247.559 314.56 248.529 314.23 249.319 313.99L251.149 313.43C251.356 313.353 251.57 313.3 251.789 313.27C251.593 313.373 251.389 313.46 251.179 313.53L249.379 314.18C248.599 314.45 247.649 314.79 246.549 315.18C245.449 315.57 244.189 316.05 242.819 316.62C240.069 317.71 236.819 319.12 233.299 320.79C229.779 322.46 225.999 324.5 221.999 326.74C217.999 328.98 214.479 331.34 211.249 333.56C208.019 335.78 205.249 337.9 202.899 339.75C201.729 340.65 200.709 341.52 199.799 342.27C198.889 343.02 198.109 343.66 197.489 344.21L196.029 345.44C195.882 345.592 195.717 345.726 195.539 345.84Z" fill="#263238"/>
<path d="M167.391 329.14C167.391 329.14 167.451 329.09 167.571 329L168.131 328.62L170.331 327.22C171.281 326.61 172.451 325.88 173.851 325.09C175.251 324.3 176.851 323.34 178.611 322.42L181.411 320.93C182.411 320.42 183.411 319.93 184.501 319.41C186.621 318.34 188.961 317.34 191.401 316.25C196.331 314.17 201.831 312.09 207.731 310.25C213.631 308.41 219.361 307.08 224.611 306.04C227.241 305.57 229.741 305.09 232.101 304.78C233.271 304.62 234.411 304.43 235.501 304.31L238.661 303.96C240.661 303.72 242.491 303.62 244.091 303.5C245.691 303.38 247.091 303.31 248.211 303.28L250.811 303.21H251.481C251.56 303.195 251.641 303.195 251.721 303.21H251.491L250.811 303.27L248.221 303.44C247.091 303.5 245.711 303.58 244.121 303.74C242.531 303.9 240.701 304.01 238.701 304.28L235.551 304.66C234.461 304.79 233.331 304.99 232.161 305.16C229.811 305.48 227.321 305.98 224.701 306.46C219.481 307.53 213.771 308.91 207.881 310.7C201.991 312.49 196.511 314.58 191.591 316.63C189.151 317.7 186.811 318.69 184.691 319.74C183.621 320.26 182.571 320.74 181.591 321.23L178.781 322.69C176.981 323.59 175.401 324.51 174.001 325.28C172.601 326.05 171.401 326.75 170.431 327.33L168.191 328.65L167.601 328.98C167.471 329.12 167.391 329.15 167.391 329.14Z" fill="#263238"/>
<path d="M286.557 296.18C286.617 296.33 284.037 297.42 281.188 299.33C278.338 301.24 276.328 303.19 276.188 303.07C278.919 299.848 282.502 297.46 286.527 296.18H286.557Z" fill="#263238"/>
<path d="M303.479 301.61C303.479 301.71 301.999 301.04 299.549 300.42C296.357 299.586 293.05 299.282 289.759 299.52C286.467 299.657 283.245 300.514 280.319 302.03C279.154 302.731 278.152 303.672 277.379 304.79C277.481 304.426 277.654 304.086 277.889 303.79C278.496 302.96 279.256 302.254 280.129 301.71C282.309 300.28 285.819 299.29 289.719 298.99C293.066 298.748 296.429 299.107 299.649 300.05C300.62 300.321 301.572 300.655 302.499 301.05C302.845 301.201 303.173 301.388 303.479 301.61Z" fill="#263238"/>
<path d="M270.619 309.95L271.789 312.75C272.135 313.474 272.371 314.246 272.489 315.04C272.546 315.439 272.516 315.845 272.402 316.231C272.288 316.618 272.093 316.975 271.829 317.28C271.379 317.66 270.817 317.883 270.228 317.913C269.639 317.944 269.057 317.781 268.569 317.45C267.622 316.748 266.922 315.765 266.569 314.64C266.149 313.54 265.869 312.38 265.359 311.32C266.008 310.728 266.497 309.983 266.782 309.153C267.067 308.323 267.138 307.435 266.989 306.57C266.989 306.57 267.999 309.77 270.619 309.95Z" fill="#F5F5F5"/>
<path d="M254.289 299.75C255.175 297.966 256.423 296.387 257.954 295.113C259.484 293.838 261.264 292.898 263.179 292.35C269.559 290.67 276.179 297.35 276.179 297.35C276.179 297.35 268.469 295.08 268.579 298.91C268.689 302.74 270.959 302.65 268.399 305.17C265.839 307.69 261.449 305.04 260.399 302.07L258.339 299.17L254.289 299.75Z" fill="#263238"/>
<path d="M280.708 303.5C280.708 303.5 280.708 303.63 280.758 303.86C280.792 304.209 280.792 304.561 280.758 304.91C280.575 306.191 280.057 307.402 279.258 308.42C278.674 309.193 277.94 309.839 277.099 310.321C276.259 310.802 275.33 311.108 274.368 311.22C273.18 311.311 271.988 311.119 270.888 310.663C269.788 310.206 268.812 309.495 268.038 308.59C267.272 307.71 266.732 306.656 266.468 305.52L266.958 305.38C267.259 306.321 267.34 307.319 267.196 308.296C267.052 309.274 266.687 310.205 266.128 311.02C265.371 312.079 264.301 312.874 263.068 313.292C261.836 313.711 260.503 313.731 259.258 313.35C258.995 313.27 258.741 313.167 258.498 313.04C258.338 312.95 258.258 312.9 258.258 312.88C258.258 312.86 258.628 313.02 259.308 313.18C260.269 313.399 261.267 313.399 262.228 313.18C263.668 312.855 264.931 311.993 265.758 310.77C266.263 310.008 266.589 309.142 266.714 308.237C266.839 307.332 266.758 306.41 266.478 305.54L266.968 305.41C267.223 306.461 267.727 307.435 268.438 308.25C269.158 309.095 270.066 309.761 271.088 310.195C272.11 310.628 273.219 310.819 274.328 310.75C275.233 310.651 276.111 310.374 276.909 309.935C277.707 309.496 278.41 308.903 278.978 308.19C279.772 307.232 280.315 306.091 280.558 304.87C280.688 304.03 280.658 303.5 280.708 303.5Z" fill="#263238"/>
<path d="M268.349 293.29C267.687 293.389 267.017 293.419 266.349 293.38C264.731 293.363 263.119 293.572 261.559 294C260.018 294.45 258.619 295.29 257.499 296.44C256.669 297.35 256.369 298.08 256.289 298.05C256.421 297.357 256.747 296.715 257.229 296.2C258.32 294.901 259.776 293.96 261.409 293.5C263.019 293.054 264.693 292.888 266.359 293.01C267.033 292.999 267.704 293.094 268.349 293.29Z" fill="white"/>
<path d="M270.267 318.14C269.303 316.519 268.575 314.767 268.107 312.94C267.482 311.162 267.119 309.302 267.027 307.42C267.177 307.42 267.707 309.84 268.607 312.79C269.507 315.74 270.407 318.08 270.267 318.14Z" fill="#263238"/>
<path d="M199.07 329.35C199.192 329.221 199.326 329.103 199.47 329L200.68 328.06C201.68 327.25 203.31 326.14 205.3 324.84C207.29 323.54 209.71 322.08 212.48 320.58C215.25 319.08 218.37 317.58 221.73 316.21C225.09 314.84 228.36 313.72 231.37 312.81C234.38 311.9 237.14 311.24 239.47 310.81C241.8 310.38 243.7 310.01 245.02 309.81L246.54 309.62C246.716 309.6 246.894 309.6 247.07 309.62C246.905 309.691 246.729 309.739 246.55 309.76L245.05 310.04C243.74 310.26 241.86 310.64 239.55 311.16C237.24 311.68 234.55 312.38 231.55 313.29C228.55 314.2 225.31 315.35 221.96 316.71C218.61 318.07 215.52 319.58 212.74 321.03C209.96 322.48 207.54 323.91 205.53 325.17C203.52 326.43 201.93 327.49 200.84 328.25L199.57 329.1C199.24 329.28 199.08 329.37 199.07 329.35Z" fill="#263238"/>
<path d="M249.178 285.298C252.067 273.183 244.587 261.021 232.473 258.133C220.358 255.245 208.196 262.724 205.308 274.838C202.42 286.953 209.899 299.115 222.013 302.003C234.128 304.891 246.29 297.412 249.178 285.298Z" fill="#F5F5F5"/>
<path d="M249.81 280.1C249.81 290.98 242.46 299.81 236.24 299.81C230.02 299.81 225 290.98 225 280.1C225 269.22 230 260.38 236.28 260.38C242.56 260.38 249.81 269.21 249.81 280.1Z" fill="#263238"/>
<path d="M241.239 272.81C243.371 272.81 245.099 271.082 245.099 268.95C245.099 266.818 243.371 265.09 241.239 265.09C239.107 265.09 237.379 266.818 237.379 268.95C237.379 271.082 239.107 272.81 241.239 272.81Z" fill="white"/>
<path d="M231.259 294.42C231.034 294.131 230.846 293.815 230.699 293.48C230.227 292.595 229.823 291.676 229.489 290.73C228.97 289.332 228.565 287.894 228.279 286.43C227.939 284.636 227.752 282.816 227.719 280.99C227.713 279.16 227.863 277.334 228.169 275.53C228.426 274.062 228.8 272.617 229.289 271.21C229.602 270.259 229.986 269.333 230.439 268.44C230.575 268.085 230.756 267.748 230.979 267.44C231.069 267.44 230.379 268.89 229.639 271.29C229.209 272.692 228.875 274.122 228.639 275.57C228.366 277.347 228.233 279.142 228.239 280.94C228.271 282.737 228.442 284.529 228.749 286.3C229.012 287.747 229.376 289.174 229.839 290.57C230.629 292.99 231.349 294.38 231.259 294.42Z" fill="white"/>
<path d="M221.529 251.38C221.469 252.11 220.629 252.67 219.529 253.19C218.429 253.71 216.939 254.19 215.469 254.86C213.999 255.53 212.709 256.11 211.609 256.61C210.509 257.11 209.609 257.41 208.959 257.02C208.309 256.63 208.229 255.54 208.959 254.09C209.946 252.26 211.552 250.842 213.489 250.09C215.345 249.272 217.416 249.083 219.389 249.55C220.799 249.93 221.589 250.68 221.529 251.38Z" fill="#263238"/>
<path d="M113.91 443.5L118.98 435.56C143.12 462.08 222.88 493.62 294.29 422.33C324.96 391.71 322.48 339.97 322.48 339.97L316.38 320.81H322.48C322.48 320.81 340.16 353.42 321.65 396.12C321.65 396.12 302.65 446.73 244.48 465.12C152.72 494.1 113.91 443.5 113.91 443.5Z" fill="#4583E6"/>
<g opacity="0.7">
<path d="M113.91 443.5L118.98 435.56C143.12 462.08 222.88 493.62 294.29 422.33C324.96 391.71 322.48 339.97 322.48 339.97L316.38 320.81H322.48C322.48 320.81 340.16 353.42 321.65 396.12C321.65 396.12 302.65 446.73 244.48 465.12C152.72 494.1 113.91 443.5 113.91 443.5Z" fill="white"/>
</g>
<path d="M112.541 453.202C129.47 436.273 129.47 408.825 112.541 391.896C95.612 374.967 68.1643 374.967 51.2351 391.896C34.3059 408.825 34.3059 436.273 51.2351 453.202C68.1643 470.132 95.612 470.132 112.541 453.202Z" fill="#4583E6"/>
<g opacity="0.7">
<path d="M112.541 453.202C129.47 436.273 129.47 408.825 112.541 391.896C95.612 374.967 68.1643 374.967 51.2351 391.896C34.3059 408.825 34.3059 436.273 51.2351 453.202C68.1643 470.132 95.612 470.132 112.541 453.202Z" fill="white"/>
</g>
<path d="M92.2792 380.41C92.256 380.688 92.2057 380.962 92.1292 381.23C92.0092 381.81 91.8292 382.59 91.6192 383.58C91.4992 384.09 91.3692 384.66 91.2292 385.27C91.0892 385.88 90.8692 386.54 90.6692 387.27C90.2392 388.69 89.8292 390.33 89.1692 392.08L88.1692 394.84C87.8292 395.84 87.3992 396.77 86.9892 397.79C86.2092 399.84 85.1692 401.95 84.1192 404.18C81.7134 408.968 78.9663 413.576 75.8992 417.97C72.7691 422.321 69.3303 426.442 65.6092 430.3C63.8392 432.03 62.1992 433.7 60.5192 435.12C59.6992 435.84 58.9192 436.57 58.1292 437.21L55.8392 439.04C54.4092 440.24 52.9992 441.17 51.8392 442.04C51.2292 442.47 50.6792 442.88 50.1492 443.23L48.6792 444.16L46.6792 445.42C46.4512 445.582 46.2065 445.72 45.9492 445.83C46.1617 445.649 46.3855 445.482 46.6192 445.33L48.6192 443.99L50.0592 442.99C50.5792 442.62 51.1192 442.2 51.7192 441.77C52.8992 440.88 54.2892 439.92 55.7192 438.71L57.9792 436.87C58.7692 436.22 59.5292 435.49 60.3392 434.76C61.9992 433.33 63.6292 431.65 65.3392 429.92C69.0051 426.073 72.3999 421.977 75.4992 417.66C78.5539 413.29 81.3006 408.712 83.7192 403.96C84.7792 401.74 85.8192 399.65 86.6192 397.62C87.0392 396.62 87.4792 395.62 87.8292 394.69C88.1792 393.76 88.5092 392.82 88.8292 391.95C89.5092 390.21 89.9492 388.58 90.3992 387.18C90.6092 386.47 90.8292 385.81 90.9992 385.18C91.1692 384.55 91.2992 384.01 91.4292 383.5C91.6892 382.5 91.8892 381.75 92.0392 381.18C92.0974 380.917 92.1777 380.66 92.2792 380.41Z" fill="#4583E6"/>
<path d="M102.528 384.83C102.497 385.125 102.44 385.416 102.358 385.7C102.218 386.31 102.028 387.13 101.778 388.17C101.648 388.71 101.498 389.31 101.338 389.96C101.178 390.61 100.948 391.3 100.718 392.05C100.248 393.54 99.798 395.28 99.068 397.11L97.998 400.02C97.628 401.02 97.138 402.02 96.688 403.12C95.818 405.27 94.688 407.48 93.518 409.81C90.8592 414.818 87.8168 419.612 84.418 424.15C80.9656 428.64 77.1781 432.862 73.088 436.78C71.168 438.55 69.348 440.25 67.528 441.69C66.628 442.42 65.788 443.17 64.918 443.8L62.428 445.65C60.878 446.86 59.348 447.8 58.048 448.65C56.748 449.5 55.598 450.23 54.648 450.78L52.448 452.06C52.1982 452.218 51.9375 452.359 51.668 452.48C51.898 452.292 52.142 452.121 52.398 451.97L54.538 450.61C55.478 450.03 56.618 449.32 57.888 448.41C59.158 447.5 60.678 446.55 62.218 445.33L64.668 443.5C65.528 442.86 66.358 442.1 67.248 441.37C69.058 439.92 70.848 438.22 72.758 436.45C76.803 432.519 80.5594 428.301 83.998 423.83C87.3775 419.318 90.4127 414.558 93.078 409.59C94.258 407.27 95.398 405.08 96.288 402.94C96.738 401.88 97.288 400.88 97.608 399.87C97.928 398.86 98.358 397.87 98.708 396.99C99.458 395.16 99.928 393.45 100.428 391.99C100.668 391.24 100.918 390.55 101.098 389.91C101.278 389.27 101.428 388.68 101.568 388.14C101.858 387.14 102.078 386.3 102.248 385.7C102.324 385.405 102.417 385.114 102.528 384.83Z" fill="#4583E6"/>
<path d="M112 392.62C111.95 392.912 111.876 393.2 111.78 393.48C111.6 394.09 111.35 394.9 111.04 395.94C110.88 396.47 110.69 397.06 110.5 397.7C110.31 398.34 110.02 399.03 109.75 399.78C109.19 401.25 108.62 402.96 107.75 404.78L106.52 407.65C106.09 408.65 105.57 409.65 105.06 410.71C104.06 412.83 102.84 415.01 101.58 417.32C98.7354 422.257 95.5581 426.995 92.0703 431.5C88.4983 435.959 84.6224 440.166 80.4703 444.09C78.4703 445.86 76.6903 447.56 74.8403 449.01C73.9303 449.74 73.0803 450.48 72.2003 451.13L69.6903 452.99C68.1103 454.2 66.5803 455.15 65.2703 455.99C64.6103 456.42 64.0003 456.84 63.4203 457.19L61.8303 458.13L59.6103 459.41C59.3566 459.567 59.0927 459.708 58.8203 459.83C59.0529 459.641 59.3004 459.47 59.5603 459.32L61.7203 457.96L63.2903 456.96C63.8603 456.6 64.4603 456.17 65.1103 455.73C66.4003 454.82 67.9103 453.86 69.4703 452.63C70.2703 452.03 71.1003 451.41 71.9603 450.75C72.8203 450.09 73.6603 449.35 74.5703 448.61C76.3903 447.16 78.2103 445.45 80.1403 443.69C84.2531 439.759 88.1015 435.559 91.6603 431.12C95.1617 426.64 98.3621 421.933 101.24 417.03C102.51 414.73 103.76 412.58 104.76 410.47C105.27 409.47 105.76 408.47 106.24 407.47C106.72 406.47 107.09 405.52 107.49 404.62C108.33 402.82 108.92 401.12 109.49 399.62C109.78 398.89 110.05 398.21 110.28 397.57C110.51 396.93 110.69 396.35 110.87 395.82C111.22 394.82 111.5 394 111.7 393.4C111.782 393.133 111.882 392.873 112 392.62Z" fill="#4583E6"/>
<path d="M123.369 433.75C123.019 433.662 122.683 433.528 122.369 433.35C121.769 433.07 120.899 432.63 119.839 432.08C117.719 430.98 114.839 429.38 111.689 427.5C108.539 425.62 105.799 423.81 103.829 422.45C102.829 421.77 102.059 421.21 101.519 420.8C101.226 420.613 100.958 420.392 100.719 420.14C101.046 420.266 101.355 420.434 101.639 420.64L104.029 422.14C106.029 423.42 108.839 425.14 111.959 427.05C115.079 428.96 117.959 430.58 120.019 431.76L122.469 433.17C122.795 433.318 123.099 433.514 123.369 433.75Z" fill="#4583E6"/>
<path d="M125.199 424.37C124.191 423.803 123.222 423.168 122.299 422.47C120.529 421.26 118.069 419.62 115.299 417.92C112.529 416.22 109.919 414.8 108.039 413.76C106.999 413.245 105.996 412.657 105.039 412C105.347 412.071 105.644 412.185 105.919 412.34C106.469 412.58 107.249 412.95 108.209 413.43C110.129 414.43 112.759 415.78 115.569 417.48C118.379 419.18 120.809 420.88 122.569 422.17C123.429 422.82 124.119 423.35 124.569 423.74C125.019 424.13 125.229 424.35 125.199 424.37Z" fill="#4583E6"/>
<path d="M98.4906 461.7C98.3406 461.7 98.0006 453.76 97.7306 443.95C97.4606 434.14 97.3506 426.18 97.4906 426.18C97.6306 426.18 97.9706 434.12 98.2506 443.93C98.5306 453.74 98.6306 461.7 98.4906 461.7Z" fill="#4583E6"/>
<path d="M77.1189 466.67C76.8554 463.367 76.7686 460.052 76.8589 456.74C76.7684 453.428 76.8552 450.113 77.1189 446.81C77.3766 450.113 77.4634 453.428 77.3789 456.74C77.4631 460.052 77.3763 463.367 77.1189 466.67Z" fill="#4583E6"/>
<path d="M87.6177 465.5C87.4777 465.5 87.3977 459 87.4577 450.99C87.5177 442.98 87.6677 436.47 87.8177 436.47C87.9677 436.47 88.0277 442.97 87.9777 450.99C87.9277 459.01 87.7577 465.5 87.6177 465.5Z" fill="#4583E6"/>
<path d="M65.4574 430.29C65.3774 430.41 59.7174 426.76 52.8274 422.13C45.9374 417.5 40.3974 413.65 40.4774 413.5C40.5574 413.35 46.2174 417.03 53.1174 421.66C60.0174 426.29 65.5374 430.17 65.4574 430.29Z" fill="#4583E6"/>
<path d="M57.9089 436.5C57.6089 436.454 57.3184 436.36 57.0489 436.22C56.5189 436.01 55.7489 435.67 54.8189 435.22C52.4157 434.046 50.0788 432.741 47.8189 431.31C45.1589 429.63 42.8189 427.96 41.1989 426.72C40.2799 426.093 39.4197 425.383 38.6289 424.6C39.5995 425.142 40.5317 425.75 41.4189 426.42C43.1089 427.59 45.4189 429.2 48.0989 430.87C50.7789 432.54 53.2189 433.92 55.0289 434.87C56.02 435.356 56.9817 435.901 57.9089 436.5Z" fill="#4583E6"/>
<path d="M83.9297 404.1C83.4404 404.336 82.9319 404.53 82.4097 404.68C81.8069 404.903 81.1927 405.093 80.5697 405.25C79.8497 405.45 79.0297 405.68 78.1097 405.87C75.952 406.336 73.768 406.67 71.5697 406.87C68.8768 407.11 66.1723 407.193 63.4697 407.12C60.7677 407.023 58.0734 406.772 55.3997 406.37C53.2185 406.034 51.0583 405.573 48.9297 404.99C48.0197 404.76 47.2097 404.5 46.4997 404.27C45.7897 404.04 45.1697 403.83 44.6897 403.63C44.1688 403.461 43.6636 403.247 43.1797 402.99C43.7144 403.097 44.2395 403.248 44.7497 403.44C45.2497 403.61 45.8597 403.8 46.5797 403.99C47.2997 404.18 48.1097 404.43 49.0197 404.64C50.8397 405.11 53.0197 405.51 55.4697 405.9C58.1228 406.269 60.7929 406.503 63.4697 406.6C66.1382 406.669 68.8085 406.599 71.4697 406.39C73.6609 406.212 75.8408 405.915 77.9997 405.5C78.9297 405.34 79.7497 405.13 80.4697 404.96C81.1897 404.79 81.8197 404.63 82.3197 404.48C82.8425 404.301 83.3818 404.174 83.9297 404.1Z" fill="#4583E6"/>
<path d="M88.7169 392.88C88.2459 393.146 87.7544 393.373 87.2469 393.56C86.7669 393.78 86.1669 394 85.4669 394.25C84.7669 394.5 83.9669 394.79 83.0769 395.05C80.9776 395.694 78.8443 396.221 76.6869 396.63C74.0411 397.113 71.3702 397.447 68.6869 397.63C66.0026 397.789 63.3112 397.789 60.6269 397.63C58.4368 397.489 56.2586 397.202 54.1069 396.77C53.1769 396.61 52.3569 396.39 51.6369 396.2C51.0209 396.049 50.4134 395.865 49.8169 395.65C49.2955 395.498 48.7872 395.304 48.2969 395.07C48.8349 395.148 49.3641 395.279 49.8769 395.46C50.3669 395.61 50.9869 395.76 51.7069 395.91C52.4269 396.06 53.2469 396.27 54.1669 396.41C56.3142 396.781 58.4812 397.028 60.6569 397.15C63.3229 397.27 65.9934 397.247 68.6569 397.08C71.3186 396.88 73.9686 396.546 76.5969 396.08C79.0069 395.61 81.1769 395.14 82.9569 394.62C83.8569 394.38 84.6569 394.12 85.3669 393.89C86.0769 393.66 86.6769 393.48 87.1669 393.29C87.6697 393.105 88.1886 392.968 88.7169 392.88Z" fill="#4583E6"/>
<path d="M91.6784 383C91.261 383.233 90.8181 383.418 90.3584 383.55C89.4984 383.88 88.2284 384.31 86.6584 384.79C82.5477 386.056 78.3451 387.002 74.0884 387.62C69.8284 388.242 65.5216 388.487 61.2184 388.35C59.5684 388.28 58.2184 388.18 57.3184 388.07C56.8391 388.043 56.3635 387.969 55.8984 387.85C56.3775 387.807 56.8594 387.807 57.3384 387.85C58.2484 387.9 59.5784 387.94 61.2284 387.96C65.5004 387.996 69.769 387.712 73.9984 387.11C78.2333 386.482 82.4248 385.59 86.5484 384.44C88.1284 384 89.4084 383.63 90.2884 383.36C90.7409 383.201 91.2058 383.081 91.6784 383Z" fill="#4583E6"/>
<path d="M109.199 425.65C107.482 427.911 105.628 430.065 103.649 432.1C101.796 434.254 99.8162 436.294 97.7188 438.21C99.4372 435.947 101.291 433.79 103.269 431.75C105.119 429.598 107.1 427.561 109.199 425.65Z" fill="#4583E6"/>
<path d="M117.519 430.57C117.411 430.871 117.26 431.154 117.069 431.41C116.749 431.94 116.249 432.67 115.599 433.56C112.187 438.181 107.826 442.02 102.809 444.82C101.809 445.35 101.059 445.75 100.499 446C100.22 446.154 99.9205 446.269 99.6094 446.34C99.6094 446.27 100.769 445.64 102.609 444.5C105.023 443.024 107.311 441.352 109.449 439.5C111.564 437.616 113.517 435.559 115.289 433.35C116.679 431.63 117.449 430.5 117.519 430.57Z" fill="#4583E6"/>
<path d="M120.048 435.01C119.863 436.976 119.268 438.882 118.302 440.604C117.335 442.327 116.019 443.828 114.438 445.01C115.694 443.542 116.837 441.981 117.857 440.34C118.718 438.62 119.45 436.838 120.048 435.01Z" fill="#4583E6"/>
<path d="M128.437 444.2C128.135 445.811 127.398 447.308 126.307 448.53C125.349 449.86 124.04 450.899 122.527 451.53C123.723 450.493 124.852 449.381 125.907 448.2C126.827 446.917 127.672 445.581 128.437 444.2Z" fill="#4583E6"/>
<path d="M142 452.5C142.047 454.228 141.595 455.932 140.7 457.41C139.949 458.967 138.756 460.268 137.27 461.15C138.388 459.909 139.392 458.571 140.27 457.15C140.981 455.654 141.56 454.098 142 452.5Z" fill="#4583E6"/>
<path d="M157.527 459.96C157.898 461.583 157.726 463.284 157.037 464.8C156.507 466.374 155.483 467.735 154.117 468.68C156.203 466.24 157.404 463.168 157.527 459.96Z" fill="#4583E6"/>
<path d="M171.868 472.75C171.718 472.7 172.318 470.75 172.458 468.31C172.598 465.87 172.248 463.86 172.398 463.83C173.354 466.764 173.165 469.951 171.868 472.75Z" fill="#4583E6"/>
<path d="M183.619 473.61C183.479 473.55 184.199 471.81 184.389 469.54C184.579 467.27 184.189 465.44 184.389 465.41C184.884 466.745 185.075 468.174 184.949 469.592C184.823 471.011 184.382 472.383 183.659 473.61H183.619Z" fill="#4583E6"/>
<path d="M200.06 473.5C199.91 473.5 200.15 471.79 199.88 469.74C199.61 467.69 198.97 466.12 199.11 466.06C199.869 467.123 200.316 468.377 200.4 469.68C200.65 470.96 200.532 472.285 200.06 473.5Z" fill="#4583E6"/>
<path d="M211.418 472.5C211.258 472.5 211.258 470.89 210.718 469.02C210.178 467.15 209.368 465.76 209.498 465.68C210.299 466.607 210.886 467.698 211.218 468.876C211.549 470.055 211.618 471.292 211.418 472.5Z" fill="#4583E6"/>
<path d="M224.748 469.57C224.588 469.57 224.668 468 224.078 466.21C223.488 464.42 222.538 463.21 222.668 463.09C223.555 463.891 224.214 464.913 224.579 466.05C224.944 467.188 225.002 468.402 224.748 469.57Z" fill="#4583E6"/>
<path d="M241.16 466.23C241 466.23 240.98 464.48 240.25 462.49C239.52 460.5 238.42 459.14 238.54 459.04C239.529 459.935 240.284 461.058 240.74 462.311C241.197 463.564 241.341 464.909 241.16 466.23Z" fill="#4583E6"/>
<path d="M254.997 460.83C254.847 460.83 254.297 459.06 253.117 457.08C251.937 455.1 250.627 453.74 250.737 453.63C253.026 455.397 254.55 457.973 254.997 460.83Z" fill="#4583E6"/>
<path d="M270.47 452.72C270.32 452.72 269.85 450.84 268.59 448.82C267.33 446.8 265.85 445.52 265.95 445.4C267.198 446.21 268.25 447.287 269.032 448.552C269.814 449.818 270.305 451.241 270.47 452.72Z" fill="#4583E6"/>
<path d="M285.577 441.89C284.919 440.724 284.18 439.604 283.367 438.54C282.432 437.582 281.43 436.694 280.367 435.88C281.727 436.261 282.924 437.075 283.777 438.2C284.757 439.205 285.388 440.499 285.577 441.89Z" fill="#4583E6"/>
<path d="M298.518 430.84C298.388 430.93 297.188 429.32 295.368 427.68C293.548 426.04 291.848 424.97 291.928 424.83C293.357 425.362 294.651 426.201 295.719 427.29C296.899 428.256 297.855 429.467 298.518 430.84Z" fill="#4583E6"/>
<path d="M310.107 416.43C309.977 416.51 308.977 414.89 307.217 413.43C305.457 411.97 303.707 411.23 303.767 411.08C305.16 411.437 306.454 412.105 307.551 413.033C308.649 413.962 309.523 415.126 310.107 416.44V416.43Z" fill="#4583E6"/>
<path d="M320.438 399.28C319.271 398.346 318.052 397.478 316.788 396.68C315.441 396.04 314.059 395.476 312.648 394.99C314.199 394.981 315.721 395.411 317.038 396.23C318.441 396.899 319.621 397.958 320.438 399.28Z" fill="#4583E6"/>
<path d="M326.717 380.75C324.016 379.184 320.912 378.454 317.797 378.65C319.339 378.203 320.97 378.162 322.532 378.53C324.095 378.897 325.536 379.662 326.717 380.75Z" fill="#4583E6"/>
<path d="M329.508 360.85C329.458 361 327.828 360.43 325.738 360.21C323.648 359.99 321.938 360.21 321.918 360.01C324.461 359.292 327.183 359.594 329.508 360.85Z" fill="#4583E6"/>
<path d="M328.479 340.92C327.537 341.04 326.587 341.08 325.639 341.04C324.7 341.161 323.754 341.208 322.809 341.18C324.6 340.39 326.622 340.298 328.479 340.92Z" fill="#4583E6"/>
<path d="M324.399 327.23C323.412 327.025 322.406 326.934 321.399 326.96C320.422 327.15 319.469 327.449 318.559 327.85C318.559 327.8 318.739 327.51 319.219 327.19C319.857 326.778 320.583 326.521 321.339 326.44C322.094 326.355 322.858 326.451 323.569 326.72C324.149 326.93 324.429 327.17 324.399 327.23Z" fill="#4583E6"/>
<g opacity="0.3">
<path d="M256.58 394.5C261.43 403.71 272.74 408.44 283.08 407.18C293.42 405.92 302.63 399.49 309.08 391.29C313.83 385.23 317.35 377.38 315.39 369.94C310.26 380.603 301.287 388.932 290.271 393.254C279.255 397.576 267.012 397.571 256 393.24" fill="black"/>
</g>
<path d="M317.099 315.25C314.776 311.669 313.924 307.33 314.721 303.136C315.519 298.942 317.904 295.218 321.379 292.74C324.139 290.74 327.469 289.67 330.079 287.51C331.675 286.11 332.975 284.405 333.903 282.496C334.83 280.586 335.366 278.51 335.479 276.39C335.672 272.137 334.73 267.909 332.749 264.14L335.529 262.77L335.769 263.07C337.615 265.494 338.9 268.297 339.533 271.277C340.166 274.257 340.13 277.341 339.428 280.305C338.726 283.27 337.375 286.042 335.474 288.422C333.572 290.802 331.166 292.731 328.429 294.07C326.347 295.025 324.39 296.231 322.599 297.66C319.129 300.66 320.549 304.07 320.549 304.07" fill="#4583E6"/>
<g opacity="0.7">
<path d="M317.099 315.25C314.776 311.669 313.924 307.33 314.721 303.136C315.519 298.942 317.904 295.218 321.379 292.74C324.139 290.74 327.469 289.67 330.079 287.51C331.675 286.11 332.975 284.405 333.903 282.496C334.83 280.586 335.366 278.51 335.479 276.39C335.672 272.137 334.73 267.909 332.749 264.14L335.529 262.77L335.769 263.07C337.615 265.494 338.9 268.297 339.533 271.277C340.166 274.257 340.13 277.341 339.428 280.305C338.726 283.27 337.375 286.042 335.474 288.422C333.572 290.802 331.166 292.731 328.429 294.07C326.347 295.025 324.39 296.231 322.599 297.66C319.129 300.66 320.549 304.07 320.549 304.07" fill="white"/>
</g>
<path d="M320.999 304.25C319.866 304.026 318.713 303.925 317.559 303.95C316.414 304.134 315.294 304.446 314.219 304.88C315.127 304.054 316.28 303.545 317.503 303.432C318.726 303.318 319.953 303.605 320.999 304.25Z" fill="#4583E6"/>
<path d="M323.618 296.62C323.478 296.67 323.038 295.8 322.218 294.98C321.398 294.16 320.538 293.7 320.588 293.56C320.638 293.42 321.678 293.69 322.588 294.61C323.498 295.53 323.748 296.58 323.618 296.62Z" fill="#4583E6"/>
<path d="M333.43 290.82C333.29 290.87 332.93 289.9 332.14 288.95C331.35 288 330.5 287.44 330.57 287.31C330.64 287.18 331.69 287.57 332.57 288.63C333.45 289.69 333.57 290.8 333.43 290.82Z" fill="#4583E6"/>
<path d="M339.999 278.38C339.234 278.327 338.475 278.21 337.729 278.03C336.963 278.013 336.201 277.929 335.449 277.78C336.199 277.498 337.006 277.406 337.799 277.511C338.593 277.615 339.349 277.914 339.999 278.38Z" fill="#4583E6"/>
<path d="M337.769 266.36C337.769 266.51 336.919 266.46 335.989 266.74C335.059 267.02 334.369 267.47 334.269 267.36C334.169 267.25 334.769 266.54 335.839 266.24C336.909 265.94 337.809 266.23 337.769 266.36Z" fill="#4583E6"/>
<path d="M245.207 340.39C248.747 338.09 253.437 338.85 257.457 340.18C261.477 341.51 265.507 343.35 269.717 342.95C274.307 342.52 278.237 339.46 281.267 336C285.011 331.722 287.796 326.693 289.437 321.25C291.097 315.71 291.947 309.2 296.717 305.92C301.487 302.64 308.107 304.29 312.207 308.17C316.307 312.05 318.287 317.65 319.587 323.17C322.587 335.89 322.637 349.46 318.517 361.87C314.397 374.28 305.927 385.4 294.427 391.62C282.927 397.84 268.427 398.73 256.727 392.91" fill="#4583E6"/>
<path d="M256.727 392.88C256.911 392.943 257.091 393.017 257.267 393.1L258.827 393.78C259.527 394.05 260.397 394.37 261.427 394.78C262.457 395.19 263.677 395.47 265.067 395.78C268.436 396.508 271.882 396.814 275.327 396.69C277.476 396.603 279.615 396.356 281.727 395.95C284.096 395.518 286.422 394.875 288.677 394.03C293.873 392.089 298.661 389.196 302.797 385.5C307.557 381.288 311.517 376.25 314.487 370.63C317.765 364.422 319.912 357.68 320.827 350.72C321.813 343.246 321.651 335.665 320.347 328.24C319.746 324.473 318.806 320.768 317.537 317.17C316.345 313.669 314.305 310.519 311.597 308C308.924 305.639 305.451 304.387 301.887 304.5C300.181 304.574 298.523 305.091 297.077 306C295.681 306.921 294.517 308.153 293.677 309.6C291.957 312.44 291.217 315.68 290.377 318.74C289.64 321.758 288.581 324.688 287.217 327.48C285.935 330.084 284.368 332.539 282.547 334.8C280.901 336.921 278.962 338.796 276.787 340.37C274.803 341.82 272.491 342.758 270.057 343.1C267.883 343.298 265.69 343.064 263.607 342.41C259.717 341.26 256.537 339.78 253.727 339.33C251.599 338.858 249.389 338.913 247.287 339.49C246.748 339.659 246.226 339.876 245.727 340.14C245.387 340.33 245.207 340.41 245.207 340.41L245.697 340.1C246.188 339.811 246.708 339.573 247.247 339.39C249.364 338.759 251.606 338.67 253.767 339.13C256.607 339.56 259.827 341.02 263.687 342.13C265.734 342.759 267.885 342.976 270.017 342.77C272.393 342.424 274.646 341.496 276.577 340.07C278.717 338.509 280.623 336.65 282.237 334.55C284.024 332.302 285.563 329.868 286.827 327.29C288.173 324.52 289.215 321.613 289.937 318.62C290.767 315.57 291.497 312.29 293.267 309.35C294.141 307.837 295.356 306.549 296.817 305.59C298.316 304.631 300.04 304.083 301.817 304C303.631 303.916 305.444 304.198 307.147 304.83C308.888 305.456 310.499 306.398 311.897 307.61C314.666 310.184 316.754 313.403 317.977 316.98C319.262 320.613 320.212 324.355 320.817 328.16C322.138 335.634 322.297 343.267 321.287 350.79C320.36 357.809 318.186 364.606 314.867 370.86C311.865 376.535 307.856 381.618 303.037 385.86C298.851 389.557 294.011 392.44 288.767 394.36C286.494 395.197 284.151 395.833 281.767 396.26C279.637 396.653 277.481 396.887 275.317 396.96C271.849 397.064 268.381 396.728 264.997 395.96C263.607 395.66 262.407 395.26 261.357 394.96C260.307 394.66 259.457 394.25 258.767 393.96L257.227 393.23C256.897 392.98 256.727 392.88 256.727 392.88Z" fill="#263238"/>
<path d="M299.767 317.65C299.255 317.227 298.845 316.693 298.567 316.09C297.812 314.662 297.433 313.065 297.467 311.45C297.486 309.838 297.909 308.256 298.697 306.85C298.986 306.248 299.415 305.723 299.947 305.32C300.017 305.38 299.537 305.96 299.027 307.02C298.364 308.408 298.01 309.923 297.987 311.461C297.965 312.998 298.275 314.523 298.897 315.93C299.387 317 299.847 317.6 299.767 317.65Z" fill="#263238"/>
<path d="M305.839 316.77C305.381 316.298 305.021 315.741 304.779 315.13C304.108 313.682 303.715 312.122 303.619 310.53C303.518 308.939 303.722 307.344 304.219 305.83C304.38 305.192 304.669 304.593 305.069 304.07C304.322 306.127 304.004 308.315 304.137 310.5C304.269 312.684 304.849 314.818 305.839 316.77Z" fill="#263238"/>
<path d="M310.7 318.5C310.068 316.983 309.807 315.338 309.94 313.7C309.896 312.057 310.239 310.426 310.94 308.94C311.09 308.99 310.52 311.07 310.46 313.71C310.4 316.35 310.85 318.5 310.7 318.5Z" fill="#263238"/>
<path d="M394.19 331C385.04 336.58 372.87 335.52 363.39 330.51C353.91 325.5 346.73 317.11 340.74 308.31C339.04 305.81 337.32 303.16 334.68 301.65C329.49 298.65 322.32 301.55 319.34 306.65C316.36 311.75 316.92 318.29 319.22 323.75C319.22 323.75 325.32 353.31 357.12 371.69" fill="#4583E6"/>
<path d="M357.119 371.72C357.023 371.687 356.932 371.64 356.849 371.58L356.069 371.12C355.369 370.69 354.379 370.07 353.069 369.29C352.439 368.87 351.679 368.47 350.929 367.91L348.479 366.12C347.609 365.45 346.609 364.82 345.669 363.99L342.669 361.42C337.72 356.987 333.319 351.978 329.559 346.5C327.29 343.203 325.284 339.732 323.559 336.12C321.622 332.19 320.094 328.072 318.999 323.83V323.88C317.478 320.399 316.842 316.596 317.149 312.81C317.343 310.833 317.907 308.91 318.809 307.14C319.985 304.908 321.789 303.069 323.998 301.85C326.207 300.631 328.724 300.085 331.239 300.28C332.704 300.454 334.11 300.96 335.349 301.76C336.535 302.569 337.588 303.557 338.469 304.69C339.359 305.79 340.139 306.95 340.899 308.08C341.659 309.21 342.449 310.32 343.229 311.4C344.809 313.57 346.429 315.64 348.099 317.57C351.233 321.261 354.802 324.558 358.729 327.39C362.16 329.854 365.965 331.748 369.999 333C375.824 334.896 382.068 335.09 387.999 333.56C388.494 333.438 388.982 333.288 389.459 333.11C389.909 332.95 390.339 332.82 390.719 332.66C391.479 332.32 392.139 332.06 392.639 331.8L393.789 331.19C393.917 331.115 394.051 331.052 394.189 331C394.073 331.09 393.949 331.17 393.819 331.24L392.689 331.89C392.189 332.17 391.539 332.44 390.779 332.8C390.389 332.97 389.969 333.11 389.519 333.28C389.04 333.47 388.549 333.63 388.049 333.76C382.074 335.386 375.755 335.244 369.859 333.35C365.783 332.111 361.936 330.216 358.469 327.74C354.502 324.902 350.895 321.591 347.729 317.88C346.039 315.94 344.409 313.88 342.819 311.7C342.029 310.61 341.249 309.49 340.479 308.36C339.709 307.23 338.939 306.08 338.069 305.01C337.218 303.924 336.206 302.973 335.069 302.19C333.896 301.434 332.566 300.959 331.179 300.8C328.305 300.538 325.433 301.33 323.099 303.03C321.532 304.174 320.234 305.647 319.294 307.344C318.355 309.042 317.797 310.924 317.659 312.86C317.363 316.56 317.981 320.275 319.459 323.68V323.73C320.538 327.943 322.046 332.034 323.959 335.94C325.688 339.537 327.694 342.994 329.959 346.28C333.686 351.745 338.05 356.747 342.959 361.18L345.959 363.77C346.889 364.61 347.879 365.24 348.729 365.92L351.159 367.74C351.899 368.31 352.649 368.74 353.279 369.14L356.209 371.04L356.959 371.54C357.018 371.595 357.072 371.655 357.119 371.72Z" fill="#263238"/>
<path d="M327.819 318.39C327.061 315.974 325.996 313.665 324.649 311.52C322.309 308.02 319.329 306.18 319.449 306.04C320.146 306.33 320.791 306.732 321.359 307.23C324.249 309.513 326.365 312.631 327.419 316.16C327.68 316.875 327.816 317.629 327.819 318.39Z" fill="#263238"/>
<path d="M334 314.38C333.606 311.843 332.88 309.368 331.84 307.02C330.641 304.751 329.151 302.646 327.41 300.76C328.068 301.159 328.658 301.658 329.16 302.24C330.439 303.589 331.502 305.127 332.31 306.8C333.114 308.472 333.66 310.255 333.93 312.09C334.085 312.844 334.108 313.619 334 314.38Z" fill="#263238"/>
<g opacity="0.3">
<path d="M313.327 373.07C315.817 369.26 305.557 368.36 301.037 368.89C294.417 369.651 288.316 372.844 283.918 377.85C279.52 382.856 277.139 389.317 277.237 395.98C277.237 395.98 296.997 398.09 313.327 373.07Z" fill="white"/>
</g>
<g opacity="0.3">
<path d="M330.18 356.06C335.378 364.011 343.087 369.996 352.08 373.06C353.023 373.469 354.06 373.614 355.08 373.48C355.582 373.406 356.043 373.158 356.383 372.78C356.723 372.402 356.919 371.918 356.94 371.41C346.25 365.594 337.087 357.333 330.2 347.3C329.675 350.377 330.115 353.542 331.46 356.36" fill="black"/>
</g>
<path d="M316.422 288.579C325.228 279.773 325.228 265.495 316.422 256.689C307.615 247.882 293.338 247.882 284.531 256.689C275.725 265.495 275.725 279.773 284.531 288.579C293.338 297.385 307.615 297.385 316.422 288.579Z" fill="#F5F5F5"/>
<path d="M322.997 273.58C322.997 284.47 317.277 293.58 310.907 293.58C304.537 293.58 299.367 284.75 299.367 273.87C299.367 262.99 304.537 254.16 310.907 254.16C317.277 254.16 322.997 262.7 322.997 273.58Z" fill="#263238"/>
<path d="M305.297 282.93C305.109 282.707 304.954 282.458 304.837 282.19C304.475 281.483 304.165 280.751 303.907 280C302.166 274.981 302.311 269.499 304.317 264.58C304.613 263.843 304.968 263.131 305.377 262.45C305.504 262.187 305.669 261.944 305.867 261.73C305.947 261.73 305.347 262.85 304.667 264.73C303.79 267.158 303.304 269.71 303.227 272.29C303.161 274.867 303.498 277.438 304.227 279.91C304.837 281.78 305.387 282.89 305.297 282.93Z" fill="white"/>
<path d="M313.79 265.09C315.922 265.09 317.65 263.362 317.65 261.23C317.65 259.098 315.922 257.37 313.79 257.37C311.658 257.37 309.93 259.098 309.93 261.23C309.93 263.362 311.658 265.09 313.79 265.09Z" fill="white"/>
<path d="M315.078 244.8C314.648 245.39 313.558 245.38 312.188 245.16C310.818 244.94 309.098 244.54 307.238 244.24C305.378 243.94 303.698 243.76 302.348 243.57C300.998 243.38 299.958 243.11 299.688 242.43C299.418 241.75 300.068 240.78 301.588 239.97C302.482 239.513 303.445 239.206 304.438 239.06C305.651 238.871 306.886 238.871 308.098 239.06C310.284 239.392 312.319 240.374 313.938 241.88C315.138 243.12 315.488 244.23 315.078 244.8Z" fill="#263238"/>
<path d="M304.859 300.79C303.118 297.214 302.735 293.127 303.78 289.289C304.826 285.451 307.229 282.123 310.543 279.924C313.857 277.724 317.857 276.802 321.799 277.329C325.742 277.857 329.359 279.797 331.979 282.79" fill="#4583E6"/>
<path d="M331.999 282.79C331.999 282.79 331.519 282.34 330.629 281.57C329.358 280.491 327.928 279.614 326.389 278.97C324.117 278.009 321.666 277.539 319.199 277.59C316.166 277.562 313.194 278.441 310.664 280.114C308.134 281.787 306.161 284.178 304.999 286.98C303.995 289.233 303.477 291.673 303.479 294.14C303.479 295.805 303.732 297.461 304.229 299.05C304.589 300.17 304.869 300.77 304.819 300.79C304.726 300.663 304.649 300.526 304.589 300.38C304.379 299.972 304.196 299.551 304.039 299.12C303.45 297.518 303.139 295.827 303.119 294.12C303.052 291.591 303.544 289.078 304.559 286.76C305.733 283.866 307.752 281.394 310.354 279.667C312.955 277.94 316.017 277.038 319.139 277.08C321.668 277.051 324.173 277.573 326.479 278.61C328.032 279.293 329.459 280.232 330.699 281.39C331.039 281.701 331.356 282.035 331.649 282.39C331.782 282.508 331.9 282.643 331.999 282.79Z" fill="#263238"/>
<path d="M260.08 215.4C259.921 215.484 259.748 215.541 259.57 215.57L258.08 215.97C257.43 216.13 256.64 216.36 255.73 216.64L254.28 217.07L252.66 217.62C246.782 219.674 241.143 222.356 235.84 225.62C230.531 228.895 225.452 232.53 220.64 236.5C218.79 238.02 217.3 239.26 216.29 240.14L215.1 241.14C214.83 241.37 214.68 241.48 214.66 241.46C214.769 241.317 214.893 241.186 215.03 241.07L216.15 240C217.15 239.08 218.58 237.8 220.4 236.23C225.167 232.179 230.239 228.502 235.57 225.23C240.903 221.92 246.609 219.255 252.57 217.29L254.2 216.76L255.68 216.37C256.6 216.11 257.39 215.91 258.05 215.78L259.57 215.48C259.736 215.433 259.908 215.406 260.08 215.4Z" fill="#263238"/>
<path d="M115.06 93.2803C114.881 92.9065 114.744 92.5141 114.65 92.1103C114.53 91.7303 114.4 91.2503 114.28 90.7003C114.16 90.1503 114 89.5003 113.9 88.8003C113.626 87.147 113.472 85.4759 113.44 83.8003C113.415 81.7424 113.556 79.6858 113.86 77.6503C114.193 75.6151 114.685 73.609 115.33 71.6503C115.883 70.0602 116.551 68.5127 117.33 67.0203C117.64 66.3703 117.99 65.8203 118.27 65.3203C118.55 64.8203 118.82 64.4203 119.05 64.0903C119.264 63.731 119.515 63.3958 119.8 63.0903C119.88 63.1403 118.89 64.6103 117.66 67.1703C116.95 68.6699 116.335 70.213 115.82 71.7903C115.208 73.7312 114.734 75.7128 114.4 77.7203C114.106 79.7304 113.956 81.7589 113.95 83.7903C113.959 85.4628 114.076 87.1329 114.3 88.7903C114.66 91.5603 115.16 93.2603 115.06 93.2803Z" fill="#263238"/>
<path d="M351.245 32.0786L134.406 72.4238L157.1 194.391L373.938 154.045L351.245 32.0786Z" fill="white"/>
<path d="M373.94 154.04C373.94 154.04 373.78 153.3 373.51 151.86C373.24 150.42 372.83 148.28 372.3 145.49C371.25 139.91 369.7 131.68 367.72 121.12C363.72 100.01 358.06 69.5501 351.04 32.1201L351.28 32.2801L134.46 72.6701L134.67 72.3601C142.67 115.5 150.36 156.76 157.35 194.36L157.06 194.16L313.06 165.25L357.87 156.98L369.81 154.79L372.89 154.23L373.95 154.05L372.95 154.26L369.9 154.84L358 157.07L313.26 165.5L157.14 194.63L156.9 194.68V194.44C149.9 156.86 142.22 115.61 134.18 72.4401V72.1801H134.43L351.2 31.8701H351.4V32.0601L367.88 121.24C369.82 131.79 371.33 140 372.36 145.58L373.52 151.92C373.82 153.32 373.94 154.04 373.94 154.04Z" fill="#263238"/>
<path d="M227.671 119.16L221.001 120.4L222.601 128.97L210.261 131.27L208.661 122.7L185.001 127.1L183.461 118.85L198.341 87.1802L211.451 84.7402L198.091 114.28L207.171 112.59L205.751 104.98L217.751 102.76L219.171 110.36L225.811 109.13L227.671 119.16Z" fill="#263238"/>
<path d="M227.659 104.88C224.909 90.1102 231.659 80.0602 243.089 77.9302C254.519 75.8002 264.359 82.7702 267.089 97.5402C269.819 112.31 263.089 122.36 251.729 124.47C240.369 126.58 230.409 119.65 227.659 104.88ZM254.389 99.8802C252.639 90.5002 248.999 87.5002 244.999 88.2902C240.999 89.0802 238.619 93.1102 240.369 102.51C242.119 111.91 245.709 114.88 249.799 114.12C253.889 113.36 256.139 109.3 254.389 99.9002V99.8802Z" fill="#263238"/>
<path d="M316.231 102.68L309.581 103.92L311.171 112.49L298.841 114.79L297.241 106.22L273.581 110.62L272.051 102.37L286.931 70.7002L300.001 68.2603L286.681 97.8003L295.761 96.1103L294.341 88.5003L306.341 86.2803L307.751 93.8802L314.401 92.6503L316.231 102.68Z" fill="#263238"/>
<path d="M232.08 155.25L232.49 157.43L219.75 159.8L216.48 142.24L228.87 139.94L229.27 142.12L219.39 143.96L220.39 149.35L229.2 147.71L229.6 149.85L220.79 151.5L221.85 157.16L232.08 155.25Z" fill="#263238"/>
<path d="M248.279 154.5L243.489 149.81C243.149 149.9 242.779 150 242.399 150.07L238.059 150.88L239.059 156.22L236.559 156.69L233.289 139.13L240.139 137.85C244.699 137 247.889 138.8 248.599 142.61C248.883 143.82 248.759 145.089 248.247 146.221C247.735 147.353 246.864 148.284 245.769 148.87L251.029 153.99L248.279 154.5ZM246.079 143.08C245.609 140.57 243.669 139.45 240.459 140.08L236.189 140.87L237.659 148.77L241.929 147.98C245.139 147.34 246.549 145.58 246.079 143.07V143.08Z" fill="#263238"/>
<path d="M266.51 151.1L261.72 146.41C261.38 146.5 261.01 146.6 260.63 146.67L256.29 147.47L257.29 152.82L254.79 153.28L251.52 135.73L258.37 134.45C262.93 133.6 266.12 135.45 266.83 139.21C267.12 140.424 267 141.7 266.488 142.838C265.976 143.976 265.101 144.912 264 145.5L269.26 150.62L266.51 151.1ZM264.31 139.68C263.84 137.17 261.9 136.05 258.69 136.68L254.42 137.47L255.89 145.37L260.16 144.58C263.37 143.95 264.78 142.18 264.31 139.68Z" fill="#263238"/>
<path d="M269.942 141.38C268.992 136.24 272.232 131.66 277.632 130.66C283.032 129.66 287.632 132.74 288.632 137.91C289.632 143.08 286.342 147.62 281.002 148.62C275.662 149.62 270.902 146.5 269.942 141.38ZM286.102 138.38C285.868 137.023 285.235 135.766 284.284 134.77C283.333 133.773 282.107 133.083 280.763 132.785C279.418 132.487 278.015 132.597 276.733 133.099C275.45 133.601 274.346 134.474 273.561 135.605C272.776 136.737 272.345 138.076 272.324 139.454C272.303 140.831 272.692 142.183 273.441 143.338C274.191 144.494 275.267 145.4 276.534 145.942C277.8 146.483 279.199 146.636 280.552 146.38C281.453 146.242 282.317 145.922 283.091 145.438C283.864 144.955 284.531 144.319 285.05 143.569C285.57 142.82 285.931 141.972 286.112 141.078C286.292 140.184 286.289 139.263 286.102 138.37V138.38Z" fill="#263238"/>
<path d="M305.811 143.79L301.001 139.1C300.651 139.19 300.281 139.28 299.901 139.35L295.561 140.16L296.561 145.5L294.051 145.97L290.781 128.41L297.631 127.14C302.201 126.29 305.381 128.08 306.091 131.9C306.378 133.11 306.256 134.38 305.744 135.513C305.232 136.645 304.359 137.576 303.261 138.16L308.521 143.28L305.811 143.79ZM303.601 132.36C303.141 129.86 301.191 128.74 297.981 129.36L293.721 130.15L295.191 138.05L299.451 137.26C302.661 136.64 304.071 134.87 303.601 132.36Z" fill="#263238"/>
<path d="M346.669 45.2801C346.704 46.1744 346.473 47.059 346.005 47.8218C345.537 48.5846 344.853 49.1912 344.04 49.5648C343.226 49.9384 342.32 50.0622 341.437 49.9204C340.553 49.7787 339.731 49.3777 339.076 48.7685C338.42 48.1592 337.96 47.369 337.754 46.4981C337.548 45.6271 337.605 44.7146 337.918 43.8762C338.232 43.0377 338.787 42.3111 339.513 41.7884C340.24 41.2658 341.105 40.9705 341.999 40.9401C343.193 40.8995 344.355 41.3333 345.23 42.1465C346.105 42.9598 346.622 44.0864 346.669 45.2801Z" fill="#E0E0E0"/>
<path d="M346.672 45.2799C346.622 45.2799 346.612 44.8799 346.392 44.2099C346.073 43.2741 345.459 42.4671 344.642 41.9099C343.982 41.4632 343.212 41.2075 342.416 41.1713C341.62 41.1351 340.83 41.3197 340.132 41.7047C339.435 42.0897 338.857 42.6601 338.464 43.3528C338.07 44.0455 337.876 44.8336 337.902 45.6299C337.941 46.423 338.199 47.19 338.645 47.8465C339.092 48.503 339.711 49.0236 340.435 49.3512C341.158 49.6788 341.958 49.8006 342.746 49.7034C343.534 49.6061 344.28 49.2935 344.902 48.7999C345.675 48.1833 346.223 47.3293 346.462 46.3699C346.632 45.6799 346.612 45.2799 346.662 45.2799C346.712 45.2799 346.662 45.3799 346.712 45.5699C346.731 45.8509 346.714 46.1332 346.662 46.4099C346.484 47.4529 345.942 48.3991 345.132 49.0799C344.53 49.5927 343.808 49.9451 343.034 50.1042C342.259 50.2633 341.457 50.224 340.702 49.9899C339.766 49.6994 338.943 49.126 338.347 48.3485C337.75 47.5711 337.409 46.6278 337.371 45.6486C337.332 44.6694 337.599 43.7024 338.132 42.8806C338.666 42.0589 339.442 41.4228 340.352 41.0599C341.086 40.7646 341.883 40.6602 342.668 40.7564C343.453 40.8526 344.201 41.1462 344.842 41.6099C345.701 42.2298 346.313 43.1328 346.572 44.1599C346.648 44.4299 346.685 44.7094 346.682 44.9899C346.692 45.1799 346.692 45.2799 346.672 45.2799Z" fill="#263238"/>
<path d="M344.149 42.1401C344.373 43.3466 344.153 44.5934 343.529 45.6501C343.064 46.7835 342.204 47.7104 341.109 48.2601C341.823 47.355 342.474 46.4028 343.059 45.4101C343.494 44.3451 343.858 43.2527 344.149 42.1401Z" fill="#263238"/>
<path d="M344.999 46.9301C344.869 47.0101 344.269 45.8201 342.909 45.1201C342.048 44.7719 341.142 44.5496 340.219 44.4601C340.219 44.3901 340.519 44.2501 341.069 44.2101C341.79 44.1725 342.508 44.3278 343.149 44.6601C343.789 44.9908 344.328 45.4884 344.709 46.1001C344.999 46.5701 345.099 46.9101 344.999 46.9301Z" fill="#263238"/>
<path d="M144.013 104.912L132.637 113.983L136.739 119.128L148.115 110.056L144.013 104.912Z" fill="#E0E0E0"/>
<path d="M148.112 110.07C148.112 110.07 147.652 109.57 146.912 108.69L143.912 105.04H144.182C141.262 107.42 137.272 110.64 132.852 114.16C132.852 114.49 132.852 113.72 132.852 113.8L132.922 113.89L133.062 114.06L133.332 114.39L133.862 115.06L134.862 116.37L136.862 118.87H136.512C139.792 116.28 142.642 114.08 144.692 112.5L147.112 110.66C147.407 110.419 147.717 110.199 148.042 110C147.807 110.246 147.552 110.474 147.282 110.68L144.982 112.6C142.982 114.24 140.162 116.6 136.822 119.26L136.632 119.41L136.472 119.22L134.472 116.73C134.122 116.3 133.772 115.87 133.422 115.42L132.892 114.76L132.622 114.42L132.482 114.25L132.422 114.17C132.422 114.25 132.502 113.48 132.422 113.81C136.842 110.28 140.872 107.11 143.842 104.81L143.992 104.7L144.112 104.84C145.382 106.48 146.392 107.84 147.112 108.72C147.475 109.147 147.809 109.598 148.112 110.07Z" fill="#263238"/>
<path d="M130.08 120.5C130.574 121.126 131.186 121.649 131.883 122.038C132.579 122.427 133.345 122.675 134.137 122.768C134.93 122.861 135.732 122.797 136.5 122.579C137.267 122.361 137.984 121.995 138.61 121.5L131 112C129.756 113.009 128.961 114.468 128.789 116.061C128.617 117.653 129.081 119.248 130.08 120.5Z" fill="#E0E0E0"/>
<path d="M130.08 120.5C129.896 120.349 129.738 120.17 129.61 119.97C129.234 119.415 128.956 118.799 128.79 118.15C128.523 117.147 128.523 116.092 128.79 115.09C129.12 113.789 129.86 112.628 130.9 111.78L131.09 111.63L131.24 111.82L135.04 116.55C136.38 118.23 137.65 119.84 138.81 121.31L138.96 121.5L138.77 121.65C137.713 122.474 136.42 122.94 135.08 122.98C134.037 123.006 133.004 122.765 132.08 122.28C131.487 121.971 130.953 121.562 130.5 121.07C130.331 120.903 130.19 120.711 130.08 120.5C130.714 121.105 131.432 121.617 132.21 122.02C133.219 122.486 134.338 122.663 135.442 122.53C136.545 122.398 137.59 121.962 138.46 121.27V121.61L134.66 116.88L130.89 112.12H131.22C130.35 112.816 129.691 113.74 129.317 114.789C128.942 115.838 128.867 116.971 129.1 118.06C129.313 118.914 129.643 119.736 130.08 120.5Z" fill="#263238"/>
<path d="M131.479 117.35C131.011 117.892 130.705 118.554 130.594 119.26C130.482 119.967 130.571 120.691 130.849 121.35" fill="#E0E0E0"/>
<path d="M130.852 121.39C130.59 121.105 130.405 120.759 130.314 120.382C130.223 120.006 130.229 119.613 130.332 119.24C130.522 117.94 131.402 117.24 131.482 117.35C131.562 117.46 131.002 118.2 130.842 119.35C130.682 120.5 131.002 121.32 130.852 121.39Z" fill="#263238"/>
<path d="M138.631 118C137.825 117.175 137.082 116.289 136.411 115.35C135.612 114.523 134.877 113.637 134.211 112.7C135.244 113.265 136.133 114.058 136.811 115.02C137.63 115.867 138.251 116.885 138.631 118Z" fill="#263238"/>
<path d="M140 116.94C139.198 116.113 138.459 115.227 137.79 114.29C136.989 113.462 136.253 112.572 135.59 111.63C137.558 112.919 139.094 114.769 140 116.94Z" fill="#263238"/>
<path d="M141.299 115.87C140.494 115.046 139.755 114.16 139.089 113.22C138.285 112.395 137.547 111.509 136.879 110.57C137.913 111.136 138.806 111.929 139.489 112.89C140.301 113.74 140.919 114.757 141.299 115.87Z" fill="#263238"/>
<path d="M142.629 114.81C141.827 113.983 141.088 113.097 140.419 112.16C139.621 111.328 138.886 110.439 138.219 109.5C139.245 110.073 140.133 110.865 140.819 111.82C141.639 112.668 142.258 113.69 142.629 114.81Z" fill="#263238"/>
<path d="M144 113.74C143.195 112.916 142.456 112.03 141.79 111.09C140.988 110.266 140.252 109.38 139.59 108.44C140.618 109.01 141.506 109.803 142.19 110.76C143.002 111.61 143.62 112.627 144 113.74Z" fill="#263238"/>
<path d="M145.301 112.68C144.499 111.853 143.76 110.967 143.091 110.03C142.293 109.199 141.558 108.31 140.891 107.37C141.917 107.943 142.805 108.735 143.491 109.69C144.311 110.538 144.93 111.56 145.301 112.68Z" fill="#263238"/>
<path d="M146.64 111.61C145.836 110.786 145.097 109.9 144.43 108.96C143.628 108.136 142.893 107.25 142.23 106.31C143.259 106.881 144.147 107.673 144.83 108.63C145.643 109.48 146.261 110.497 146.64 111.61Z" fill="#263238"/>
<path d="M154.5 82.5003C154.45 82.5003 154.44 82.0903 154.22 81.4203C153.903 80.4671 153.276 79.647 152.44 79.0903C151.773 78.6352 150.992 78.3739 150.186 78.3354C149.379 78.2968 148.577 78.4827 147.87 78.8722C147.162 79.2616 146.577 79.8396 146.178 80.5418C145.779 81.2441 145.582 82.0431 145.61 82.8503C145.645 83.658 145.904 84.4401 146.357 85.1096C146.811 85.779 147.441 86.3096 148.178 86.6423C148.914 86.9749 149.729 87.0967 150.531 86.9939C151.333 86.8912 152.091 86.568 152.72 86.0603C153.505 85.438 154.06 84.5727 154.3 83.6003C154.47 82.9103 154.45 82.5003 154.5 82.5003C154.55 82.5003 154.5 82.6003 154.55 82.7903C154.569 83.0746 154.552 83.3602 154.5 83.6403C154.337 84.7015 153.806 85.6715 153 86.3803C152.392 86.9007 151.662 87.2574 150.878 87.4167C150.094 87.5759 149.282 87.5324 148.52 87.2903C147.586 86.9878 146.767 86.4062 146.174 85.624C145.581 84.8418 145.242 83.8966 145.203 82.9158C145.164 81.9349 145.426 80.9657 145.955 80.1386C146.484 79.3115 147.253 78.6664 148.16 78.2903C148.904 77.994 149.711 77.89 150.507 77.9879C151.302 78.0857 152.06 78.3823 152.71 78.8503C153.577 79.4792 154.196 80.3921 154.46 81.4303C154.533 81.7046 154.573 81.9866 154.58 82.2703C154.547 82.4236 154.52 82.5003 154.5 82.5003Z" fill="#263238"/>
<path d="M124.802 93.5801C124.632 93.2036 124.498 92.8119 124.402 92.4101C124.249 91.9452 124.125 91.4709 124.032 90.9901C123.912 90.4401 123.742 89.8101 123.652 89.1001C123.375 87.447 123.218 85.776 123.182 84.1001C123.104 79.9704 123.747 75.8587 125.082 71.9501C125.632 70.3558 126.301 68.8048 127.082 67.3101C127.382 66.6601 127.732 66.1101 128.012 65.6201C128.251 65.1972 128.512 64.7867 128.792 64.3901C129.008 64.0327 129.26 63.6977 129.542 63.3901C129.632 63.4501 128.632 64.9101 127.412 67.4801C126.691 68.976 126.072 70.5196 125.562 72.1001C124.95 74.0369 124.479 76.0154 124.152 78.0201C123.85 80.0327 123.696 82.0649 123.692 84.1001C123.7 85.7726 123.817 87.4428 124.042 89.1001C124.402 91.8601 124.902 93.5501 124.802 93.5801Z" fill="#263238"/>
<path d="M388.49 137.5C388.674 137.871 388.812 138.264 388.9 138.67C389.048 139.133 389.172 139.604 389.27 140.08C389.39 140.64 389.56 141.27 389.65 141.98C389.927 143.633 390.085 145.304 390.12 146.98C390.196 151.11 389.553 155.221 388.22 159.13C387.671 160.722 387.003 162.27 386.22 163.76C385.91 164.41 385.57 164.96 385.28 165.46C385.045 165.886 384.785 166.297 384.5 166.69C384.291 167.05 384.043 167.386 383.76 167.69C383.67 167.64 384.67 166.17 385.89 163.61C386.599 162.109 387.217 160.566 387.74 158.99C388.353 157.05 388.824 155.068 389.15 153.06C389.452 151.051 389.605 149.022 389.61 146.99C389.595 145.318 389.478 143.648 389.26 141.99C388.9 139.26 388.4 137.56 388.49 137.5Z" fill="#263238"/>
<path d="M395 139.26C395.182 139.633 395.319 140.025 395.41 140.43C395.558 140.893 395.682 141.364 395.78 141.84C395.9 142.4 396.06 143.03 396.16 143.74C396.437 145.393 396.595 147.064 396.63 148.74C396.65 150.798 396.51 152.854 396.21 154.89C395.878 156.927 395.383 158.933 394.73 160.89C394.179 162.485 393.511 164.036 392.73 165.53C392.42 166.17 392.08 166.72 391.79 167.22C391.55 167.661 391.286 168.089 391 168.5C390.791 168.86 390.543 169.196 390.26 169.5C390.17 169.45 391.17 167.98 392.39 165.42C393.103 163.921 393.721 162.378 394.24 160.8C394.853 158.86 395.324 156.878 395.65 154.87C395.952 152.861 396.106 150.832 396.11 148.8C396.096 147.128 395.979 145.458 395.76 143.8C395.4 140.98 394.9 139.28 395 139.26Z" fill="#263238"/>
<path d="M177.532 217.71C183.864 209.252 186.796 198.727 185.748 188.214C184.7 177.7 179.75 167.961 171.873 160.919C163.996 153.876 153.766 150.043 143.201 150.174C132.636 150.306 122.504 154.393 114.805 161.629C107.106 168.865 102.399 178.724 101.613 189.26C100.827 199.797 104.02 210.245 110.561 218.543C117.101 226.841 126.515 232.386 136.943 234.083C147.372 235.78 158.058 233.506 166.892 227.71L181.412 234.14L177.532 217.71Z" fill="#FAFAFA"/>
<path d="M130.92 190.02C131.043 188.428 131.654 186.912 132.67 185.68C133.614 184.432 134.925 183.512 136.42 183.05C137.698 182.681 139.062 182.746 140.298 183.237C141.535 183.728 142.573 184.615 143.25 185.76C143.826 184.613 144.751 183.68 145.893 183.094C147.034 182.508 148.333 182.3 149.6 182.5C151.125 182.794 152.522 183.552 153.6 184.67C154.748 185.781 155.533 187.214 155.85 188.78C156.214 190.786 155.919 192.855 155.01 194.68C153.945 196.54 152.45 198.117 150.65 199.28C147.74 201.28 143.91 203.78 143.91 203.78C143.91 203.78 140.4 201.47 137.28 199.83C135.353 198.889 133.68 197.5 132.4 195.78C131.302 194.068 130.783 192.049 130.92 190.02Z" fill="#4583E6"/>
<path d="M143.681 150.33C143.435 150.308 143.187 150.308 142.941 150.33L140.791 150.4C140.311 150.4 139.791 150.4 139.201 150.47L137.301 150.73L135.081 151.05L132.601 151.67C128.339 152.743 124.285 154.514 120.601 156.91C115.136 160.385 110.54 165.064 107.163 170.59C103.787 176.116 101.72 182.342 101.121 188.79C100.955 190.725 100.915 192.669 101.001 194.61C101.071 195.61 101.001 196.61 101.191 197.61C101.381 198.61 101.491 199.61 101.651 200.61C102.395 204.728 103.743 208.715 105.651 212.44C107.693 216.34 110.294 219.921 113.371 223.07C116.646 226.294 120.401 228.993 124.501 231.07C128.742 233.248 133.337 234.657 138.071 235.23C139.269 235.418 140.478 235.522 141.691 235.54C142.908 235.633 144.13 235.657 145.351 235.61C147.816 235.508 150.268 235.196 152.681 234.68C157.888 233.552 162.838 231.456 167.271 228.5L166.831 228.55L181.691 234.55L182.571 234.91L182.321 233.99L178.001 218.05L177.931 218.44C181.96 213.096 184.673 206.878 185.851 200.29C186.423 197.225 186.618 194.102 186.431 190.99C186.401 189.484 186.257 187.983 186.001 186.5C185.891 185.77 185.771 185.05 185.661 184.33C185.551 183.61 185.311 182.92 185.141 182.22C182.659 172.455 176.786 163.892 168.571 158.06C165.535 155.88 162.214 154.127 158.701 152.85L156.481 152.06L154.371 151.52L152.441 151.04C151.821 150.92 151.221 150.86 150.661 150.77C149.541 150.63 148.551 150.44 147.661 150.39L145.471 150.32H144.141C143.992 150.298 143.84 150.298 143.691 150.32C143.839 150.353 143.989 150.373 144.141 150.38L145.471 150.48L147.631 150.63C148.491 150.7 149.471 150.91 150.581 151.08C158.643 152.471 166.127 156.174 172.125 161.737C178.123 167.3 182.377 174.485 184.371 182.42C184.531 183.11 184.741 183.79 184.871 184.49C185.001 185.19 185.081 185.91 185.191 186.62C185.432 188.071 185.563 189.539 185.581 191.01C185.751 194.063 185.55 197.125 184.981 200.13C183.804 206.578 181.125 212.659 177.161 217.88L177.031 218.06L177.091 218.28C178.491 223.41 179.931 228.72 181.421 234.17L182.051 233.61L167.201 227.61L166.971 227.52L166.751 227.65C162.411 230.518 157.576 232.553 152.491 233.65C150.134 234.155 147.739 234.46 145.331 234.56C144.137 234.601 142.942 234.578 141.751 234.49C140.569 234.47 139.389 234.37 138.221 234.19C133.593 233.634 129.1 232.262 124.951 230.14C120.923 228.124 117.23 225.5 114.001 222.36C110.984 219.28 108.428 215.78 106.411 211.97C104.52 208.329 103.172 204.431 102.411 200.4C102.261 199.4 102.111 198.4 101.961 197.47C101.811 196.54 101.831 195.47 101.761 194.55C101.399 187.22 102.97 179.924 106.317 173.393C109.664 166.862 114.669 161.326 120.831 157.34C124.457 154.937 128.449 153.137 132.651 152.01L135.101 151.36L137.301 151L139.181 150.69C139.761 150.62 140.291 150.61 140.761 150.57L142.911 150.41C143.169 150.399 143.426 150.373 143.681 150.33Z" fill="#263238"/>
</svg>
