<svg width="86" height="86" viewBox="0 0 86 86" fill="none" xmlns="http://www.w3.org/2000/svg">
<g filter="url(#filter0_d_138_8113)">
<circle cx="43" cy="39" r="35" fill="white"/>
</g>
<path d="M40.5486 56.9981C39.888 56.7062 39.9044 56.0711 39.8105 55.5054C39.4975 53.6259 39.2001 51.7436 38.8935 49.8476C38.5431 49.7983 38.1928 49.7728 37.8543 49.6979C35.909 49.2691 34.5212 47.531 34.5696 45.5985C34.6198 43.551 36.0723 41.8768 38.0888 41.5583C38.3898 41.5109 38.6991 41.5118 39.0048 41.4981C40.492 41.4324 41.9838 41.4279 43.4647 41.2901C45.7585 41.0775 47.888 40.3001 49.8597 39.1204C50.8232 38.5438 51.7356 37.8804 52.6745 37.2609C52.9108 37.1049 53.1435 36.9315 53.4035 36.8284C53.9044 36.6295 54.3515 36.8777 54.4747 37.3996C54.524 37.6076 54.5431 37.8266 54.544 38.041C54.5495 39.6797 54.5477 41.3184 54.5486 42.9571C54.5486 43.0802 54.5486 43.2025 54.5486 43.3421C54.8816 43.3622 55.1873 43.3649 55.4875 43.4014C56.3561 43.5063 56.9966 44.2217 57.0066 45.093C57.0139 45.7527 57.0121 46.4133 57.0075 47.0729C57.0002 48.0374 56.2877 48.7709 55.3178 48.8129C55.0805 48.8229 54.8424 48.8147 54.5659 48.8147C54.5595 48.958 54.5495 49.0775 54.5486 49.1961C54.5468 50.562 54.5504 51.927 54.544 53.2928C54.5422 53.7408 54.5313 54.2107 54.0641 54.4525C53.5933 54.6961 53.2037 54.4288 52.8451 54.1624C51.2074 52.9461 49.5094 51.8348 47.6106 51.062C47.3187 50.9434 47.0203 50.8403 46.7064 50.7235C46.6937 50.9534 46.7028 51.1487 46.6699 51.3375C46.5367 52.0912 45.9537 52.6067 45.1836 52.6432C44.7886 52.6624 44.3926 52.6469 43.9555 52.6469C43.9555 53.0812 43.9555 53.4762 43.9555 53.8704C43.9555 54.4735 43.9318 55.0775 43.9628 55.6797C43.9929 56.2682 43.8168 56.7189 43.2813 57C42.3698 56.9981 41.4592 56.9981 40.5486 56.9981ZM53.4984 37.968C52.8351 38.4279 52.2265 38.8649 51.6006 39.2764C51.4054 39.4041 51.3314 39.5346 51.3333 39.7673C51.3433 41.3604 51.3397 42.9534 51.3378 44.5465C51.3378 44.9343 51.1325 45.177 50.8205 45.1733C50.5085 45.1697 50.315 44.9297 50.315 44.5355C50.3132 43.1925 50.3141 41.8503 50.3141 40.5072C50.3141 40.3868 50.3141 40.2664 50.3141 40.0611C46.8433 42.1368 43.0906 42.6797 39.1919 42.5091C39.1919 44.6231 39.1919 46.6669 39.1919 48.7454C41.128 48.7381 43.0468 48.7819 44.9364 49.1614C46.8269 49.541 48.6006 50.2417 50.3132 51.2217C50.3132 51.0465 50.3132 50.9352 50.3132 50.8229C50.3132 49.6505 50.3132 48.479 50.3132 47.3065C50.3132 47.2271 50.3114 47.1469 50.3141 47.0675C50.3232 46.7262 50.5194 46.499 50.8114 46.4899C51.1134 46.4808 51.336 46.7189 51.3369 47.0739C51.3397 48.5757 51.3424 50.0775 51.3342 51.5802C51.3333 51.7737 51.3962 51.885 51.5541 51.9908C52.1289 52.3777 52.6928 52.7819 53.2621 53.177C53.3287 53.2235 53.4026 53.2591 53.4975 53.3138C53.4984 48.1861 53.4984 43.104 53.4984 37.968ZM42.9017 55.9607C42.9017 55.7928 42.9017 55.6578 42.9017 55.5228C42.9017 53.9096 42.9017 52.2956 42.9017 50.6824C42.9017 49.9425 42.9017 49.9425 42.1882 49.8649C42.1426 49.8604 42.0979 49.8494 42.0532 49.8494C41.3552 49.8485 40.6581 49.8485 39.9473 49.8485C40.2813 51.8968 40.6125 53.9288 40.9446 55.9616C41.6052 55.9607 42.2274 55.9607 42.9017 55.9607ZM38.096 48.6523C38.096 46.6478 38.096 44.645 38.096 42.6386C36.7019 42.7883 35.5942 44.2144 35.6252 45.7901C35.6517 47.1678 36.8552 48.5729 38.096 48.6523ZM54.5705 44.4571C54.5705 45.5684 54.5705 46.6642 54.5705 47.781C54.7731 47.781 54.9537 47.7819 55.1335 47.781C55.6918 47.7773 55.972 47.5063 55.9793 46.9498C55.9856 46.5291 55.9638 46.1085 55.9838 45.6888C56.045 44.4297 55.617 44.3649 54.6189 44.4324C54.6088 44.4333 54.5997 44.4416 54.5705 44.4571ZM43.9674 51.6076C44.3314 51.6076 44.659 51.6094 44.9866 51.6076C45.5276 51.6049 45.9099 50.9197 45.6307 50.4507C45.6106 50.4169 45.5659 50.3859 45.5267 50.3768C45.0148 50.2646 44.5021 50.156 43.9674 50.0419C43.9674 50.5958 43.9674 51.0793 43.9674 51.6076Z" fill="#4583E6"/>
<path d="M42.6805 38.4433C42.4752 37.3165 42.2681 36.259 42.0993 35.1952C42.0573 34.9315 42.0774 34.6204 42.1778 34.3767C43.8493 30.3165 41.2571 25.7599 36.9004 25.1888C34.8511 24.9196 33.0336 25.5109 31.4944 26.9087C31.4351 26.9625 31.3803 27.02 31.3192 27.0711C31.071 27.2773 30.7882 27.2773 30.5847 27.0729C30.373 26.8603 30.3794 26.5583 30.6176 26.3165C31.3374 25.5857 32.1805 25.0346 33.1294 24.6495C37.6613 22.812 42.7416 25.6112 43.6029 30.4278C43.8347 31.7244 43.7745 33.0209 43.3064 34.2572C43.1248 34.7362 43.1312 35.1705 43.2216 35.6413C43.4223 36.6888 43.6148 37.7381 43.8092 38.7864C43.925 39.4105 43.6705 39.6806 43.0455 39.5702C41.8721 39.364 40.7024 39.134 39.5281 38.9342C39.3055 38.8959 39.0446 38.8913 38.8393 38.9689C34.1988 40.7271 29.1951 37.8503 28.4141 32.9506C28.1696 31.4187 28.3913 29.9388 29.0509 28.5309C29.1988 28.2152 29.4725 28.0985 29.7425 28.2116C30.0272 28.332 30.1267 28.6231 29.9953 28.9579C29.9706 29.0209 29.9369 29.0811 29.9104 29.1441C29.1805 30.9251 29.1641 32.7116 29.9442 34.4725C31.3685 37.687 34.9606 39.2399 38.2745 38.0355C38.9269 37.7983 39.5035 37.8558 40.1267 37.9744C40.957 38.1349 41.7918 38.2818 42.6805 38.4433Z" fill="#4583E6"/>
<path d="M52.3547 22C55.3939 22.0301 57.9231 24.2637 58.3127 27.2865C58.7342 30.562 56.4386 33.5922 53.1813 34.031C52.7023 34.0958 52.2078 34.0392 51.7206 34.0611C51.4906 34.0721 51.2452 34.0958 51.0363 34.1843C50.2425 34.5201 49.4614 34.885 48.6749 35.2381C48.0499 35.5182 47.7589 35.3367 47.7169 34.6615C47.6594 33.7308 47.5928 32.8011 47.5171 31.8723C47.5071 31.7463 47.4432 31.6131 47.3711 31.5055C44.8985 27.8604 46.8884 22.9808 51.206 22.1232C51.5819 22.0484 51.9715 22.0392 52.3547 22ZM48.7224 34.073C49.4915 33.7263 50.2087 33.3896 50.9377 33.083C51.1238 33.0046 51.3492 33.0018 51.5572 32.9991C52.0335 32.9936 52.5189 33.073 52.9852 33.0055C55.7133 32.6122 57.5445 30.2765 57.2954 27.5511C57.0408 24.7728 54.4888 22.7418 51.7078 23.1058C48.0153 23.5903 46.1111 27.7181 48.1786 30.8093C48.4706 31.2454 48.5801 31.6797 48.6001 32.1706C48.6047 32.2728 48.601 32.3759 48.6083 32.4772C48.6439 32.9954 48.6822 33.5137 48.7224 34.073Z" fill="#4583E6"/>
<path d="M36.0575 35.2829C34.8978 35.2829 33.7382 35.2856 32.5785 35.282C31.8924 35.2793 31.5374 34.917 31.5365 34.2254C31.5347 32.7355 31.5347 31.2464 31.5365 29.7565C31.5374 29.0922 31.9051 28.7245 32.5703 28.7245C34.9015 28.7227 37.2318 28.7227 39.563 28.7245C40.2427 28.7254 40.6086 29.0949 40.6104 29.7829C40.6132 31.261 40.6132 32.7391 40.6104 34.2172C40.6095 34.9216 40.2473 35.2802 39.5365 35.282C38.3769 35.2856 37.2172 35.2829 36.0575 35.2829ZM39.5475 30.3148C39.427 30.3979 39.344 30.4508 39.2655 30.5101C38.3513 31.2026 37.438 31.8979 36.5228 32.5895C36.1396 32.8796 36.0028 32.8787 35.6177 32.5876C34.7026 31.8951 33.7902 31.1999 32.875 30.5074C32.7902 30.4435 32.698 30.3887 32.5922 30.3185C32.5922 31.6552 32.5922 32.9444 32.5922 34.2409C34.9197 34.2409 37.2236 34.2409 39.5475 34.2409C39.5475 32.9435 39.5475 31.6625 39.5475 30.3148ZM38.5092 29.7738C36.8513 29.7738 35.282 29.7738 33.6342 29.7738C34.4508 30.3942 35.2053 30.9709 35.9672 31.5375C36.0165 31.574 36.146 31.563 36.1998 31.5229C36.9526 30.9617 37.6989 30.3906 38.5092 29.7738Z" fill="#4583E6"/>
<path d="M50.1817 28.0656C50.1817 27.2016 50.178 26.3384 50.1826 25.4744C50.1871 24.6651 50.7473 24.3439 51.4353 24.7736C52.8313 25.645 54.22 26.5282 55.6032 27.4178C56.1598 27.7755 56.1662 28.3539 55.6059 28.7152C54.2045 29.6194 52.7957 30.5136 51.376 31.3886C50.7419 31.7791 50.1899 31.4424 50.1835 30.6906C50.1762 29.8156 50.1817 28.9406 50.1817 28.0656ZM51.2245 30.2673C52.4089 29.5163 53.5366 28.801 54.6944 28.0665C53.5329 27.3302 52.3979 26.6122 51.2245 25.8676C51.2245 27.3549 51.2245 28.7727 51.2245 30.2673Z" fill="#4583E6"/>
<defs>
<filter id="filter0_d_138_8113" x="0" y="0" width="86" height="86" filterUnits="userSpaceOnUse" color-interpolation-filters="sRGB">
<feFlood flood-opacity="0" result="BackgroundImageFix"/>
<feColorMatrix in="SourceAlpha" type="matrix" values="0 0 0 0 0 0 0 0 0 0 0 0 0 0 0 0 0 0 127 0" result="hardAlpha"/>
<feOffset dy="4"/>
<feGaussianBlur stdDeviation="4"/>
<feColorMatrix type="matrix" values="0 0 0 0 0.0627451 0 0 0 0 0.0941176 0 0 0 0 0.156863 0 0 0 0.04 0"/>
<feBlend mode="normal" in2="BackgroundImageFix" result="effect1_dropShadow_138_8113"/>
<feBlend mode="normal" in="SourceGraphic" in2="effect1_dropShadow_138_8113" result="shape"/>
</filter>
</defs>
</svg>
