<svg width="120" height="120" viewBox="0 0 120 120" fill="none" xmlns="http://www.w3.org/2000/svg">
<path d="M55 2.88675C58.094 1.10042 61.906 1.10042 65 2.88675L106.962 27.1132C110.056 28.8996 111.962 32.2008 111.962 35.7735V84.2265C111.962 87.7992 110.056 91.1004 106.962 92.8867L65 117.113C61.906 118.9 58.094 118.9 55 117.113L13.0385 92.8867C9.94446 91.1004 8.03848 87.7992 8.03848 84.2265V35.7735C8.03848 32.2008 9.94446 28.8996 13.0385 27.1132L55 2.88675Z" fill="url(#paint0_radial_138_8170)"/>
<path d="M41.2976 74.08H46.3056V72.8H41.2976V74.08ZM41.2976 78.56H46.1456V77.28H41.2976V78.56ZM40.5456 72.8V84H41.9056V72.8H40.5456ZM48.4656 73.6C48.4656 73.8347 48.551 74.0427 48.7216 74.224C48.903 74.3947 49.111 74.48 49.3456 74.48C49.591 74.48 49.799 74.3947 49.9696 74.224C50.1403 74.0427 50.2256 73.8347 50.2256 73.6C50.2256 73.3547 50.1403 73.1467 49.9696 72.976C49.799 72.8053 49.591 72.72 49.3456 72.72C49.111 72.72 48.903 72.8053 48.7216 72.976C48.551 73.1467 48.4656 73.3547 48.4656 73.6ZM48.7056 76.64V84H49.9856V76.64H48.7056ZM52.1259 84.48C52.1259 85.1093 52.2805 85.664 52.5899 86.144C52.8992 86.6347 53.3259 87.0133 53.8699 87.28C54.4245 87.5467 55.0592 87.68 55.7739 87.68C56.3925 87.68 56.9792 87.536 57.5339 87.248C58.0885 86.96 58.5419 86.528 58.8939 85.952C59.2459 85.3867 59.4219 84.6827 59.4219 83.84V76.64H58.1419V83.84C58.1419 84.4587 58.0192 84.96 57.7739 85.344C57.5392 85.7387 57.2405 86.0267 56.8779 86.208C56.5152 86.3893 56.1472 86.48 55.7739 86.48C55.2939 86.48 54.8779 86.384 54.5259 86.192C54.1739 86.0107 53.9019 85.7653 53.7099 85.456C53.5179 85.1573 53.4219 84.832 53.4219 84.48H52.1259ZM51.9819 80.32C51.9819 81.1093 52.1472 81.792 52.4779 82.368C52.8085 82.944 53.2512 83.3867 53.8059 83.696C54.3605 84.0053 54.9685 84.16 55.6299 84.16C56.2485 84.16 56.7872 84.0053 57.2459 83.696C57.7045 83.3867 58.0619 82.944 58.3179 82.368C58.5845 81.792 58.7179 81.1093 58.7179 80.32C58.7179 79.52 58.5845 78.8373 58.3179 78.272C58.0619 77.696 57.7045 77.2533 57.2459 76.944C56.7872 76.6347 56.2485 76.48 55.6299 76.48C54.9685 76.48 54.3605 76.6347 53.8059 76.944C53.2512 77.2533 52.8085 77.696 52.4779 78.272C52.1472 78.8373 51.9819 79.52 51.9819 80.32ZM53.2779 80.32C53.2779 79.7547 53.3899 79.2747 53.6139 78.88C53.8485 78.4853 54.1579 78.1867 54.5419 77.984C54.9259 77.7813 55.3419 77.68 55.7899 77.68C56.0672 77.68 56.3445 77.7387 56.6219 77.856C56.8992 77.9733 57.1499 78.144 57.3739 78.368C57.6085 78.592 57.7952 78.8693 57.9339 79.2C58.0725 79.52 58.1419 79.8933 58.1419 80.32C58.1419 80.8853 58.0245 81.3653 57.7899 81.76C57.5552 82.1547 57.2565 82.4533 56.8939 82.656C56.5312 82.8587 56.1632 82.96 55.7899 82.96C55.3419 82.96 54.9259 82.8587 54.5419 82.656C54.1579 82.4533 53.8485 82.1547 53.6139 81.76C53.3899 81.3653 53.2779 80.8853 53.2779 80.32ZM71.8269 79.36C71.8269 78.752 71.7309 78.2347 71.5389 77.808C71.3575 77.3707 71.0909 77.04 70.7389 76.816C70.3869 76.592 69.9602 76.48 69.4589 76.48C68.9682 76.48 68.5309 76.5973 68.1469 76.832C67.7629 77.056 67.4429 77.3973 67.1869 77.856C67.0162 77.4187 66.7442 77.0827 66.3709 76.848C66.0082 76.6027 65.5709 76.48 65.0589 76.48C64.6002 76.48 64.2002 76.5813 63.8589 76.784C63.5282 76.9867 63.2509 77.296 63.0269 77.712V76.64H61.7469V84H63.0269V79.52C63.0269 79.136 63.0962 78.8053 63.2349 78.528C63.3735 78.2507 63.5709 78.0427 63.8269 77.904C64.0829 77.7547 64.3869 77.68 64.7389 77.68C65.2189 77.68 65.5709 77.8293 65.7949 78.128C66.0295 78.4267 66.1469 78.8907 66.1469 79.52V84H67.4269V79.52C67.4269 79.136 67.4962 78.8053 67.6349 78.528C67.7735 78.2507 67.9709 78.0427 68.2269 77.904C68.4829 77.7547 68.7869 77.68 69.1389 77.68C69.6189 77.68 69.9709 77.8293 70.1949 78.128C70.4295 78.4267 70.5469 78.8907 70.5469 79.52V84H71.8269V79.36ZM74.8073 81.728C74.8073 81.4613 74.8713 81.232 74.9993 81.04C75.1273 80.848 75.3193 80.6987 75.5753 80.592C75.8419 80.4853 76.1833 80.432 76.5993 80.432C77.0473 80.432 77.4686 80.4907 77.8633 80.608C78.2579 80.7147 78.6419 80.896 79.0153 81.152V80.4C78.9406 80.304 78.7966 80.1813 78.5833 80.032C78.3699 79.872 78.0819 79.7333 77.7193 79.616C77.3673 79.488 76.9246 79.424 76.3913 79.424C75.4846 79.424 74.7753 79.6427 74.2633 80.08C73.7619 80.5067 73.5113 81.0773 73.5113 81.792C73.5113 82.2933 73.6286 82.72 73.8633 83.072C74.0979 83.424 74.4073 83.696 74.7913 83.888C75.1859 84.0693 75.6073 84.16 76.0553 84.16C76.4606 84.16 76.8659 84.0853 77.2713 83.936C77.6873 83.7867 78.0339 83.5573 78.3113 83.248C78.5993 82.9387 78.7433 82.5493 78.7433 82.08L78.4873 81.12C78.4873 81.504 78.3913 81.8453 78.1993 82.144C78.0179 82.432 77.7673 82.656 77.4473 82.816C77.1379 82.976 76.7859 83.056 76.3913 83.056C76.0819 83.056 75.8046 83.008 75.5593 82.912C75.3246 82.8053 75.1379 82.6507 74.9993 82.448C74.8713 82.2453 74.8073 82.0053 74.8073 81.728ZM74.6153 78.336C74.7326 78.2507 74.8926 78.1493 75.0953 78.032C75.2979 77.9147 75.5433 77.8133 75.8313 77.728C76.1299 77.6427 76.4606 77.6 76.8233 77.6C77.0473 77.6 77.2606 77.6213 77.4633 77.664C77.6659 77.7067 77.8419 77.776 77.9913 77.872C78.1513 77.968 78.2739 78.1013 78.3593 78.272C78.4446 78.432 78.4873 78.64 78.4873 78.896V84H79.7673V78.72C79.7673 78.24 79.6446 77.8347 79.3993 77.504C79.1646 77.1733 78.8286 76.9227 78.3913 76.752C77.9646 76.5707 77.4633 76.48 76.8873 76.48C76.2046 76.48 75.6179 76.5813 75.1273 76.784C74.6473 76.9867 74.2686 77.1893 73.9913 77.392L74.6153 78.336Z" fill="#424254"/>
<g clip-path="url(#clip0_138_8170)">
<path d="M55.25 62C58.148 62 60.5 59.816 60.5 57.125V52.25H55.25C52.352 52.25 50 54.434 50 57.125C50 59.816 52.352 62 55.25 62Z" fill="#0ACF83"/>
<path d="M50 46.625C50 43.934 52.352 41.75 55.25 41.75H60.5V51.5H55.25C52.352 51.5 50 49.316 50 46.625Z" fill="#A259FF"/>
<path d="M50 36.875C50 34.184 52.352 32 55.25 32H60.5V41.75H55.25C52.352 41.75 50 39.566 50 36.875Z" fill="#F24E1E"/>
<path d="M60.5 32H65.75C68.648 32 71 34.184 71 36.875C71 39.566 68.648 41.75 65.75 41.75H60.5V32Z" fill="#FF7262"/>
<path d="M71 46.625C71 49.316 68.648 51.5 65.75 51.5C62.852 51.5 60.5 49.316 60.5 46.625C60.5 43.934 62.852 41.75 65.75 41.75C68.648 41.75 71 43.934 71 46.625Z" fill="#1ABCFE"/>
</g>
<defs>
<radialGradient id="paint0_radial_138_8170" cx="0" cy="0" r="1" gradientUnits="userSpaceOnUse" gradientTransform="translate(60 60) rotate(90) scale(60)">
<stop stop-color="white"/>
<stop offset="1" stop-color="#E8FCF8"/>
</radialGradient>
<clipPath id="clip0_138_8170">
<rect width="21" height="30" fill="white" transform="translate(50 32)"/>
</clipPath>
</defs>
</svg>
