<svg width="161" height="42" viewBox="0 0 161 42" fill="none" xmlns="http://www.w3.org/2000/svg">
<path d="M79.0234 40.7793C78.7734 40.7793 78.5484 40.7168 78.3485 40.5919C78.1735 40.4669 78.0485 40.292 77.9735 40.0671L71.8989 21.8868C71.7989 21.337 71.8239 20.9372 71.9739 20.6873C72.1238 20.4124 72.3863 20.275 72.7613 20.275C72.9613 20.275 73.1613 20.3374 73.3613 20.4624C73.5613 20.5623 73.7112 20.7248 73.8112 20.9497L79.3609 37.668H78.8734L83.9731 21.1746C84.0481 20.8997 84.1856 20.6873 84.3856 20.5374C84.5856 20.3624 84.823 20.275 85.098 20.275C85.373 20.275 85.598 20.3624 85.773 20.5374C85.973 20.6873 86.123 20.8997 86.2229 21.1746L91.4726 37.668H90.7977L96.3473 20.9497C96.5473 20.4999 96.8973 20.275 97.3972 20.275C97.8472 20.275 98.1472 20.4499 98.2972 20.7997C98.4722 21.1496 98.4722 21.512 98.2972 21.8868L92.2601 40.0671C92.1851 40.292 92.0476 40.4669 91.8476 40.5919C91.6726 40.7168 91.4476 40.7793 91.1726 40.7793C90.9227 40.7793 90.6977 40.7168 90.4977 40.5919C90.2977 40.4669 90.1727 40.292 90.1227 40.0671L84.7606 23.4237H85.248L80.0733 40.0671C79.9734 40.317 79.8234 40.5044 79.6234 40.6293C79.4484 40.7293 79.2484 40.7793 79.0234 40.7793Z" fill="#FB8614"/>
<path d="M111.177 41.0042C109.177 41.0042 107.378 40.5544 105.778 39.6547C104.203 38.7301 102.953 37.4806 102.028 35.9062C101.128 34.3069 100.678 32.5201 100.678 30.5459C100.678 28.5467 101.128 26.7599 102.028 25.1855C102.953 23.5861 104.203 22.3366 105.778 21.437C107.378 20.5124 109.177 20.05 111.177 20.05C113.177 20.05 114.965 20.5124 116.539 21.437C118.114 22.3366 119.352 23.5861 120.252 25.1855C121.177 26.7599 121.639 28.5467 121.639 30.5459L120.702 32.0453C120.702 33.7446 120.277 35.269 119.427 36.6184C118.602 37.9679 117.477 39.0425 116.052 39.8422C114.627 40.6168 113.002 41.0042 111.177 41.0042ZM111.177 38.905C112.752 38.905 114.152 38.5427 115.377 37.818C116.627 37.0683 117.602 36.0687 118.302 34.8192C119.027 33.5447 119.389 32.1202 119.389 30.5459C119.389 28.9465 119.027 27.5221 118.302 26.2726C117.602 24.9981 116.627 23.9985 115.377 23.2738C114.152 22.5241 112.752 22.1492 111.177 22.1492C109.627 22.1492 108.228 22.5241 106.978 23.2738C105.728 23.9985 104.74 24.9981 104.015 26.2726C103.29 27.5221 102.928 28.9465 102.928 30.5459C102.928 32.1202 103.29 33.5447 104.015 34.8192C104.74 36.0687 105.728 37.0683 106.978 37.818C108.228 38.5427 109.627 38.905 111.177 38.905ZM120.514 40.7793C120.189 40.7793 119.914 40.6793 119.689 40.4794C119.489 40.2545 119.389 39.9796 119.389 39.6547V32.795L120.102 30.5459H121.639V39.6547C121.639 39.9796 121.539 40.2545 121.339 40.4794C121.139 40.6793 120.864 40.7793 120.514 40.7793Z" fill="#FB8614"/>
<path d="M128.003 28.2593C128.153 26.6599 128.59 25.248 129.315 24.0235C130.04 22.774 130.978 21.7994 132.128 21.0996C133.278 20.3999 134.553 20.05 135.952 20.05C136.902 20.05 137.64 20.1625 138.165 20.3874C138.69 20.6123 138.89 21.0122 138.765 21.5869C138.69 21.9618 138.515 22.1867 138.24 22.2617C137.965 22.3366 137.627 22.3491 137.227 22.2992C136.852 22.2242 136.427 22.1867 135.952 22.1867C134.702 22.1867 133.59 22.4491 132.615 22.9739C131.64 23.4987 130.878 24.2234 130.328 25.148C129.778 26.0477 129.503 27.0847 129.503 28.2593H128.003ZM128.378 40.7793C128.053 40.7793 127.778 40.6793 127.553 40.4794C127.353 40.2545 127.253 39.9796 127.253 39.6547V21.3995C127.253 21.0497 127.353 20.7748 127.553 20.5748C127.778 20.3749 128.053 20.275 128.378 20.275C128.728 20.275 129.003 20.3749 129.203 20.5748C129.403 20.7748 129.503 21.0497 129.503 21.3995V39.6547C129.503 39.9796 129.403 40.2545 129.203 40.4794C129.003 40.6793 128.728 40.7793 128.378 40.7793Z" fill="#FB8614"/>
<path d="M151.268 40.9667C149.293 40.9667 147.531 40.5294 145.981 39.6547C144.456 38.7551 143.256 37.5181 142.381 35.9437C141.506 34.3693 141.068 32.5701 141.068 30.5459C141.068 28.4967 141.481 26.6974 142.306 25.148C143.131 23.5736 144.268 22.3366 145.718 21.437C147.168 20.5374 148.831 20.0875 150.705 20.0875C152.555 20.0875 154.193 20.5249 155.618 21.3995C157.042 22.2492 158.155 23.4362 158.955 24.9606C159.755 26.46 160.155 28.1968 160.155 30.171C160.155 30.4959 160.055 30.7583 159.855 30.9582C159.655 31.1331 159.392 31.2206 159.067 31.2206H142.568V29.2714H159.667L158.017 30.5084C158.067 28.884 157.792 27.4471 157.192 26.1976C156.593 24.9481 155.73 23.9735 154.605 23.2738C153.505 22.5491 152.205 22.1867 150.705 22.1867C149.28 22.1867 148.006 22.5491 146.881 23.2738C145.781 23.9735 144.906 24.9481 144.256 26.1976C143.631 27.4471 143.318 28.8965 143.318 30.5459C143.318 32.1702 143.656 33.6071 144.331 34.8566C145.006 36.1061 145.943 37.0932 147.143 37.818C148.343 38.5177 149.718 38.8675 151.268 38.8675C152.243 38.8675 153.218 38.7051 154.193 38.3802C155.193 38.0304 155.98 37.5806 156.555 37.0308C156.755 36.8309 156.992 36.7309 157.267 36.7309C157.567 36.7059 157.817 36.7809 158.017 36.9558C158.292 37.1807 158.43 37.4306 158.43 37.7055C158.455 37.9804 158.342 38.2303 158.092 38.4552C157.292 39.1799 156.243 39.7797 154.943 40.2545C153.668 40.7293 152.443 40.9667 151.268 40.9667Z" fill="#FB8614"/>
<mask id="path-2-outside-1_105_892" maskUnits="userSpaceOnUse" x="0" y="10.2793" width="70" height="31" fill="black">
<rect fill="white" y="10.2793" width="70" height="31"/>
<path d="M2.94988 40.5551C2.39991 40.5551 1.93744 40.3677 1.56246 39.9928C1.18749 39.618 1 39.1557 1 38.6059V13.2285C1 12.6537 1.18749 12.1914 1.56246 11.8416C1.93744 11.4667 2.39991 11.2793 2.94988 11.2793H11.9118C13.6117 11.2793 15.0991 11.6167 16.374 12.2914C17.6739 12.9411 18.6864 13.8533 19.4113 15.0278C20.1613 16.2023 20.5363 17.5518 20.5363 19.0762C20.5363 20.3007 20.1988 21.4128 19.5238 22.4124C18.8739 23.387 17.9739 24.1617 16.824 24.7364C18.4739 25.1363 19.7988 25.9235 20.7987 27.098C21.7987 28.2725 22.2986 29.8094 22.2986 31.7086C22.2986 33.433 21.8862 34.9573 21.0612 36.2818C20.2613 37.6063 19.1363 38.6559 17.6864 39.4306C16.2365 40.1803 14.5741 40.5551 12.6993 40.5551H2.94988ZM4.89975 36.9566H12.6993C13.8492 36.9566 14.8616 36.7566 15.7366 36.3568C16.6115 35.957 17.299 35.3697 17.7989 34.595C18.2989 33.8203 18.5489 32.8582 18.5489 31.7086C18.5489 30.6341 18.2989 29.7469 17.7989 29.0472C17.299 28.3475 16.6115 27.8227 15.7366 27.4728C14.8616 27.098 13.8492 26.9106 12.6993 26.9106H4.89975V36.9566ZM4.89975 23.312H11.9118C13.3367 23.312 14.4991 22.9621 15.3991 22.2624C16.324 21.5627 16.7865 20.5006 16.7865 19.0762C16.7865 17.6518 16.324 16.6022 15.3991 15.9274C14.4991 15.2277 13.3367 14.8779 11.9118 14.8779H4.89975V23.312Z"/>
<path d="M30.0103 40.5551C29.4603 40.5551 28.9978 40.3802 28.6229 40.0303C28.2729 39.6555 28.0979 39.1932 28.0979 38.6434V21.9625C28.0979 21.3878 28.2729 20.9254 28.6229 20.5756C28.9978 20.2257 29.4603 20.0508 30.0103 20.0508C30.5852 20.0508 31.0477 20.2257 31.3977 20.5756C31.7477 20.9254 31.9226 21.3878 31.9226 21.9625V38.6434C31.9226 39.1932 31.7477 39.6555 31.3977 40.0303C31.0477 40.3802 30.5852 40.5551 30.0103 40.5551ZM30.0103 16.7146C29.3353 16.7146 28.7478 16.4772 28.2479 16.0024C27.7729 15.5026 27.5354 14.9153 27.5354 14.2406C27.5354 13.5659 27.7729 12.9911 28.2479 12.5163C28.7478 12.0165 29.3353 11.7666 30.0103 11.7666C30.6852 11.7666 31.2602 12.0165 31.7352 12.5163C32.2351 12.9911 32.4851 13.5659 32.4851 14.2406C32.4851 14.9153 32.2351 15.5026 31.7352 16.0024C31.2602 16.4772 30.6852 16.7146 30.0103 16.7146Z"/>
<path d="M46.5001 40.5551C45.2502 40.5551 44.1253 40.2427 43.1254 39.618C42.1254 38.9683 41.338 38.0936 40.763 36.994C40.188 35.8945 39.9006 34.6575 39.9006 33.283V15.4027C39.9006 14.8529 40.0756 14.4031 40.4255 14.0532C40.7755 13.7033 41.2255 13.5284 41.7754 13.5284C42.3254 13.5284 42.7754 13.7033 43.1254 14.0532C43.4753 14.4031 43.6503 14.8529 43.6503 15.4027V33.283C43.6503 34.2826 43.9253 35.1198 44.4753 35.7945C45.0252 36.4692 45.7002 36.8066 46.5001 36.8066H47.7751C48.225 36.8066 48.6 36.9815 48.9 37.3314C49.225 37.6813 49.3875 38.1311 49.3875 38.6809C49.3875 39.2306 49.175 39.6805 48.75 40.0303C48.35 40.3802 47.8251 40.5551 47.1751 40.5551H46.5001ZM38.1757 24.0242C37.6507 24.0242 37.2257 23.8743 36.9007 23.5744C36.5758 23.2745 36.4133 22.8997 36.4133 22.4498C36.4133 21.95 36.5758 21.5502 36.9007 21.2503C37.2257 20.9504 37.6507 20.8005 38.1757 20.8005H46.8376C47.3626 20.8005 47.7876 20.9504 48.1125 21.2503C48.4375 21.5502 48.6 21.95 48.6 22.4498C48.6 22.8997 48.4375 23.2745 48.1125 23.5744C47.7876 23.8743 47.3626 24.0242 46.8376 24.0242H38.1757Z"/>
<path d="M61.5505 40.7051C59.8006 40.7051 58.1757 40.4427 56.6758 39.9179C55.2009 39.3681 54.0509 38.6809 53.226 37.8562C52.851 37.4564 52.6885 37.0065 52.7385 36.5067C52.8135 35.9819 53.0635 35.5571 53.4885 35.2322C53.9884 34.8324 54.4759 34.67 54.9509 34.7449C55.4508 34.7949 55.8758 35.0073 56.2258 35.3822C56.6508 35.857 57.3257 36.3068 58.2507 36.7316C59.2006 37.1315 60.2505 37.3314 61.4005 37.3314C62.8504 37.3314 63.9503 37.094 64.7003 36.6192C65.4752 36.1444 65.8752 35.5321 65.9002 34.7824C65.9252 34.0327 65.5627 33.383 64.8127 32.8332C64.0878 32.2834 62.7504 31.8336 60.8005 31.4837C58.2757 30.9839 56.4383 30.2342 55.2883 29.2346C54.1634 28.235 53.601 27.0105 53.601 25.5611C53.601 24.2866 53.9759 23.237 54.7259 22.4124C55.4758 21.5627 56.4383 20.9379 57.6132 20.5381C58.7881 20.1133 60.0131 19.9009 61.288 19.9009C62.9379 19.9009 64.4003 20.1633 65.6752 20.688C66.9501 21.2128 67.9626 21.9375 68.7125 22.8622C69.0625 23.262 69.225 23.6868 69.2 24.1367C69.175 24.5615 68.9625 24.9239 68.5625 25.2237C68.1625 25.4986 67.6876 25.5861 67.1376 25.4861C66.5876 25.3862 66.1252 25.1613 65.7502 24.8114C65.1252 24.2116 64.4503 23.7993 63.7253 23.5744C63.0004 23.3495 62.1629 23.237 61.213 23.237C60.113 23.237 59.1756 23.4244 58.4007 23.7993C57.6507 24.1741 57.2757 24.7239 57.2757 25.4486C57.2757 25.8985 57.3882 26.3108 57.6132 26.6856C57.8632 27.0355 58.3382 27.3604 59.0381 27.6603C59.7381 27.9352 60.763 28.21 62.1129 28.4849C63.9878 28.8598 65.4627 29.3346 66.5376 29.9094C67.6376 30.4841 68.425 31.1589 68.9 31.9336C69.375 32.6833 69.6124 33.5579 69.6124 34.5575C69.6124 35.7071 69.3 36.7441 68.675 37.6688C68.075 38.5934 67.1751 39.3306 65.9752 39.8804C64.8002 40.4302 63.3253 40.7051 61.5505 40.7051Z"/>
</mask>
<path d="M2.94988 40.5551C2.39991 40.5551 1.93744 40.3677 1.56246 39.9928C1.18749 39.618 1 39.1557 1 38.6059V13.2285C1 12.6537 1.18749 12.1914 1.56246 11.8416C1.93744 11.4667 2.39991 11.2793 2.94988 11.2793H11.9118C13.6117 11.2793 15.0991 11.6167 16.374 12.2914C17.6739 12.9411 18.6864 13.8533 19.4113 15.0278C20.1613 16.2023 20.5363 17.5518 20.5363 19.0762C20.5363 20.3007 20.1988 21.4128 19.5238 22.4124C18.8739 23.387 17.9739 24.1617 16.824 24.7364C18.4739 25.1363 19.7988 25.9235 20.7987 27.098C21.7987 28.2725 22.2986 29.8094 22.2986 31.7086C22.2986 33.433 21.8862 34.9573 21.0612 36.2818C20.2613 37.6063 19.1363 38.6559 17.6864 39.4306C16.2365 40.1803 14.5741 40.5551 12.6993 40.5551H2.94988ZM4.89975 36.9566H12.6993C13.8492 36.9566 14.8616 36.7566 15.7366 36.3568C16.6115 35.957 17.299 35.3697 17.7989 34.595C18.2989 33.8203 18.5489 32.8582 18.5489 31.7086C18.5489 30.6341 18.2989 29.7469 17.7989 29.0472C17.299 28.3475 16.6115 27.8227 15.7366 27.4728C14.8616 27.098 13.8492 26.9106 12.6993 26.9106H4.89975V36.9566ZM4.89975 23.312H11.9118C13.3367 23.312 14.4991 22.9621 15.3991 22.2624C16.324 21.5627 16.7865 20.5006 16.7865 19.0762C16.7865 17.6518 16.324 16.6022 15.3991 15.9274C14.4991 15.2277 13.3367 14.8779 11.9118 14.8779H4.89975V23.312Z" fill="white"/>
<path d="M30.0103 40.5551C29.4603 40.5551 28.9978 40.3802 28.6229 40.0303C28.2729 39.6555 28.0979 39.1932 28.0979 38.6434V21.9625C28.0979 21.3878 28.2729 20.9254 28.6229 20.5756C28.9978 20.2257 29.4603 20.0508 30.0103 20.0508C30.5852 20.0508 31.0477 20.2257 31.3977 20.5756C31.7477 20.9254 31.9226 21.3878 31.9226 21.9625V38.6434C31.9226 39.1932 31.7477 39.6555 31.3977 40.0303C31.0477 40.3802 30.5852 40.5551 30.0103 40.5551ZM30.0103 16.7146C29.3353 16.7146 28.7478 16.4772 28.2479 16.0024C27.7729 15.5026 27.5354 14.9153 27.5354 14.2406C27.5354 13.5659 27.7729 12.9911 28.2479 12.5163C28.7478 12.0165 29.3353 11.7666 30.0103 11.7666C30.6852 11.7666 31.2602 12.0165 31.7352 12.5163C32.2351 12.9911 32.4851 13.5659 32.4851 14.2406C32.4851 14.9153 32.2351 15.5026 31.7352 16.0024C31.2602 16.4772 30.6852 16.7146 30.0103 16.7146Z" fill="white"/>
<path d="M46.5001 40.5551C45.2502 40.5551 44.1253 40.2427 43.1254 39.618C42.1254 38.9683 41.338 38.0936 40.763 36.994C40.188 35.8945 39.9006 34.6575 39.9006 33.283V15.4027C39.9006 14.8529 40.0756 14.4031 40.4255 14.0532C40.7755 13.7033 41.2255 13.5284 41.7754 13.5284C42.3254 13.5284 42.7754 13.7033 43.1254 14.0532C43.4753 14.4031 43.6503 14.8529 43.6503 15.4027V33.283C43.6503 34.2826 43.9253 35.1198 44.4753 35.7945C45.0252 36.4692 45.7002 36.8066 46.5001 36.8066H47.7751C48.225 36.8066 48.6 36.9815 48.9 37.3314C49.225 37.6813 49.3875 38.1311 49.3875 38.6809C49.3875 39.2306 49.175 39.6805 48.75 40.0303C48.35 40.3802 47.8251 40.5551 47.1751 40.5551H46.5001ZM38.1757 24.0242C37.6507 24.0242 37.2257 23.8743 36.9007 23.5744C36.5758 23.2745 36.4133 22.8997 36.4133 22.4498C36.4133 21.95 36.5758 21.5502 36.9007 21.2503C37.2257 20.9504 37.6507 20.8005 38.1757 20.8005H46.8376C47.3626 20.8005 47.7876 20.9504 48.1125 21.2503C48.4375 21.5502 48.6 21.95 48.6 22.4498C48.6 22.8997 48.4375 23.2745 48.1125 23.5744C47.7876 23.8743 47.3626 24.0242 46.8376 24.0242H38.1757Z" fill="white"/>
<path d="M61.5505 40.7051C59.8006 40.7051 58.1757 40.4427 56.6758 39.9179C55.2009 39.3681 54.0509 38.6809 53.226 37.8562C52.851 37.4564 52.6885 37.0065 52.7385 36.5067C52.8135 35.9819 53.0635 35.5571 53.4885 35.2322C53.9884 34.8324 54.4759 34.67 54.9509 34.7449C55.4508 34.7949 55.8758 35.0073 56.2258 35.3822C56.6508 35.857 57.3257 36.3068 58.2507 36.7316C59.2006 37.1315 60.2505 37.3314 61.4005 37.3314C62.8504 37.3314 63.9503 37.094 64.7003 36.6192C65.4752 36.1444 65.8752 35.5321 65.9002 34.7824C65.9252 34.0327 65.5627 33.383 64.8127 32.8332C64.0878 32.2834 62.7504 31.8336 60.8005 31.4837C58.2757 30.9839 56.4383 30.2342 55.2883 29.2346C54.1634 28.235 53.601 27.0105 53.601 25.5611C53.601 24.2866 53.9759 23.237 54.7259 22.4124C55.4758 21.5627 56.4383 20.9379 57.6132 20.5381C58.7881 20.1133 60.0131 19.9009 61.288 19.9009C62.9379 19.9009 64.4003 20.1633 65.6752 20.688C66.9501 21.2128 67.9626 21.9375 68.7125 22.8622C69.0625 23.262 69.225 23.6868 69.2 24.1367C69.175 24.5615 68.9625 24.9239 68.5625 25.2237C68.1625 25.4986 67.6876 25.5861 67.1376 25.4861C66.5876 25.3862 66.1252 25.1613 65.7502 24.8114C65.1252 24.2116 64.4503 23.7993 63.7253 23.5744C63.0004 23.3495 62.1629 23.237 61.213 23.237C60.113 23.237 59.1756 23.4244 58.4007 23.7993C57.6507 24.1741 57.2757 24.7239 57.2757 25.4486C57.2757 25.8985 57.3882 26.3108 57.6132 26.6856C57.8632 27.0355 58.3382 27.3604 59.0381 27.6603C59.7381 27.9352 60.763 28.21 62.1129 28.4849C63.9878 28.8598 65.4627 29.3346 66.5376 29.9094C67.6376 30.4841 68.425 31.1589 68.9 31.9336C69.375 32.6833 69.6124 33.5579 69.6124 34.5575C69.6124 35.7071 69.3 36.7441 68.675 37.6688C68.075 38.5934 67.1751 39.3306 65.9752 39.8804C64.8002 40.4302 63.3253 40.7051 61.5505 40.7051Z" fill="white"/>
<path d="M2.94988 40.5551C2.39991 40.5551 1.93744 40.3677 1.56246 39.9928C1.18749 39.618 1 39.1557 1 38.6059V13.2285C1 12.6537 1.18749 12.1914 1.56246 11.8416C1.93744 11.4667 2.39991 11.2793 2.94988 11.2793H11.9118C13.6117 11.2793 15.0991 11.6167 16.374 12.2914C17.6739 12.9411 18.6864 13.8533 19.4113 15.0278C20.1613 16.2023 20.5363 17.5518 20.5363 19.0762C20.5363 20.3007 20.1988 21.4128 19.5238 22.4124C18.8739 23.387 17.9739 24.1617 16.824 24.7364C18.4739 25.1363 19.7988 25.9235 20.7987 27.098C21.7987 28.2725 22.2986 29.8094 22.2986 31.7086C22.2986 33.433 21.8862 34.9573 21.0612 36.2818C20.2613 37.6063 19.1363 38.6559 17.6864 39.4306C16.2365 40.1803 14.5741 40.5551 12.6993 40.5551H2.94988ZM4.89975 36.9566H12.6993C13.8492 36.9566 14.8616 36.7566 15.7366 36.3568C16.6115 35.957 17.299 35.3697 17.7989 34.595C18.2989 33.8203 18.5489 32.8582 18.5489 31.7086C18.5489 30.6341 18.2989 29.7469 17.7989 29.0472C17.299 28.3475 16.6115 27.8227 15.7366 27.4728C14.8616 27.098 13.8492 26.9106 12.6993 26.9106H4.89975V36.9566ZM4.89975 23.312H11.9118C13.3367 23.312 14.4991 22.9621 15.3991 22.2624C16.324 21.5627 16.7865 20.5006 16.7865 19.0762C16.7865 17.6518 16.324 16.6022 15.3991 15.9274C14.4991 15.2277 13.3367 14.8779 11.9118 14.8779H4.89975V23.312Z" stroke="white" stroke-width="0.303047" mask="url(#path-2-outside-1_105_892)"/>
<path d="M30.0103 40.5551C29.4603 40.5551 28.9978 40.3802 28.6229 40.0303C28.2729 39.6555 28.0979 39.1932 28.0979 38.6434V21.9625C28.0979 21.3878 28.2729 20.9254 28.6229 20.5756C28.9978 20.2257 29.4603 20.0508 30.0103 20.0508C30.5852 20.0508 31.0477 20.2257 31.3977 20.5756C31.7477 20.9254 31.9226 21.3878 31.9226 21.9625V38.6434C31.9226 39.1932 31.7477 39.6555 31.3977 40.0303C31.0477 40.3802 30.5852 40.5551 30.0103 40.5551ZM30.0103 16.7146C29.3353 16.7146 28.7478 16.4772 28.2479 16.0024C27.7729 15.5026 27.5354 14.9153 27.5354 14.2406C27.5354 13.5659 27.7729 12.9911 28.2479 12.5163C28.7478 12.0165 29.3353 11.7666 30.0103 11.7666C30.6852 11.7666 31.2602 12.0165 31.7352 12.5163C32.2351 12.9911 32.4851 13.5659 32.4851 14.2406C32.4851 14.9153 32.2351 15.5026 31.7352 16.0024C31.2602 16.4772 30.6852 16.7146 30.0103 16.7146Z" stroke="white" stroke-width="0.303047" mask="url(#path-2-outside-1_105_892)"/>
<path d="M46.5001 40.5551C45.2502 40.5551 44.1253 40.2427 43.1254 39.618C42.1254 38.9683 41.338 38.0936 40.763 36.994C40.188 35.8945 39.9006 34.6575 39.9006 33.283V15.4027C39.9006 14.8529 40.0756 14.4031 40.4255 14.0532C40.7755 13.7033 41.2255 13.5284 41.7754 13.5284C42.3254 13.5284 42.7754 13.7033 43.1254 14.0532C43.4753 14.4031 43.6503 14.8529 43.6503 15.4027V33.283C43.6503 34.2826 43.9253 35.1198 44.4753 35.7945C45.0252 36.4692 45.7002 36.8066 46.5001 36.8066H47.7751C48.225 36.8066 48.6 36.9815 48.9 37.3314C49.225 37.6813 49.3875 38.1311 49.3875 38.6809C49.3875 39.2306 49.175 39.6805 48.75 40.0303C48.35 40.3802 47.8251 40.5551 47.1751 40.5551H46.5001ZM38.1757 24.0242C37.6507 24.0242 37.2257 23.8743 36.9007 23.5744C36.5758 23.2745 36.4133 22.8997 36.4133 22.4498C36.4133 21.95 36.5758 21.5502 36.9007 21.2503C37.2257 20.9504 37.6507 20.8005 38.1757 20.8005H46.8376C47.3626 20.8005 47.7876 20.9504 48.1125 21.2503C48.4375 21.5502 48.6 21.95 48.6 22.4498C48.6 22.8997 48.4375 23.2745 48.1125 23.5744C47.7876 23.8743 47.3626 24.0242 46.8376 24.0242H38.1757Z" stroke="white" stroke-width="0.303047" mask="url(#path-2-outside-1_105_892)"/>
<path d="M61.5505 40.7051C59.8006 40.7051 58.1757 40.4427 56.6758 39.9179C55.2009 39.3681 54.0509 38.6809 53.226 37.8562C52.851 37.4564 52.6885 37.0065 52.7385 36.5067C52.8135 35.9819 53.0635 35.5571 53.4885 35.2322C53.9884 34.8324 54.4759 34.67 54.9509 34.7449C55.4508 34.7949 55.8758 35.0073 56.2258 35.3822C56.6508 35.857 57.3257 36.3068 58.2507 36.7316C59.2006 37.1315 60.2505 37.3314 61.4005 37.3314C62.8504 37.3314 63.9503 37.094 64.7003 36.6192C65.4752 36.1444 65.8752 35.5321 65.9002 34.7824C65.9252 34.0327 65.5627 33.383 64.8127 32.8332C64.0878 32.2834 62.7504 31.8336 60.8005 31.4837C58.2757 30.9839 56.4383 30.2342 55.2883 29.2346C54.1634 28.235 53.601 27.0105 53.601 25.5611C53.601 24.2866 53.9759 23.237 54.7259 22.4124C55.4758 21.5627 56.4383 20.9379 57.6132 20.5381C58.7881 20.1133 60.0131 19.9009 61.288 19.9009C62.9379 19.9009 64.4003 20.1633 65.6752 20.688C66.9501 21.2128 67.9626 21.9375 68.7125 22.8622C69.0625 23.262 69.225 23.6868 69.2 24.1367C69.175 24.5615 68.9625 24.9239 68.5625 25.2237C68.1625 25.4986 67.6876 25.5861 67.1376 25.4861C66.5876 25.3862 66.1252 25.1613 65.7502 24.8114C65.1252 24.2116 64.4503 23.7993 63.7253 23.5744C63.0004 23.3495 62.1629 23.237 61.213 23.237C60.113 23.237 59.1756 23.4244 58.4007 23.7993C57.6507 24.1741 57.2757 24.7239 57.2757 25.4486C57.2757 25.8985 57.3882 26.3108 57.6132 26.6856C57.8632 27.0355 58.3382 27.3604 59.0381 27.6603C59.7381 27.9352 60.763 28.21 62.1129 28.4849C63.9878 28.8598 65.4627 29.3346 66.5376 29.9094C67.6376 30.4841 68.425 31.1589 68.9 31.9336C69.375 32.6833 69.6124 33.5579 69.6124 34.5575C69.6124 35.7071 69.3 36.7441 68.675 37.6688C68.075 38.5934 67.1751 39.3306 65.9752 39.8804C64.8002 40.4302 63.3253 40.7051 61.5505 40.7051Z" stroke="white" stroke-width="0.303047" mask="url(#path-2-outside-1_105_892)"/>
<path d="M29.9613 18.4492C28.9068 18.4492 27.9025 18.0482 27.1744 17.2963C26.4212 16.5444 26.0195 15.5669 26.0195 14.5142C26.0195 13.4615 26.4212 12.4839 27.1744 11.732C27.3251 11.5816 27.5008 11.4313 27.7268 11.2809C27.777 11.2307 27.8523 11.2057 27.9025 11.1555C28.0532 11.0804 28.1787 11.0052 28.3294 10.93C28.4047 10.9049 28.48 10.8548 28.5553 10.8297C28.706 10.7796 28.8566 10.7295 29.0324 10.6793L29.183 10.6292L30.0868 10.554C30.1873 10.554 30.3128 10.5791 30.4132 10.5791H30.4886C30.5388 10.5791 30.5639 10.5791 30.6141 10.5791C30.6392 10.5791 30.6392 10.5791 30.6643 10.5791H30.6894H30.7145C30.7898 10.5791 30.8401 10.5791 30.9154 10.5791C32.4218 10.5791 33.9282 9.9274 35.0078 8.82457C36.0874 7.69668 36.69 6.19282 36.6649 4.68897V4.51352L36.6397 4.48845V4.46339C36.6397 4.41326 36.6397 4.3882 36.6397 4.33807L36.6146 4.21275C36.6146 4.13755 36.5895 4.06236 36.5895 4.01223L36.6397 3.16005C36.6397 3.13498 36.6649 3.03473 36.69 3.00966C36.7402 2.80915 36.7904 2.65876 36.8406 2.53344C36.8657 2.45825 36.8908 2.38306 36.941 2.30786C37.0163 2.18254 37.0666 2.03216 37.167 1.88177L37.1921 1.85671C37.2172 1.80658 37.2423 1.75645 37.2925 1.70632C37.4432 1.48074 37.5938 1.30529 37.7444 1.15491C38.4977 0.402981 39.4768 0.00195312 40.5313 0.00195312C41.5858 0.00195312 42.565 0.402981 43.3182 1.15491C44.8497 2.68383 44.8497 5.19025 43.3182 6.71917C43.1675 6.86956 42.9918 7.01994 42.7658 7.17033C42.7156 7.19539 42.6905 7.22046 42.6403 7.24552L42.565 7.29565C42.4394 7.37084 42.2888 7.44604 42.1382 7.52123C42.0628 7.54629 41.9875 7.59642 41.9122 7.62149C41.7616 7.67161 41.6109 7.72174 41.4352 7.77187C41.3849 7.77187 41.3598 7.79693 41.3347 7.79693C41.3096 7.79693 41.2845 7.79693 41.2845 7.822L40.4058 7.87213C40.2802 7.87213 40.1296 7.84706 40.0041 7.822C39.9539 7.822 39.9287 7.822 39.8785 7.822C39.8534 7.822 39.8534 7.822 39.8283 7.822H39.753C39.6777 7.822 39.6275 7.822 39.5521 7.822C38.0457 7.822 36.5393 8.47367 35.4597 9.5765C34.3801 10.7044 33.7776 12.2082 33.8278 13.7121V13.7622V13.8124C33.8278 13.8625 33.8278 13.9126 33.8529 13.9377C33.8529 13.9878 33.8529 14.0379 33.8529 14.063C33.8529 14.0881 33.8529 14.1382 33.878 14.1883C33.878 14.2635 33.9031 14.3136 33.9031 14.3888L33.8278 15.2661C33.8278 15.2911 33.7776 15.3914 33.7776 15.3914C33.7273 15.5669 33.6771 15.7423 33.6269 15.8927C33.6018 15.9679 33.5767 16.0431 33.5265 16.0932V16.1183C33.4512 16.2687 33.3759 16.394 33.3005 16.5444C33.2503 16.6196 33.2252 16.6697 33.175 16.7449C33.0244 16.9704 32.8737 17.1459 32.7231 17.2963C31.995 18.0482 31.0158 18.4492 29.9613 18.4492Z" fill="#FB8614"/>
</svg>
