<svg width="257" height="601" viewBox="0 0 257 601" fill="none" xmlns="http://www.w3.org/2000/svg">
<path d="M92.1628 275.215C90.8993 278.306 87.7285 285.251 82.9109 292.441C80.5211 296.044 77.7526 299.707 74.8516 303.083C71.9506 306.458 68.9361 309.563 66.1392 312.119C64.5207 313.596 62.8691 315.045 61.1607 316.422C60.323 317.137 59.4333 317.767 58.5673 318.429L55.9503 320.398C52.4104 322.955 48.7712 325.378 45.0136 327.598C37.5174 332.067 29.6569 335.868 21.6212 339.168C5.52619 345.766 -11.2124 350.377 -27.9558 354.41C-33.1946 355.674 -42.0868 357.823 -42.1625 356.739C-42.243 355.603 -36.4363 353.558 -27.3453 351.314C-24.5958 350.628 -21.8462 349.946 -19.1061 349.222C-16.3566 348.521 -13.626 347.773 -10.8906 347.021C-9.52295 346.656 -8.16 346.263 -6.80179 345.861L-2.72244 344.668L1.33326 343.4C2.682 342.969 4.0402 342.566 5.37475 342.098C8.04857 341.175 10.7413 340.299 13.3773 339.277L17.3431 337.785L21.2568 336.176L23.2113 335.371C23.8596 335.097 24.4985 334.794 25.1374 334.51L28.9801 332.763C30.2626 332.185 31.4978 331.513 32.7566 330.893L34.6354 329.942C35.2648 329.629 35.8895 329.312 36.4952 328.957C43.7264 325.09 50.6357 320.649 57.0766 315.622C63.5553 310.671 69.3809 304.91 74.4872 298.562C79.5888 292.219 84.0089 285.308 87.4493 277.937C90.8945 270.576 93.4453 262.78 94.69 254.766C95.7784 247.58 95.9299 240.228 94.742 233.076L94.5291 231.736C94.4533 231.291 94.3445 230.851 94.2546 230.406L93.9706 229.076L93.8287 228.413L93.6536 227.755L92.9437 225.133L92.0966 222.553C91.9641 222.117 91.7984 221.701 91.6328 221.279L91.1406 220.016C90.9703 219.594 90.8236 219.168 90.639 218.756L90.0664 217.526L88.9211 215.059C88.7413 214.643 88.5094 214.25 88.2917 213.852L87.6339 212.659C84.1272 206.293 79.6929 200.427 74.8185 194.936C69.9488 189.431 64.71 184.214 59.5091 178.922C54.6205 173.952 49.7508 168.906 45.2597 163.471C44.1618 162.094 43.0639 160.712 41.9849 159.315L38.9135 154.993C37.9386 153.516 37.0205 152.006 36.0741 150.515C35.5866 149.777 35.1796 148.991 34.749 148.219L33.4665 145.9C26.8127 133.422 22.6292 119.637 21.1858 105.559C20.6227 99.4764 20.5469 93.3557 20.9587 87.2635L21.3893 82.7049C21.5644 81.1901 21.8294 79.6848 22.0471 78.1748L22.2175 77.0434C22.2695 76.6647 22.3311 76.2907 22.421 75.9168L22.8942 73.6777C23.2161 72.1866 23.4858 70.6813 23.9259 69.2186C24.3329 67.7464 24.7115 66.2695 25.1422 64.8068L26.5903 60.4659C26.7133 60.1062 26.8269 59.7417 26.9594 59.3819L27.3806 58.3168L28.2229 56.1914L29.0653 54.066L30.0213 51.9926L30.9772 49.9192L31.4552 48.8826C31.6208 48.5418 31.8054 48.2057 31.9805 47.8696L34.1101 43.8317C35.6623 41.214 37.1673 38.5631 38.9135 36.0684C39.7133 34.8802 40.5178 33.6069 41.4596 32.3714C41.9139 31.7418 42.3777 31.1075 42.8462 30.4637C43.3242 29.8294 43.7595 29.1525 44.2801 28.5324C45.2929 27.278 46.3198 26.0046 47.342 24.7454C48.4021 23.5194 49.5094 22.3454 50.5695 21.1857C51.4308 20.2105 52.5429 19.1738 53.7071 18.0377C54.2892 17.4744 54.8949 16.8875 55.5054 16.2958C56.1301 15.7135 56.7974 15.1596 57.4457 14.5869C60.0107 12.2579 62.8029 10.2082 64.8567 8.65082C65.7796 8.03071 66.7166 7.3964 67.6536 6.76208C68.5906 6.13723 69.485 5.46028 70.4173 4.89223C71.4727 4.22004 72.4286 3.6094 73.2946 3.06029C73.73 2.79047 74.1418 2.53959 74.5298 2.29817C74.9321 2.08515 75.3107 1.88633 75.6656 1.69698C77.0901 0.958521 78.1454 0.461471 78.8505 0.205851C80.2655 -0.305389 80.2797 0.144338 79.1155 1.47451C78.6044 2.05676 79.4989 1.97156 77.5065 3.26386C77.4261 3.31593 77.2604 3.42479 77.1847 3.47686C75.6751 4.45673 74.2411 5.55969 72.7362 6.5585L71.6052 7.31115L71.0373 7.68513L70.4883 8.08748C69.7501 8.61292 69.0071 9.14309 68.2641 9.67326C67.5258 10.2082 66.7497 10.6958 66.0304 11.2591C65.3063 11.8177 64.5775 12.3762 63.8487 12.9395C63.1247 13.5076 62.3769 14.0473 61.6718 14.639L59.5848 16.4567C56.149 19.4153 53.0162 22.7052 49.9732 26.0661C49.2208 26.9134 48.5204 27.8081 47.7916 28.6744L46.7078 29.9856C46.3434 30.4211 45.9838 30.8566 45.6572 31.3205L43.6317 34.0518C43.2957 34.511 42.9503 34.956 42.6238 35.4199L41.6867 36.8353L39.808 39.6708C39.1927 40.6222 38.6485 41.6163 38.0617 42.5867L37.2004 44.0494C36.9117 44.537 36.6183 45.0198 36.3675 45.5311L34.801 48.5465L34.0202 50.0565L33.3198 51.6045L31.919 54.7003C31.6729 55.2115 31.4883 55.7465 31.2801 56.2719L30.6649 57.8577L30.0497 59.4435C29.8462 59.9736 29.6285 60.4943 29.4676 61.0387C26.5003 69.5972 24.6926 78.5392 24.0584 87.5759C23.9969 88.1392 23.9827 88.7072 23.9638 89.2705L23.907 90.97C23.8786 92.1013 23.8076 93.2327 23.817 94.364L23.888 97.7628L23.9212 99.4622C23.9496 100.026 24.0016 100.594 24.0395 101.157L24.2903 104.546C24.3187 105.114 24.3897 105.673 24.4701 106.236L24.6878 107.921C24.8393 109.043 24.9576 110.17 25.1421 111.287L25.7526 114.629C25.8804 115.311 25.994 115.997 26.1359 116.679L26.6187 118.705L27.1014 120.735C27.2623 121.412 27.409 122.089 27.6219 122.752L28.7956 126.752C28.9754 127.424 29.2168 128.077 29.4486 128.731L30.1396 130.695L30.8305 132.66C31.0766 133.308 31.3558 133.947 31.6161 134.591C32.1556 135.869 32.6572 137.166 33.2251 138.435L35.0235 142.193L35.473 143.135C35.6292 143.443 35.8043 143.746 35.97 144.049L36.9732 145.876C38.2463 148.347 39.8032 150.653 41.2513 153.019C42.8698 155.273 44.3937 157.592 46.1636 159.741C49.6088 164.106 53.3664 168.234 57.2517 172.257C61.5109 176.66 66.002 180.877 70.2848 185.474L70.2091 185.398C74.7712 190.094 79.2764 194.917 83.2895 200.191C87.0755 205.175 90.5065 210.6 93.1141 216.475L93.6204 217.563C93.7766 217.933 93.9186 218.311 94.0653 218.685L94.9455 220.934L95.7027 223.225C95.8257 223.608 95.9583 223.987 96.0718 224.375L96.3889 225.54C97.2881 228.631 97.8465 231.807 98.2724 234.984L98.528 237.374C98.6179 238.169 98.6321 238.969 98.6841 239.765C98.8072 241.36 98.7646 242.95 98.793 244.541C98.7646 245.336 98.7315 246.127 98.7031 246.917L98.6557 248.105L98.5564 249.284C98.4854 250.07 98.4144 250.856 98.3481 251.641C98.244 252.422 98.1446 253.199 98.0405 253.975C97.9506 254.756 97.8134 255.523 97.6761 256.295C97.5342 257.062 97.4158 257.833 97.2597 258.595C96.9142 260.11 96.6208 261.634 96.1996 263.116C95.4519 266.108 94.4628 268.995 93.4453 271.835C93.0951 272.702 92.6834 273.918 92.1628 275.215Z" fill="white" fill-opacity="0.1"/>
<path d="M-37.9272 274.78C-38.7676 274.58 -39.7287 274.286 -40.8106 273.992C-41.8926 273.682 -43.1006 273.367 -44.4031 272.967C-45.7003 272.552 -47.1026 272.106 -48.5995 271.622C-49.3505 271.397 -50.1121 271.113 -50.8946 270.829C-51.6772 270.545 -52.486 270.257 -53.3105 269.957C-59.8966 267.53 -67.6015 264.157 -75.4376 259.86C-83.2789 255.568 -91.1938 250.299 -98.4311 244.604C-98.8828 244.252 -99.3398 243.9 -99.7914 243.548C-100.233 243.18 -100.674 242.818 -101.11 242.45C-101.987 241.72 -102.859 240.989 -103.725 240.27C-105.437 238.804 -107.076 237.296 -108.704 235.846C-110.269 234.328 -111.84 232.873 -113.31 231.396C-114.035 230.65 -114.755 229.915 -115.458 229.19C-116.162 228.46 -116.871 227.761 -117.517 227.026C-123.678 220.369 -129.303 213.214 -134.287 205.628C-139.271 198.042 -143.541 189.989 -147.092 181.63C-148.893 177.459 -150.411 173.172 -151.824 168.859C-152.17 167.777 -152.47 166.684 -152.795 165.597C-153.105 164.504 -153.457 163.422 -153.725 162.324L-154.555 159.019L-154.97 157.37L-155.322 155.704C-157.249 146.831 -158.389 137.8 -158.777 128.743C-159.114 119.681 -158.699 110.598 -157.564 101.614L-157.359 99.928L-157.102 98.2522L-156.577 94.8952C-156.414 93.7762 -156.167 92.6677 -155.962 91.554C-155.747 90.4455 -155.547 89.3266 -155.316 88.2234C-154.339 83.8052 -153.273 79.4027 -151.955 75.0738C-149.36 66.4056 -146.104 57.9369 -142.128 49.8098C-138.142 41.6931 -133.494 33.9075 -128.216 26.5736C-127.423 25.4074 -126.456 24.2096 -125.49 22.9278C-125.001 22.2921 -124.502 21.6407 -123.998 20.9787C-123.468 20.3378 -122.932 19.6916 -122.391 19.0402C-121.309 17.7426 -120.232 16.4134 -119.088 15.1946C-118.526 14.58 -117.969 13.9705 -117.423 13.3716C-116.876 12.778 -116.346 12.1896 -115.789 11.6538C-114.697 10.5663 -113.662 9.55237 -112.722 8.65402C-111.777 7.75567 -110.873 7.02539 -110.133 6.41073C-108.636 5.19718 -107.68 4.58261 -107.549 4.8663C-107.412 5.1605 -107.848 5.96949 -108.793 7.21982C-109.266 7.84498 -109.865 8.5805 -110.584 9.4158C-111.293 10.2616 -112.081 11.2544 -113 12.3209C-116.63 16.6235 -121.745 22.7491 -127.239 30.6872C-140.516 49.9044 -149.471 72.1791 -153.384 95.284C-157.317 118.368 -156.225 142.366 -149.592 164.672C-147.176 172.825 -144.035 180.753 -140.248 188.36C-136.435 195.956 -131.966 203.217 -126.96 210.073C-121.95 216.934 -116.393 223.39 -110.374 229.384C-104.334 235.358 -97.8271 240.858 -90.9522 245.838C-84.072 250.819 -76.8136 255.268 -69.2506 259.135C-61.6771 262.975 -53.8043 266.217 -45.7213 268.801C-37.6384 271.386 -29.3454 273.309 -20.9473 274.501C-12.5492 275.678 -4.05136 276.041 4.46225 275.878C12.104 275.71 19.7458 275.153 27.3823 274.396C35.0188 273.634 42.6501 272.694 50.3076 271.791C57.9599 270.892 65.6384 270.025 73.3589 269.447C81.0795 268.88 88.8368 268.591 96.6046 268.775C104.372 269.001 112.151 269.71 119.824 271.144C127.487 272.642 135.034 274.822 142.235 277.974C145.817 279.581 149.293 281.425 152.628 283.495C155.953 285.581 159.141 287.892 162.15 290.419C165.155 292.957 167.97 295.72 170.564 298.688C173.148 301.662 175.48 304.861 177.529 308.244C181.336 314.612 184.078 321.693 185.191 329.09C185.26 329.553 185.338 330.01 185.396 330.477C185.443 330.955 185.512 331.428 185.538 331.906C185.611 332.857 185.648 333.813 185.638 334.764C185.622 336.666 185.454 338.562 185.134 340.433C184.493 344.168 183.311 347.84 181.399 351.197C180.443 352.873 179.309 354.47 177.954 355.904C176.609 357.344 175.002 358.589 173.211 359.534C171.426 360.49 169.419 361.079 167.397 361.268C165.396 361.446 163.285 361.31 161.321 360.637C159.356 359.991 157.539 358.935 156.032 357.59C154.503 356.256 153.238 354.675 152.245 352.962C150.239 349.542 149.225 345.623 149.209 341.672C149.22 339.697 149.498 337.706 150.081 335.783C150.391 334.827 150.748 333.881 151.216 332.983L151.568 332.311C151.694 332.09 151.83 331.875 151.961 331.659C152.219 331.213 152.523 330.829 152.823 330.435C155.17 327.252 158.353 324.714 161.898 323.117C165.433 321.489 169.251 320.59 173.08 320.401C176.909 320.212 180.753 320.653 184.446 321.704C185.365 321.972 186.273 322.303 187.177 322.623L188.49 323.175C188.931 323.354 189.367 323.543 189.787 323.758C190.638 324.168 191.494 324.578 192.313 325.056C192.723 325.287 193.143 325.507 193.547 325.754L194.75 326.5C197.943 328.512 200.842 330.903 203.532 333.466C206.221 336.035 208.7 338.788 211.021 341.636C212.182 343.059 213.316 344.504 214.414 345.964C215.512 347.425 216.546 348.927 217.618 350.409C224.923 360.685 231.252 371.644 236.52 383.086C241.761 394.543 245.974 406.453 249.162 418.62C252.355 430.792 254.524 443.222 255.69 455.741C256.819 468.266 256.924 480.874 256.042 493.414C255.238 505.219 253.421 519.408 250.259 532.022C249.918 533.319 249.545 534.727 249.156 536.214C248.747 537.696 248.389 539.282 247.87 540.879C246.872 544.084 245.905 547.535 244.666 550.892C244.072 552.579 243.5 554.27 242.891 555.92C242.245 557.554 241.609 559.161 240.989 560.716C240.679 561.494 240.375 562.256 240.081 563.002C239.787 563.748 239.44 564.457 239.135 565.161C238.51 566.558 237.922 567.877 237.376 569.09C236.473 571.202 235.37 573.272 234.345 575.363C233.831 576.409 233.321 577.449 232.812 578.484C232.271 579.503 231.735 580.506 231.21 581.499C228.873 586.112 226.641 589.7 224.934 592.532C224.514 593.246 224.072 593.882 223.673 594.47C223.269 595.058 222.891 595.6 222.549 596.099C221.856 597.086 221.273 597.885 220.8 598.494C218.904 600.937 218.742 600.364 220.055 597.118C220.627 595.694 219.356 596.929 221.882 592.684C221.987 592.51 222.192 592.159 222.287 591.996C223.159 590.336 224.041 588.681 224.944 587.031C225.396 586.206 225.853 585.382 226.305 584.557C226.73 583.716 227.161 582.876 227.586 582.03C228.453 580.354 229.324 578.673 230.196 576.986C231.021 575.274 231.845 573.561 232.67 571.843C233.08 570.982 233.526 570.136 233.904 569.264L235.06 566.642L236.226 564.016C236.609 563.138 237.024 562.271 237.36 561.373C238.773 557.801 240.254 554.244 241.452 550.572C244.534 541.62 247.082 532.474 248.967 523.191C250.842 513.903 252.139 504.504 252.87 495.058L253.116 491.512L253.242 489.742C253.279 489.153 253.284 488.56 253.311 487.966C253.384 485.597 253.479 483.233 253.537 480.863L253.51 473.755C253.526 472.568 253.437 471.386 253.4 470.204L253.258 466.653C252.785 457.191 251.74 447.761 250.123 438.426L248.804 431.444L247.229 424.515C246.987 423.354 246.651 422.219 246.352 421.074L245.438 417.643C244.865 415.342 244.12 413.094 243.432 410.829C240.616 401.788 237.229 392.931 233.264 384.331C229.246 375.757 224.661 367.456 219.519 359.518C214.335 351.628 208.831 343.816 202.261 337.181C198.222 333.135 193.7 329.568 188.631 327.12C186.095 325.886 183.469 324.961 180.738 324.436C178.006 323.905 175.202 323.742 172.434 323.958C169.666 324.178 166.935 324.782 164.393 325.817C161.851 326.852 159.509 328.323 157.576 330.215L156.877 330.95C156.652 331.202 156.394 331.423 156.205 331.701C155.811 332.242 155.365 332.768 155.008 333.319C154.293 334.417 153.742 335.62 153.358 336.886C152.586 339.424 152.46 342.182 152.907 344.851C153.353 347.514 154.356 350.099 155.869 352.295C157.376 354.486 159.419 356.282 161.809 357.202C163.001 357.664 164.262 357.911 165.543 357.942C166.851 357.984 168.143 357.811 169.383 357.449C171.867 356.729 174.088 355.174 175.869 353.172C177.66 351.165 179.046 348.749 180.065 346.185C181.074 343.611 181.746 340.884 182.061 338.121C182.36 335.347 182.36 332.584 181.888 329.826C181.468 327.031 180.811 324.273 179.934 321.583C178.012 315.689 175.013 310.162 171.289 305.155C167.56 300.144 163.117 295.636 158.185 291.649L158.353 291.785C153.169 287.667 147.455 284.22 141.426 281.494C135.407 278.772 129.01 276.792 122.518 275.358C110.213 272.631 97.3294 271.985 84.4671 272.426C71.5837 272.857 58.6899 274.407 45.8171 275.946C32.9442 277.48 20.0556 278.988 7.20907 279.382C0.79104 279.576 -5.61125 279.508 -11.9453 279.009C-12.7383 278.946 -13.5261 278.877 -14.3192 278.814C-15.107 278.757 -15.9001 278.688 -16.6826 278.578C-18.253 278.389 -19.8181 278.195 -21.378 278.005C-22.9326 277.753 -24.482 277.506 -26.0261 277.254L-27.1815 277.065L-28.3317 276.834C-29.0985 276.682 -29.8601 276.524 -30.6216 276.372C-32.5439 276.046 -35.1226 275.447 -37.9272 274.78Z" fill="white" fill-opacity="0.1"/>
</svg>
