<svg width="189" height="100" viewBox="0 0 189 100" fill="none" xmlns="http://www.w3.org/2000/svg">
<path d="M55.8978 99.9998C55.8978 82.4429 62.9094 65.605 75.3902 53.1904C87.8709 40.7757 104.798 33.8013 122.449 33.8013C140.099 33.8013 157.027 40.7757 169.508 53.1904C181.988 65.605 189 82.4429 189 99.9998L122.449 99.9998L55.8978 99.9998Z" fill="#4285F4"/>
<path d="M48.8863 61.3597L56.9829 54.9965L65.0794 61.3597L73.176 54.9965L81.2725 61.3597L89.3691 54.9965L96.6821 61.2299L96.9433 60.9052L89.3692 54.4771L81.2725 60.7753L73.176 54.4771L65.0794 60.7753L56.9829 54.4771L48.8863 60.7753L40.7898 54.4771L32.6279 60.7753L24.5313 54.4771L16.4347 60.7753L8.33821 54.4771L0.111008 60.9052L0.372202 61.2299L8.3382 54.9965L16.4347 61.3597L24.5313 54.9965L32.6279 61.3597L40.7898 54.9965L48.8863 61.3597Z" fill="#424254"/>
<path d="M48.8863 73.5663L56.9829 67.203L65.0794 73.5663L73.176 67.203L81.2725 73.5663L89.3691 67.268L96.6821 73.5013L96.9433 73.1767L89.3692 66.6836L81.2725 73.0468L73.176 66.6836L65.0794 73.0468L56.9829 66.6836L48.8863 73.0468L40.7898 66.6836L32.6279 73.0468L24.5313 66.6836L16.4347 73.0468L8.33821 66.6836L0.111008 73.1118L0.372201 73.5013L8.3382 67.203L16.4347 73.5663L24.5313 67.203L32.6279 73.5663L40.7898 67.203L48.8863 73.5663Z" fill="#424254"/>
<path d="M48.8863 49.0878L56.9829 42.7246L65.0794 49.0878L73.176 42.7246L81.2726 49.0878L89.3691 42.7246L96.6822 49.0228L96.9433 48.6982L89.3692 42.2051L81.2726 48.5683L73.176 42.2051L65.0794 48.5683L56.9829 42.2051L48.8863 48.5683L40.7898 42.2051L32.6279 48.5683L24.5313 42.2051L16.4348 48.5683L8.33821 42.2051L0.111036 48.6332L0.372231 49.0228L8.33821 42.7246L16.4348 49.0878L24.5313 42.7246L32.6279 49.0878L40.7898 42.7246L48.8863 49.0878Z" fill="#424254"/>
<path d="M58.3533 7.66235C58.3533 11.8179 61.7486 15.1294 65.8622 15.1294C70.041 15.1294 73.3711 11.753 73.3711 7.66235C73.3711 3.50678 69.9758 0.195312 65.8622 0.195312C61.7486 0.195312 58.3533 3.50678 58.3533 7.66235Z" fill="#424254"/>
<path d="M65.8626 15.3237C70.1068 15.3237 73.5674 11.8823 73.5674 7.66183C73.5674 3.44132 70.1068 -4.69526e-08 65.8626 -1.04536e-07C61.6184 -1.6212e-07 58.1578 3.44132 58.1578 7.66183C58.1578 11.8823 61.6184 15.3237 65.8626 15.3237ZM65.8626 0.389589C69.9109 0.389589 73.1756 3.63612 73.1756 7.66183C73.1756 11.6875 69.9109 14.9341 65.8626 14.9341C61.8143 14.9341 58.5496 11.6875 58.5496 7.66183C58.5496 3.63612 61.8143 0.389589 65.8626 0.389589Z" fill="#424254"/>
<path opacity="0.8" d="M32.2647 28.9049C31.5769 26.0083 33.3807 23.1056 36.2936 22.4217C39.2064 21.7377 42.1254 23.5314 42.8132 26.428C43.501 29.3247 41.6972 32.2273 38.7843 32.9113C35.8715 33.5953 32.9525 31.8016 32.2647 28.9049Z" fill="#FB8614"/>
<path d="M37.5252 33.1798C40.5941 33.1798 43.1406 30.7124 43.1406 27.5958C43.1406 24.544 40.6594 22.0117 37.5253 22.0117C34.4564 22.0117 31.9099 24.4791 31.9099 27.5958C31.9099 30.7124 34.3911 33.1798 37.5252 33.1798ZM37.5253 22.4662C40.3982 22.4662 42.7488 24.8037 42.7488 27.6607C42.7488 30.5177 40.3982 32.8552 37.5252 32.8552C34.6523 32.8552 32.3017 30.5177 32.3017 27.6607C32.3017 24.8037 34.6523 22.4662 37.5253 22.4662Z" fill="#424254"/>
</svg>
