<svg width="80" height="60" viewBox="0 0 80 60" fill="none" xmlns="http://www.w3.org/2000/svg">
<path d="M40.2967 50.0441L46.9858 44.8543L53.6749 50.0441L60.3641 44.8543L67.0532 50.0441L73.7424 44.8543L79.7842 49.9382L80 49.6734L73.7424 44.4307L67.0532 49.5675L60.3641 44.4307L53.6749 49.5675L46.9858 44.4307L40.2967 49.5675L33.6076 44.4307L26.8644 49.5675L20.1753 44.4307L13.4861 49.5675L6.79704 44.4307L-3.36971e-05 49.6734L0.215754 49.9382L6.79703 44.8543L13.4861 50.0441L20.1753 44.8543L26.8644 50.0441L33.6076 44.8543L40.2967 50.0441Z" fill="#424254"/>
<path d="M40.2967 60.0002L46.9858 54.8104L53.6749 60.0002L60.3641 54.8104L67.0532 60.0002L73.7424 54.8633L79.7842 59.9472L80 59.6824L73.7424 54.3867L67.0532 59.5765L60.3641 54.3867L53.6749 59.5765L46.9858 54.3867L40.2967 59.5765L33.6076 54.3867L26.8644 59.5765L20.1753 54.3867L13.4861 59.5765L6.79704 54.3867L-3.36971e-05 59.6295L0.215754 59.9472L6.79703 54.8104L13.4861 60.0002L20.1753 54.8104L26.8644 60.0002L33.6076 54.8104L40.2967 60.0002Z" fill="#424254"/>
<path d="M40.2967 40.0353L46.9858 34.8456L53.675 40.0353L60.3641 34.8456L67.0533 40.0353L73.7424 34.8456L79.7842 39.9824L80 39.7176L73.7424 34.4219L67.0533 39.6117L60.3641 34.4219L53.675 39.6117L46.9858 34.4219L40.2967 39.6117L33.6076 34.4219L26.8645 39.6117L20.1753 34.4219L13.4862 39.6117L6.79704 34.4219L-1.08829e-05 39.6646L0.215778 39.9824L6.79703 34.8456L13.4862 40.0353L20.1753 34.8456L26.8645 40.0353L33.6076 34.8456L40.2967 40.0353Z" fill="#424254"/>
<path d="M48.1181 6.24923C48.1181 9.63848 50.9232 12.3393 54.3217 12.3393C57.7742 12.3393 60.5254 9.58552 60.5254 6.24923C60.5254 2.85999 57.7203 0.15918 54.3218 0.15918C50.9232 0.15918 48.1181 2.85999 48.1181 6.24923Z" fill="#424254"/>
<path d="M54.322 12.4979C57.8284 12.4979 60.6875 9.69112 60.6875 6.24892C60.6875 2.80671 57.8284 -3.87909e-08 54.322 -8.63647e-08C50.8156 -1.33938e-07 47.9566 2.80671 47.9566 6.24892C47.9566 9.69112 50.8156 12.4979 54.322 12.4979ZM54.322 0.317745C57.6666 0.317745 60.3638 2.96559 60.3638 6.24892C60.3638 9.53225 57.6666 12.1801 54.322 12.1801C50.9775 12.1801 48.2802 9.53225 48.2802 6.24892C48.2802 2.96559 50.9775 0.317745 54.322 0.317745Z" fill="#424254"/>
<path opacity="0.8" d="M26.5648 23.574C25.9966 21.2116 27.4868 18.8442 29.8934 18.2863C32.2999 17.7285 34.7114 19.1914 35.2797 21.5539C35.8479 23.9164 34.3577 26.2838 31.9512 26.8416C29.5446 27.3995 27.1331 25.9365 26.5648 23.574Z" fill="#FB8614"/>
<path d="M30.9105 27.0608C33.4459 27.0608 35.5498 25.0484 35.5498 22.5065C35.5498 20.0175 33.4999 17.9521 30.9106 17.9521C28.3752 17.9521 26.2713 19.9645 26.2713 22.5065C26.2713 25.0484 28.3212 27.0608 30.9105 27.0608ZM30.9106 18.3229C33.2841 18.3229 35.2261 20.2293 35.2261 22.5594C35.2261 24.8895 33.2841 26.796 30.9105 26.796C28.537 26.796 26.595 24.8895 26.595 22.5594C26.595 20.2293 28.537 18.3229 30.9106 18.3229Z" fill="#424254"/>
</svg>
