<svg width="40" height="40" viewBox="0 0 40 40" fill="none" xmlns="http://www.w3.org/2000/svg">
<path d="M0.00417086 20.4698C0.350542 19.8812 0.695874 19.2906 1.04433 18.7031C1.28429 18.2982 1.58475 18.1782 1.90608 18.3545C2.24202 18.5371 2.30775 18.8867 2.07509 19.2979C1.78193 19.8155 1.48251 20.3289 1.16848 20.8747C1.94469 21.3245 2.69586 21.7586 3.49501 22.2219C5.66923 18.4568 7.83509 14.7062 10.0166 10.9265C9.2404 10.4767 8.49027 10.0416 7.69946 9.58447C7.62017 9.71387 7.54505 9.82762 7.47724 9.94554C6.2086 12.1401 4.94101 14.3347 3.67237 16.5283C3.60769 16.641 3.55031 16.761 3.46789 16.8591C3.27071 17.0918 3.02553 17.1763 2.73863 17.0282C2.43608 16.8716 2.36826 16.6086 2.44755 16.2998C2.47259 16.2017 2.53728 16.113 2.58944 16.0232C3.9092 13.7389 5.22791 11.4535 6.54976 9.17018C7.00985 8.37604 7.66086 8.19759 8.45376 8.64736C9.08599 9.00634 9.71509 9.37263 10.3452 9.73683C11.1632 10.2096 11.3489 10.7136 11.0161 11.6236C11.9832 12.0775 12.6749 12.735 12.5101 13.9768C13.3144 14.4381 14.1261 14.9243 14.9618 15.3637C15.1245 15.4493 15.3958 15.3877 15.5961 15.3251C15.9164 15.2259 16.2221 15.0736 16.5299 14.9358C17.6065 14.4589 18.655 14.5069 19.6597 15.1226C19.8965 15.2677 20.0739 15.2917 20.3222 15.1362C21.3352 14.5007 22.391 14.4694 23.4865 14.941C25.0587 15.6173 24.6059 15.6152 26.1114 14.772C26.3044 14.6645 26.487 14.5361 26.6873 14.4443C27.186 14.2158 27.5438 13.9538 27.5115 13.2891C27.4844 12.7329 27.8652 12.3019 28.3367 11.9961C28.5423 11.8626 28.7582 11.7446 28.9638 11.6236C28.6602 10.6458 28.8281 10.2158 29.7024 9.70657C30.32 9.34654 30.9387 8.9886 31.5595 8.63484C32.3064 8.20907 32.9961 8.38334 33.4217 9.11905C35.5417 12.7871 37.6585 16.4584 39.7722 20.1296C40.201 20.8747 40.0174 21.5541 39.2808 21.9871C38.6423 22.3628 37.9997 22.7312 37.358 23.1006C36.5443 23.5692 36.0039 23.4732 35.3998 22.7427C35.1901 22.8606 34.9804 22.9889 34.7613 23.0996C34.1197 23.4241 33.4781 23.4116 32.8709 23.0286C32.6768 22.9065 32.5433 22.8815 32.3534 23.0119C32.1187 23.1726 31.862 23.302 31.5647 23.4732C31.9695 23.7111 32.3409 23.9302 32.7133 24.1463C33.2527 24.4593 33.7942 24.7682 34.3335 25.0823C35.3435 25.6709 35.8714 26.7322 35.669 27.7632C35.4384 28.9403 34.609 29.6938 33.3664 29.8555C33.3163 29.8618 33.2684 29.8806 33.2256 29.891C32.9209 32.2682 32.4974 32.6867 30.1823 32.9173C30.0728 34.9314 28.633 35.784 27.0921 35.6097C27.0744 36.767 26.6122 37.6613 25.5084 38.1403C24.3879 38.6277 23.4385 38.1664 22.5121 37.5539C22.2773 37.8377 22.0645 38.0976 21.8496 38.3564C21.1443 39.2079 20.2419 39.5585 19.1735 39.2653C18.1125 38.9741 17.4876 38.2384 17.3227 37.1343C17.3113 37.0582 17.2904 36.983 17.2737 36.9089C15.3478 36.8046 14.4631 36.0887 14.2722 34.4576C12.5497 34.5547 11.5294 33.7449 11.2372 32.0376C10.9295 32.0136 10.6165 32.022 10.3171 31.9614C8.45063 31.5858 7.64417 29.4893 8.76883 27.9521C8.90655 27.7632 9.04009 27.5629 9.21118 27.4074C9.78917 26.8845 9.87158 26.2135 9.94566 25.481C10.0312 24.6252 9.7756 24.0857 8.97645 23.7768C8.71249 23.6756 8.47045 23.5097 8.23258 23.3521C7.7631 23.039 7.34161 22.8063 6.7459 23.1872C6.2785 23.4867 5.712 23.3479 5.21644 23.0891C5.00987 22.9816 4.80956 22.8606 4.61029 22.7479C3.89355 23.5076 3.45745 23.5692 2.55292 23.0474C2.0125 22.7354 1.47938 22.4098 0.929567 22.1165C0.514338 21.8953 0.180489 21.6115 0 21.1679C0.00417315 20.9384 0.00417086 20.7046 0.00417086 20.4698ZM15.2842 26.2532C16.6957 25.5404 17.715 25.9339 18.3473 26.5339C19.3561 27.4919 19.4312 28.6189 18.7907 29.8389C19.5961 30.0037 20.221 30.3888 20.631 31.0796C21.0379 31.7653 21.0713 32.4978 20.8522 33.2283C20.8918 33.2638 20.9002 33.2763 20.9106 33.2795C22.6623 33.7637 23.2278 34.5484 23.1318 36.3412C23.1276 36.4268 23.1704 36.5573 23.2351 36.598C23.5094 36.7701 23.788 36.9476 24.0874 37.0644C24.8104 37.3462 25.6607 36.8975 25.8454 36.1618C25.9956 35.5638 25.7275 34.9554 25.1432 34.6048C24.6195 34.2907 24.0833 33.9974 23.5626 33.6781C23.234 33.4767 23.1558 33.1354 23.3394 32.8412C23.5094 32.5688 23.8329 32.4968 24.1636 32.6617C24.245 32.7024 24.3211 32.7525 24.3994 32.7973C25.2215 33.2711 26.0394 33.7511 26.8657 34.2176C27.5887 34.6256 28.3774 34.4357 28.7645 33.7751C29.162 33.0958 28.9262 32.3142 28.1907 31.878C27.8777 31.6922 27.5605 31.5138 27.2455 31.3311C26.6612 30.992 26.0707 30.6612 25.4948 30.3095C25.1745 30.1143 25.0984 29.7961 25.2622 29.5049C25.4187 29.2263 25.7525 29.1344 26.0759 29.2868C26.1698 29.3306 26.2575 29.387 26.3472 29.4392C27.5292 30.1217 28.7113 30.8021 29.8923 31.4866C30.2303 31.6828 30.584 31.7903 30.9731 31.687C31.5615 31.5305 31.9016 31.1391 32.0049 30.5443C32.0926 30.0423 31.8276 29.5039 31.3174 29.2044C30.1072 28.4937 28.8886 27.7966 27.6742 27.0943C27.5731 27.0359 27.4656 26.9847 27.3759 26.9117C27.1234 26.7071 27.0368 26.4494 27.2006 26.153C27.3644 25.8566 27.6346 25.7951 27.9392 25.8869C28.0603 25.9234 28.1688 26.0069 28.2814 26.0716C29.6429 26.8574 31.0065 27.6411 32.3659 28.4321C32.73 28.645 33.1056 28.7494 33.5198 28.6356C34.0686 28.4854 34.465 28.0366 34.5099 27.4585C34.5568 26.8543 34.2689 26.416 33.7483 26.1165C30.945 24.5 28.1458 22.8773 25.3373 21.2692C25.1891 21.1846 24.9732 21.194 24.7896 21.1982C24.3514 21.2066 23.8975 21.3234 23.4802 21.242C22.7718 21.1032 22.0906 20.833 21.3905 20.6493C21.2163 20.6034 20.9805 20.6232 20.8251 20.7077C20.0822 21.1085 19.3561 21.5405 18.6237 21.9631C18.052 22.2929 17.4396 22.4348 16.7875 22.3012C15.7098 22.0811 14.9284 21.29 14.7667 20.2861C14.5872 19.1727 15.0432 18.1875 16.0228 17.6094C16.8282 17.1336 17.643 16.6723 18.4516 16.2027C18.5465 16.1474 18.6331 16.0806 18.7239 16.019C18.7187 15.9804 18.7145 15.9429 18.7093 15.9042C18.3827 15.8782 18.0395 15.7748 17.7328 15.8416C17.232 15.9512 16.7343 16.1286 16.2722 16.3519C15.4678 16.7401 14.7323 16.6817 13.9853 16.2079C13.3426 15.8009 12.6697 15.443 11.9936 15.0538C10.6707 17.3464 9.36872 19.6026 8.05626 21.8776C8.64781 22.2209 9.18511 22.5642 9.74952 22.8512C10.628 23.2978 11.2112 23.9219 11.1632 24.9811C13.207 24.0398 14.4902 24.4364 15.2842 26.2532ZM31.9444 21.8765C30.6163 19.5765 29.3174 17.3277 28.006 15.0558C27.2538 15.4889 26.5225 15.9084 25.7942 16.3311C25.2027 16.6744 24.5965 16.7234 23.9664 16.4479C23.5981 16.2862 23.2288 16.1265 22.8563 15.9742C22.3128 15.7529 21.7473 15.7133 21.234 16.0003C19.6461 16.8873 18.0697 17.7941 16.5048 18.7208C15.9915 19.0245 15.835 19.5483 15.9487 20.116C16.0583 20.6608 16.412 21.049 16.9701 21.0991C17.3217 21.1304 17.7296 21.0667 18.0416 20.9081C18.896 20.4708 19.7192 19.9699 20.5434 19.4743C20.8386 19.2968 21.113 19.2728 21.4302 19.3908C21.9403 19.5807 22.4589 19.7498 22.9753 19.9219C24.2032 20.331 25.1359 20.0586 25.956 19.0537C26.2157 18.7365 26.5225 18.6686 26.8052 18.8679C27.0963 19.0725 27.1474 19.4346 26.9085 19.7612C26.7353 19.9981 26.5318 20.2141 26.3263 20.4583C27.6315 21.2118 28.9231 21.961 30.2199 22.7009C30.2939 22.7437 30.4317 22.75 30.5047 22.7103C30.9794 22.4473 31.4457 22.1677 31.9444 21.8765ZM38.8353 20.8726C36.6559 17.097 34.4953 13.3538 32.3158 9.57926C31.5302 10.0332 30.7707 10.4715 29.9851 10.9254C32.1677 14.7062 34.3336 18.4568 36.5078 22.2219C37.3069 21.7576 38.057 21.3234 38.8353 20.8726ZM18.0718 28.4561C17.9936 27.8352 17.6649 27.3594 17.1256 27.158C16.5726 26.9524 15.9853 27.1152 15.5878 27.6025C14.6759 28.7202 13.7662 29.8388 12.8616 30.9628C12.3066 31.6525 12.3515 32.4874 12.9555 32.9716C13.5846 33.4767 14.3744 33.3619 14.9409 32.67C15.8465 31.5638 16.7542 30.4598 17.6368 29.3359C17.8329 29.0844 17.9289 28.7515 18.0718 28.4561ZM14.2377 27.0254C14.1668 26.4222 13.8559 25.9391 13.3499 25.7283C12.8157 25.505 12.22 25.6239 11.8288 26.0883C11.1423 26.9023 10.4746 27.733 9.81003 28.5647C9.27482 29.2346 9.34264 30.0455 9.95401 30.5359C10.5445 31.0087 11.3541 30.9054 11.8862 30.2667C12.5507 29.4684 13.2091 28.6638 13.8434 27.8415C14.0239 27.6067 14.1094 27.2988 14.2377 27.0254ZM10.3943 12.6546C8.65929 15.6601 6.92326 18.6686 5.18931 21.672C6.07819 22.3179 6.46421 22.3106 7.00463 21.3443C8.29935 19.0318 9.64519 16.7474 10.9691 14.4516C11.5659 13.4175 11.4991 13.2004 10.3943 12.6546ZM34.8249 21.6897C33.0722 18.653 31.3393 15.6517 29.6022 12.6442C29.4322 12.7402 29.2966 12.8153 29.162 12.8936C28.6007 13.2244 28.512 13.5489 28.8396 14.1177C30.2866 16.6274 31.7358 19.1372 33.187 21.6448C33.4906 22.1687 33.8265 22.2585 34.3502 21.9673C34.4963 21.8859 34.6392 21.7983 34.8249 21.6897ZM16.8606 35.8017C17.161 35.6462 17.5356 35.5575 17.7484 35.3217C18.3932 34.611 18.9972 33.8618 19.5721 33.0937C19.9737 32.5563 19.8235 31.76 19.3123 31.3374C18.7656 30.8855 17.9873 30.8897 17.5178 31.4209C16.8814 32.1388 16.2805 32.8913 15.6994 33.6551C15.3833 34.0705 15.3874 34.5578 15.6399 35.0159C15.8914 35.4688 16.2857 35.7109 16.8606 35.8017ZM18.5017 36.815C18.4996 37.3858 18.8011 37.8607 19.3269 38.0621C19.8579 38.2656 20.3681 38.1977 20.7646 37.7824C21.1307 37.3984 21.4636 36.9768 21.7734 36.5458C22.0843 36.1127 22.0488 35.4772 21.7432 35.0441C21.425 34.5954 20.8866 34.394 20.3379 34.5202C19.6587 34.6768 18.5048 36.119 18.5017 36.815Z" fill="#4583E6"/>
<path d="M2.81631 39.9999C2.25801 39.5616 2.28305 39.1588 2.89562 38.8019C3.54471 38.4231 4.19485 38.0443 4.84707 37.6718C5.25614 37.438 5.59738 37.5069 5.78105 37.846C5.95428 38.1664 5.83531 38.467 5.43459 38.7091C4.71871 39.14 4.00074 39.57 3.28382 39.9999C3.12937 39.9999 2.97284 39.9999 2.81631 39.9999Z" fill="#4583E6"/>
<path d="M36.7978 40C36.0579 39.569 35.317 39.1401 34.5782 38.707C34.1702 38.4681 34.0501 38.1706 34.2234 37.8503C34.407 37.5111 34.7483 37.4391 35.1574 37.6708C35.8117 38.0423 36.4628 38.4201 37.113 38.7989C37.7224 39.1547 37.7475 39.5669 37.1881 40C37.0577 40 36.9283 40 36.7978 40Z" fill="#4583E6"/>
<path d="M0.00390625 30.1571C0.179224 29.8587 0.43281 29.7512 0.782401 29.7606C1.54733 29.7814 2.31225 29.7647 3.07822 29.7679C3.52695 29.77 3.77323 29.9933 3.7628 30.3742C3.75236 30.7405 3.51965 30.9356 3.07613 30.9367C2.31121 30.9387 1.54524 30.922 0.780312 30.944C0.430721 30.9534 0.176093 30.85 0.00390625 30.5474C0.00390625 30.417 0.00390625 30.2865 0.00390625 30.1571Z" fill="#4583E6"/>
<path d="M18.0509 11.68C18.8689 10.8608 19.6284 10.1136 20.3712 9.34972C20.824 8.88325 21.3519 8.6568 22.006 8.67036C23.0076 8.69019 24.0102 8.67662 25.0128 8.67454C25.6179 8.67349 25.8683 8.42617 25.8693 7.82613C25.8714 5.89972 25.8714 3.97332 25.8693 2.04587C25.8683 1.42495 25.6189 1.17554 24.9909 1.1745C23.0253 1.17137 21.0598 1.18285 19.0942 1.15989C18.8866 1.1578 18.6112 1.00857 18.4985 0.839519C18.4077 0.703857 18.4589 0.400182 18.5569 0.237387C18.6362 0.106943 18.8803 0.0140661 19.0525 0.0130225C21.1349 -0.00158727 23.2183 -0.00471794 25.3007 0.00780473C26.1541 0.0130225 26.9283 0.720553 27.0284 1.57627C27.0764 1.98847 27.0701 2.40694 27.0712 2.82332C27.0754 4.48988 27.0795 6.15539 27.0701 7.82195C27.0649 8.84255 26.56 9.54486 25.6742 9.78697C25.4896 9.83706 25.2903 9.84645 25.0973 9.84749C24.1083 9.85375 23.1182 9.86002 22.1291 9.84541C21.7379 9.83915 21.4333 9.95602 21.1578 10.2409C20.4703 10.9526 19.764 11.6455 19.0629 12.3426C18.5778 12.8258 18.0916 12.9562 17.5846 12.7288C17.016 12.4741 16.8021 12.0045 16.8094 11.4055C16.8146 10.9015 16.8105 10.3974 16.8105 9.84958C16.1574 9.84958 15.5502 9.85167 14.9419 9.84958C13.7317 9.84436 12.9534 9.10344 12.943 7.89187C12.9253 5.91329 12.9253 3.93471 12.943 1.95612C12.9545 0.746642 13.739 0.00467407 14.9471 0.00258695C15.377 0.0015434 15.8068 -0.00367438 16.2356 0.00467407C16.6122 0.011979 16.8751 0.26765 16.8657 0.601588C16.8564 0.923003 16.6049 1.16406 16.2471 1.17137C15.8172 1.18076 15.3885 1.16824 14.9586 1.17554C14.4046 1.18389 14.1365 1.44478 14.1355 1.98534C14.1323 3.9514 14.1323 5.91642 14.1355 7.88248C14.1365 8.40634 14.4036 8.66932 14.9305 8.67454C15.5032 8.67975 16.076 8.67454 16.6487 8.67662C17.4823 8.67976 17.9862 9.16083 18.0134 9.99568C18.028 10.4381 18.0155 10.8806 18.0175 11.3231C18.0207 11.4097 18.0342 11.4974 18.0509 11.68Z" fill="#4583E6"/>
<path d="M20.0281 2.58215C20.653 2.58215 21.2769 2.57902 21.9018 2.58319C22.6571 2.58841 23.1767 3.09453 23.1944 3.84798C23.2049 4.27688 23.209 4.70683 23.1923 5.13573C23.1673 5.81717 22.6864 6.33164 22.0103 6.34312C20.6707 6.36504 19.3301 6.36504 17.9916 6.34208C17.3197 6.3306 16.8408 5.80987 16.8168 5.12634C16.8012 4.68491 16.8001 4.2414 16.8168 3.79998C16.845 3.08932 17.3677 2.58945 18.0771 2.58319C18.7271 2.57797 19.377 2.58215 20.0281 2.58215ZM18.0395 3.78224C18.0395 4.24871 18.0395 4.68387 18.0395 5.13573C19.3614 5.13573 20.6634 5.13573 21.9613 5.13573C21.9613 4.67135 21.9613 4.23618 21.9613 3.78224C20.6519 3.78224 19.3718 3.78224 18.0395 3.78224Z" fill="#4583E6"/>
<path d="M38.1152 30.9378C37.6999 30.9378 37.2835 30.943 36.8682 30.9368C36.4748 30.9305 36.2421 30.7061 36.2442 30.3503C36.2462 29.9976 36.481 29.7722 36.8776 29.7701C37.7093 29.7638 38.54 29.7638 39.3717 29.7701C39.7609 29.7732 40.001 30.0101 39.9989 30.3597C39.9968 30.7072 39.7547 30.9316 39.3623 30.9368C38.947 30.942 38.5316 30.9378 38.1152 30.9378Z" fill="#4583E6"/>
</svg>
