<svg width="196" height="202" viewBox="0 0 196 202" fill="none" xmlns="http://www.w3.org/2000/svg">
<g filter="url(#filter0_d_655_6595)">
<path d="M78 12.1915C90.376 5.04623 105.624 5.04623 118 12.1915L162.87 38.0975C175.247 45.2428 182.87 58.4479 182.87 72.7385V124.551C182.87 138.841 175.247 152.046 162.87 159.192L118 185.098C105.624 192.243 90.376 192.243 78 185.098L33.1295 159.192C20.7535 152.046 13.1295 138.841 13.1295 124.551V72.7385C13.1295 58.4479 20.7535 45.2428 33.1295 38.0975L78 12.1915Z" fill="white"/>
</g>
<path d="M68.8375 130.045V142.645H70.3675V130.045H68.8375ZM78.4696 137.605V142.645H79.9096V137.425C79.9096 136.429 79.6516 135.643 79.1356 135.067C78.6316 134.479 77.9416 134.185 77.0656 134.185C76.5256 134.185 76.0456 134.305 75.6256 134.545C75.2176 134.785 74.8756 135.157 74.5996 135.661V134.365H73.1596V142.645H74.5996V137.605C74.5996 137.197 74.6836 136.837 74.8516 136.525C75.0316 136.213 75.2776 135.973 75.5896 135.805C75.9136 135.625 76.2856 135.535 76.7056 135.535C77.2816 135.535 77.7196 135.709 78.0196 136.057C78.3196 136.405 78.4696 136.921 78.4696 137.605ZM85.7652 139.801L81.6252 130.045H79.9152L85.7652 143.275L91.6152 130.045H89.9052L85.7652 139.801ZM93.058 130.945C93.058 131.209 93.154 131.443 93.346 131.647C93.55 131.839 93.784 131.935 94.048 131.935C94.324 131.935 94.558 131.839 94.75 131.647C94.942 131.443 95.038 131.209 95.038 130.945C95.038 130.669 94.942 130.435 94.75 130.243C94.558 130.051 94.324 129.955 94.048 129.955C93.784 129.955 93.55 130.051 93.346 130.243C93.154 130.435 93.058 130.669 93.058 130.945ZM93.328 134.365V142.645H94.768V134.365H93.328ZM98.0758 140.107L96.9418 140.809C97.0978 141.133 97.3258 141.451 97.6258 141.763C97.9378 142.075 98.3158 142.333 98.7598 142.537C99.2038 142.729 99.7018 142.825 100.254 142.825C101.106 142.825 101.79 142.585 102.306 142.105C102.834 141.625 103.098 141.025 103.098 140.305C103.098 139.813 102.978 139.411 102.738 139.099C102.51 138.787 102.198 138.523 101.802 138.307C101.406 138.079 100.968 137.869 100.488 137.677C100.2 137.557 99.9238 137.431 99.6598 137.299C99.3958 137.167 99.1798 137.017 99.0118 136.849C98.8438 136.681 98.7598 136.489 98.7598 136.273C98.7598 135.997 98.8678 135.793 99.0838 135.661C99.2998 135.529 99.5578 135.463 99.8578 135.463C100.29 135.463 100.674 135.565 101.01 135.769C101.358 135.973 101.646 136.231 101.874 136.543L103.026 135.805C102.858 135.493 102.624 135.217 102.324 134.977C102.024 134.737 101.676 134.545 101.28 134.401C100.896 134.257 100.482 134.185 100.038 134.185C99.5938 134.185 99.1618 134.263 98.7418 134.419C98.3338 134.575 97.9978 134.815 97.7338 135.139C97.4818 135.463 97.3558 135.871 97.3558 136.363C97.3558 136.843 97.4758 137.245 97.7158 137.569C97.9678 137.881 98.2738 138.139 98.6338 138.343C99.0058 138.535 99.3718 138.703 99.7318 138.847C100.056 138.967 100.362 139.099 100.65 139.243C100.938 139.375 101.172 139.543 101.352 139.747C101.544 139.939 101.64 140.179 101.64 140.467C101.64 140.791 101.52 141.049 101.28 141.241C101.052 141.421 100.734 141.511 100.326 141.511C99.9898 141.511 99.6778 141.451 99.3898 141.331C99.1138 141.199 98.8678 141.025 98.6518 140.809C98.4358 140.593 98.2438 140.359 98.0758 140.107ZM104.994 130.945C104.994 131.209 105.09 131.443 105.282 131.647C105.486 131.839 105.72 131.935 105.984 131.935C106.26 131.935 106.494 131.839 106.686 131.647C106.878 131.443 106.974 131.209 106.974 130.945C106.974 130.669 106.878 130.435 106.686 130.243C106.494 130.051 106.26 129.955 105.984 129.955C105.72 129.955 105.486 130.051 105.282 130.243C105.09 130.435 104.994 130.669 104.994 130.945ZM105.264 134.365V142.645H106.704V134.365H105.264ZM108.949 138.505C108.949 139.333 109.135 140.077 109.507 140.737C109.891 141.385 110.407 141.895 111.055 142.267C111.703 142.639 112.429 142.825 113.233 142.825C114.049 142.825 114.775 142.639 115.411 142.267C116.059 141.895 116.569 141.385 116.941 140.737C117.325 140.077 117.517 139.333 117.517 138.505C117.517 137.665 117.325 136.921 116.941 136.273C116.569 135.625 116.059 135.115 115.411 134.743C114.775 134.371 114.049 134.185 113.233 134.185C112.429 134.185 111.703 134.371 111.055 134.743C110.407 135.115 109.891 135.625 109.507 136.273C109.135 136.921 108.949 137.665 108.949 138.505ZM110.407 138.505C110.407 137.929 110.527 137.419 110.767 136.975C111.019 136.519 111.355 136.165 111.775 135.913C112.207 135.661 112.693 135.535 113.233 135.535C113.773 135.535 114.253 135.661 114.673 135.913C115.105 136.165 115.441 136.519 115.681 136.975C115.933 137.419 116.059 137.929 116.059 138.505C116.059 139.081 115.933 139.591 115.681 140.035C115.441 140.479 115.105 140.833 114.673 141.097C114.253 141.349 113.773 141.475 113.233 141.475C112.693 141.475 112.207 141.349 111.775 141.097C111.355 140.833 111.019 140.479 110.767 140.035C110.527 139.591 110.407 139.081 110.407 138.505ZM124.806 137.605V142.645H126.246V137.425C126.246 136.429 125.988 135.643 125.472 135.067C124.968 134.479 124.278 134.185 123.402 134.185C122.862 134.185 122.382 134.305 121.962 134.545C121.554 134.785 121.212 135.157 120.936 135.661V134.365H119.496V142.645H120.936V137.605C120.936 137.197 121.02 136.837 121.188 136.525C121.368 136.213 121.614 135.973 121.926 135.805C122.25 135.625 122.622 135.535 123.042 135.535C123.618 135.535 124.056 135.709 124.356 136.057C124.656 136.405 124.806 136.921 124.806 137.605Z" fill="#424254"/>
<path d="M68 105.645C68 108.406 70.2386 110.645 73 110.645H123C125.761 110.645 128 108.406 128 105.645V55.6445C128 52.8831 125.761 50.6445 123 50.6445H73C70.2386 50.6445 68 52.8831 68 55.6445V105.645Z" fill="#FF3366"/>
<path d="M87.2444 71.0555C89.1682 71.0555 90.7422 69.6733 90.7422 67.6C90.7422 65.6995 89.1682 64.1445 87.2444 64.1445C85.3206 64.1445 83.7466 65.5267 83.7466 67.6C83.7466 69.6733 85.3206 71.0555 87.2444 71.0555ZM79.8991 89.3697C79.7242 90.2335 79.5493 91.0974 79.5493 91.9613C79.5493 94.8985 81.1233 96.9718 84.6211 96.9718C87.5942 96.9718 89.8677 95.244 91.6166 92.4796L90.5673 96.6262H96.3386L99.6614 83.6681C100.536 80.3854 102.11 78.6576 104.558 78.6576C106.482 78.6576 107.706 79.867 107.706 81.7676C107.706 82.2859 107.706 82.977 107.531 83.6681L105.783 89.7152C105.608 90.5791 105.433 91.443 105.433 92.3068C105.433 95.0712 107.182 97.1445 110.679 97.1445C113.652 97.1445 116.101 95.244 117.5 90.5791L115.226 89.7152C114.177 92.8252 113.128 93.3435 112.428 93.3435C111.729 93.3435 111.204 92.8252 111.204 91.7885C111.204 91.2702 111.379 90.7519 111.379 90.2335L112.953 84.3592C113.303 82.977 113.478 81.7676 113.478 80.7309C113.478 76.4115 110.854 74.1655 107.531 74.1655C104.558 74.1655 101.41 76.9299 99.8363 79.6943L100.886 74.6838H92.1413L90.917 79.1759H94.9395L92.491 88.6786C90.5673 92.9979 86.8946 93.1707 86.37 92.9979C85.6704 92.8252 85.1457 92.4796 85.1457 91.6157C85.1457 91.0974 85.3206 90.2335 85.4955 89.3697L89.343 74.3383H79.7242L78.5 78.8304H82.5224L79.8991 89.3697Z" fill="white"/>
<defs>
<filter id="filter0_d_655_6595" x="5.12952" y="2.83258" width="185.741" height="199.624" filterUnits="userSpaceOnUse" color-interpolation-filters="sRGB">
<feFlood flood-opacity="0" result="BackgroundImageFix"/>
<feColorMatrix in="SourceAlpha" type="matrix" values="0 0 0 0 0 0 0 0 0 0 0 0 0 0 0 0 0 0 127 0" result="hardAlpha"/>
<feOffset dy="4"/>
<feGaussianBlur stdDeviation="4"/>
<feColorMatrix type="matrix" values="0 0 0 0 0.0627451 0 0 0 0 0.0941176 0 0 0 0 0.156863 0 0 0 0.04 0"/>
<feBlend mode="normal" in2="BackgroundImageFix" result="effect1_dropShadow_655_6595"/>
<feBlend mode="normal" in="SourceGraphic" in2="effect1_dropShadow_655_6595" result="shape"/>
</filter>
</defs>
</svg>
