<svg width="161" height="42" viewBox="0 0 161 42" fill="none" xmlns="http://www.w3.org/2000/svg">
<path d="M79.0234 40.7776C78.7734 40.7776 78.5484 40.7151 78.3485 40.5901C78.1735 40.4652 78.0485 40.2903 77.9735 40.0653L71.8989 21.8851C71.7989 21.3353 71.8239 20.9355 71.9739 20.6856C72.1238 20.4107 72.3863 20.2732 72.7613 20.2732C72.9613 20.2732 73.1613 20.3357 73.3613 20.4607C73.5613 20.5606 73.7112 20.7231 73.8112 20.948L79.3609 37.6663H78.8734L83.9731 21.1729C84.0481 20.898 84.1856 20.6856 84.3856 20.5356C84.5856 20.3607 84.823 20.2732 85.098 20.2732C85.373 20.2732 85.598 20.3607 85.773 20.5356C85.973 20.6856 86.123 20.898 86.2229 21.1729L91.4726 37.6663H90.7977L96.3473 20.948C96.5473 20.4982 96.8973 20.2732 97.3972 20.2732C97.8472 20.2732 98.1472 20.4482 98.2972 20.798C98.4722 21.1479 98.4722 21.5103 98.2972 21.8851L92.2601 40.0653C92.1851 40.2903 92.0476 40.4652 91.8476 40.5901C91.6726 40.7151 91.4476 40.7776 91.1726 40.7776C90.9227 40.7776 90.6977 40.7151 90.4977 40.5901C90.2977 40.4652 90.1727 40.2903 90.1227 40.0653L84.7606 23.422H85.248L80.0733 40.0653C79.9734 40.3153 79.8234 40.5027 79.6234 40.6276C79.4484 40.7276 79.2484 40.7776 79.0234 40.7776Z" fill="#FB8614"/>
<path d="M111.177 41.0025C109.177 41.0025 107.378 40.5527 105.778 39.653C104.203 38.7284 102.953 37.4789 102.028 35.9045C101.128 34.3052 100.678 32.5184 100.678 30.5442C100.678 28.5449 101.128 26.7582 102.028 25.1838C102.953 23.5844 104.203 22.3349 105.778 21.4353C107.378 20.5107 109.177 20.0483 111.177 20.0483C113.177 20.0483 114.965 20.5107 116.539 21.4353C118.114 22.3349 119.352 23.5844 120.252 25.1838C121.177 26.7582 121.639 28.5449 121.639 30.5442L120.702 32.0436C120.702 33.7429 120.277 35.2673 119.427 36.6167C118.602 37.9662 117.477 39.0408 116.052 39.8404C114.627 40.6151 113.002 41.0025 111.177 41.0025ZM111.177 38.9033C112.752 38.9033 114.152 38.541 115.377 37.8162C116.627 37.0665 117.602 36.0669 118.302 34.8174C119.027 33.543 119.389 32.1185 119.389 30.5442C119.389 28.9448 119.027 27.5204 118.302 26.2709C117.602 24.9964 116.627 23.9968 115.377 23.2721C114.152 22.5224 112.752 22.1475 111.177 22.1475C109.627 22.1475 108.228 22.5224 106.978 23.2721C105.728 23.9968 104.74 24.9964 104.015 26.2709C103.29 27.5204 102.928 28.9448 102.928 30.5442C102.928 32.1185 103.29 33.543 104.015 34.8174C104.74 36.0669 105.728 37.0665 106.978 37.8162C108.228 38.541 109.627 38.9033 111.177 38.9033ZM120.514 40.7776C120.189 40.7776 119.914 40.6776 119.689 40.4777C119.489 40.2528 119.389 39.9779 119.389 39.653V32.7933L120.102 30.5442H121.639V39.653C121.639 39.9779 121.539 40.2528 121.339 40.4777C121.139 40.6776 120.864 40.7776 120.514 40.7776Z" fill="#FB8614"/>
<path d="M128.003 28.2576C128.153 26.6582 128.59 25.2463 129.315 24.0218C130.04 22.7723 130.978 21.7976 132.128 21.0979C133.278 20.3982 134.553 20.0483 135.952 20.0483C136.902 20.0483 137.64 20.1608 138.165 20.3857C138.69 20.6106 138.89 21.0105 138.765 21.5852C138.69 21.9601 138.515 22.185 138.24 22.26C137.965 22.3349 137.627 22.3474 137.227 22.2974C136.852 22.2225 136.427 22.185 135.952 22.185C134.702 22.185 133.59 22.4474 132.615 22.9722C131.64 23.497 130.878 24.2217 130.328 25.1463C129.778 26.0459 129.503 27.083 129.503 28.2576H128.003ZM128.378 40.7776C128.053 40.7776 127.778 40.6776 127.553 40.4777C127.353 40.2528 127.253 39.9779 127.253 39.653V21.3978C127.253 21.0479 127.353 20.7731 127.553 20.5731C127.778 20.3732 128.053 20.2732 128.378 20.2732C128.728 20.2732 129.003 20.3732 129.203 20.5731C129.403 20.7731 129.503 21.0479 129.503 21.3978V39.653C129.503 39.9779 129.403 40.2528 129.203 40.4777C129.003 40.6776 128.728 40.7776 128.378 40.7776Z" fill="#FB8614"/>
<path d="M151.268 40.965C149.293 40.965 147.531 40.5277 145.981 39.653C144.456 38.7534 143.256 37.5164 142.381 35.942C141.506 34.3676 141.068 32.5683 141.068 30.5442C141.068 28.495 141.481 26.6957 142.306 25.1463C143.131 23.5719 144.268 22.3349 145.718 21.4353C147.168 20.5356 148.831 20.0858 150.705 20.0858C152.555 20.0858 154.193 20.5231 155.618 21.3978C157.042 22.2475 158.155 23.4345 158.955 24.9589C159.755 26.4583 160.155 28.1951 160.155 30.1693C160.155 30.4942 160.055 30.7566 159.855 30.9565C159.655 31.1314 159.392 31.2189 159.067 31.2189H142.568V29.2697H159.667L158.017 30.5067C158.067 28.8823 157.792 27.4454 157.192 26.1959C156.593 24.9464 155.73 23.9718 154.605 23.2721C153.505 22.5473 152.205 22.185 150.705 22.185C149.28 22.185 148.006 22.5473 146.881 23.2721C145.781 23.9718 144.906 24.9464 144.256 26.1959C143.631 27.4454 143.318 28.8948 143.318 30.5442C143.318 32.1685 143.656 33.6054 144.331 34.8549C145.006 36.1044 145.943 37.0915 147.143 37.8162C148.343 38.516 149.718 38.8658 151.268 38.8658C152.243 38.8658 153.218 38.7034 154.193 38.3785C155.193 38.0287 155.98 37.5788 156.555 37.0291C156.755 36.8291 156.992 36.7292 157.267 36.7292C157.567 36.7042 157.817 36.7792 158.017 36.9541C158.292 37.179 158.43 37.4289 158.43 37.7038C158.455 37.9787 158.342 38.2286 158.092 38.4535C157.292 39.1782 156.243 39.778 154.943 40.2528C153.668 40.7276 152.443 40.965 151.268 40.965Z" fill="#FB8614"/>
<mask id="path-2-outside-1_105_848" maskUnits="userSpaceOnUse" x="0" y="10.2773" width="70" height="31" fill="black">
<rect fill="white" y="10.2773" width="70" height="31"/>
<path d="M2.94988 40.5532C2.39991 40.5532 1.93744 40.3657 1.56246 39.9909C1.18749 39.616 1 39.1537 1 38.6039V13.2266C1 12.6518 1.18749 12.1895 1.56246 11.8396C1.93744 11.4648 2.39991 11.2773 2.94988 11.2773H11.9118C13.6117 11.2773 15.0991 11.6147 16.374 12.2894C17.6739 12.9392 18.6864 13.8513 19.4113 15.0258C20.1613 16.2004 20.5363 17.5498 20.5363 19.0742C20.5363 20.2987 20.1988 21.4108 19.5238 22.4104C18.8739 23.385 17.9739 24.1597 16.824 24.7345C18.4739 25.1343 19.7988 25.9215 20.7987 27.096C21.7987 28.2706 22.2986 29.8074 22.2986 31.7067C22.2986 33.431 21.8862 34.9554 21.0612 36.2799C20.2613 37.6043 19.1363 38.6539 17.6864 39.4286C16.2365 40.1783 14.5741 40.5532 12.6993 40.5532H2.94988ZM4.89975 36.9546H12.6993C13.8492 36.9546 14.8616 36.7547 15.7366 36.3548C16.6115 35.955 17.299 35.3677 17.7989 34.593C18.2989 33.8183 18.5489 32.8562 18.5489 31.7067C18.5489 30.6321 18.2989 29.745 17.7989 29.0453C17.299 28.3455 16.6115 27.8207 15.7366 27.4709C14.8616 27.096 13.8492 26.9086 12.6993 26.9086H4.89975V36.9546ZM4.89975 23.31H11.9118C13.3367 23.31 14.4991 22.9602 15.3991 22.2605C16.324 21.5607 16.7865 20.4987 16.7865 19.0742C16.7865 17.6498 16.324 16.6002 15.3991 15.9255C14.4991 15.2258 13.3367 14.8759 11.9118 14.8759H4.89975V23.31Z"/>
<path d="M30.0103 40.5532C29.4603 40.5532 28.9978 40.3782 28.6229 40.0284C28.2729 39.6535 28.0979 39.1912 28.0979 38.6414V21.9606C28.0979 21.3858 28.2729 20.9235 28.6229 20.5736C28.9978 20.2238 29.4603 20.0488 30.0103 20.0488C30.5852 20.0488 31.0477 20.2238 31.3977 20.5736C31.7477 20.9235 31.9226 21.3858 31.9226 21.9606V38.6414C31.9226 39.1912 31.7477 39.6535 31.3977 40.0284C31.0477 40.3782 30.5852 40.5532 30.0103 40.5532ZM30.0103 16.7127C29.3353 16.7127 28.7478 16.4753 28.2479 16.0005C27.7729 15.5007 27.5354 14.9134 27.5354 14.2387C27.5354 13.5639 27.7729 12.9892 28.2479 12.5143C28.7478 12.0145 29.3353 11.7646 30.0103 11.7646C30.6852 11.7646 31.2602 12.0145 31.7352 12.5143C32.2351 12.9892 32.4851 13.5639 32.4851 14.2387C32.4851 14.9134 32.2351 15.5007 31.7352 16.0005C31.2602 16.4753 30.6852 16.7127 30.0103 16.7127Z"/>
<path d="M46.5001 40.5532C45.2502 40.5532 44.1253 40.2408 43.1254 39.616C42.1254 38.9663 41.338 38.0916 40.763 36.9921C40.188 35.8925 39.9006 34.6555 39.9006 33.2811V15.4007C39.9006 14.8509 40.0756 14.4011 40.4255 14.0512C40.7755 13.7014 41.2255 13.5264 41.7754 13.5264C42.3254 13.5264 42.7754 13.7014 43.1254 14.0512C43.4753 14.4011 43.6503 14.8509 43.6503 15.4007V33.2811C43.6503 34.2807 43.9253 35.1178 44.4753 35.7926C45.0252 36.4673 45.7002 36.8047 46.5001 36.8047H47.7751C48.225 36.8047 48.6 36.9796 48.9 37.3294C49.225 37.6793 49.3875 38.1291 49.3875 38.6789C49.3875 39.2287 49.175 39.6785 48.75 40.0284C48.35 40.3782 47.8251 40.5532 47.1751 40.5532H46.5001ZM38.1757 24.0223C37.6507 24.0223 37.2257 23.8723 36.9007 23.5724C36.5758 23.2726 36.4133 22.8977 36.4133 22.4479C36.4133 21.9481 36.5758 21.5482 36.9007 21.2484C37.2257 20.9485 37.6507 20.7985 38.1757 20.7985H46.8376C47.3626 20.7985 47.7876 20.9485 48.1125 21.2484C48.4375 21.5482 48.6 21.9481 48.6 22.4479C48.6 22.8977 48.4375 23.2726 48.1125 23.5724C47.7876 23.8723 47.3626 24.0223 46.8376 24.0223H38.1757Z"/>
<path d="M61.5505 40.7031C59.8006 40.7031 58.1757 40.4407 56.6758 39.9159C55.2009 39.3661 54.0509 38.6789 53.226 37.8542C52.851 37.4544 52.6885 37.0046 52.7385 36.5048C52.8135 35.98 53.0635 35.5552 53.4885 35.2303C53.9884 34.8304 54.4759 34.668 54.9509 34.743C55.4508 34.793 55.8758 35.0054 56.2258 35.3802C56.6508 35.855 57.3257 36.3049 58.2507 36.7297C59.2006 37.1295 60.2505 37.3294 61.4005 37.3294C62.8504 37.3294 63.9503 37.092 64.7003 36.6172C65.4752 36.1424 65.8752 35.5302 65.9002 34.7805C65.9252 34.0308 65.5627 33.381 64.8127 32.8312C64.0878 32.2815 62.7504 31.8316 60.8005 31.4818C58.2757 30.982 56.4383 30.2323 55.2883 29.2327C54.1634 28.2331 53.601 27.0086 53.601 25.5591C53.601 24.2847 53.9759 23.2351 54.7259 22.4104C55.4758 21.5607 56.4383 20.936 57.6132 20.5361C58.7881 20.1113 60.0131 19.8989 61.288 19.8989C62.9379 19.8989 64.4003 20.1613 65.6752 20.6861C66.9501 21.2109 67.9626 21.9356 68.7125 22.8602C69.0625 23.2601 69.225 23.6849 69.2 24.1347C69.175 24.5595 68.9625 24.9219 68.5625 25.2218C68.1625 25.4967 67.6876 25.5841 67.1376 25.4842C66.5876 25.3842 66.1252 25.1593 65.7502 24.8094C65.1252 24.2097 64.4503 23.7973 63.7253 23.5724C63.0004 23.3475 62.1629 23.2351 61.213 23.2351C60.113 23.2351 59.1756 23.4225 58.4007 23.7973C57.6507 24.1722 57.2757 24.722 57.2757 25.4467C57.2757 25.8965 57.3882 26.3088 57.6132 26.6837C57.8632 27.0336 58.3382 27.3584 59.0381 27.6583C59.7381 27.9332 60.763 28.2081 62.1129 28.483C63.9878 28.8578 65.4627 29.3326 66.5376 29.9074C67.6376 30.4822 68.425 31.1569 68.9 31.9316C69.375 32.6813 69.6124 33.556 69.6124 34.5556C69.6124 35.7051 69.3 36.7422 68.675 37.6668C68.075 38.5914 67.1751 39.3286 65.9752 39.8784C64.8002 40.4282 63.3253 40.7031 61.5505 40.7031Z"/>
</mask>
<path d="M2.94988 40.5532C2.39991 40.5532 1.93744 40.3657 1.56246 39.9909C1.18749 39.616 1 39.1537 1 38.6039V13.2266C1 12.6518 1.18749 12.1895 1.56246 11.8396C1.93744 11.4648 2.39991 11.2773 2.94988 11.2773H11.9118C13.6117 11.2773 15.0991 11.6147 16.374 12.2894C17.6739 12.9392 18.6864 13.8513 19.4113 15.0258C20.1613 16.2004 20.5363 17.5498 20.5363 19.0742C20.5363 20.2987 20.1988 21.4108 19.5238 22.4104C18.8739 23.385 17.9739 24.1597 16.824 24.7345C18.4739 25.1343 19.7988 25.9215 20.7987 27.096C21.7987 28.2706 22.2986 29.8074 22.2986 31.7067C22.2986 33.431 21.8862 34.9554 21.0612 36.2799C20.2613 37.6043 19.1363 38.6539 17.6864 39.4286C16.2365 40.1783 14.5741 40.5532 12.6993 40.5532H2.94988ZM4.89975 36.9546H12.6993C13.8492 36.9546 14.8616 36.7547 15.7366 36.3548C16.6115 35.955 17.299 35.3677 17.7989 34.593C18.2989 33.8183 18.5489 32.8562 18.5489 31.7067C18.5489 30.6321 18.2989 29.745 17.7989 29.0453C17.299 28.3455 16.6115 27.8207 15.7366 27.4709C14.8616 27.096 13.8492 26.9086 12.6993 26.9086H4.89975V36.9546ZM4.89975 23.31H11.9118C13.3367 23.31 14.4991 22.9602 15.3991 22.2605C16.324 21.5607 16.7865 20.4987 16.7865 19.0742C16.7865 17.6498 16.324 16.6002 15.3991 15.9255C14.4991 15.2258 13.3367 14.8759 11.9118 14.8759H4.89975V23.31Z" fill="#0052D4"/>
<path d="M30.0103 40.5532C29.4603 40.5532 28.9978 40.3782 28.6229 40.0284C28.2729 39.6535 28.0979 39.1912 28.0979 38.6414V21.9606C28.0979 21.3858 28.2729 20.9235 28.6229 20.5736C28.9978 20.2238 29.4603 20.0488 30.0103 20.0488C30.5852 20.0488 31.0477 20.2238 31.3977 20.5736C31.7477 20.9235 31.9226 21.3858 31.9226 21.9606V38.6414C31.9226 39.1912 31.7477 39.6535 31.3977 40.0284C31.0477 40.3782 30.5852 40.5532 30.0103 40.5532ZM30.0103 16.7127C29.3353 16.7127 28.7478 16.4753 28.2479 16.0005C27.7729 15.5007 27.5354 14.9134 27.5354 14.2387C27.5354 13.5639 27.7729 12.9892 28.2479 12.5143C28.7478 12.0145 29.3353 11.7646 30.0103 11.7646C30.6852 11.7646 31.2602 12.0145 31.7352 12.5143C32.2351 12.9892 32.4851 13.5639 32.4851 14.2387C32.4851 14.9134 32.2351 15.5007 31.7352 16.0005C31.2602 16.4753 30.6852 16.7127 30.0103 16.7127Z" fill="#0052D4"/>
<path d="M46.5001 40.5532C45.2502 40.5532 44.1253 40.2408 43.1254 39.616C42.1254 38.9663 41.338 38.0916 40.763 36.9921C40.188 35.8925 39.9006 34.6555 39.9006 33.2811V15.4007C39.9006 14.8509 40.0756 14.4011 40.4255 14.0512C40.7755 13.7014 41.2255 13.5264 41.7754 13.5264C42.3254 13.5264 42.7754 13.7014 43.1254 14.0512C43.4753 14.4011 43.6503 14.8509 43.6503 15.4007V33.2811C43.6503 34.2807 43.9253 35.1178 44.4753 35.7926C45.0252 36.4673 45.7002 36.8047 46.5001 36.8047H47.7751C48.225 36.8047 48.6 36.9796 48.9 37.3294C49.225 37.6793 49.3875 38.1291 49.3875 38.6789C49.3875 39.2287 49.175 39.6785 48.75 40.0284C48.35 40.3782 47.8251 40.5532 47.1751 40.5532H46.5001ZM38.1757 24.0223C37.6507 24.0223 37.2257 23.8723 36.9007 23.5724C36.5758 23.2726 36.4133 22.8977 36.4133 22.4479C36.4133 21.9481 36.5758 21.5482 36.9007 21.2484C37.2257 20.9485 37.6507 20.7985 38.1757 20.7985H46.8376C47.3626 20.7985 47.7876 20.9485 48.1125 21.2484C48.4375 21.5482 48.6 21.9481 48.6 22.4479C48.6 22.8977 48.4375 23.2726 48.1125 23.5724C47.7876 23.8723 47.3626 24.0223 46.8376 24.0223H38.1757Z" fill="#0052D4"/>
<path d="M61.5505 40.7031C59.8006 40.7031 58.1757 40.4407 56.6758 39.9159C55.2009 39.3661 54.0509 38.6789 53.226 37.8542C52.851 37.4544 52.6885 37.0046 52.7385 36.5048C52.8135 35.98 53.0635 35.5552 53.4885 35.2303C53.9884 34.8304 54.4759 34.668 54.9509 34.743C55.4508 34.793 55.8758 35.0054 56.2258 35.3802C56.6508 35.855 57.3257 36.3049 58.2507 36.7297C59.2006 37.1295 60.2505 37.3294 61.4005 37.3294C62.8504 37.3294 63.9503 37.092 64.7003 36.6172C65.4752 36.1424 65.8752 35.5302 65.9002 34.7805C65.9252 34.0308 65.5627 33.381 64.8127 32.8312C64.0878 32.2815 62.7504 31.8316 60.8005 31.4818C58.2757 30.982 56.4383 30.2323 55.2883 29.2327C54.1634 28.2331 53.601 27.0086 53.601 25.5591C53.601 24.2847 53.9759 23.2351 54.7259 22.4104C55.4758 21.5607 56.4383 20.936 57.6132 20.5361C58.7881 20.1113 60.0131 19.8989 61.288 19.8989C62.9379 19.8989 64.4003 20.1613 65.6752 20.6861C66.9501 21.2109 67.9626 21.9356 68.7125 22.8602C69.0625 23.2601 69.225 23.6849 69.2 24.1347C69.175 24.5595 68.9625 24.9219 68.5625 25.2218C68.1625 25.4967 67.6876 25.5841 67.1376 25.4842C66.5876 25.3842 66.1252 25.1593 65.7502 24.8094C65.1252 24.2097 64.4503 23.7973 63.7253 23.5724C63.0004 23.3475 62.1629 23.2351 61.213 23.2351C60.113 23.2351 59.1756 23.4225 58.4007 23.7973C57.6507 24.1722 57.2757 24.722 57.2757 25.4467C57.2757 25.8965 57.3882 26.3088 57.6132 26.6837C57.8632 27.0336 58.3382 27.3584 59.0381 27.6583C59.7381 27.9332 60.763 28.2081 62.1129 28.483C63.9878 28.8578 65.4627 29.3326 66.5376 29.9074C67.6376 30.4822 68.425 31.1569 68.9 31.9316C69.375 32.6813 69.6124 33.556 69.6124 34.5556C69.6124 35.7051 69.3 36.7422 68.675 37.6668C68.075 38.5914 67.1751 39.3286 65.9752 39.8784C64.8002 40.4282 63.3253 40.7031 61.5505 40.7031Z" fill="#0052D4"/>
<path d="M2.94988 40.5532C2.39991 40.5532 1.93744 40.3657 1.56246 39.9909C1.18749 39.616 1 39.1537 1 38.6039V13.2266C1 12.6518 1.18749 12.1895 1.56246 11.8396C1.93744 11.4648 2.39991 11.2773 2.94988 11.2773H11.9118C13.6117 11.2773 15.0991 11.6147 16.374 12.2894C17.6739 12.9392 18.6864 13.8513 19.4113 15.0258C20.1613 16.2004 20.5363 17.5498 20.5363 19.0742C20.5363 20.2987 20.1988 21.4108 19.5238 22.4104C18.8739 23.385 17.9739 24.1597 16.824 24.7345C18.4739 25.1343 19.7988 25.9215 20.7987 27.096C21.7987 28.2706 22.2986 29.8074 22.2986 31.7067C22.2986 33.431 21.8862 34.9554 21.0612 36.2799C20.2613 37.6043 19.1363 38.6539 17.6864 39.4286C16.2365 40.1783 14.5741 40.5532 12.6993 40.5532H2.94988ZM4.89975 36.9546H12.6993C13.8492 36.9546 14.8616 36.7547 15.7366 36.3548C16.6115 35.955 17.299 35.3677 17.7989 34.593C18.2989 33.8183 18.5489 32.8562 18.5489 31.7067C18.5489 30.6321 18.2989 29.745 17.7989 29.0453C17.299 28.3455 16.6115 27.8207 15.7366 27.4709C14.8616 27.096 13.8492 26.9086 12.6993 26.9086H4.89975V36.9546ZM4.89975 23.31H11.9118C13.3367 23.31 14.4991 22.9602 15.3991 22.2605C16.324 21.5607 16.7865 20.4987 16.7865 19.0742C16.7865 17.6498 16.324 16.6002 15.3991 15.9255C14.4991 15.2258 13.3367 14.8759 11.9118 14.8759H4.89975V23.31Z" stroke="#0052D4" stroke-width="0.303047" mask="url(#path-2-outside-1_105_848)"/>
<path d="M30.0103 40.5532C29.4603 40.5532 28.9978 40.3782 28.6229 40.0284C28.2729 39.6535 28.0979 39.1912 28.0979 38.6414V21.9606C28.0979 21.3858 28.2729 20.9235 28.6229 20.5736C28.9978 20.2238 29.4603 20.0488 30.0103 20.0488C30.5852 20.0488 31.0477 20.2238 31.3977 20.5736C31.7477 20.9235 31.9226 21.3858 31.9226 21.9606V38.6414C31.9226 39.1912 31.7477 39.6535 31.3977 40.0284C31.0477 40.3782 30.5852 40.5532 30.0103 40.5532ZM30.0103 16.7127C29.3353 16.7127 28.7478 16.4753 28.2479 16.0005C27.7729 15.5007 27.5354 14.9134 27.5354 14.2387C27.5354 13.5639 27.7729 12.9892 28.2479 12.5143C28.7478 12.0145 29.3353 11.7646 30.0103 11.7646C30.6852 11.7646 31.2602 12.0145 31.7352 12.5143C32.2351 12.9892 32.4851 13.5639 32.4851 14.2387C32.4851 14.9134 32.2351 15.5007 31.7352 16.0005C31.2602 16.4753 30.6852 16.7127 30.0103 16.7127Z" stroke="#0052D4" stroke-width="0.303047" mask="url(#path-2-outside-1_105_848)"/>
<path d="M46.5001 40.5532C45.2502 40.5532 44.1253 40.2408 43.1254 39.616C42.1254 38.9663 41.338 38.0916 40.763 36.9921C40.188 35.8925 39.9006 34.6555 39.9006 33.2811V15.4007C39.9006 14.8509 40.0756 14.4011 40.4255 14.0512C40.7755 13.7014 41.2255 13.5264 41.7754 13.5264C42.3254 13.5264 42.7754 13.7014 43.1254 14.0512C43.4753 14.4011 43.6503 14.8509 43.6503 15.4007V33.2811C43.6503 34.2807 43.9253 35.1178 44.4753 35.7926C45.0252 36.4673 45.7002 36.8047 46.5001 36.8047H47.7751C48.225 36.8047 48.6 36.9796 48.9 37.3294C49.225 37.6793 49.3875 38.1291 49.3875 38.6789C49.3875 39.2287 49.175 39.6785 48.75 40.0284C48.35 40.3782 47.8251 40.5532 47.1751 40.5532H46.5001ZM38.1757 24.0223C37.6507 24.0223 37.2257 23.8723 36.9007 23.5724C36.5758 23.2726 36.4133 22.8977 36.4133 22.4479C36.4133 21.9481 36.5758 21.5482 36.9007 21.2484C37.2257 20.9485 37.6507 20.7985 38.1757 20.7985H46.8376C47.3626 20.7985 47.7876 20.9485 48.1125 21.2484C48.4375 21.5482 48.6 21.9481 48.6 22.4479C48.6 22.8977 48.4375 23.2726 48.1125 23.5724C47.7876 23.8723 47.3626 24.0223 46.8376 24.0223H38.1757Z" stroke="#0052D4" stroke-width="0.303047" mask="url(#path-2-outside-1_105_848)"/>
<path d="M61.5505 40.7031C59.8006 40.7031 58.1757 40.4407 56.6758 39.9159C55.2009 39.3661 54.0509 38.6789 53.226 37.8542C52.851 37.4544 52.6885 37.0046 52.7385 36.5048C52.8135 35.98 53.0635 35.5552 53.4885 35.2303C53.9884 34.8304 54.4759 34.668 54.9509 34.743C55.4508 34.793 55.8758 35.0054 56.2258 35.3802C56.6508 35.855 57.3257 36.3049 58.2507 36.7297C59.2006 37.1295 60.2505 37.3294 61.4005 37.3294C62.8504 37.3294 63.9503 37.092 64.7003 36.6172C65.4752 36.1424 65.8752 35.5302 65.9002 34.7805C65.9252 34.0308 65.5627 33.381 64.8127 32.8312C64.0878 32.2815 62.7504 31.8316 60.8005 31.4818C58.2757 30.982 56.4383 30.2323 55.2883 29.2327C54.1634 28.2331 53.601 27.0086 53.601 25.5591C53.601 24.2847 53.9759 23.2351 54.7259 22.4104C55.4758 21.5607 56.4383 20.936 57.6132 20.5361C58.7881 20.1113 60.0131 19.8989 61.288 19.8989C62.9379 19.8989 64.4003 20.1613 65.6752 20.6861C66.9501 21.2109 67.9626 21.9356 68.7125 22.8602C69.0625 23.2601 69.225 23.6849 69.2 24.1347C69.175 24.5595 68.9625 24.9219 68.5625 25.2218C68.1625 25.4967 67.6876 25.5841 67.1376 25.4842C66.5876 25.3842 66.1252 25.1593 65.7502 24.8094C65.1252 24.2097 64.4503 23.7973 63.7253 23.5724C63.0004 23.3475 62.1629 23.2351 61.213 23.2351C60.113 23.2351 59.1756 23.4225 58.4007 23.7973C57.6507 24.1722 57.2757 24.722 57.2757 25.4467C57.2757 25.8965 57.3882 26.3088 57.6132 26.6837C57.8632 27.0336 58.3382 27.3584 59.0381 27.6583C59.7381 27.9332 60.763 28.2081 62.1129 28.483C63.9878 28.8578 65.4627 29.3326 66.5376 29.9074C67.6376 30.4822 68.425 31.1569 68.9 31.9316C69.375 32.6813 69.6124 33.556 69.6124 34.5556C69.6124 35.7051 69.3 36.7422 68.675 37.6668C68.075 38.5914 67.1751 39.3286 65.9752 39.8784C64.8002 40.4282 63.3253 40.7031 61.5505 40.7031Z" stroke="#0052D4" stroke-width="0.303047" mask="url(#path-2-outside-1_105_848)"/>
<path d="M29.9613 18.4473C28.9068 18.4473 27.9025 18.0463 27.1744 17.2943C26.4212 16.5424 26.0195 15.5649 26.0195 14.5122C26.0195 13.4595 26.4212 12.482 27.1744 11.7301C27.3251 11.5797 27.5008 11.4293 27.7268 11.2789C27.777 11.2288 27.8523 11.2037 27.9025 11.1536C28.0532 11.0784 28.1787 11.0032 28.3294 10.928C28.4047 10.9029 28.48 10.8528 28.5553 10.8278C28.706 10.7776 28.8566 10.7275 29.0324 10.6774L29.183 10.6272L30.0868 10.552C30.1873 10.552 30.3128 10.5771 30.4132 10.5771H30.4886C30.5388 10.5771 30.5639 10.5771 30.6141 10.5771C30.6392 10.5771 30.6392 10.5771 30.6643 10.5771H30.6894H30.7145C30.7898 10.5771 30.8401 10.5771 30.9154 10.5771C32.4218 10.5771 33.9282 9.92544 35.0078 8.82262C36.0874 7.69472 36.69 6.19087 36.6649 4.68701V4.51157L36.6397 4.4865V4.46144C36.6397 4.41131 36.6397 4.38624 36.6397 4.33612L36.6146 4.21079C36.6146 4.1356 36.5895 4.06041 36.5895 4.01028L36.6397 3.1581C36.6397 3.13303 36.6649 3.03277 36.69 3.00771C36.7402 2.8072 36.7904 2.65681 36.8406 2.53149C36.8657 2.4563 36.8908 2.3811 36.941 2.30591C37.0163 2.18059 37.0666 2.0302 37.167 1.87982L37.1921 1.85475C37.2172 1.80463 37.2423 1.7545 37.2925 1.70437C37.4432 1.47879 37.5938 1.30334 37.7444 1.15296C38.4977 0.401028 39.4768 0 40.5313 0C41.5858 0 42.565 0.401028 43.3182 1.15296C44.8497 2.68187 44.8497 5.1883 43.3182 6.71722C43.1675 6.8676 42.9918 7.01799 42.7658 7.16838C42.7156 7.19344 42.6905 7.2185 42.6403 7.24357L42.565 7.2937C42.4394 7.36889 42.2888 7.44408 42.1382 7.51928C42.0628 7.54434 41.9875 7.59447 41.9122 7.61953C41.7616 7.66966 41.6109 7.71979 41.4352 7.76992C41.3849 7.76992 41.3598 7.79498 41.3347 7.79498C41.3096 7.79498 41.2845 7.79498 41.2845 7.82005L40.4058 7.87018C40.2802 7.87018 40.1296 7.84511 40.0041 7.82005C39.9539 7.82005 39.9287 7.82005 39.8785 7.82005C39.8534 7.82005 39.8534 7.82005 39.8283 7.82005H39.753C39.6777 7.82005 39.6275 7.82005 39.5521 7.82005C38.0457 7.82005 36.5393 8.47172 35.4597 9.57454C34.3801 10.7024 33.7776 12.2063 33.8278 13.7101V13.7603V13.8104C33.8278 13.8605 33.8278 13.9107 33.8529 13.9357C33.8529 13.9859 33.8529 14.036 33.8529 14.061C33.8529 14.0861 33.8529 14.1362 33.878 14.1864C33.878 14.2616 33.9031 14.3117 33.9031 14.3869L33.8278 15.2641C33.8278 15.2892 33.7776 15.3895 33.7776 15.3895C33.7273 15.5649 33.6771 15.7403 33.6269 15.8907C33.6018 15.9659 33.5767 16.0411 33.5265 16.0912V16.1163C33.4512 16.2667 33.3759 16.392 33.3005 16.5424C33.2503 16.6176 33.2252 16.6677 33.175 16.7429C33.0244 16.9685 32.8737 17.1439 32.7231 17.2943C31.995 18.0463 31.0158 18.4473 29.9613 18.4473Z" fill="#FB8614"/>
</svg>
