<svg width="80" height="80" viewBox="0 0 80 80" fill="none" xmlns="http://www.w3.org/2000/svg">
<circle cx="40" cy="40" r="40" fill="white"/>
<path d="M48.9473 36.2289C49.3223 36.141 49.6228 36.062 49.9278 36.0052C50.0624 35.9796 50.2049 36.0008 50.344 36.0008C51.2733 36.0008 51.3311 36.0464 51.5403 36.9488C51.8419 38.2519 51.8408 38.2552 53.0995 38.6814C53.1919 38.7125 53.3354 38.6736 53.4256 38.6191C53.8062 38.3921 54.1746 38.1439 54.5518 37.9103C54.9625 37.6554 55.2174 37.6766 55.5557 38.0082C56.042 38.4844 56.5161 38.9718 57.0013 39.4492C57.304 39.7485 57.333 40.0701 57.1104 40.4228C57.0514 40.5163 56.9902 40.6098 56.9301 40.7021C56.2145 41.8193 56.2101 41.8216 56.7821 43.02C56.8311 43.1224 56.9702 43.2158 57.0848 43.247C57.5255 43.3649 57.974 43.4529 58.418 43.5563C58.8098 43.6476 59.0045 43.889 59.0001 44.2985C58.9934 44.9929 58.9956 45.6873 58.999 46.3816C59.0012 46.77 58.8198 47.0092 58.4425 47.0993C58.0118 47.2017 57.5811 47.303 57.1493 47.4031C57.1093 47.412 57.0659 47.4087 57.0258 47.4198C56.7532 47.4977 56.2279 48.8552 56.3803 49.0967C56.6174 49.4717 56.8566 49.8456 57.0993 50.2173C57.3285 50.5678 57.3107 50.8927 57.0113 51.1931C56.5217 51.685 56.0309 52.1757 55.5434 52.6698C55.2441 52.9735 54.9213 52.9991 54.5696 52.7699C54.4995 52.7243 54.4294 52.6798 54.3593 52.6353C53.9831 52.4005 53.6215 52.0099 53.2275 51.9754C52.8369 51.9398 52.4084 52.2491 52.01 52.4372C51.8965 52.4906 51.7863 52.6364 51.7529 52.761C51.6427 53.1749 51.5726 53.5989 51.4769 54.0173C51.369 54.4913 51.1497 54.6616 50.6589 54.6649C50.3818 54.6671 50.0991 54.6938 49.8276 54.6571C49.5583 54.6204 49.299 54.5169 48.9985 54.4323C48.9985 54.8185 49.0085 55.2925 48.9963 55.7654C48.9818 56.3051 49.013 56.8559 48.9106 57.38C48.6068 58.9178 47.259 59.9961 45.6976 59.9972C40.7831 60.0005 35.8685 60.0017 30.954 59.9961C29.1511 59.9939 27.6754 58.5117 27.6721 56.7057C27.6665 53.61 27.6698 50.5132 27.671 47.4176C27.671 46.9881 27.8835 46.7177 28.2363 46.6709C28.5691 46.6264 28.8974 46.8245 28.9764 47.1394C29.0098 47.2707 28.9998 47.4153 28.9998 47.5533C29.0009 50.4966 28.9998 53.4398 29.0009 56.3841C29.0009 57.8663 29.8066 58.6675 31.2957 58.6675C35.9876 58.6686 40.6807 58.6686 45.3727 58.6675C46.8584 58.6675 47.6652 57.8629 47.6652 56.3819C47.6664 48.981 47.6652 41.5812 47.6664 34.1803C47.6664 33.6685 47.8478 33.3958 48.2217 33.3402C48.6579 33.2745 48.9896 33.5683 48.9963 34.0423C49.0074 34.7912 49.0063 35.5412 49.0107 36.2901C49.0141 36.2968 49.0297 36.3046 48.9473 36.2289ZM49.0219 41.3353C49.1921 41.3353 49.3413 41.3375 49.4904 41.3353C51.9465 41.3019 53.7517 43.0968 53.6526 45.5582C53.5903 47.0938 52.7901 48.2154 51.4291 48.9287C51.1486 49.0756 50.8248 49.1001 50.6322 48.8374C50.4964 48.6516 50.4141 48.3434 50.4653 48.1275C50.5098 47.9439 50.7591 47.7803 50.9527 47.6679C52.1346 46.9792 52.6343 45.5704 52.1213 44.3275C51.6138 43.099 50.3106 42.4458 49.0274 42.7819C49.0274 46.4039 49.0274 50.027 49.0274 53.5366C49.427 53.442 49.8231 53.3485 50.2561 53.2473C50.334 52.8834 50.4352 52.4661 50.5076 52.0444C50.5821 51.6149 50.8003 51.3612 51.2354 51.2465C51.6338 51.1408 52.0601 51.0284 52.3895 50.7992C53.0316 50.3519 53.5859 50.3953 54.1445 50.8994C54.1646 50.9172 54.1924 50.9272 54.2158 50.9417C54.9514 51.4112 54.9592 51.4168 55.5245 50.7592C55.5991 50.6724 55.6158 50.4565 55.5612 50.3519C55.3876 50.0225 55.1773 49.7098 54.9614 49.4038C54.7332 49.0811 54.751 48.7863 54.9291 48.4369C55.1784 47.9461 55.4088 47.4376 55.5701 46.9124C55.7026 46.484 55.9329 46.2548 56.3614 46.1757C56.7921 46.0967 57.2183 45.9921 57.6479 45.8976C57.6479 45.507 57.6479 45.1487 57.6479 44.7681C57.1939 44.6702 56.7498 44.5712 56.3058 44.4788C55.9507 44.4054 55.7259 44.2173 55.598 43.8601C55.3932 43.2893 55.1639 42.7262 54.9013 42.1799C54.7444 41.8527 54.7477 41.5801 54.9458 41.2863C55.1628 40.9647 55.3709 40.6365 55.5735 40.306C55.6202 40.2292 55.6848 40.0868 55.6525 40.0512C55.4333 39.8019 55.214 39.5404 54.9436 39.359C54.8634 39.3056 54.6119 39.4848 54.4506 39.5783C54.1991 39.724 53.952 39.8809 53.7138 40.0467C53.4045 40.2615 53.1173 40.2415 52.7823 40.0757C52.276 39.8253 51.7551 39.5961 51.2187 39.4191C50.8136 39.2856 50.5855 39.0631 50.5098 38.6491C50.4319 38.2163 50.3306 37.7867 50.2538 37.4251C49.7987 37.3116 49.3958 37.2114 49.0185 37.118C49.0219 38.4655 49.0219 39.8909 49.0219 41.3353Z" fill="#4285F4"/>
<path d="M30.3206 45.3324C25.2157 45.4013 20.9767 41.0839 21.0001 36.0053C21.0235 30.8199 25.1746 26.6649 30.374 26.6682C35.5245 26.6716 39.6611 30.8555 39.6723 36.0387C39.6823 41.0928 35.4499 45.4191 30.3206 45.3324ZM36.4471 41.1017C39.0357 38.1184 39.0746 33.2023 35.7315 30.1111C32.4841 27.1078 27.3447 27.3603 24.39 30.6697C21.4241 33.9912 21.9717 38.6414 24.2342 41.0783C24.2809 41.0071 24.3265 40.9381 24.3711 40.8691C25.3192 39.4303 26.6436 38.6748 28.3764 38.6681C29.7363 38.6625 31.0974 38.6581 32.4574 38.6737C32.8001 38.677 33.1496 38.726 33.4835 38.8083C34.79 39.1343 35.7582 39.9166 36.4471 41.1017ZM35.421 42.1098C34.9102 40.9581 34.0755 40.1592 32.828 40.0802C31.1998 39.9767 29.556 39.9689 27.9268 40.0624C26.638 40.1369 25.7588 40.9281 25.2558 42.1132C27.9334 44.5145 32.7356 44.5156 35.421 42.1098Z" fill="#4285F4"/>
<path d="M48.9901 31.9993C47.6713 31.9993 46.3514 32.0015 45.0326 31.9982C43.5035 31.9948 42.3327 30.8309 42.335 29.322C42.3372 27.8365 43.508 26.6692 45.0104 26.667C47.6769 26.6637 50.3422 26.6625 53.0087 26.667C54.5022 26.6692 55.6663 27.8487 55.6652 29.3409C55.663 30.8265 54.4911 31.9926 52.9887 31.9971C51.6566 32.0026 50.3233 31.9993 48.9901 31.9993ZM49.0012 30.6662C50.32 30.6662 51.6377 30.6762 52.9564 30.6618C53.7344 30.6529 54.332 30.0553 54.3309 29.332C54.3298 28.6221 53.7488 28.0101 52.9965 28.0067C50.3322 27.9923 47.6669 27.9956 45.0026 28.0056C44.4205 28.0079 43.9375 28.3773 43.7572 28.8869C43.4401 29.7849 44.08 30.654 45.0872 30.664C46.3915 30.6762 47.6969 30.6673 49.0012 30.6662Z" fill="#4285F4"/>
<path d="M38.3466 20.0017C40.7627 20.0017 43.1788 20.0006 45.5949 20.0017C47.5647 20.0028 48.997 21.4427 49.0004 23.4223C49.0015 23.7561 49.0004 24.0888 49.0004 24.4226C48.9993 25.0436 48.7956 25.3273 48.3438 25.334C47.8886 25.3395 47.6694 25.0513 47.6682 24.4427C47.6682 24.1233 47.6705 23.8039 47.6682 23.4846C47.6571 22.1927 46.8169 21.3414 45.5315 21.3359C44.018 21.3292 42.5044 21.3348 40.9909 21.3348C37.7557 21.3348 34.5205 21.3336 31.2853 21.3348C29.8063 21.3348 29.005 22.1426 29.0039 23.6304C29.0039 23.9642 29.0094 24.2969 29.0017 24.6296C28.9916 25.0569 28.7346 25.3273 28.3473 25.3329C27.9555 25.3384 27.6706 25.0703 27.6762 24.6508C27.684 23.9731 27.6406 23.2798 27.763 22.62C28.0501 21.0799 29.4123 20.0061 30.9737 20.0028C33.431 19.9972 35.8883 20.0017 38.3466 20.0017Z" fill="#4285F4"/>
<path d="M38.3708 47.9995C40.3273 47.9995 42.2837 47.9873 44.2391 48.0151C44.4706 48.0184 44.7666 48.1887 44.9068 48.3767C45.0103 48.5158 44.9825 48.8563 44.8757 49.0188C44.7699 49.1801 44.4951 49.3181 44.2936 49.3192C40.325 49.3359 36.3576 49.3337 32.389 49.3304C31.9371 49.3304 31.6634 49.0588 31.67 48.6516C31.6778 48.2499 31.9527 48.0017 32.4168 48.0017C34.4022 47.9984 36.3865 47.9995 38.3708 47.9995Z" fill="#4285F4"/>
<path d="M37.0476 53.3331C38.5733 53.3331 40.0991 53.3308 41.6249 53.3353C42.02 53.3364 42.2893 53.5579 42.3294 53.8995C42.3694 54.2444 42.2236 54.497 41.902 54.625C41.7918 54.6684 41.6572 54.665 41.5348 54.665C38.511 54.6673 35.4862 54.6673 32.4624 54.6662C31.9594 54.6662 31.6801 54.4325 31.6712 54.0174C31.6611 53.5801 31.9427 53.3353 32.4702 53.3353C33.996 53.332 35.5218 53.3331 37.0476 53.3331Z" fill="#4285F4"/>
<path d="M34.9728 51.9987C34.1415 51.9987 33.309 51.9998 32.4777 51.9976C31.948 51.9964 31.6664 51.7572 31.672 51.3221C31.6775 50.9059 31.9569 50.6678 32.4554 50.6667C34.1604 50.6645 35.8653 50.6645 37.5714 50.6667C38.0633 50.6678 38.3415 50.9193 38.336 51.341C38.3304 51.7572 38.05 51.9953 37.5525 51.9976C36.6911 52.0009 35.832 51.9987 34.9728 51.9987Z" fill="#4285F4"/>
<path d="M38.3084 23.9998C37.6707 23.9998 37.033 24.0043 36.3964 23.9987C35.9412 23.9943 35.6686 23.7339 35.6719 23.3266C35.6764 22.9238 35.9512 22.6712 36.4109 22.6701C37.6996 22.6656 38.9883 22.6656 40.2771 22.6701C40.7322 22.6723 41.006 22.9349 41.0016 23.3411C40.9971 23.7428 40.7211 23.9954 40.2626 23.9987C39.6104 24.0043 38.9594 23.9998 38.3084 23.9998Z" fill="#4285F4"/>
<path d="M24.3186 47.8505C24.6681 47.8382 24.9842 48.1342 25.0031 48.4936C25.0242 48.902 24.7393 49.2403 24.3554 49.2592C23.9525 49.2792 23.6899 49.0467 23.6721 48.6561C23.6509 48.2021 23.9213 47.8649 24.3186 47.8505Z" fill="#4285F4"/>
<path d="M23.6719 51.2521C23.6741 50.8271 23.9657 50.5099 24.3474 50.5177C24.7013 50.5244 24.9963 50.8282 25.0029 51.1898C25.0096 51.6015 24.7158 51.9209 24.3263 51.9265C23.909 51.9331 23.6686 51.685 23.6719 51.2521Z" fill="#4285F4"/>
<path d="M24.3518 53.1838C24.7224 53.1938 25.0173 53.5188 25.0028 53.9016C24.9872 54.3122 24.6779 54.6082 24.2806 54.5926C23.8721 54.577 23.6551 54.32 23.6718 53.8726C23.6874 53.4765 23.9856 53.1738 24.3518 53.1838Z" fill="#4285F4"/>
<path d="M33.6689 34.0213C33.6656 35.8629 32.1788 37.3351 30.3258 37.3329C28.4639 37.3306 26.9971 35.8407 27.0049 33.9579C27.0116 32.1241 28.5062 30.663 30.3692 30.6675C32.2066 30.6731 33.6723 32.163 33.6689 34.0213ZM30.3414 32.0017C29.2697 31.9983 28.3504 32.9075 28.3382 33.9835C28.327 35.0528 29.2318 35.9764 30.3091 35.9976C31.3886 36.0176 32.3368 35.0784 32.3323 33.9946C32.3301 32.9197 31.4164 32.0061 30.3414 32.0017Z" fill="#4285F4"/>
</svg>
