<svg width="120" height="120" viewBox="0 0 120 120" fill="none" xmlns="http://www.w3.org/2000/svg">
<path d="M55 2.88675C58.094 1.10042 61.906 1.10042 65 2.88675L106.962 27.1132C110.056 28.8996 111.962 32.2008 111.962 35.7735V84.2265C111.962 87.7992 110.056 91.1004 106.962 92.8867L65 117.113C61.906 118.9 58.094 118.9 55 117.113L13.0385 92.8867C9.94446 91.1004 8.03848 87.7992 8.03848 84.2265V35.7735C8.03848 32.2008 9.94446 28.8996 13.0385 27.1132L55 2.88675Z" fill="url(#paint0_radial_138_8208)"/>
<path d="M43.7834 72.8V81.136L35.3034 72.24V84H36.6634V75.664L45.1434 84.56V72.8H43.7834ZM46.9897 80.32C46.9897 81.056 47.155 81.7173 47.4857 82.304C47.827 82.88 48.2857 83.3333 48.8617 83.664C49.4377 83.9947 50.083 84.16 50.7977 84.16C51.523 84.16 52.1684 83.9947 52.7337 83.664C53.3097 83.3333 53.763 82.88 54.0937 82.304C54.435 81.7173 54.6057 81.056 54.6057 80.32C54.6057 79.5733 54.435 78.912 54.0937 78.336C53.763 77.76 53.3097 77.3067 52.7337 76.976C52.1684 76.6453 51.523 76.48 50.7977 76.48C50.083 76.48 49.4377 76.6453 48.8617 76.976C48.2857 77.3067 47.827 77.76 47.4857 78.336C47.155 78.912 46.9897 79.5733 46.9897 80.32ZM48.2857 80.32C48.2857 79.808 48.3924 79.3547 48.6057 78.96C48.8297 78.5547 49.1284 78.24 49.5017 78.016C49.8857 77.792 50.3177 77.68 50.7977 77.68C51.2777 77.68 51.7044 77.792 52.0777 78.016C52.4617 78.24 52.7604 78.5547 52.9737 78.96C53.1977 79.3547 53.3097 79.808 53.3097 80.32C53.3097 80.832 53.1977 81.2853 52.9737 81.68C52.7604 82.0747 52.4617 82.3893 52.0777 82.624C51.7044 82.848 51.2777 82.96 50.7977 82.96C50.3177 82.96 49.8857 82.848 49.5017 82.624C49.1284 82.3893 48.8297 82.0747 48.6057 81.68C48.3924 81.2853 48.2857 80.832 48.2857 80.32ZM61.8841 71.52V84H63.1641V71.52H61.8841ZM55.7241 80.32C55.7241 81.1093 55.8894 81.792 56.2201 82.368C56.5507 82.944 56.9934 83.3867 57.5481 83.696C58.1027 84.0053 58.7107 84.16 59.3721 84.16C59.9907 84.16 60.5294 84.0053 60.9881 83.696C61.4467 83.3867 61.8041 82.944 62.0601 82.368C62.3267 81.792 62.4601 81.1093 62.4601 80.32C62.4601 79.52 62.3267 78.8373 62.0601 78.272C61.8041 77.696 61.4467 77.2533 60.9881 76.944C60.5294 76.6347 59.9907 76.48 59.3721 76.48C58.7107 76.48 58.1027 76.6347 57.5481 76.944C56.9934 77.2533 56.5507 77.696 56.2201 78.272C55.8894 78.8373 55.7241 79.52 55.7241 80.32ZM57.0201 80.32C57.0201 79.7547 57.1321 79.2747 57.3561 78.88C57.5907 78.4853 57.9001 78.1867 58.2841 77.984C58.6681 77.7813 59.0841 77.68 59.5321 77.68C59.9054 77.68 60.2734 77.7813 60.6361 77.984C60.9987 78.1867 61.2974 78.4853 61.5321 78.88C61.7667 79.2747 61.8841 79.7547 61.8841 80.32C61.8841 80.8853 61.7667 81.3653 61.5321 81.76C61.2974 82.1547 60.9987 82.4533 60.6361 82.656C60.2734 82.8587 59.9054 82.96 59.5321 82.96C59.0841 82.96 58.6681 82.8587 58.2841 82.656C57.9001 82.4533 57.5907 82.1547 57.3561 81.76C57.1321 81.3653 57.0201 80.8853 57.0201 80.32ZM68.3371 84.16C69.1264 84.16 69.8091 84.0053 70.3851 83.696C70.9717 83.376 71.4571 82.9067 71.8411 82.288L70.8011 81.632C70.5344 82.08 70.2091 82.416 69.8251 82.64C69.4411 82.8533 68.9984 82.96 68.4971 82.96C67.9957 82.96 67.5691 82.8533 67.2171 82.64C66.8651 82.4267 66.5984 82.1173 66.4171 81.712C66.2357 81.3067 66.1451 80.816 66.1451 80.24C66.1557 79.6747 66.2517 79.2 66.4331 78.816C66.6251 78.4213 66.8917 78.1227 67.2331 77.92C67.5851 77.7067 68.0064 77.6 68.4971 77.6C68.9131 77.6 69.2757 77.6907 69.5851 77.872C69.8944 78.0533 70.1344 78.304 70.3051 78.624C70.4864 78.944 70.5771 79.3227 70.5771 79.76C70.5771 79.8347 70.5611 79.9307 70.5291 80.048C70.4971 80.1547 70.4651 80.2347 70.4331 80.288L70.9451 79.552H65.6651V80.64H71.9531C71.9531 80.6187 71.9531 80.5707 71.9531 80.496C71.9637 80.4107 71.9691 80.3307 71.9691 80.256C71.9691 79.4773 71.8304 78.8053 71.5531 78.24C71.2757 77.6747 70.8757 77.2427 70.3531 76.944C69.8411 76.6347 69.2224 76.48 68.4971 76.48C67.7717 76.48 67.1317 76.64 66.5771 76.96C66.0331 77.28 65.6064 77.728 65.2971 78.304C64.9984 78.88 64.8491 79.552 64.8491 80.32C64.8491 81.0773 64.9931 81.744 65.2811 82.32C65.5797 82.896 65.9904 83.3493 66.5131 83.68C67.0464 84 67.6544 84.16 68.3371 84.16ZM73.2466 83.36C73.2466 83.5947 73.3319 83.8027 73.5026 83.984C73.6839 84.1547 73.8919 84.24 74.1266 84.24C74.3719 84.24 74.5799 84.1547 74.7506 83.984C74.9212 83.8027 75.0066 83.5947 75.0066 83.36C75.0066 83.1147 74.9212 82.9067 74.7506 82.736C74.5799 82.5653 74.3719 82.48 74.1266 82.48C73.8919 82.48 73.6839 82.5653 73.5026 82.736C73.3319 82.9067 73.2466 83.1147 73.2466 83.36ZM77.5154 73.6C77.5154 73.8347 77.6008 74.0373 77.7714 74.208C77.9421 74.3787 78.1448 74.464 78.3794 74.464C78.6248 74.464 78.8274 74.3787 78.9874 74.208C79.1581 74.0373 79.2434 73.8347 79.2434 73.6C79.2434 73.3547 79.1581 73.152 78.9874 72.992C78.8274 72.8213 78.6248 72.736 78.3794 72.736C78.1448 72.736 77.9421 72.8213 77.7714 72.992C77.6008 73.152 77.5154 73.3547 77.5154 73.6ZM76.2514 85.824L75.5474 86.88C75.6541 87.0187 75.7768 87.136 75.9154 87.232C76.0541 87.328 76.2088 87.3973 76.3794 87.44C76.5501 87.4933 76.7421 87.52 76.9554 87.52C77.4034 87.52 77.7874 87.4187 78.1074 87.216C78.4274 87.0133 78.6674 86.72 78.8274 86.336C78.9981 85.952 79.0834 85.4933 79.0834 84.96V76.64H77.8034V84.8C77.8034 85.1413 77.7768 85.4187 77.7234 85.632C77.6701 85.8453 77.5848 86 77.4674 86.096C77.3608 86.192 77.2168 86.24 77.0354 86.24C76.8648 86.24 76.7101 86.2027 76.5714 86.128C76.4434 86.0533 76.3368 85.952 76.2514 85.824ZM82.0274 81.744L81.0194 82.368C81.1581 82.656 81.3608 82.9387 81.6274 83.216C81.9048 83.4933 82.2408 83.7227 82.6354 83.904C83.0301 84.0747 83.4728 84.16 83.9634 84.16C84.7208 84.16 85.3288 83.9467 85.7874 83.52C86.2568 83.0933 86.4914 82.56 86.4914 81.92C86.4914 81.4827 86.3848 81.1253 86.1714 80.848C85.9688 80.5707 85.6914 80.336 85.3394 80.144C84.9874 79.9413 84.5981 79.7547 84.1714 79.584C83.9154 79.4773 83.6701 79.3653 83.4354 79.248C83.2008 79.1307 83.0088 78.9973 82.8594 78.848C82.7101 78.6987 82.6354 78.528 82.6354 78.336C82.6354 78.0907 82.7314 77.9093 82.9234 77.792C83.1154 77.6747 83.3448 77.616 83.6114 77.616C83.9954 77.616 84.3368 77.7067 84.6354 77.888C84.9448 78.0693 85.2008 78.2987 85.4034 78.576L86.4274 77.92C86.2781 77.6427 86.0701 77.3973 85.8034 77.184C85.5368 76.9707 85.2274 76.8 84.8754 76.672C84.5341 76.544 84.1661 76.48 83.7714 76.48C83.3768 76.48 82.9928 76.5493 82.6194 76.688C82.2568 76.8267 81.9581 77.04 81.7234 77.328C81.4994 77.616 81.3874 77.9787 81.3874 78.416C81.3874 78.8427 81.4941 79.2 81.7074 79.488C81.9314 79.7653 82.2034 79.9947 82.5234 80.176C82.8541 80.3467 83.1794 80.496 83.4994 80.624C83.7874 80.7307 84.0594 80.848 84.3154 80.976C84.5714 81.0933 84.7794 81.2427 84.9394 81.424C85.1101 81.5947 85.1954 81.808 85.1954 82.064C85.1954 82.352 85.0888 82.5813 84.8754 82.752C84.6728 82.912 84.3901 82.992 84.0274 82.992C83.7288 82.992 83.4514 82.9387 83.1954 82.832C82.9501 82.7147 82.7314 82.56 82.5394 82.368C82.3474 82.176 82.1768 81.968 82.0274 81.744Z" fill="#424254"/>
<g clip-path="url(#clip0_138_8208)">
<path d="M59.8276 56.1875C59.7272 56.1876 59.6287 56.1603 59.5426 56.1088L58.6389 55.5763C58.5039 55.5013 58.5714 55.4713 58.6164 55.4563C58.7599 55.4128 58.8973 55.3511 59.0251 55.2726C59.0355 55.267 59.0471 55.264 59.0589 55.264C59.0706 55.264 59.0822 55.267 59.0926 55.2726L59.7864 55.685C59.7989 55.6923 59.8131 55.6961 59.8276 55.6961C59.8421 55.6961 59.8563 55.6923 59.8689 55.685L62.5801 54.125C62.5922 54.1173 62.6022 54.1068 62.6094 54.0944C62.6165 54.082 62.6207 54.0681 62.6214 54.0538V50.9263C62.6207 50.9115 62.6166 50.897 62.6094 50.884C62.6023 50.871 62.5922 50.8598 62.5801 50.8513L59.8689 49.2875C59.8563 49.2803 59.8421 49.2765 59.8276 49.2765C59.8131 49.2765 59.7989 49.2803 59.7864 49.2875L57.0789 50.8513C57.0661 50.8591 57.0555 50.8702 57.0483 50.8833C57.041 50.8965 57.0374 50.9113 57.0376 50.9263V54.0538C57.0372 54.0683 57.0409 54.0827 57.0482 54.0952C57.0555 54.1078 57.0661 54.1181 57.0789 54.125L57.8289 54.5525C58.2301 54.755 58.4776 54.5188 58.4776 54.2788V51.1925C58.4776 51.1717 58.4859 51.1516 58.5007 51.1369C58.5155 51.1221 58.5355 51.1138 58.5564 51.1138H58.9014C58.9117 51.1138 58.9219 51.1158 58.9315 51.1198C58.9411 51.1238 58.9497 51.1296 58.9571 51.1369C58.9644 51.1442 58.9702 51.1529 58.9741 51.1624C58.9781 51.172 58.9801 51.1822 58.9801 51.1925V54.2788C58.995 54.3897 58.9849 54.5026 58.9505 54.6091C58.9161 54.7156 58.8583 54.813 58.7814 54.8943C58.7044 54.9756 58.6103 55.0386 58.5058 55.0787C58.4013 55.1189 58.2892 55.1351 58.1776 55.1263C57.9566 55.1301 57.7392 55.0702 57.5514 54.9538L56.8426 54.545C56.7561 54.4955 56.6841 54.424 56.6341 54.3377C56.584 54.2515 56.5577 54.1535 56.5576 54.0538V50.9263C56.5578 50.8261 56.5841 50.7277 56.6341 50.6408C56.6841 50.554 56.756 50.4817 56.8426 50.4313L59.5426 48.875C59.63 48.8271 59.728 48.802 59.8276 48.802C59.9272 48.802 60.0253 48.8271 60.1126 48.875L62.8239 50.4388C62.9095 50.49 62.9804 50.5625 63.0297 50.6492C63.079 50.736 63.105 50.834 63.1051 50.9338V54.0613C63.1051 54.1606 63.0791 54.2581 63.0298 54.3443C62.9805 54.4305 62.9095 54.5023 62.8239 54.5525L60.1126 56.1088C60.0267 56.1609 59.9281 56.1881 59.8276 56.1875Z" fill="#679E63"/>
<path d="M60.6639 54.0313C59.4789 54.0313 59.2314 53.4875 59.2314 53.0338C59.2314 53.0129 59.2397 52.9928 59.2545 52.9781C59.2693 52.9633 59.2893 52.955 59.3102 52.955H59.6589C59.6775 52.9547 59.6955 52.9609 59.7099 52.9725C59.7243 52.9842 59.7342 53.0006 59.7377 53.0188C59.7902 53.3938 59.9477 53.555 60.6639 53.555C61.2339 53.555 61.4777 53.4275 61.4777 53.1238C61.4777 52.9513 61.4102 52.82 60.5214 52.7488C59.7714 52.6738 59.3214 52.5125 59.3214 51.92C59.3214 51.3275 59.7827 51.0463 60.5552 51.0463C61.4252 51.0463 61.8527 51.3463 61.9089 51.995C61.9087 52.017 61.9008 52.0383 61.8864 52.055C61.8791 52.0625 61.8704 52.0683 61.8607 52.0722C61.851 52.0761 61.8406 52.0779 61.8302 52.0775H61.4777C61.4601 52.0779 61.443 52.0721 61.4293 52.0611C61.4156 52.0501 61.4062 52.0347 61.4027 52.0175C61.3164 51.6425 61.1139 51.5225 60.5552 51.5225C59.9327 51.5225 59.8614 51.74 59.8614 51.8975C59.8614 52.055 59.9477 52.1525 60.7877 52.2725C61.6277 52.3925 62.0139 52.5388 62.0139 53.1238C62.0139 53.7088 61.5227 54.0313 60.6639 54.0313ZM64.5714 50.75C64.5714 50.8531 64.5409 50.9539 64.4836 51.0396C64.4263 51.1253 64.3449 51.1921 64.2497 51.2316C64.1544 51.271 64.0496 51.2814 63.9485 51.2612C63.8474 51.2411 63.7545 51.1915 63.6816 51.1186C63.6087 51.0457 63.5591 50.9528 63.539 50.8517C63.5188 50.7506 63.5292 50.6458 63.5686 50.5505C63.6081 50.4553 63.6749 50.3739 63.7606 50.3166C63.8463 50.2593 63.9471 50.2288 64.0502 50.2288C64.1884 50.2288 64.321 50.2837 64.4188 50.3814C64.5165 50.4792 64.5714 50.6118 64.5714 50.75ZM63.6114 50.75C63.6114 50.8657 63.6572 50.9768 63.7386 51.0589C63.8201 51.1411 63.9307 51.1878 64.0464 51.1888C64.1051 51.1898 64.1633 51.1792 64.2178 51.1577C64.2723 51.1362 64.3221 51.1041 64.3642 51.0634C64.4063 51.0226 64.44 50.974 64.4634 50.9202C64.4867 50.8665 64.4992 50.8086 64.5002 50.75C64.5002 50.6336 64.454 50.522 64.3717 50.4398C64.2894 50.3575 64.1778 50.3113 64.0614 50.3113C63.9451 50.3113 63.8335 50.3575 63.7512 50.4398C63.6689 50.522 63.6227 50.6336 63.6227 50.75H63.6114ZM63.8514 50.4575H64.0539C64.1252 50.4575 64.2602 50.4575 64.2602 50.6113C64.2634 50.6449 64.2535 50.6785 64.2326 50.7051C64.2116 50.7316 64.1812 50.7491 64.1477 50.7538C64.2302 50.7538 64.2339 50.8138 64.2452 50.8888C64.2498 50.9409 64.2599 50.9924 64.2752 51.0425H64.1514C64.1514 51.0163 64.1289 50.8663 64.1289 50.8588C64.1289 50.8513 64.1289 50.8063 64.0689 50.8063H63.9677V51.0425H63.8514V50.4575ZM63.9639 50.7125H64.0539C64.0655 50.7142 64.0773 50.7133 64.0885 50.7099C64.0997 50.7064 64.1099 50.7005 64.1185 50.6926C64.1272 50.6847 64.1339 50.675 64.1383 50.6642C64.1427 50.6534 64.1446 50.6417 64.1439 50.63C64.1439 50.5513 64.0877 50.5513 64.0577 50.5513H63.9639V50.7125Z" fill="#679E63"/>
<path fill-rule="evenodd" clip-rule="evenodd" d="M51.4388 43.955C51.4389 43.8937 51.423 43.8335 51.3928 43.7802C51.3625 43.727 51.3189 43.6825 51.2663 43.6512L48.3938 42.0012C48.3448 41.9722 48.2894 41.9555 48.2325 41.9525H48.2063C48.1494 41.9555 48.094 41.9722 48.045 42.0012L45.1725 43.6512C45.1199 43.6825 45.0763 43.727 45.046 43.7802C45.0158 43.8335 44.9999 43.8937 45 43.955V48.4062C44.9995 48.4367 45.0073 48.4667 45.0225 48.4931C45.0376 48.5195 45.0597 48.5413 45.0863 48.5562C45.1126 48.571 45.1423 48.5788 45.1725 48.5788C45.2027 48.5788 45.2324 48.571 45.2588 48.5562L46.965 47.5775C47.0176 47.5471 47.0613 47.5033 47.0916 47.4507C47.1219 47.398 47.1377 47.3382 47.1375 47.2775V45.1962C47.1381 45.1356 47.1542 45.0762 47.1844 45.0236C47.2146 44.971 47.2579 44.9272 47.31 44.8962L48.0375 44.4762C48.0917 44.447 48.1522 44.4315 48.2138 44.4312C48.2741 44.4321 48.3332 44.4476 48.3863 44.4762L49.125 44.8962C49.1781 44.9264 49.2223 44.97 49.2532 45.0227C49.2842 45.0753 49.3007 45.1352 49.3013 45.1962V47.2775C49.3011 47.3382 49.3169 47.398 49.3472 47.4507C49.3775 47.5033 49.4211 47.5471 49.4738 47.5775L51.18 48.5562C51.2063 48.5714 51.2361 48.5794 51.2664 48.5793C51.2968 48.5793 51.3265 48.5713 51.3528 48.5561C51.379 48.5409 51.4008 48.519 51.4159 48.4927C51.431 48.4664 51.4389 48.4366 51.4388 48.4062V43.955ZM65.25 37.835C65.2239 37.8207 65.1945 37.8135 65.1647 37.814C65.1349 37.8145 65.1057 37.8227 65.0801 37.8378C65.0544 37.8529 65.0331 37.8744 65.0181 37.9002C65.0032 37.926 64.9953 37.9552 64.995 37.985V42.395C64.9945 42.4165 64.9883 42.4375 64.9771 42.4559C64.9659 42.4744 64.9501 42.4895 64.9313 42.5C64.9132 42.5109 64.8924 42.5167 64.8713 42.5167C64.8501 42.5167 64.8294 42.5109 64.8113 42.5L64.0913 42.0837C64.0388 42.0534 63.9793 42.0375 63.9188 42.0375C63.8582 42.0375 63.7987 42.0534 63.7463 42.0837L60.87 43.7412C60.8177 43.7719 60.7742 43.8157 60.7439 43.8683C60.7137 43.9209 60.6977 43.9805 60.6975 44.0412V47.375C60.6974 47.4362 60.7133 47.4965 60.7435 47.5497C60.7738 47.603 60.8174 47.6474 60.87 47.6787L63.75 49.3212C63.8021 49.3527 63.8617 49.3693 63.9225 49.3693C63.9833 49.3693 64.043 49.3527 64.095 49.3212L66.9713 47.6637C67.0239 47.6324 67.0675 47.588 67.0978 47.5347C67.128 47.4815 67.1439 47.4212 67.1438 47.36V39.11C67.1436 39.0484 67.1268 38.988 67.0951 38.9352C67.0635 38.8823 67.0181 38.8391 66.9638 38.81L65.25 37.835ZM64.9838 46.2725C64.984 46.2875 64.9803 46.3023 64.9731 46.3155C64.9659 46.3286 64.9553 46.3396 64.9425 46.3475L63.9563 46.9137C63.9436 46.9226 63.9286 46.9274 63.9131 46.9274C63.8977 46.9274 63.8827 46.9226 63.87 46.9137L62.8875 46.3475C62.8747 46.3396 62.8642 46.3286 62.8569 46.3155C62.8497 46.3023 62.846 46.2875 62.8463 46.2725V45.125C62.846 45.11 62.8497 45.0952 62.8569 45.082C62.8642 45.0688 62.8747 45.0578 62.8875 45.05L63.8775 44.48C63.8907 44.4728 63.9056 44.469 63.9206 44.469C63.9357 44.469 63.9505 44.4728 63.9638 44.48L64.95 45.05C64.9628 45.0578 64.9734 45.0688 64.9806 45.082C64.9878 45.0952 64.9915 45.11 64.9913 45.125L64.9838 46.2725ZM74.8275 45.1025C74.8799 45.0718 74.9234 45.028 74.9536 44.9754C74.9839 44.9228 74.9999 44.8632 75 44.8025V44C74.9999 43.9393 74.9839 43.8797 74.9536 43.8271C74.9234 43.7745 74.8799 43.7306 74.8275 43.7L71.9738 42.0425C71.921 42.0111 71.8608 41.9946 71.7994 41.9946C71.738 41.9946 71.6778 42.0111 71.625 42.0425L68.7525 43.7C68.6996 43.7301 68.6558 43.7737 68.6254 43.8265C68.5951 43.8792 68.5794 43.9391 68.58 44V47.315C68.5799 47.3762 68.5958 47.4365 68.626 47.4897C68.6562 47.543 68.6999 47.5874 68.7525 47.6187L71.625 49.25C71.6763 49.2796 71.7345 49.2952 71.7938 49.2952C71.853 49.2952 71.9112 49.2796 71.9625 49.25L73.6913 48.29C73.7176 48.2744 73.7396 48.2526 73.7553 48.2264C73.771 48.2002 73.7799 48.1705 73.7813 48.14C73.7813 48.1087 73.7729 48.0779 73.7571 48.0509C73.7413 48.0239 73.7186 48.0015 73.6913 47.9862L70.785 46.325C70.759 46.3095 70.7373 46.2876 70.7222 46.2613C70.7071 46.235 70.699 46.2053 70.6988 46.175V45.125C70.6987 45.0946 70.7066 45.0647 70.7217 45.0384C70.7369 45.012 70.7587 44.9902 70.785 44.975L71.685 44.4537C71.7114 44.4389 71.7411 44.4312 71.7713 44.4312C71.8015 44.4312 71.8312 44.4389 71.8575 44.4537L72.75 44.9862C72.7773 45.0006 72.8001 45.0222 72.816 45.0487C72.8318 45.0751 72.8402 45.1054 72.84 45.1362V45.9537C72.8399 45.9841 72.8478 46.0139 72.8629 46.0402C72.878 46.0665 72.8998 46.0884 72.926 46.1036C72.9522 46.1188 72.982 46.1268 73.0124 46.1268C73.0427 46.1269 73.0725 46.1189 73.0988 46.1037L74.8275 45.1025Z" fill="#333333"/>
<path fill-rule="evenodd" clip-rule="evenodd" d="M71.7559 44.9487C71.7656 44.9414 71.7775 44.9375 71.7896 44.9375C71.8018 44.9375 71.8137 44.9414 71.8234 44.9487L72.3746 45.2637C72.3843 45.2707 72.3923 45.2797 72.3981 45.2901C72.4039 45.3004 72.4074 45.3119 72.4084 45.3237V45.9612C72.4077 45.9726 72.4043 45.9837 72.3984 45.9935C72.3925 46.0033 72.3844 46.0115 72.3746 46.0175L71.8234 46.3362C71.813 46.3418 71.8014 46.3447 71.7896 46.3447C71.7779 46.3447 71.7663 46.3418 71.7559 46.3362L71.2046 46.0175C71.1949 46.0115 71.1868 46.0033 71.1809 45.9935C71.175 45.9837 71.1716 45.9726 71.1709 45.9612V45.3237C71.1719 45.3119 71.1754 45.3004 71.1812 45.2901C71.187 45.2797 71.195 45.2707 71.2046 45.2637L71.7559 44.9487Z" fill="#679E63"/>
<path fill-rule="evenodd" clip-rule="evenodd" d="M56.25 42.0575C56.1973 42.028 56.1379 42.0125 56.0775 42.0125C56.0171 42.0125 55.9577 42.028 55.905 42.0575L53.0475 43.7075C52.9957 43.737 52.9526 43.7795 52.9223 43.8308C52.892 43.8821 52.8757 43.9405 52.875 44V47.3C52.8743 47.3604 52.89 47.4198 52.9203 47.472C52.9507 47.5242 52.9947 47.5671 53.0475 47.5963L55.9013 49.25C55.9538 49.2822 56.0141 49.2992 56.0756 49.2992C56.1372 49.2992 56.1975 49.2822 56.25 49.25L59.1038 47.6C59.1566 47.5709 59.2006 47.5279 59.231 47.4758C59.2613 47.4236 59.277 47.3642 59.2763 47.3038V44C59.2769 43.9392 59.2612 43.8793 59.2309 43.8266C59.2005 43.7738 59.1567 43.7301 59.1038 43.7L56.25 42.0575Z" fill="url(#paint1_linear_138_8208)"/>
<path d="M59.1071 43.7074L56.2496 42.0574C56.2209 42.0429 56.1907 42.0316 56.1596 42.0237L52.9346 47.5249C52.9607 47.5582 52.9941 47.5851 53.0321 47.6037L55.9008 49.2499C55.9404 49.2737 55.9846 49.2889 56.0304 49.2947C56.0762 49.3006 56.1228 49.2968 56.1671 49.2837L59.1671 43.7637C59.1492 43.7428 59.1291 43.7239 59.1071 43.7074Z" fill="url(#paint2_linear_138_8208)"/>
<path d="M55.8031 41.45L55.7656 41.4762H55.8181L55.8031 41.45Z" fill="url(#paint3_linear_138_8208)"/>
<path d="M59.1069 47.6037C59.1487 47.5814 59.1854 47.5505 59.2144 47.513C59.2435 47.4755 59.2644 47.4323 59.2756 47.3862L56.1369 42.02C56.0538 42.002 55.967 42.0154 55.8931 42.0575L53.0469 43.6962L56.1219 49.2987C56.1669 49.29 56.21 49.2735 56.2494 49.25L59.1069 47.6037Z" fill="url(#paint4_linear_138_8208)"/>
<path d="M59.3732 47.5512L59.3545 47.5212V47.5625L59.3732 47.5512Z" fill="url(#paint5_linear_138_8208)"/>
<path d="M59.1071 47.6038L56.2496 49.25C56.21 49.2722 56.1668 49.2874 56.1221 49.295L56.1783 49.4L59.3546 47.5588V47.5175L59.2758 47.375C59.266 47.4231 59.2458 47.4685 59.2167 47.508C59.1876 47.5475 59.1501 47.5802 59.1071 47.6038Z" fill="url(#paint6_linear_138_8208)"/>
<path d="M59.1071 47.6038L56.2496 49.25C56.21 49.2722 56.1668 49.2874 56.1221 49.295L56.1783 49.4L59.3546 47.5588V47.5175L59.2758 47.375C59.266 47.4231 59.2458 47.4685 59.2167 47.508C59.1876 47.5475 59.1501 47.5802 59.1071 47.6038Z" fill="url(#paint7_linear_138_8208)"/>
</g>
<defs>
<radialGradient id="paint0_radial_138_8208" cx="0" cy="0" r="1" gradientUnits="userSpaceOnUse" gradientTransform="translate(60 60) rotate(90) scale(60)">
<stop stop-color="white"/>
<stop offset="1" stop-color="#E8FCF8"/>
</radialGradient>
<linearGradient id="paint1_linear_138_8208" x1="57.2325" y1="43.2875" x2="54.6525" y2="48.5525" gradientUnits="userSpaceOnUse">
<stop stop-color="#3F873F"/>
<stop offset="0.33" stop-color="#3F8B3D"/>
<stop offset="0.64" stop-color="#3E9637"/>
<stop offset="0.93" stop-color="#3DA92E"/>
<stop offset="1" stop-color="#3DAE2B"/>
</linearGradient>
<linearGradient id="paint2_linear_138_8208" x1="55.6383" y1="46.0437" x2="62.8796" y2="40.6887" gradientUnits="userSpaceOnUse">
<stop offset="0.14" stop-color="#3F873F"/>
<stop offset="0.4" stop-color="#529F44"/>
<stop offset="0.71" stop-color="#63B649"/>
<stop offset="0.91" stop-color="#6ABF4B"/>
</linearGradient>
<linearGradient id="paint3_linear_138_8208" x1="52.7693" y1="41.4612" x2="59.3732" y2="41.4612" gradientUnits="userSpaceOnUse">
<stop offset="0.09" stop-color="#6ABF4B"/>
<stop offset="0.29" stop-color="#63B649"/>
<stop offset="0.6" stop-color="#529F44"/>
<stop offset="0.86" stop-color="#3F873F"/>
</linearGradient>
<linearGradient id="paint4_linear_138_8208" x1="52.7694" y1="45.6537" x2="59.3731" y2="45.6537" gradientUnits="userSpaceOnUse">
<stop offset="0.09" stop-color="#6ABF4B"/>
<stop offset="0.29" stop-color="#63B649"/>
<stop offset="0.6" stop-color="#529F44"/>
<stop offset="0.86" stop-color="#3F873F"/>
</linearGradient>
<linearGradient id="paint5_linear_138_8208" x1="52.7691" y1="47.54" x2="59.3732" y2="47.54" gradientUnits="userSpaceOnUse">
<stop offset="0.09" stop-color="#6ABF4B"/>
<stop offset="0.29" stop-color="#63B649"/>
<stop offset="0.6" stop-color="#529F44"/>
<stop offset="0.86" stop-color="#3F873F"/>
</linearGradient>
<linearGradient id="paint6_linear_138_8208" x1="52.7696" y1="48.395" x2="59.3733" y2="48.395" gradientUnits="userSpaceOnUse">
<stop offset="0.09" stop-color="#6ABF4B"/>
<stop offset="0.29" stop-color="#63B649"/>
<stop offset="0.6" stop-color="#529F44"/>
<stop offset="0.86" stop-color="#3F873F"/>
</linearGradient>
<linearGradient id="paint7_linear_138_8208" x1="60.3371" y1="43.13" x2="56.2646" y2="51.44" gradientUnits="userSpaceOnUse">
<stop stop-color="#3F873F"/>
<stop offset="0.33" stop-color="#3F8B3D"/>
<stop offset="0.64" stop-color="#3E9637"/>
<stop offset="0.93" stop-color="#3DA92E"/>
<stop offset="1" stop-color="#3DAE2B"/>
</linearGradient>
<clipPath id="clip0_138_8208">
<rect width="30" height="30" fill="white" transform="translate(45 32)"/>
</clipPath>
</defs>
</svg>
