<svg width="80" height="80" viewBox="0 0 80 80" fill="none" xmlns="http://www.w3.org/2000/svg">
<circle cx="40" cy="40" r="40" fill="white"/>
<path d="M39.4522 60C38.9208 59.7287 38.3206 59.5398 37.8739 59.1693C36.9169 58.3752 36.6269 57.3056 36.8979 56.1034C36.9498 55.8738 36.9042 55.758 36.6967 55.6411C33.7709 53.984 30.8472 52.3226 27.9298 50.6509C27.698 50.5184 27.5762 50.5653 27.3941 50.7281C25.5321 52.3978 22.6476 51.5045 22.0791 49.0897C21.7107 47.5223 22.6613 45.8934 24.2534 45.4133C24.5339 45.3288 24.6186 45.2192 24.6186 44.9364C24.6091 41.643 24.6091 38.3506 24.6175 35.0572C24.6186 34.7995 24.5635 34.6732 24.2851 34.596C23.0466 34.2495 21.8939 33.0296 22.0145 31.2869C22.1056 29.9783 23.1811 28.7386 24.5826 28.4777C25.6253 28.2825 26.5801 28.5298 27.3698 29.2509C27.5752 29.4388 27.7085 29.4836 27.9689 29.3334C30.862 27.672 33.7624 26.0222 36.6671 24.3818C36.9106 24.244 36.9476 24.1167 36.8841 23.86C36.5729 22.6077 37.1128 21.2783 38.2031 20.5499C39.3103 19.81 40.7489 19.8173 41.8456 20.5686C42.902 21.2918 43.425 22.6317 43.1328 23.8631C43.1084 23.9633 43.0873 24.0645 43.0566 24.2002C43.426 24.4151 43.7965 24.6332 44.1702 24.8461C46.7838 26.3342 49.3995 27.8171 52.0088 29.3125C52.2618 29.4576 52.41 29.469 52.644 29.2541C53.6242 28.3535 55.0215 28.1698 56.2092 28.7427C57.435 29.3344 58.1008 30.5366 57.9876 31.9527C57.8934 33.1225 56.9597 34.2307 55.7254 34.5991C55.4798 34.6721 55.393 34.7671 55.3941 35.0217C55.4026 38.3412 55.4026 41.6597 55.3941 44.9792C55.393 45.2318 55.4724 45.3309 55.7212 45.405C57.219 45.8558 58.0839 47.1446 57.9907 48.7485C57.9145 50.0592 56.7977 51.2854 55.3952 51.5316C54.3345 51.7174 53.3754 51.4482 52.5879 50.702C52.4238 50.5476 52.3116 50.5236 52.1168 50.6363C49.1306 52.3446 46.1402 54.0466 43.1508 55.7507C43.1286 55.7632 43.1106 55.7841 43.1381 55.7601C43.1381 56.3789 43.2376 56.9769 43.118 57.5289C42.8449 58.7926 42.0107 59.5899 40.7352 59.9228C40.6748 59.9384 40.6187 59.9739 40.5605 60C40.1921 60 39.8216 60 39.4522 60ZM42.5453 25.2928C41.8816 25.6747 41.2771 26.0222 40.6219 26.3989C40.6219 26.5482 40.6219 26.7819 40.6219 27.0157C40.6208 27.5103 40.6346 28.006 40.6134 28.4996C40.5975 28.8596 40.3329 29.1069 40.0164 29.1132C39.6999 29.1194 39.4395 28.8732 39.3982 28.5194C39.3844 28.4036 39.3918 28.2857 39.3918 28.1688C39.3918 27.5458 39.3918 26.9217 39.3918 26.401C38.7218 26.0149 38.1184 25.6664 37.4727 25.2938C34.5204 26.9729 31.4939 28.6905 28.476 30.4207C28.3828 30.474 28.3267 30.6576 28.3236 30.7829C28.3077 31.3088 28.3468 31.8379 28.3066 32.3617C28.2907 32.5663 28.313 32.6623 28.4908 32.7593C29.0211 33.0484 29.543 33.3541 30.0659 33.6557C30.4947 33.903 30.627 34.2213 30.4417 34.5438C30.2501 34.8777 29.9124 34.933 29.4816 34.693C28.9428 34.3914 28.4104 34.0784 27.8694 33.782C27.7826 33.734 27.6302 33.6975 27.5614 33.7392C27.0014 34.0846 26.4541 34.4509 25.837 34.8537C25.837 38.2473 25.837 41.7714 25.837 45.19C26.4912 45.5667 27.0861 45.909 27.7498 46.291C28.2463 46.0082 28.837 45.6701 29.4297 45.3351C29.8987 45.07 30.2247 45.1076 30.4301 45.4446C30.6333 45.7765 30.4989 46.0989 30.0458 46.3588C29.5218 46.6604 28.9904 46.9484 28.4781 47.2677C28.385 47.3262 28.3257 47.5025 28.3236 47.6246C28.3151 48.1255 28.3945 48.6358 28.3236 49.1263C28.2791 49.4299 28.3606 49.5364 28.5903 49.6637C29.3715 50.0968 30.1443 50.5444 30.9213 50.9859C33.1347 52.2444 35.3492 53.5029 37.4737 54.7113C38.1353 54.3315 38.7387 53.984 39.395 53.6073C39.395 53.457 39.395 53.2232 39.395 52.9905C39.3961 52.4959 39.3823 52.0012 39.4035 51.5066C39.4183 51.1476 39.6819 50.8993 39.9994 50.893C40.316 50.8867 40.5753 51.1309 40.6187 51.4857C40.6325 51.6016 40.6261 51.7195 40.6261 51.8364C40.6272 52.4594 40.6261 53.0834 40.6261 53.6041C41.2962 53.9902 41.8996 54.3377 42.5495 54.7124C45.4987 53.0354 48.5251 51.3167 51.543 49.5854C51.6362 49.5322 51.6923 49.3475 51.6944 49.2233C51.7029 48.7214 51.6246 48.2121 51.6955 47.7206C51.7389 47.419 51.6669 47.3095 51.4319 47.1832C50.9111 46.9046 50.3935 46.6165 49.8928 46.3035C49.7393 46.2075 49.5604 46.0301 49.5434 45.8746C49.5223 45.6867 49.6048 45.3914 49.7456 45.3059C49.9213 45.1994 50.2442 45.1733 50.4273 45.2641C51.0953 45.5918 51.7315 45.9831 52.266 46.2857C52.9478 45.8975 53.5437 45.5584 54.1831 45.1942C54.1831 41.7578 54.1831 38.2338 54.1831 34.812C53.5194 34.43 52.9149 34.0815 52.2703 33.711C51.7315 34.0158 51.1281 34.3612 50.5205 34.6993C50.1034 34.932 49.7901 34.8808 49.5889 34.5605C49.3899 34.2432 49.5149 33.9093 49.9351 33.6662C50.458 33.3635 50.9799 33.0599 51.5102 32.7708C51.6997 32.6675 51.7315 32.5704 51.7071 32.345C51.6521 31.8483 51.6383 31.337 51.7008 30.8423C51.7346 30.5762 51.6743 30.4802 51.4658 30.3633C50.2632 29.6882 49.0681 29.0005 47.8688 28.318C46.0608 27.2922 44.258 26.2664 42.5453 25.2928ZM41.997 23.1671C41.9991 22.064 41.0993 21.1708 39.9942 21.1791C38.8996 21.1875 38.0178 22.0661 38.0157 23.1514C38.0136 24.2555 38.9113 25.1456 40.0175 25.1341C41.1184 25.1237 41.9959 24.2524 41.997 23.1671ZM38.0168 56.8308C38.0136 57.9369 38.907 58.8302 40.0122 58.826C41.1035 58.8218 41.9927 57.9411 41.997 56.86C42.0012 55.7528 41.112 54.8668 40.0016 54.872C38.9028 54.8762 38.0199 55.7476 38.0168 56.8308ZM25.1934 33.5368C26.3229 33.5441 27.2047 32.6821 27.2025 31.5728C27.2004 30.4834 26.3239 29.613 25.2252 29.6099C24.1084 29.6057 23.2065 30.4865 23.2075 31.5812C23.2086 32.6602 24.0914 33.5295 25.1934 33.5368ZM54.7844 33.5378C55.9075 33.543 56.8062 32.6717 56.8062 31.5759C56.8062 30.5001 55.9138 29.6162 54.8225 29.6099C53.6983 29.6036 52.8091 30.474 52.8101 31.577C52.8112 32.6717 53.6771 33.5315 54.7844 33.5378ZM25.2283 46.4652C24.1052 46.459 23.2065 47.3314 23.2075 48.4261C23.2096 49.5009 24.1041 50.389 25.1913 50.3952C26.3112 50.4015 27.2036 49.527 27.2036 48.424C27.2025 47.3303 26.3377 46.4715 25.2283 46.4652ZM54.7992 46.4652C53.6866 46.4663 52.8207 47.3136 52.8101 48.4104C52.8006 49.5113 53.6909 50.3973 54.8077 50.3952C55.8969 50.3942 56.7977 49.5124 56.8062 48.4407C56.8136 47.3449 55.9191 46.4642 54.7992 46.4652Z" fill="#4285F4"/>
<path d="M46.8653 36.637C47.3861 37.1557 47.9472 37.6326 48.4066 38.1909C49.0629 38.9892 49.3466 39.9524 49.4207 40.9729C49.4302 41.1013 49.4334 41.238 49.3963 41.3591C49.3085 41.6523 49.1053 41.8182 48.7803 41.7984C48.4765 41.7796 48.288 41.6158 48.2383 41.3246C48.179 40.9792 48.1727 40.6234 48.089 40.2842C47.7863 39.0633 47.0485 38.17 45.9052 37.6169C45.7507 37.5418 45.5347 37.5606 45.3516 37.5773C44.8435 37.6211 44.3375 37.7108 43.8294 37.7338C43.5933 37.7442 43.4589 37.7734 43.3424 38.0051C43.1593 38.3724 42.9095 38.7074 42.7094 39.0226C43.1477 39.4254 43.6357 39.8073 44.039 40.2612C44.8297 41.1514 45.2193 42.2148 45.2669 43.3992C45.286 43.8625 45.0933 44.1276 44.7165 44.1505C44.3163 44.1756 44.0813 43.9241 44.0559 43.4514C43.9702 41.8756 43.2123 40.7194 41.797 39.9962C41.6244 39.9075 41.3651 39.8877 41.1766 39.943C40.3922 40.1715 39.6248 40.1715 38.8414 39.944C38.6541 39.8897 38.3958 39.9064 38.2233 39.9941C36.8016 40.71 36.0416 41.8641 35.959 43.442C35.9357 43.8886 35.7441 44.1307 35.3874 44.1526C34.9661 44.1787 34.7205 43.9011 34.7448 43.4117C34.8337 41.6439 35.6181 40.256 37.0927 39.2469C37.1774 39.1885 37.2642 39.1321 37.3298 39.0883C37.0758 38.6667 36.8387 38.2545 36.5772 37.858C36.5296 37.786 36.3845 37.7578 36.2797 37.7432C35.7102 37.668 35.1397 37.5981 34.5681 37.5407C34.4336 37.5272 34.2748 37.5345 34.1584 37.5919C32.7918 38.2618 31.9989 39.3377 31.8317 40.8435C31.8168 40.9729 31.8137 41.1034 31.7936 41.2317C31.7343 41.6179 31.5194 41.812 31.1711 41.7994C30.8229 41.7869 30.5826 41.5385 30.591 41.1462C30.6164 40.0651 30.9139 39.0528 31.5967 38.2055C32.0497 37.643 32.615 37.1682 33.1104 36.6725C32.8712 36.2217 32.5229 35.7375 32.343 35.198C31.7385 33.3822 32.7082 31.436 34.5119 30.7295C36.2988 30.0303 38.3619 30.8245 39.1876 32.5536C39.3189 32.8291 39.4448 32.898 39.7423 32.8458C40.0344 32.7947 40.3425 32.8343 40.659 32.8343C41.7229 30.3977 44.3777 29.9636 46.1212 31.0342C47.6963 32.0037 48.7231 34.5155 46.8653 36.637ZM42.484 36.4627C42.4766 35.0957 41.3735 34.0177 39.9911 34.0292C38.6022 34.0407 37.5236 35.1207 37.5299 36.493C37.5363 37.8611 38.6266 38.9245 40.0218 38.9203C41.4085 38.9161 42.4914 37.8361 42.484 36.4627ZM38.182 33.3008C37.7353 32.0392 36.375 31.3849 35.0984 31.7908C33.8144 32.1988 33.0914 33.5387 33.4714 34.8046C33.8387 36.0265 35.1344 36.8144 36.2882 36.5014C36.3528 35.126 36.9583 34.0449 38.182 33.3008ZM43.7257 36.5306C45.1219 36.708 46.3435 35.8836 46.5848 34.6449C46.8442 33.3144 46.0471 32.0496 44.7535 31.7386C43.5086 31.4391 42.213 32.1258 41.8382 33.3019C43.0471 34.0334 43.6643 35.1228 43.7257 36.5306Z" fill="#4285F4"/>
<path d="M39.9793 49.5301C38.383 49.5301 36.7867 49.5406 35.1904 49.5187C34.9702 49.5155 34.6886 49.407 34.5457 49.2494C34.261 48.9353 34.5002 48.4281 34.9279 48.3634C35.057 48.3436 35.1914 48.3509 35.3227 48.3509C38.4497 48.3499 41.5756 48.3509 44.7026 48.3509C44.7947 48.3509 44.8878 48.3488 44.9799 48.3541C45.3504 48.3781 45.5823 48.6076 45.578 48.9437C45.5749 49.2713 45.3293 49.5176 44.9662 49.526C44.4253 49.5374 43.8843 49.5301 43.3434 49.5301C42.2224 49.5301 41.1014 49.5301 39.9793 49.5301Z" fill="#4285F4"/>
<path d="M44.0912 47.2437C43.8149 47.2447 43.5376 47.2572 43.2623 47.2416C42.859 47.2186 42.624 46.9891 42.624 46.6426C42.623 46.2982 42.858 46.054 43.2592 46.0405C43.8244 46.0217 44.3918 46.0206 44.9571 46.0415C45.3519 46.0561 45.587 46.3139 45.5774 46.6582C45.5679 46.987 45.3392 47.2155 44.9603 47.2385C44.6713 47.2572 44.3802 47.2437 44.0912 47.2437Z" fill="#4285F4"/>
<path d="M35.0158 46.0435C35.3334 46.0331 35.6298 46.3086 35.6414 46.6227C35.652 46.9347 35.3736 47.2269 35.0528 47.2394C34.73 47.2519 34.4452 46.9848 34.4368 46.6592C34.4272 46.3326 34.6887 46.0539 35.0158 46.0435Z" fill="#4285F4"/>
<path d="M37.7002 46.6237C37.7107 46.9347 37.4302 47.2279 37.1106 47.2404C36.7877 47.253 36.5029 46.9837 36.4934 46.6592C36.4839 46.3336 36.7485 46.0539 37.0746 46.0435C37.3911 46.0331 37.6896 46.3096 37.7002 46.6237Z" fill="#4285F4"/>
<path d="M39.1521 47.2396C38.8281 47.2417 38.5508 46.9662 38.5508 46.6427C38.5508 46.3202 38.8281 46.0427 39.151 46.0437C39.4686 46.0447 39.7597 46.3296 39.7607 46.6417C39.7607 46.9526 39.4707 47.2386 39.1521 47.2396Z" fill="#4285F4"/>
</svg>
