<svg width="74" height="97" viewBox="0 0 74 97" fill="none" xmlns="http://www.w3.org/2000/svg">
<path d="M12.6403 48.775L19.0035 56.8716L12.6403 64.9681L19.0035 73.0647L12.6403 81.1613L19.0035 89.2578L12.7701 96.5709L13.0948 96.832L19.5229 89.2578L13.2247 81.1613L19.5229 73.0647L13.2247 64.9681L19.5229 56.8716L13.2247 48.775L19.5229 40.6784L13.2247 32.5166L19.5229 24.42L13.2247 16.3234L19.5229 8.22688L13.0948 -0.000274608L12.7701 0.260918L19.0035 8.22688L12.6403 16.3234L19.0035 24.42L12.6403 32.5166L19.0035 40.6784L12.6403 48.775Z" fill="#424254"/>
<path d="M0.433716 48.775L6.79697 56.8716L0.433717 64.9681L6.79697 73.0647L0.433718 81.1613L6.73201 89.2578L0.498673 96.5709L0.823327 96.832L7.31641 89.2578L0.953196 81.1613L7.31641 73.0647L0.953195 64.9681L7.3164 56.8716L0.953194 48.775L7.3164 40.6784L0.953193 32.5166L7.3164 24.42L0.953192 16.3234L7.3164 8.22688L0.888237 -0.000274608L0.498668 0.260918L6.79696 8.22688L0.433715 16.3234L6.79696 24.42L0.433715 32.5166L6.79696 40.6784L0.433716 48.775Z" fill="#424254"/>
<path d="M24.9122 48.775L31.2754 56.8716L24.9122 64.9681L31.2754 73.0647L24.9122 81.1613L31.2754 89.2578L24.9772 96.5709L25.3018 96.832L31.7949 89.2578L25.4317 81.1613L31.7949 73.0647L25.4317 64.9681L31.7949 56.8716L25.4317 48.775L31.7949 40.6784L25.4317 32.5166L31.7949 24.42L25.4317 16.3234L31.7949 8.22688L25.3668 -0.000274492L24.9772 0.260918L31.2754 8.22688L24.9122 16.3234L31.2754 24.42L24.9122 32.5166L31.2754 40.6784L24.9122 48.775Z" fill="#424254"/>
<path d="M66.3376 58.2423C62.1821 58.2423 58.8706 61.6376 58.8706 65.7512C58.8706 69.93 62.247 73.2601 66.3376 73.2601C70.4932 73.2601 73.8047 69.8648 73.8047 65.7512C73.8047 61.6376 70.4932 58.2423 66.3376 58.2423Z" fill="#424254"/>
<path d="M58.6763 65.7517C58.6763 69.9959 62.1177 73.4565 66.3382 73.4565C70.5587 73.4565 74 69.9959 74 65.7517C74 61.5075 70.5587 58.0469 66.3382 58.0469C62.1177 58.0469 58.6763 61.5075 58.6763 65.7517ZM73.6104 65.7517C73.6104 69.8 70.3639 73.0647 66.3382 73.0647C62.3125 73.0647 59.0659 69.8 59.0659 65.7517C59.0659 61.7034 62.3125 58.4387 66.3382 58.4387C70.3639 58.4387 73.6104 61.7034 73.6104 65.7517Z" fill="#424254"/>
<path opacity="0.8" d="M45.0951 32.1534C47.9917 31.4656 50.8944 33.2693 51.5783 36.1822C52.2623 39.0951 50.4686 42.014 47.572 42.7019C44.6753 43.3897 41.7727 41.5859 41.0887 38.673C40.4047 35.7601 42.1984 32.8412 45.0951 32.1534Z" fill="#FB8614"/>
<path d="M40.8202 37.4136C40.8202 40.4825 43.2876 43.029 46.4042 43.029C49.456 43.029 51.9883 40.5478 51.9883 37.4136C51.9883 34.3448 49.5209 31.7983 46.4042 31.7983C43.2876 31.7983 40.8202 34.2795 40.8202 37.4136ZM51.5338 37.4136C51.5338 40.2866 49.1963 42.6372 46.3393 42.6372C43.4823 42.6372 41.1448 40.2866 41.1448 37.4136C41.1448 34.5407 43.4823 32.19 46.3393 32.19C49.1962 32.19 51.5338 34.5407 51.5338 37.4136Z" fill="#424254"/>
</svg>
