<svg width="189" height="100" viewBox="0 0 189 100" fill="none" xmlns="http://www.w3.org/2000/svg">
<path d="M55.7865 0.000194742C55.7865 17.5571 62.7981 34.395 75.2789 46.8096C87.7596 59.2243 104.687 66.1987 122.338 66.1987C139.988 66.1987 156.916 59.2243 169.396 46.8096C181.877 34.395 188.889 17.5571 188.889 0.000190735L122.338 0.000188924L55.7865 0.000194742Z" fill="#4285F4"/>
<path d="M48.775 38.6403L56.8716 45.0035L64.9681 38.6403L73.0647 45.0035L81.1613 38.6403L89.2578 45.0035L96.5709 38.7701L96.832 39.0948L89.2578 45.523L81.1613 39.2247L73.0647 45.523L64.9681 39.2247L56.8716 45.523L48.775 39.2247L40.6784 45.523L32.5166 39.2247L24.42 45.523L16.3234 39.2247L8.22688 45.523L-0.00027528 39.0948L0.260917 38.7701L8.22688 45.0035L16.3234 38.6403L24.42 45.0035L32.5166 38.6403L40.6784 45.0035L48.775 38.6403Z" fill="#424254"/>
<path d="M48.775 26.4338L56.8716 32.7971L64.9681 26.4338L73.0647 32.7971L81.1613 26.4338L89.2578 32.7321L96.5709 26.4988L96.832 26.8234L89.2578 33.3165L81.1613 26.9533L73.0647 33.3165L64.9681 26.9533L56.8716 33.3165L48.775 26.9533L40.6784 33.3165L32.5166 26.9533L24.42 33.3165L16.3234 26.9533L8.22688 33.3165L-0.00027528 26.8884L0.260917 26.4988L8.22688 32.7971L16.3234 26.4338L24.42 32.7971L32.5166 26.4338L40.6784 32.7971L48.775 26.4338Z" fill="#424254"/>
<path d="M48.775 50.9122L56.8716 57.2754L64.9681 50.9122L73.0647 57.2754L81.1613 50.9122L89.2578 57.2754L96.5709 50.9771L96.832 51.3018L89.2578 57.7949L81.1613 51.4316L73.0647 57.7949L64.9681 51.4316L56.8716 57.7949L48.775 51.4316L40.6784 57.7949L32.5166 51.4316L24.42 57.7949L16.3234 51.4316L8.22688 57.7949L-0.000275229 51.3667L0.260917 50.9771L8.22688 57.2754L16.3234 50.9122L24.42 57.2754L32.5166 50.9122L40.6784 57.2754L48.775 50.9122Z" fill="#424254"/>
<path d="M58.2419 92.3376C58.2419 88.1821 61.6373 84.8706 65.7509 84.8706C69.9297 84.8706 73.2598 88.247 73.2598 92.3376C73.2598 96.4932 69.8644 99.8047 65.7509 99.8047C61.6373 99.8047 58.2419 96.4932 58.2419 92.3376Z" fill="#424254"/>
<path d="M65.7513 84.6763C69.9954 84.6763 73.4561 88.1177 73.4561 92.3382C73.4561 96.5587 69.9954 100 65.7513 100C61.5071 100 58.0465 96.5587 58.0465 92.3382C58.0465 88.1177 61.5071 84.6763 65.7513 84.6763ZM65.7513 99.6104C69.7995 99.6104 73.0643 96.3639 73.0643 92.3382C73.0643 88.3125 69.7995 85.0659 65.7513 85.0659C61.703 85.0659 58.4382 88.3125 58.4382 92.3382C58.4382 96.3639 61.703 99.6104 65.7513 99.6104Z" fill="#424254"/>
<path opacity="0.8" d="M32.1534 71.0951C31.4656 73.9917 33.2693 76.8944 36.1822 77.5783C39.0951 78.2623 42.0141 76.4686 42.7019 73.572C43.3897 70.6753 41.5859 67.7727 38.673 67.0887C35.7601 66.4047 32.8412 68.1984 32.1534 71.0951Z" fill="#FB8614"/>
<path d="M37.4139 66.8203C40.4828 66.8203 43.0293 69.2877 43.0293 72.4044C43.0293 75.4561 40.5481 77.9884 37.4139 77.9884C34.3451 77.9884 31.7986 75.521 31.7986 72.4044C31.7986 69.2877 34.2798 66.8203 37.4139 66.8203ZM37.4139 77.5339C40.2869 77.5339 42.6375 75.1964 42.6375 72.3394C42.6375 69.4825 40.2869 67.145 37.4139 67.145C34.541 67.145 32.1903 69.4825 32.1903 72.3394C32.1903 75.1964 34.541 77.5339 37.4139 77.5339Z" fill="#424254"/>
</svg>
