<svg width="97" height="74" viewBox="0 0 97 74" fill="none" xmlns="http://www.w3.org/2000/svg">
<path d="M48.057 61.3595L39.9605 54.9962L31.8639 61.3595L23.7673 54.9962L15.6708 61.3595L7.57421 54.9962L0.261176 61.2296L1.64683e-07 60.905L7.57421 54.4768L15.6708 60.7751L23.7673 54.4768L31.8639 60.7751L39.9605 54.4768L48.057 60.7751L56.1536 54.4768L64.3155 60.7751L72.412 54.4768L80.5086 60.7751L88.6051 54.4768L96.8323 60.905L96.5711 61.2296L88.6051 54.9962L80.5086 61.3595L72.412 54.9962L64.3155 61.3595L56.1536 54.9962L48.057 61.3595Z" fill="#4285F4"/>
<path d="M48.057 73.566L39.9605 67.2028L31.8639 73.566L23.7673 67.2028L15.6708 73.566L7.57421 67.2677L0.261176 73.5011L1.66346e-07 73.1764L7.57421 66.6833L15.6708 73.0466L23.7673 66.6833L31.8639 73.0466L39.9605 66.6834L48.057 73.0466L56.1536 66.6834L64.3155 73.0466L72.412 66.6834L80.5086 73.0466L88.6051 66.6834L96.8323 73.1115L96.5711 73.5011L88.6051 67.2028L80.5086 73.566L72.412 67.2028L64.3155 73.566L56.1536 67.2028L48.057 73.566Z" fill="#4285F4"/>
<path d="M48.057 49.0875L39.9605 42.7243L31.8639 49.0875L23.7673 42.7243L15.6708 49.0875L7.57421 42.7243L0.261176 49.0226L1.19141e-07 48.6979L7.57421 42.2048L15.6708 48.5681L23.7673 42.2048L31.8639 48.5681L39.9605 42.2048L48.057 48.5681L56.1536 42.2048L64.3155 48.5681L72.412 42.2048L80.5086 48.5681L88.6051 42.2048L96.8323 48.633L96.5711 49.0226L88.6051 42.7243L80.5086 49.0875L72.412 42.7243L64.3155 49.0875L56.1536 42.7243L48.057 49.0875Z" fill="#4285F4"/>
<path d="M38.5901 7.66235C38.5901 11.8179 35.1948 15.1294 31.0812 15.1294C26.9023 15.1294 23.5723 11.753 23.5723 7.66235C23.5723 3.50678 26.9676 0.195312 31.0812 0.195312C35.1948 0.195312 38.5901 3.50678 38.5901 7.66235Z" fill="#4285F4"/>
<path d="M31.0808 15.3237C26.8366 15.3237 23.376 11.8823 23.376 7.66183C23.376 3.44132 26.8366 0 31.0808 0C35.3249 0 38.7856 3.44132 38.7856 7.66183C38.7856 11.8823 35.3249 15.3237 31.0808 15.3237ZM31.0808 0.389589C27.0325 0.389589 23.7677 3.63612 23.7677 7.66183C23.7677 11.6875 27.0325 14.9341 31.0808 14.9341C35.129 14.9341 38.3938 11.6875 38.3938 7.66183C38.3938 3.63612 35.129 0.389589 31.0808 0.389589Z" fill="#4285F4"/>
<path opacity="0.8" d="M64.6786 28.9047C65.3665 26.0081 63.5627 23.1054 60.6498 22.4214C57.7369 21.7374 54.818 23.5312 54.1302 26.4278C53.4423 29.3244 55.2461 32.2271 58.159 32.9111C61.0719 33.595 63.9908 31.8013 64.6786 28.9047Z" fill="#FB8614"/>
<path d="M59.4181 33.1796C56.3492 33.1796 53.8027 30.7122 53.8027 27.5955C53.8027 24.5438 56.2839 22.0115 59.4181 22.0115C62.487 22.0115 65.0335 24.4788 65.0335 27.5955C65.0335 30.7122 62.5523 33.1796 59.4181 33.1796ZM59.4181 22.466C56.5451 22.466 54.1945 24.8035 54.1945 27.6605C54.1945 30.5174 56.5451 32.8549 59.4181 32.8549C62.2911 32.8549 64.6417 30.5174 64.6417 27.6605C64.6417 24.8035 62.2911 22.466 59.4181 22.466Z" fill="#4285F4"/>
</svg>
