<svg width="189" height="100" viewBox="0 0 189 100" fill="none" xmlns="http://www.w3.org/2000/svg">
<path opacity="0.4" d="M133.102 99.9998C133.102 82.4429 126.091 65.605 113.61 53.1904C101.129 40.7757 84.2015 33.8013 66.5511 33.8013C48.9006 33.8013 31.9731 40.7757 19.4924 53.1904C7.01162 65.605 6.91753e-06 82.4429 5.78726e-06 99.9998L66.5511 99.9998L133.102 99.9998Z" fill="#4583E6"/>
<path d="M140.114 61.3591L132.017 54.9959L123.921 61.3591L115.824 54.9959L107.727 61.3591L99.6308 54.9959L92.3178 61.2293L92.0566 60.9046L99.6308 54.4764L107.727 60.7747L115.824 54.4764L123.921 60.7747L132.017 54.4764L140.114 60.7747L148.21 54.4764L156.372 60.7747L164.469 54.4764L172.565 60.7747L180.662 54.4764L188.889 60.9046L188.628 61.2292L180.662 54.9959L172.565 61.3591L164.469 54.9959L156.372 61.3591L148.21 54.9959L140.114 61.3591Z" fill="#424254"/>
<path d="M140.114 73.566L132.017 67.2028L123.921 73.566L115.824 67.2028L107.727 73.566L99.6308 67.2677L92.3178 73.5011L92.0566 73.1764L99.6308 66.6833L107.727 73.0466L115.824 66.6833L123.921 73.0466L132.017 66.6833L140.114 73.0466L148.21 66.6833L156.372 73.0466L164.469 66.6833L172.565 73.0466L180.662 66.6833L188.889 73.1115L188.628 73.5011L180.662 67.2028L172.565 73.566L164.469 67.2028L156.372 73.566L148.21 67.2028L140.114 73.566Z" fill="#424254"/>
<path d="M140.114 49.0874L132.017 42.7242L123.921 49.0874L115.824 42.7242L107.727 49.0874L99.6308 42.7242L92.3178 49.0224L92.0566 48.6978L99.6308 42.2047L107.727 48.568L115.824 42.2047L123.921 48.568L132.017 42.2047L140.114 48.568L148.21 42.2047L156.372 48.568L164.469 42.2047L172.565 48.568L180.662 42.2047L188.889 48.6329L188.628 49.0224L180.662 42.7242L172.565 49.0874L164.469 42.7242L156.372 49.0874L148.21 42.7242L140.114 49.0874Z" fill="#424254"/>
<path d="M130.646 7.66235C130.646 11.8179 127.251 15.1294 123.137 15.1294C118.958 15.1294 115.628 11.753 115.628 7.66235C115.628 3.50678 119.024 0.195312 123.137 0.195312C127.251 0.195311 130.646 3.50678 130.646 7.66235Z" fill="#424254"/>
<path d="M123.137 15.3237C118.893 15.3237 115.432 11.8823 115.432 7.66183C115.432 3.44132 118.893 -3.08354e-07 123.137 -6.86524e-07C127.381 -1.06469e-06 130.842 3.44132 130.842 7.66182C130.842 11.8823 127.381 15.3237 123.137 15.3237ZM123.137 0.389588C119.089 0.389588 115.824 3.63612 115.824 7.66183C115.824 11.6875 119.089 14.9341 123.137 14.9341C127.185 14.9341 130.45 11.6875 130.45 7.66182C130.45 3.63612 127.185 0.389588 123.137 0.389588Z" fill="#424254"/>
<path opacity="0.8" d="M156.735 28.9047C157.423 26.008 155.619 23.1054 152.706 22.4214C149.794 21.7374 146.875 23.5312 146.187 26.4278C145.499 29.3244 147.303 32.2271 150.216 32.9111C153.129 33.595 156.047 31.8013 156.735 28.9047Z" fill="#FB8614"/>
<path d="M151.475 33.1798C148.406 33.1798 145.859 30.7124 145.859 27.5958C145.859 24.544 148.341 22.0117 151.475 22.0117C154.544 22.0117 157.09 24.4791 157.09 27.5958C157.09 30.7124 154.609 33.1798 151.475 33.1798ZM151.475 22.4662C148.602 22.4662 146.251 24.8037 146.251 27.6607C146.251 30.5177 148.602 32.8552 151.475 32.8552C154.348 32.8552 156.698 30.5177 156.698 27.6607C156.698 24.8037 154.348 22.4662 151.475 22.4662Z" fill="#424254"/>
</svg>
