<svg width="120" height="120" viewBox="0 0 120 120" fill="none" xmlns="http://www.w3.org/2000/svg">
<path d="M55 2.88675C58.094 1.10042 61.906 1.10042 65 2.88675L106.962 27.1132C110.056 28.8996 111.962 32.2008 111.962 35.7735V84.2265C111.962 87.7992 110.056 91.1004 106.962 92.8867L65 117.113C61.906 118.9 58.094 118.9 55 117.113L13.0385 92.8867C9.94446 91.1004 8.03848 87.7992 8.03848 84.2265V35.7735C8.03848 32.2008 9.94446 28.8996 13.0385 27.1132L55 2.88675Z" fill="url(#paint0_radial_138_8201)"/>
<path d="M47.2956 72.8V84H48.6556V72.8H47.2956ZM48.0476 74.08H50.3356C51.061 74.08 51.6476 74.256 52.0956 74.608C52.5543 74.9493 52.7836 75.4667 52.7836 76.16C52.7836 76.8427 52.5543 77.36 52.0956 77.712C51.6476 78.064 51.061 78.24 50.3356 78.24H48.0476V79.52H50.3356C51.061 79.52 51.7063 79.3867 52.2716 79.12C52.8476 78.8427 53.301 78.4533 53.6316 77.952C53.973 77.44 54.1436 76.8427 54.1436 76.16C54.1436 75.4667 53.973 74.8693 53.6316 74.368C53.301 73.8667 52.8476 73.4827 52.2716 73.216C51.7063 72.9387 51.061 72.8 50.3356 72.8H48.0476V74.08ZM56.8133 78.56H64.4933V77.28H56.8133V78.56ZM63.5813 72.8V84H64.9413V72.8H63.5813ZM56.0613 72.8V84H57.4213V72.8H56.0613ZM67.4988 72.8V84H68.8588V72.8H67.4988ZM68.2508 74.08H70.5388C71.2641 74.08 71.8508 74.256 72.2988 74.608C72.7574 74.9493 72.9868 75.4667 72.9868 76.16C72.9868 76.8427 72.7574 77.36 72.2988 77.712C71.8508 78.064 71.2641 78.24 70.5388 78.24H68.2508V79.52H70.5388C71.2641 79.52 71.9094 79.3867 72.4748 79.12C73.0508 78.8427 73.5041 78.4533 73.8348 77.952C74.1761 77.44 74.3468 76.8427 74.3468 76.16C74.3468 75.4667 74.1761 74.8693 73.8348 74.368C73.5041 73.8667 73.0508 73.4827 72.4748 73.216C71.9094 72.9387 71.2641 72.8 70.5388 72.8H68.2508V74.08Z" fill="#424254"/>
<g clip-path="url(#clip0_138_8201)">
<path d="M45 32H75V62H45V32Z" fill="#8892BF"/>
<path d="M50.1483 43.0286H53.7071C54.7546 43.0286 55.5121 43.3274 55.9796 43.9249C56.4471 44.5224 56.6021 45.3286 56.4446 46.3436C56.3793 46.821 56.2402 47.2853 56.0321 47.7199C55.826 48.1741 55.5374 48.5861 55.1808 48.9349C54.8003 49.3559 54.3071 49.6592 53.7596 49.8086C53.2464 49.9329 52.7201 49.9946 52.1921 49.9924H50.5983L50.0958 52.5049H48.2471L50.1483 43.0286ZM51.7008 44.5286L50.9058 48.4999C50.9583 48.5036 51.0109 48.5036 51.0633 48.4999H51.2508C51.9683 48.5264 52.6855 48.4416 53.3771 48.2486C53.9433 48.0649 54.3221 47.4199 54.5021 46.3211C54.6633 45.3949 54.5021 44.8624 54.0258 44.7199C53.4499 44.5681 52.8549 44.5012 52.2596 44.5211C52.1571 44.5265 52.0545 44.5265 51.9521 44.5211H51.6746M58.5483 40.5049H60.3746L59.8571 43.0286H61.4996C62.2157 42.9896 62.9251 43.1844 63.5208 43.5836C63.9708 43.9361 64.1058 44.6036 63.9183 45.5936L63.0371 49.9999H61.1621L62.0133 45.7961C62.0641 45.6425 62.083 45.4801 62.0688 45.3189C62.0546 45.1577 62.0077 45.0011 61.9308 44.8586C61.808 44.748 61.6624 44.6658 61.5043 44.6178C61.3461 44.5699 61.1794 44.5573 61.0158 44.5811H59.5421L58.4658 49.9999H56.6246L58.5371 40.5124M65.8946 43.0286H69.4533C70.5008 43.0286 71.2583 43.3274 71.7258 43.9249C72.1933 44.5224 72.3483 45.3286 72.1908 46.3436C72.1256 46.821 71.9864 47.2853 71.7783 47.7199C71.5723 48.1741 71.2836 48.5861 70.9271 48.9349C70.5465 49.3559 70.0533 49.6592 69.5058 49.8086C68.9926 49.9329 68.4663 49.9946 67.9383 49.9924H66.3446L65.8421 52.5049H63.9933L65.8946 43.0286ZM67.4471 44.5286L66.6521 48.4999C66.7045 48.5036 66.7571 48.5036 66.8096 48.4999H66.9971C67.7145 48.5264 68.4318 48.4416 69.1233 48.2486C69.6896 48.0649 70.0683 47.4199 70.2483 46.3211C70.4096 45.3949 70.2483 44.8624 69.7721 44.7199C69.1962 44.5677 68.6011 44.5007 68.0058 44.5211C67.9034 44.5265 67.8008 44.5265 67.6983 44.5211H67.4208" fill="white"/>
</g>
<defs>
<radialGradient id="paint0_radial_138_8201" cx="0" cy="0" r="1" gradientUnits="userSpaceOnUse" gradientTransform="translate(60 60) rotate(90) scale(60)">
<stop stop-color="white"/>
<stop offset="1" stop-color="#E8FCF8"/>
</radialGradient>
<clipPath id="clip0_138_8201">
<rect width="30" height="30" fill="white" transform="translate(45 32)"/>
</clipPath>
</defs>
</svg>
