<svg width="86" height="86" viewBox="0 0 86 86" fill="none" xmlns="http://www.w3.org/2000/svg">
<g filter="url(#filter0_d_138_8123)">
<circle cx="43" cy="39" r="35" fill="white"/>
</g>
<path d="M54.9352 56.9982C54.0185 56.8119 53.353 56.244 52.7458 55.5776C52.4701 55.2744 52.1643 54.9996 51.8803 54.7038C51.6183 54.4308 51.6092 54.1423 51.8374 53.9205C52.052 53.7123 52.366 53.7315 52.6244 53.9853C53.0882 54.44 53.542 54.9047 54.0049 55.3603C54.8156 56.1591 55.986 56.1902 56.7593 55.436C57.5454 54.6691 57.5555 53.4722 56.7447 52.6587C52.923 48.8269 49.093 45.0033 45.2657 41.1769C45.2191 41.1304 45.1662 41.0902 45.1342 41.0628C44.2313 41.9694 43.342 42.8632 42.4327 43.7771C42.4975 43.8456 42.587 43.9442 42.681 44.0383C45.3643 46.7206 48.0476 49.403 50.7309 52.0854C50.803 52.1575 50.8843 52.2251 50.9427 52.3072C51.1052 52.5373 51.1171 52.7747 50.9217 52.9929C50.729 53.2074 50.4615 53.2202 50.2169 53.0321C50.1365 52.9701 50.0671 52.8925 49.9941 52.8203C48.7049 51.5312 47.4121 50.2457 46.1312 48.9492C45.955 48.7712 45.7788 48.7082 45.5332 48.7082C40.3145 48.7146 35.0959 48.7128 29.8763 48.7128C28.7205 48.7128 27.8148 48.2672 27.2953 47.2027C27.1501 46.9051 27.0698 46.5554 27.0488 46.224C27.0086 45.5885 27.0269 44.9485 27.0323 44.3112C27.0351 43.9616 27.2341 43.7461 27.5308 43.7415C27.8413 43.737 28.0558 43.9625 28.0604 44.324C28.0677 44.9047 28.0585 45.4863 28.064 46.0669C28.0722 46.9352 28.7068 47.598 29.5741 47.651C29.6873 47.6583 29.8015 47.6601 29.9156 47.6601C34.7353 47.6601 39.5559 47.6601 44.3755 47.6601C44.4887 47.6601 44.602 47.6601 44.8056 47.6601C44.6759 47.5195 44.6001 47.4318 44.5189 47.3506C43.2736 46.0989 42.0218 44.8526 40.7847 43.5927C40.5738 43.3773 40.3912 43.1198 40.2488 42.8532C39.4527 41.3586 38.673 39.8549 37.8887 38.3531C37.5719 37.7459 37.6486 37.1315 38.0923 36.6896C38.5461 36.2377 39.1331 36.161 39.7549 36.4915C41.3207 37.3241 42.8846 38.1604 44.4449 39.0049C44.6211 39.1008 44.7791 39.2414 44.9233 39.3838C47.5874 42.037 50.2543 44.6874 52.8992 47.3597C53.2115 47.6747 53.5173 47.6994 53.8798 47.6108C54.559 47.4437 55.0703 46.8192 55.0712 46.119C55.0767 40.4228 55.074 34.7267 55.0731 29.0305C55.0731 28.9976 55.0621 28.9648 55.0521 28.9063C46.07 28.9063 37.0871 28.9063 28.0622 28.9063C28.0622 29.0405 28.0622 29.1738 28.0622 29.3071C28.0622 33.3626 28.0622 37.4182 28.0622 41.4746C28.0622 41.5887 28.0704 41.7037 28.0576 41.816C28.0239 42.1027 27.8002 42.3036 27.5317 42.299C27.2615 42.2944 27.0579 42.0899 27.0342 41.795C27.0278 41.7156 27.0296 41.6353 27.0296 41.5558C27.0296 35.9738 27.0287 30.3918 27.0305 24.8088C27.0305 23.5306 27.6267 22.5866 28.7113 22.1794C28.9825 22.0772 29.2856 22.0105 29.5741 22.0096C34.371 21.9996 39.1687 22.0014 43.9656 22.0023C44.3582 22.0023 44.5992 22.2041 44.5947 22.5181C44.5892 22.8295 44.3472 23.0248 43.9528 23.0248C39.2582 23.0258 34.5636 23.0395 29.869 23.0148C28.8227 23.0093 28.001 23.7333 28.054 24.8435C28.1005 25.8195 28.064 26.7992 28.064 27.8007C37.0707 27.8007 46.0536 27.8007 55.0776 27.8007C55.0776 27.3333 55.0776 26.8704 55.0776 26.4066C55.0776 25.8259 55.0813 25.2443 55.0767 24.6637C55.0694 23.7215 54.3783 23.0285 53.4297 23.0267C51.1618 23.0221 48.8948 23.0221 46.627 23.0285C46.3531 23.0294 46.123 22.9728 46.008 22.7062C45.8546 22.3501 46.1139 22.005 46.5366 22.0032C47.8696 21.9986 49.2034 22.0014 50.5364 22.0014C51.5279 22.0014 52.5194 21.9977 53.5109 22.0023C54.9233 22.0087 56.0956 23.1408 56.0983 24.5514C56.1102 30.0421 56.1047 35.5337 56.1056 41.0245C56.1056 42.5966 56.0783 44.1697 56.1139 45.741C56.1458 47.1589 55.5359 48.1084 54.1464 48.6416C54.4641 48.941 54.7672 49.2122 55.0557 49.4989C55.8491 50.2849 56.6279 51.0847 57.4277 51.8635C58.2932 52.7062 58.5616 53.726 58.2594 54.8627C57.9599 55.9875 57.1939 56.6859 56.0436 56.9416C56.0143 56.948 55.9906 56.9799 55.9641 57C55.619 56.9982 55.2776 56.9982 54.9352 56.9982ZM44.3162 40.1316C43.8405 39.8668 43.3922 39.6313 42.9595 39.372C42.7632 39.2542 42.6436 39.2934 42.4957 39.4496C42.1442 39.8202 41.7735 40.1727 41.4156 40.5388C41.1554 40.8044 40.7382 41.0555 40.6944 41.3568C40.6505 41.6599 40.9737 42.0215 41.1518 42.3483C41.2613 42.5483 41.4001 42.7318 41.5252 42.9208C42.461 41.9859 43.353 41.0948 44.3162 40.1316ZM41.6849 38.6982C41.3307 38.5092 40.9536 38.3074 40.5766 38.1056C40.1265 37.8646 39.6837 37.6108 39.2226 37.3926C39.1185 37.3433 38.9314 37.3789 38.83 37.4465C38.7615 37.4921 38.7223 37.6911 38.7643 37.7733C39.197 38.6315 39.6499 39.4806 40.0808 40.3005C40.6195 39.7627 41.1454 39.2378 41.6849 38.6982Z" fill="#4583E6"/>
<path d="M41.564 34.4902C38.1796 34.4902 34.7951 34.4902 31.4116 34.4893C31.2755 34.4893 31.1358 34.4929 31.0044 34.4655C30.7387 34.4098 30.588 34.2428 30.5899 33.9607C30.5917 33.6794 30.7423 33.5142 31.0098 33.4603C31.1313 33.4357 31.2582 33.4348 31.3832 33.4348C38.175 33.4339 44.9658 33.4339 51.7576 33.4348C51.8817 33.4348 52.0096 33.4357 52.131 33.4622C52.3967 33.5188 52.5464 33.684 52.5455 33.9661C52.5446 34.2482 52.3903 34.4117 52.1255 34.4664C51.994 34.4938 51.8543 34.4893 51.7183 34.4893C48.332 34.4902 44.9476 34.4902 41.564 34.4902Z" fill="#4583E6"/>
<path d="M41.5503 31.8927C40.3086 31.8927 39.0679 31.8927 37.8262 31.8927C37.7239 31.8927 37.6199 31.9009 37.5194 31.8854C37.2309 31.8397 37.0301 31.6927 37.0255 31.375C37.02 31.0591 37.209 30.9012 37.5003 30.8491C37.5888 30.8336 37.6819 30.8373 37.7723 30.8373C40.3004 30.8364 42.8285 30.8364 45.3566 30.8382C45.4698 30.8382 45.5857 30.84 45.6953 30.8656C45.9591 30.9267 46.1134 31.0956 46.1098 31.3723C46.1061 31.6498 45.9445 31.8133 45.6816 31.8699C45.572 31.8936 45.4561 31.8918 45.3419 31.8918C44.0793 31.8927 42.8148 31.8927 41.5503 31.8927Z" fill="#4583E6"/>
<path d="M33.4319 36.9845C32.7033 36.9845 31.9747 36.9873 31.2462 36.9836C30.7988 36.9809 30.5897 36.8138 30.5879 36.4732C30.5861 36.1336 30.8088 35.951 31.2389 35.9501C32.7307 35.9483 34.2216 35.9483 35.7134 35.9501C36.1161 35.951 36.347 36.1336 36.3589 36.4486C36.3708 36.7873 36.1489 36.98 35.7207 36.9827C34.9575 36.9882 34.1942 36.9845 33.4319 36.9845Z" fill="#4583E6"/>
<path d="M31.3836 26.3763C30.855 26.38 30.4204 25.9609 30.4113 25.4396C30.4021 24.9329 30.8495 24.4773 31.3617 24.4691C31.8784 24.4609 32.3158 24.8937 32.3203 25.4186C32.3258 25.9591 31.9204 26.3727 31.3836 26.3763Z" fill="#4583E6"/>
<path d="M34.3121 26.3756C33.7798 26.381 33.3462 25.9675 33.3361 25.4452C33.3261 24.9303 33.7588 24.4811 34.2774 24.4692C34.7942 24.4574 35.237 24.8892 35.2433 25.4114C35.2497 25.9519 34.8453 26.3701 34.3121 26.3756Z" fill="#4583E6"/>
<path d="M37.2127 26.3756C36.6768 26.3747 36.2687 25.962 36.2705 25.4233C36.2723 24.8993 36.706 24.4647 37.2237 24.4693C37.7404 24.4738 38.1796 24.9185 38.1768 25.4343C38.1741 25.9575 37.7441 26.3774 37.2127 26.3756Z" fill="#4583E6"/>
<defs>
<filter id="filter0_d_138_8123" x="0" y="0" width="86" height="86" filterUnits="userSpaceOnUse" color-interpolation-filters="sRGB">
<feFlood flood-opacity="0" result="BackgroundImageFix"/>
<feColorMatrix in="SourceAlpha" type="matrix" values="0 0 0 0 0 0 0 0 0 0 0 0 0 0 0 0 0 0 127 0" result="hardAlpha"/>
<feOffset dy="4"/>
<feGaussianBlur stdDeviation="4"/>
<feColorMatrix type="matrix" values="0 0 0 0 0.0627451 0 0 0 0 0.0941176 0 0 0 0 0.156863 0 0 0 0.04 0"/>
<feBlend mode="normal" in2="BackgroundImageFix" result="effect1_dropShadow_138_8123"/>
<feBlend mode="normal" in="SourceGraphic" in2="effect1_dropShadow_138_8123" result="shape"/>
</filter>
</defs>
</svg>
