<svg width="120" height="120" viewBox="0 0 120 120" fill="none" xmlns="http://www.w3.org/2000/svg">
<path d="M55 2.88675C58.094 1.10042 61.906 1.10042 65 2.88675L106.962 27.1132C110.056 28.8996 111.962 32.2008 111.962 35.7735V84.2265C111.962 87.7992 110.056 91.1004 106.962 92.8867L65 117.113C61.906 118.9 58.094 118.9 55 117.113L13.0385 92.8867C9.94446 91.1004 8.03848 87.7992 8.03848 84.2265V35.7735C8.03848 32.2008 9.94446 28.8996 13.0385 27.1132L55 2.88675Z" fill="url(#paint0_radial_138_8194)"/>
<path d="M38.6784 72.8V84H40.0384V72.8H38.6784ZM39.4304 74.08H41.7184C42.4438 74.08 43.0304 74.256 43.4784 74.608C43.9371 74.9493 44.1664 75.4667 44.1664 76.16C44.1664 76.8427 43.9371 77.36 43.4784 77.712C43.0304 78.064 42.4438 78.24 41.7184 78.24H39.4304V79.52H41.7184C42.4438 79.52 43.0891 79.3867 43.6544 79.12C44.2304 78.8427 44.6838 78.4533 45.0144 77.952C45.3558 77.44 45.5264 76.8427 45.5264 76.16C45.5264 75.4667 45.3558 74.8693 45.0144 74.368C44.6838 73.8667 44.2304 73.4827 43.6544 73.216C43.0891 72.9387 42.4438 72.8 41.7184 72.8H39.4304V74.08ZM53.2041 76.64H51.7641L49.4921 82.336L50.0201 82.4L47.6841 76.64H46.1641L48.9801 82.96L46.9641 87.52H48.4041L53.2041 76.64ZM53.2909 76.64V77.84H56.9709V76.64H53.2909ZM54.4909 74.08V84H55.7709V74.08H54.4909ZM59.5347 71.52H58.2547V84H59.5347V71.52ZM62.9747 79.52V84H64.2547V79.36C64.2547 78.72 64.148 78.1867 63.9347 77.76C63.732 77.3333 63.4387 77.0133 63.0547 76.8C62.6814 76.5867 62.2387 76.48 61.7267 76.48C61.2147 76.48 60.7614 76.6133 60.3667 76.88C59.9827 77.1467 59.6787 77.5093 59.4547 77.968C59.2307 78.416 59.1187 78.9333 59.1187 79.52H59.5347C59.5347 79.168 59.6094 78.8533 59.7587 78.576C59.9187 78.2987 60.1374 78.08 60.4147 77.92C60.7027 77.76 61.0334 77.68 61.4067 77.68C61.9294 77.68 62.3187 77.8347 62.5747 78.144C62.8414 78.4533 62.9747 78.912 62.9747 79.52ZM66.0209 80.32C66.0209 81.056 66.1863 81.7173 66.5169 82.304C66.8583 82.88 67.3169 83.3333 67.8929 83.664C68.4689 83.9947 69.1143 84.16 69.8289 84.16C70.5543 84.16 71.1996 83.9947 71.7649 83.664C72.3409 83.3333 72.7943 82.88 73.1249 82.304C73.4663 81.7173 73.6369 81.056 73.6369 80.32C73.6369 79.5733 73.4663 78.912 73.1249 78.336C72.7943 77.76 72.3409 77.3067 71.7649 76.976C71.1996 76.6453 70.5543 76.48 69.8289 76.48C69.1143 76.48 68.4689 76.6453 67.8929 76.976C67.3169 77.3067 66.8583 77.76 66.5169 78.336C66.1863 78.912 66.0209 79.5733 66.0209 80.32ZM67.3169 80.32C67.3169 79.808 67.4236 79.3547 67.6369 78.96C67.8609 78.5547 68.1596 78.24 68.5329 78.016C68.9169 77.792 69.3489 77.68 69.8289 77.68C70.3089 77.68 70.7356 77.792 71.1089 78.016C71.4929 78.24 71.7916 78.5547 72.0049 78.96C72.2289 79.3547 72.3409 79.808 72.3409 80.32C72.3409 80.832 72.2289 81.2853 72.0049 81.68C71.7916 82.0747 71.4929 82.3893 71.1089 82.624C70.7356 82.848 70.3089 82.96 69.8289 82.96C69.3489 82.96 68.9169 82.848 68.5329 82.624C68.1596 82.3893 67.8609 82.0747 67.6369 81.68C67.4236 81.2853 67.3169 80.832 67.3169 80.32ZM80.1153 79.52V84H81.3953V79.36C81.3953 78.4747 81.166 77.776 80.7073 77.264C80.2593 76.7413 79.646 76.48 78.8673 76.48C78.3873 76.48 77.9606 76.5867 77.5873 76.8C77.2246 77.0133 76.9206 77.344 76.6753 77.792V76.64H75.3953V84H76.6753V79.52C76.6753 79.1573 76.75 78.8373 76.8993 78.56C77.0593 78.2827 77.278 78.0693 77.5553 77.92C77.8433 77.76 78.174 77.68 78.5473 77.68C79.0593 77.68 79.4486 77.8347 79.7153 78.144C79.982 78.4533 80.1153 78.912 80.1153 79.52Z" fill="#424254"/>
<g clip-path="url(#clip0_138_8194)">
<path d="M59.8239 32.0001C58.6777 32.0015 57.5336 32.0993 56.4039 32.2926C53.3739 32.8288 52.8264 33.9463 52.8264 36.0126V38.7501H60.0001V39.6501H50.1376C48.0601 39.6501 46.2376 40.8988 45.6676 43.2763C45.0001 46.0026 45.0001 47.7051 45.6676 50.5513C46.1776 52.6701 47.3926 54.1813 49.4701 54.1813H51.9339V50.9113C51.9599 49.736 52.4398 48.6165 53.2732 47.7873C54.1065 46.9582 55.2285 46.4839 56.4039 46.4638H63.5514C64.0249 46.4599 64.4931 46.3627 64.9291 46.1777C65.365 45.9927 65.7603 45.7236 66.0922 45.3858C66.4241 45.048 66.6862 44.648 66.8634 44.2089C67.0406 43.7697 67.1296 43.2999 67.1251 42.8263V36.0126C67.1251 34.0738 65.4901 32.6151 63.5476 32.2926C62.3167 32.0914 61.0711 31.9935 59.8239 32.0001ZM55.9539 34.1938C56.2246 34.1893 56.4905 34.2655 56.7179 34.4126C56.9452 34.5597 57.1236 34.771 57.2305 35.0198C57.3374 35.2686 57.3679 35.5435 57.3181 35.8097C57.2683 36.0758 57.1405 36.3211 56.9509 36.5144C56.7613 36.7077 56.5185 36.8403 56.2533 36.8952C55.9882 36.9502 55.7127 36.925 55.4619 36.823C55.2111 36.7209 54.9964 36.5466 54.8449 36.3222C54.6934 36.0977 54.6121 35.8333 54.6114 35.5626C54.6084 35.2032 54.748 34.8573 54.9997 34.6007C55.2513 34.3441 55.5945 34.1978 55.9539 34.1938Z" fill="url(#paint1_linear_138_8194)"/>
<path d="M68.0212 39.6499V42.8262C68.0109 44.0158 67.5391 45.155 66.7052 46.0036C65.8713 46.8522 64.7405 47.3438 63.5512 47.3749H56.4037C55.4506 47.3945 54.543 47.7859 53.8745 48.4655C53.2061 49.1451 52.8299 50.0592 52.8262 51.0124V57.8186C52.8262 59.7574 54.5099 60.8974 56.4037 61.4524C58.7304 62.1815 61.2245 62.1815 63.5512 61.4524C65.3549 60.9312 67.1249 59.8811 67.1249 57.8186V55.0887H59.9999V54.1812H70.7099C72.7874 54.1812 73.5637 52.7299 74.2874 50.5512C75.0374 48.3012 75.0037 46.1524 74.2874 43.2762C73.7737 41.2062 72.7874 39.6499 70.7099 39.6499H68.0212ZM64.0012 56.8999C64.2722 56.8954 64.5385 56.9718 64.7659 57.1192C64.9934 57.2666 65.1719 57.4784 65.2786 57.7276C65.3852 57.9768 65.4153 58.2522 65.3649 58.5185C65.3145 58.7849 65.1859 59.0302 64.9955 59.2232C64.8052 59.4162 64.5617 59.5482 64.2961 59.6023C64.0304 59.6564 63.7547 59.6301 63.504 59.5269C63.2534 59.4237 63.0391 59.2482 62.8885 59.0228C62.738 58.7974 62.658 58.5322 62.6587 58.2612C62.6577 57.9038 62.7984 57.5605 63.0501 57.3068C63.3018 57.053 63.6438 56.9094 64.0012 56.9074V56.8999Z" fill="url(#paint2_linear_138_8194)"/>
</g>
<defs>
<radialGradient id="paint0_radial_138_8194" cx="0" cy="0" r="1" gradientUnits="userSpaceOnUse" gradientTransform="translate(60 60) rotate(90) scale(60)">
<stop stop-color="white"/>
<stop offset="1" stop-color="#E8FCF8"/>
</radialGradient>
<linearGradient id="paint1_linear_138_8194" x1="44.3074" y1="33.0319" x2="60.8481" y2="47.0124" gradientUnits="userSpaceOnUse">
<stop stop-color="#5A9FD4"/>
<stop offset="1" stop-color="#306998"/>
</linearGradient>
<linearGradient id="paint2_linear_138_8194" x1="66.9032" y1="55.9393" x2="60.946" y2="47.6597" gradientUnits="userSpaceOnUse">
<stop stop-color="#FFD43B"/>
<stop offset="1" stop-color="#FFE873"/>
</linearGradient>
<clipPath id="clip0_138_8194">
<rect width="30" height="30" fill="white" transform="translate(45 32)"/>
</clipPath>
</defs>
</svg>
