<svg width="49" height="48" viewBox="0 0 49 48" fill="none" xmlns="http://www.w3.org/2000/svg">
<mask id="mask0_105_733" style="mask-type:alpha" maskUnits="userSpaceOnUse" x="0" y="0" width="49" height="48">
<rect x="48.5" y="48" width="48" height="48" transform="rotate(180 48.5 48)" fill="#D9D9D9"/>
</mask>
<g mask="url(#mask0_105_733)">
<path d="M14.15 14C15.15 14 15.9167 14.4247 16.45 15.274C16.9833 16.1247 17.0167 17 16.55 17.9L14.5 22L18.5 22C19.6 22 20.5413 22.392 21.324 23.176C22.108 23.9587 22.5 24.9 22.5 26L22.5 32C22.5 33.1 22.108 34.0413 21.324 34.824C20.5413 35.608 19.6 36 18.5 36L12.5 36C11.4 36 10.458 35.608 9.674 34.824C8.89133 34.0413 8.5 33.1 8.5 32L8.5 22.95C8.5 22.65 8.52533 22.3413 8.576 22.024C8.62533 21.708 8.73333 21.4167 8.9 21.15L11.75 15.5C11.9833 15.0333 12.3167 14.6667 12.75 14.4C13.1833 14.1333 13.65 14 14.15 14ZM32.15 14C33.15 14 33.9167 14.4247 34.45 15.274C34.9833 16.1247 35.0167 17 34.55 17.9L32.5 22L36.5 22C37.6 22 38.5413 22.392 39.324 23.176C40.108 23.9587 40.5 24.9 40.5 26L40.5 32C40.5 33.1 40.108 34.0413 39.324 34.824C38.5413 35.608 37.6 36 36.5 36L30.5 36C29.4 36 28.458 35.608 27.674 34.824C26.8913 34.0413 26.5 33.1 26.5 32L26.5 22.95C26.5 22.65 26.5247 22.3413 26.574 22.024C26.6247 21.708 26.7333 21.4167 26.9 21.15L29.75 15.5C29.9833 15.0333 30.3167 14.6667 30.75 14.4C31.1833 14.1333 31.65 14 32.15 14Z" fill="#4285F4"/>
</g>
</svg>
