<svg width="41" height="40" viewBox="0 0 41 40" fill="none" xmlns="http://www.w3.org/2000/svg">
<path d="M40.1931 33.1768C40.0128 33.4735 39.756 33.5752 39.4058 33.5731C37.2107 33.5605 35.0156 33.5689 32.8204 33.5658C32.2711 33.5647 31.9325 33.1014 32.2061 32.7009C32.312 32.5458 32.5594 32.4001 32.7439 32.398C35.0177 32.377 37.2904 32.3759 39.5641 32.398C39.7749 32.4001 39.9835 32.5992 40.1931 32.7062C40.1931 32.8634 40.1931 33.0206 40.1931 33.1768Z" fill="#4583E6"/>
<path d="M29.7277 31.5332C30.4584 30.7722 30.8588 29.8884 30.8599 28.8464C30.8651 23.432 30.863 18.0175 30.864 12.6031C30.864 12.4595 30.8536 12.3137 30.8724 12.1722C30.9165 11.8514 31.1964 11.5978 31.4888 11.6271C31.8096 11.6607 32.0182 11.8389 32.056 12.1754C32.0706 12.3054 32.0706 12.4364 32.0706 12.5664C32.0717 17.876 32.0643 23.1856 32.0759 28.4953C32.079 30.0803 31.5748 31.4347 30.4248 32.5427C30.3336 32.6308 30.2927 32.8457 30.3263 32.9757C31.1492 36.151 29.2706 39.2005 26.0555 39.8881C23.092 40.5224 19.9953 38.3838 19.5592 35.3868C19.4879 34.9004 19.4806 34.4056 19.4397 33.873C19.2919 33.873 19.1388 33.873 18.9858 33.873C16.017 33.873 13.0482 33.8762 10.0795 33.872C7.68934 33.8688 5.67032 32.309 5.0969 29.9933C4.98578 29.5436 4.95643 29.0634 4.95328 28.5969C4.93966 26.0863 4.947 23.5746 4.947 21.0639C4.947 20.9087 4.947 20.7546 4.947 20.5796C3.36407 20.3531 2.0799 19.6476 1.12595 18.3918C0.445605 17.4955 0.0933769 16.4786 0.0116097 15.3507C-0.158214 13.0014 1.53793 10.0117 4.9124 9.53576C4.94699 8.92774 4.91869 8.3061 5.02877 7.71067C5.48897 5.20733 7.46186 3.5374 9.9914 3.49651C10.5638 3.48708 11.0628 3.42523 11.5565 3.06356C12.2243 2.57401 13.0461 2.53208 13.8512 2.58869C14.1867 2.6128 14.3576 2.48805 14.5295 2.21235C16.3651 -0.753285 20.6935 -0.733365 22.5039 2.24799C22.6485 2.487 22.789 2.60651 23.0794 2.58659C24.1392 2.51531 25.1246 2.704 25.9884 3.39588C26.1572 3.53111 26.4874 3.48917 26.7432 3.48393C27.8879 3.45982 28.9488 3.72505 29.8818 4.3991C31.2603 5.39498 32.0015 6.74414 32.0623 8.45286C32.0769 8.88371 32.078 9.31561 32.0685 9.74751C32.0591 10.1972 31.8201 10.474 31.4668 10.4719C31.1135 10.4698 30.8798 10.1815 30.863 9.74437C30.8389 9.07975 30.8777 8.40359 30.7666 7.7526C30.4898 6.12669 28.9603 4.80165 27.3271 4.69367C27.2013 4.68529 27.0745 4.69262 26.913 4.69262C27.1719 5.42748 27.2432 6.12879 27.0503 6.84687C26.6436 8.36061 25.3154 9.39214 23.7314 9.39528C20.2658 9.40052 16.8001 9.40052 13.3344 9.39528C10.937 9.39214 9.33517 7.23893 10.0092 4.93897C10.027 4.87817 10.0491 4.81737 10.069 4.75657C7.98391 4.18629 5.87789 6.77035 6.16302 9.56091C7.88328 9.8167 9.26493 10.6501 10.2126 12.1345C10.8646 13.1545 11.1718 14.2877 11.0502 15.4943C10.7766 18.2073 8.84666 20.2032 6.13367 20.5733C6.13367 20.7137 6.13367 20.8647 6.13367 21.0146C6.13367 23.5389 6.13262 26.0632 6.13367 28.5865C6.13472 30.9954 7.77321 32.6528 10.1843 32.6654C12.4203 32.6769 14.6574 32.6675 16.8934 32.6675C17.7561 32.6675 18.6199 32.6769 19.4827 32.657C19.6116 32.6539 19.8056 32.5396 19.8548 32.4274C20.7312 30.4084 22.2554 29.1976 24.4317 28.9712C26.6268 28.7427 28.3754 29.6295 29.6375 31.4515C29.6522 31.4724 29.6753 31.4871 29.7277 31.5332ZM18.4858 8.20652C20.2113 8.20652 21.9368 8.217 23.6623 8.20337C24.9789 8.19289 25.9748 7.22216 25.9706 5.98832C25.9664 4.74399 24.981 3.8089 23.6528 3.79108C23.2607 3.78584 22.8687 3.78165 22.4766 3.79108C22.0898 3.80052 21.856 3.63279 21.6904 3.27637C21.0614 1.92931 19.9848 1.21123 18.5015 1.21227C17.0181 1.21332 15.9426 1.93246 15.3136 3.27952C15.1469 3.63594 14.9111 3.79633 14.5253 3.79213C14.0158 3.78689 13.5032 3.77326 12.9969 3.81729C11.6592 3.9347 10.7556 5.27862 11.1215 6.57327C11.4087 7.58697 12.2484 8.19918 13.3868 8.20442C15.0872 8.21176 16.7865 8.20652 18.4858 8.20652ZM9.86456 15.0697C9.86142 12.6775 7.90948 10.7287 5.52461 10.735C3.15021 10.7413 1.17837 12.7236 1.19514 15.0907C1.21087 17.4619 3.14917 19.3877 5.52671 19.3939C7.9294 19.4002 9.86875 17.4672 9.86456 15.0697ZM25.0156 38.7864C27.4162 38.7707 29.3734 36.7967 29.3335 34.4328C29.2927 32.0249 27.3323 30.0887 24.9653 30.118C22.5982 30.1474 20.6568 32.1066 20.6599 34.4622C20.662 36.8418 22.636 38.8011 25.0156 38.7864Z" fill="#4583E6"/>
<path d="M15.2606 30.2836C14.0571 30.2941 12.9774 29.9282 12.0067 29.2248C11.6167 28.9418 11.5161 28.6021 11.731 28.2981C11.9448 27.9962 12.3086 27.9773 12.6964 28.2488C15.3402 30.098 18.8112 28.7625 19.5093 25.6281C20.1006 22.9717 17.9914 20.4191 15.227 20.4463C12.2058 20.4757 10.1554 23.4759 11.2225 26.3063C11.4553 26.9248 11.384 27.2372 10.9751 27.3861C10.5904 27.5265 10.3304 27.3295 10.0977 26.7246C8.8125 23.37 11.0695 19.6727 14.6421 19.2806C18.0344 18.9085 20.9224 21.5911 20.8019 25.0012C20.6981 27.927 18.2011 30.3077 15.2606 30.2836Z" fill="#4583E6"/>
<path d="M15.1979 26.7644C15.6906 26.7644 16.1067 26.7602 16.5219 26.7655C17.0009 26.7718 17.2788 27.0024 17.2735 27.3787C17.2683 27.7404 16.9978 27.9742 16.547 27.9794C15.7891 27.9878 15.0302 27.9857 14.2722 27.9815C13.9609 27.9794 13.6726 27.9207 13.5091 27.6062C13.3392 27.2802 13.5049 27.0286 13.6841 26.7812C14.2376 26.0201 14.8006 25.2664 15.3446 24.5001C15.5166 24.2569 15.6665 23.9917 15.7839 23.7181C15.9547 23.3187 15.7849 22.9549 15.3929 22.7998C15.0375 22.6593 14.6549 22.8239 14.4882 23.1918C14.4672 23.239 14.4609 23.2925 14.4421 23.3407C14.2984 23.7139 14.0154 23.8732 13.681 23.7684C13.3665 23.6709 13.2187 23.39 13.2868 23.0178C13.421 22.284 14.1842 21.6152 14.9442 21.567C16.4831 21.4705 17.5031 22.8669 16.8427 24.258C16.4936 24.9928 15.9642 25.6428 15.5145 26.3294C15.4285 26.4573 15.3321 26.5799 15.1979 26.7644Z" fill="#4583E6"/>
<path d="M18.4146 14.1839C16.9386 14.1839 15.4626 14.186 13.9866 14.1829C13.5442 14.1818 13.2958 13.9816 13.2748 13.6273C13.2549 13.2939 13.453 13.0486 13.7864 13.0067C13.9153 12.9899 14.0474 12.9941 14.1774 12.9941C17.012 12.9931 19.8455 12.9941 22.6801 12.9941C22.7326 12.9941 22.785 12.9931 22.8374 12.9941C23.3301 13.0025 23.6016 13.2122 23.6037 13.5843C23.6047 13.9523 23.3154 14.1839 22.8426 14.1839C21.7849 14.186 20.7272 14.185 19.6684 14.185C19.2512 14.1839 18.8329 14.1839 18.4146 14.1839Z" fill="#4583E6"/>
<path d="M25.6767 22.6709C26.8518 22.6709 28.028 22.6677 29.2031 22.673C29.6183 22.6751 29.872 22.8732 29.9097 23.2002C29.9506 23.5567 29.7367 23.8586 29.3531 23.8607C26.8854 23.8743 24.4166 23.8722 21.9489 23.8607C21.6135 23.8586 21.3797 23.5755 21.3828 23.2747C21.386 22.935 21.6648 22.6782 22.0726 22.675C23.1178 22.6677 24.1619 22.6719 25.207 22.6719C25.3632 22.6709 25.5205 22.6709 25.6767 22.6709Z" fill="#4583E6"/>
<path d="M16.8848 15.966C17.8502 15.966 18.8168 15.9639 19.7822 15.9671C20.2697 15.9692 20.5507 16.183 20.5622 16.5447C20.5737 16.9221 20.2729 17.1621 19.776 17.1632C17.8576 17.1653 15.9381 17.1653 14.0198 17.1632C13.5312 17.1621 13.2734 16.9472 13.2744 16.5583C13.2755 16.1631 13.5134 15.9702 14.026 15.9681C14.9789 15.9629 15.9319 15.966 16.8848 15.966Z" fill="#4583E6"/>
<path d="M24.1181 26.8473C23.4535 26.8473 22.7879 26.8526 22.1232 26.8452C21.6672 26.841 21.3947 26.6188 21.3831 26.2666C21.3716 25.9018 21.6683 25.6512 22.1306 25.6502C23.4609 25.647 24.7912 25.6481 26.1214 25.6502C26.6068 25.6512 26.8689 25.8682 26.8668 26.254C26.8647 26.645 26.6215 26.841 26.1141 26.8452C25.4484 26.8515 24.7838 26.8484 24.1181 26.8473Z" fill="#4583E6"/>
<path d="M34.6394 36.5472C34.0398 36.5472 33.4402 36.5503 32.8405 36.5461C32.3982 36.543 32.1214 36.3103 32.1172 35.9507C32.1141 35.5953 32.3887 35.3595 32.8343 35.3584C34.0335 35.3532 35.2328 35.3532 36.431 35.3584C36.9058 35.3605 37.1417 35.5628 37.1428 35.9444C37.1438 36.3197 36.888 36.542 36.4362 36.5461C35.8387 36.5514 35.239 36.5472 34.6394 36.5472Z" fill="#4583E6"/>
<path d="M18.5071 6.9675C17.2481 6.96855 16.2459 5.97266 16.2354 4.71156C16.226 3.44312 17.2502 2.41683 18.5197 2.42312C19.7577 2.42941 20.7913 3.46933 20.785 4.70422C20.7787 5.9475 19.7525 6.96645 18.5071 6.9675ZM19.5669 4.68849C19.5638 4.09621 19.0868 3.61714 18.5018 3.61819C17.92 3.61923 17.4347 4.10354 17.4315 4.68849C17.4284 5.28707 17.9347 5.79655 18.5207 5.78187C19.1067 5.7672 19.5701 5.28288 19.5669 4.68849Z" fill="#4583E6"/>
<path d="M5.09927 13.1502C4.87179 13.1355 4.70301 13.1355 4.53634 13.1125C4.20822 13.0674 4.01952 12.8797 4.01009 12.5391C4.00065 12.1942 4.19879 11.9751 4.51223 11.9426C4.92526 11.8996 5.34982 11.9027 5.76284 11.9415C6.08048 11.9719 6.2828 12.1984 6.28489 12.5296C6.29118 14.2415 6.29328 15.9523 6.28385 17.6642C6.28175 18.0185 6.0071 18.2638 5.68422 18.2607C5.35086 18.2575 5.10556 18.0028 5.10346 17.6097C5.09508 16.2773 5.09927 14.9449 5.09927 13.6115C5.09822 13.472 5.09927 13.3295 5.09927 13.1502Z" fill="#4583E6"/>
<path d="M26.4499 34.5345C27.1931 35.6614 27.0642 36.7621 26.1175 37.412C25.5053 37.8324 24.846 37.8733 24.1876 37.5546C23.5241 37.2328 23.1771 36.6698 23.1205 35.936C23.0932 35.5838 23.3113 35.3092 23.6352 35.2588C23.9371 35.2127 24.2075 35.4056 24.2977 35.7369C24.3176 35.8113 24.3197 35.892 24.3344 35.9685C24.4046 36.3323 24.6908 36.5661 25.0525 36.5556C25.4152 36.5451 25.7234 36.2505 25.7496 35.8878C25.7737 35.5555 25.5169 35.2232 25.172 35.1467C25.0713 35.1247 24.9613 35.1351 24.8638 35.1026C24.587 35.0104 24.4224 34.8081 24.435 34.5166C24.4476 34.2315 24.6059 34.0292 24.8994 33.9621C25.0137 33.9359 25.1332 33.9264 25.2443 33.8898C25.5861 33.7786 25.7622 33.5229 25.7412 33.1801C25.7213 32.8593 25.542 32.6129 25.2034 32.5406C24.8627 32.4672 24.5828 32.5658 24.4078 32.8834C24.3711 32.9505 24.3533 33.0281 24.325 33.1004C24.1845 33.4641 23.8763 33.6403 23.5649 33.5354C23.2442 33.4275 23.0943 33.1214 23.1771 32.7398C23.3731 31.8309 24.4078 31.1673 25.3282 31.3267C26.6396 31.5531 27.5348 33.114 26.4499 34.5345Z" fill="#4583E6"/>
</svg>
