<svg width="196" height="202" viewBox="0 0 196 202" fill="none" xmlns="http://www.w3.org/2000/svg">
<g filter="url(#filter0_d_655_6621)">
<path d="M78 12.1915C90.376 5.04623 105.624 5.04623 118 12.1915L162.87 38.0975C175.247 45.2428 182.87 58.4479 182.87 72.7385V124.551C182.87 138.841 175.247 152.046 162.87 159.192L118 185.098C105.624 192.243 90.376 192.243 78 185.098L33.1295 159.192C20.7535 152.046 13.1295 138.841 13.1295 124.551V72.7385C13.1295 58.4479 20.7535 45.2428 33.1295 38.0975L78 12.1915Z" fill="white"/>
</g>
<path d="M82.9605 136.435L87.2805 142.645H89.1705L84.6705 136.435H82.9605ZM80.7105 130.045V142.645H82.2405V130.045H80.7105ZM81.5565 131.395H84.1305C84.6705 131.395 85.1445 131.491 85.5525 131.683C85.9725 131.875 86.2965 132.151 86.5245 132.511C86.7645 132.871 86.8845 133.309 86.8845 133.825C86.8845 134.341 86.7645 134.779 86.5245 135.139C86.2965 135.499 85.9725 135.775 85.5525 135.967C85.1445 136.159 84.6705 136.255 84.1305 136.255H81.5565V137.605H84.1305C84.9465 137.605 85.6725 137.455 86.3085 137.155C86.9565 136.843 87.4665 136.405 87.8385 135.841C88.2225 135.265 88.4145 134.593 88.4145 133.825C88.4145 133.045 88.2225 132.373 87.8385 131.809C87.4665 131.245 86.9565 130.813 86.3085 130.513C85.6725 130.201 84.9465 130.045 84.1305 130.045H81.5565V131.395ZM92.1328 139.405V134.365H90.6928V139.585C90.6928 140.569 90.9508 141.355 91.4668 141.943C91.9828 142.531 92.6728 142.825 93.5368 142.825C94.0888 142.825 94.5688 142.705 94.9768 142.465C95.3848 142.213 95.7268 141.841 96.0028 141.349V142.645H97.4428V134.365H96.0028V139.405C96.0028 139.813 95.9128 140.173 95.7328 140.485C95.5648 140.797 95.3188 141.043 94.9948 141.223C94.6828 141.391 94.3168 141.475 93.8968 141.475C93.3208 141.475 92.8828 141.295 92.5828 140.935C92.2828 140.575 92.1328 140.065 92.1328 139.405ZM101.5 128.605H100.06V142.645H101.5V128.605ZM108.43 138.505C108.43 137.605 108.244 136.837 107.872 136.201C107.5 135.553 107.002 135.055 106.378 134.707C105.766 134.359 105.082 134.185 104.326 134.185C103.642 134.185 103.036 134.359 102.508 134.707C101.992 135.055 101.584 135.553 101.284 136.201C100.996 136.837 100.852 137.605 100.852 138.505C100.852 139.393 100.996 140.161 101.284 140.809C101.584 141.457 101.992 141.955 102.508 142.303C103.036 142.651 103.642 142.825 104.326 142.825C105.082 142.825 105.766 142.651 106.378 142.303C107.002 141.955 107.5 141.457 107.872 140.809C108.244 140.161 108.43 139.393 108.43 138.505ZM106.972 138.505C106.972 139.141 106.84 139.681 106.576 140.125C106.324 140.569 105.982 140.905 105.55 141.133C105.13 141.361 104.662 141.475 104.146 141.475C103.726 141.475 103.312 141.361 102.904 141.133C102.496 140.905 102.16 140.569 101.896 140.125C101.632 139.681 101.5 139.141 101.5 138.505C101.5 137.869 101.632 137.329 101.896 136.885C102.16 136.441 102.496 136.105 102.904 135.877C103.312 135.649 103.726 135.535 104.146 135.535C104.662 135.535 105.13 135.649 105.55 135.877C105.982 136.105 106.324 136.441 106.576 136.885C106.84 137.329 106.972 137.869 106.972 138.505ZM116.722 134.365H115.102L112.546 140.773L113.14 140.845L110.512 134.365H108.802L111.97 141.475L109.702 146.605H111.322L116.722 134.365Z" fill="#424254"/>
<g clip-path="url(#clip0_655_6621)">
<path fill-rule="evenodd" clip-rule="evenodd" d="M80.2251 110.562L124.58 107.555L128 62.8245L114.485 90.222L80.2251 110.562Z" fill="url(#paint0_linear_655_6621)"/>
<path fill-rule="evenodd" clip-rule="evenodd" d="M110.458 94.917L124.655 107.517L120.845 81.207L110.458 94.917Z" fill="url(#paint1_linear_655_6621)"/>
<path fill-rule="evenodd" clip-rule="evenodd" d="M80.375 110.502L124.708 107.517L96.7775 105.327L80.375 110.502Z" fill="url(#paint2_linear_655_6621)"/>
<path fill-rule="evenodd" clip-rule="evenodd" d="M72.0425 90.9345L80.4125 110.51L87.395 87.6495L72.0425 90.9345Z" fill="url(#paint3_linear_655_6621)"/>
<path fill-rule="evenodd" clip-rule="evenodd" d="M85.6626 87.0721L110.458 94.9921L104.038 69.8521L85.6626 87.0721Z" fill="url(#paint4_linear_655_6621)"/>
<path fill-rule="evenodd" clip-rule="evenodd" d="M104.337 71.652L126.545 70.2045L109.175 56.022L104.337 71.652Z" fill="url(#paint5_linear_655_6621)"/>
<path fill-rule="evenodd" clip-rule="evenodd" d="M101.765 50.8845L118.422 50.9595L108.207 56.607L101.765 50.8845Z" fill="url(#paint6_linear_655_6621)"/>
<path fill-rule="evenodd" clip-rule="evenodd" d="M68.8175 81.4995L68 98.5995L72.2825 90.7995L68.8175 81.4995Z" fill="url(#paint7_linear_655_6621)"/>
<path fill-rule="evenodd" clip-rule="evenodd" d="M68.585 81.2071L72.0725 91.0845L87.2 87.6945L104.48 71.6446L109.355 56.1571L101.675 50.7271L88.625 55.6096C84.5 59.4346 76.535 67.0021 76.25 67.1446C75.965 67.2871 71 76.7146 68.585 81.2071Z" fill="white"/>
<path fill-rule="evenodd" clip-rule="evenodd" d="M80.8176 63.462C89.7501 54.627 101.218 49.407 105.628 53.8545C110.038 58.302 105.358 69.1095 96.4476 77.9445C87.5376 86.7795 76.1901 92.292 71.7501 87.837C67.3101 83.382 71.9001 72.297 80.8176 63.462Z" fill="url(#paint8_linear_655_6621)"/>
<path fill-rule="evenodd" clip-rule="evenodd" d="M80.4126 110.502L87.3426 87.567L110.33 94.9545C102.02 102.755 92.7501 109.34 80.4126 110.502Z" fill="url(#paint9_linear_655_6621)"/>
<path fill-rule="evenodd" clip-rule="evenodd" d="M104.51 71.592L110.413 94.9695C117.358 87.6645 123.59 79.8195 126.643 70.1445L104.51 71.592Z" fill="url(#paint10_linear_655_6621)"/>
<path fill-rule="evenodd" clip-rule="evenodd" d="M126.583 70.227C128.945 63.102 129.5 52.8945 118.347 50.9745L109.25 56.022L126.583 70.227Z" fill="url(#paint11_linear_655_6621)"/>
<path fill-rule="evenodd" clip-rule="evenodd" d="M68 98.502C68.33 110.262 76.8125 110.442 80.4275 110.502L72.08 91.002L68 98.502Z" fill="#AA3E35"/>
<path fill-rule="evenodd" clip-rule="evenodd" d="M104.54 71.6445C109.88 74.922 120.635 81.507 120.853 81.627C121.19 81.822 125.488 74.382 126.463 70.182L104.54 71.6445Z" fill="url(#paint12_radial_655_6621)"/>
<path fill-rule="evenodd" clip-rule="evenodd" d="M87.3274 87.567L96.5824 105.395C101.62 102.596 106.228 99.0849 110.262 94.9695L87.3274 87.567Z" fill="url(#paint13_radial_655_6621)"/>
<path fill-rule="evenodd" clip-rule="evenodd" d="M72.0425 91.062L70.73 106.677C73.205 110.052 76.61 110.352 80.18 110.09C77.6 103.655 72.44 90.7995 72.0425 91.062Z" fill="url(#paint14_linear_655_6621)"/>
<path fill-rule="evenodd" clip-rule="evenodd" d="M109.153 56.0595L127.543 58.6395C126.56 54.4845 123.545 51.7995 118.408 50.9595L109.153 56.0595Z" fill="url(#paint15_linear_655_6621)"/>
</g>
<defs>
<filter id="filter0_d_655_6621" x="5.12939" y="2.83258" width="185.741" height="199.624" filterUnits="userSpaceOnUse" color-interpolation-filters="sRGB">
<feFlood flood-opacity="0" result="BackgroundImageFix"/>
<feColorMatrix in="SourceAlpha" type="matrix" values="0 0 0 0 0 0 0 0 0 0 0 0 0 0 0 0 0 0 127 0" result="hardAlpha"/>
<feOffset dy="4"/>
<feGaussianBlur stdDeviation="4"/>
<feColorMatrix type="matrix" values="0 0 0 0 0.0627451 0 0 0 0 0.0941176 0 0 0 0 0.156863 0 0 0 0.04 0"/>
<feBlend mode="normal" in2="BackgroundImageFix" result="effect1_dropShadow_655_6621"/>
<feBlend mode="normal" in="SourceGraphic" in2="effect1_dropShadow_655_6621" result="shape"/>
</filter>
<linearGradient id="paint0_linear_655_6621" x1="120.718" y1="116" x2="108.058" y2="93.6495" gradientUnits="userSpaceOnUse">
<stop stop-color="#F68F71"/>
<stop offset="0.41" stop-color="#DC5242"/>
<stop offset="0.99" stop-color="#A72C32"/>
<stop offset="1" stop-color="#A72C32"/>
</linearGradient>
<linearGradient id="paint1_linear_655_6621" x1="127.018" y1="97.227" x2="110.705" y2="86.2845" gradientUnits="userSpaceOnUse">
<stop stop-color="#9B3F34"/>
<stop offset="0.99" stop-color="#A23E36"/>
<stop offset="1" stop-color="#A23E36"/>
</linearGradient>
<linearGradient id="paint2_linear_655_6621" x1="113.968" y1="116.682" x2="97.655" y2="105.732" gradientUnits="userSpaceOnUse">
<stop stop-color="#9B3F34"/>
<stop offset="0.99" stop-color="#A23E36"/>
<stop offset="1" stop-color="#A23E36"/>
</linearGradient>
<linearGradient id="paint3_linear_655_6621" x1="79.715" y1="89.307" x2="82.25" y2="105.74" gradientUnits="userSpaceOnUse">
<stop stop-color="white"/>
<stop offset="0.23" stop-color="#E28B6F"/>
<stop offset="0.46" stop-color="#DA6144"/>
<stop offset="0.99" stop-color="#A60003"/>
<stop offset="1" stop-color="#A60003"/>
</linearGradient>
<linearGradient id="paint4_linear_655_6621" x1="97.1151" y1="73.9546" x2="98.0451" y2="90.7321" gradientUnits="userSpaceOnUse">
<stop stop-color="white"/>
<stop offset="0.23" stop-color="#E08A6D"/>
<stop offset="0.56" stop-color="#C14435"/>
<stop offset="0.99" stop-color="#B13430"/>
<stop offset="1" stop-color="#B13430"/>
</linearGradient>
<linearGradient id="paint5_linear_655_6621" x1="112.55" y1="58.4595" x2="115.34" y2="70.4745" gradientUnits="userSpaceOnUse">
<stop stop-color="white"/>
<stop offset="0.18" stop-color="#DF8063"/>
<stop offset="0.4" stop-color="#C94D37"/>
<stop offset="0.99" stop-color="#B13430"/>
<stop offset="1" stop-color="#B13430"/>
</linearGradient>
<linearGradient id="paint6_linear_655_6621" x1="104.03" y1="54.222" x2="116.052" y2="48.2145" gradientUnits="userSpaceOnUse">
<stop stop-color="white"/>
<stop offset="0.54" stop-color="#C94838"/>
<stop offset="0.99" stop-color="#C12D2F"/>
<stop offset="1" stop-color="#C12D2F"/>
</linearGradient>
<linearGradient id="paint7_linear_655_6621" x1="69.185" y1="85.1145" x2="70.175" y2="95.022" gradientUnits="userSpaceOnUse">
<stop stop-color="white"/>
<stop offset="0.31" stop-color="#DA6548"/>
<stop offset="0.99" stop-color="#C14433"/>
<stop offset="1" stop-color="#C14433"/>
</linearGradient>
<linearGradient id="paint8_linear_655_6621" x1="62.3826" y1="97.6995" x2="108.89" y2="49.8795" gradientUnits="userSpaceOnUse">
<stop stop-color="#BD0012"/>
<stop offset="0.07" stop-color="white"/>
<stop offset="0.17" stop-color="white"/>
<stop offset="0.27" stop-color="#C95841"/>
<stop offset="0.33" stop-color="#983734"/>
<stop offset="0.46" stop-color="#AE4231"/>
<stop offset="0.72" stop-color="#B93E2F"/>
<stop offset="0.99" stop-color="#DE4E2B"/>
<stop offset="1" stop-color="#DE4E2B"/>
</linearGradient>
<linearGradient id="paint9_linear_655_6621" x1="98.0001" y1="102.522" x2="83.9976" y2="99.0645" gradientUnits="userSpaceOnUse">
<stop stop-color="#9F3633"/>
<stop offset="0.54" stop-color="#A73532"/>
<stop offset="0.99" stop-color="#B13439"/>
<stop offset="1" stop-color="#B13439"/>
</linearGradient>
<linearGradient id="paint10_linear_655_6621" x1="122.06" y1="85.707" x2="109.618" y2="74.5545" gradientUnits="userSpaceOnUse">
<stop stop-color="#923C36"/>
<stop offset="0.99" stop-color="#AA3531"/>
<stop offset="1" stop-color="#AA3531"/>
</linearGradient>
<linearGradient id="paint11_linear_655_6621" x1="126.635" y1="65.247" x2="120.432" y2="58.617" gradientUnits="userSpaceOnUse">
<stop stop-color="#8D3E36"/>
<stop offset="0.99" stop-color="#AA3E37"/>
<stop offset="1" stop-color="#AA3E37"/>
</linearGradient>
<radialGradient id="paint12_radial_655_6621" cx="0" cy="0" r="1" gradientUnits="userSpaceOnUse" gradientTransform="translate(111.56 74.772) scale(15.2475 15.2475)">
<stop stop-color="#B13430"/>
<stop offset="0.99" stop-color="#923934"/>
<stop offset="1" stop-color="#923934"/>
</radialGradient>
<radialGradient id="paint13_radial_655_6621" cx="0" cy="0" r="1" gradientUnits="userSpaceOnUse" gradientTransform="translate(90.4399 94.8645) scale(20.2725)">
<stop stop-color="#AE3531"/>
<stop offset="0.99" stop-color="#953A36"/>
<stop offset="1" stop-color="#953A36"/>
</radialGradient>
<linearGradient id="paint14_linear_655_6621" x1="76.0775" y1="110.487" x2="71.0225" y2="93.3495" gradientUnits="userSpaceOnUse">
<stop stop-color="#994939"/>
<stop offset="0.43" stop-color="#AA3A36"/>
<stop offset="0.99" stop-color="#B83936"/>
<stop offset="1" stop-color="#B83936"/>
</linearGradient>
<linearGradient id="paint15_linear_655_6621" x1="114.83" y1="53.697" x2="126.155" y2="58.692" gradientUnits="userSpaceOnUse">
<stop stop-color="#B9392F"/>
<stop offset="0.44" stop-color="#A23A36"/>
<stop offset="0.99" stop-color="#8D463A"/>
<stop offset="1" stop-color="#8D463A"/>
</linearGradient>
<clipPath id="clip0_655_6621">
<rect width="60" height="60" fill="white" transform="translate(68 50.6445)"/>
</clipPath>
</defs>
</svg>
