<svg width="196" height="202" viewBox="0 0 196 202" fill="none" xmlns="http://www.w3.org/2000/svg">
<g filter="url(#filter0_d_655_6556)">
<path d="M78 12.1915C90.376 5.04623 105.624 5.04623 118 12.1915L162.87 38.0975C175.247 45.2428 182.87 58.4479 182.87 72.7385V124.551C182.87 138.841 175.247 152.046 162.87 159.192L118 185.098C105.624 192.243 90.376 192.243 78 185.098L33.1295 159.192C20.7535 152.046 13.1295 138.841 13.1295 124.551V72.7385C13.1295 58.4479 20.7535 45.2428 33.1295 38.0975L78 12.1915Z" fill="white"/>
</g>
<path d="M75.325 141.829L74.101 142.657C74.377 143.209 74.731 143.731 75.163 144.223C75.607 144.703 76.117 145.093 76.693 145.393C77.281 145.681 77.917 145.825 78.601 145.825C79.105 145.825 79.585 145.741 80.041 145.573C80.509 145.405 80.923 145.165 81.283 144.853C81.655 144.541 81.943 144.163 82.147 143.719C82.363 143.275 82.471 142.777 82.471 142.225C82.471 141.649 82.369 141.157 82.165 140.749C81.961 140.329 81.697 139.975 81.373 139.687C81.061 139.387 80.719 139.141 80.347 138.949C79.975 138.757 79.621 138.601 79.285 138.481C78.553 138.229 77.971 137.977 77.539 137.725C77.119 137.461 76.819 137.185 76.639 136.897C76.459 136.597 76.369 136.273 76.369 135.925C76.369 135.517 76.525 135.151 76.837 134.827C77.149 134.491 77.647 134.323 78.331 134.323C78.823 134.323 79.237 134.419 79.573 134.611C79.921 134.803 80.215 135.049 80.455 135.349C80.695 135.649 80.893 135.955 81.049 136.267L82.363 135.511C82.159 135.067 81.877 134.647 81.517 134.251C81.157 133.843 80.719 133.513 80.203 133.261C79.699 132.997 79.105 132.865 78.421 132.865C77.713 132.865 77.083 133.009 76.531 133.297C75.979 133.573 75.547 133.957 75.235 134.449C74.923 134.941 74.767 135.499 74.767 136.123C74.767 136.699 74.875 137.185 75.091 137.581C75.319 137.977 75.607 138.313 75.955 138.589C76.303 138.853 76.669 139.075 77.053 139.255C77.437 139.423 77.785 139.561 78.097 139.669C78.577 139.837 79.027 140.029 79.447 140.245C79.879 140.449 80.227 140.719 80.491 141.055C80.755 141.391 80.887 141.841 80.887 142.405C80.887 142.981 80.683 143.455 80.275 143.827C79.867 144.199 79.327 144.385 78.655 144.385C78.151 144.385 77.701 144.277 77.305 144.061C76.909 143.845 76.549 143.545 76.225 143.161C75.913 142.777 75.613 142.333 75.325 141.829ZM84.5383 131.605V145.645H85.9783V131.605H84.5383ZM89.0383 137.365L85.4383 140.785L89.3983 145.645H91.1983L87.2383 140.785L90.8383 137.365H89.0383ZM95.4964 145.825C96.3844 145.825 97.1524 145.651 97.8004 145.303C98.4604 144.943 99.0064 144.415 99.4384 143.719L98.2684 142.981C97.9684 143.485 97.6024 143.863 97.1704 144.115C96.7384 144.355 96.2404 144.475 95.6764 144.475C95.1124 144.475 94.6324 144.355 94.2364 144.115C93.8404 143.875 93.5404 143.527 93.3364 143.071C93.1324 142.615 93.0304 142.063 93.0304 141.415C93.0424 140.779 93.1504 140.245 93.3544 139.813C93.5704 139.369 93.8704 139.033 94.2544 138.805C94.6504 138.565 95.1244 138.445 95.6764 138.445C96.1444 138.445 96.5524 138.547 96.9004 138.751C97.2484 138.955 97.5184 139.237 97.7104 139.597C97.9144 139.957 98.0164 140.383 98.0164 140.875C98.0164 140.959 97.9984 141.067 97.9624 141.199C97.9264 141.319 97.8904 141.409 97.8544 141.469L98.4304 140.641H92.4904V141.865H99.5644C99.5644 141.841 99.5644 141.787 99.5644 141.703C99.5764 141.607 99.5824 141.517 99.5824 141.433C99.5824 140.557 99.4264 139.801 99.1144 139.165C98.8024 138.529 98.3524 138.043 97.7644 137.707C97.1884 137.359 96.4924 137.185 95.6764 137.185C94.8604 137.185 94.1404 137.365 93.5164 137.725C92.9044 138.085 92.4244 138.589 92.0764 139.237C91.7404 139.885 91.5724 140.641 91.5724 141.505C91.5724 142.357 91.7344 143.107 92.0584 143.755C92.3944 144.403 92.8564 144.913 93.4444 145.285C94.0444 145.645 94.7284 145.825 95.4964 145.825ZM100.296 137.365V138.715H104.436V137.365H100.296ZM101.646 134.485V145.645H103.086V134.485H101.646ZM106.528 141.505C106.528 140.929 106.648 140.419 106.888 139.975C107.14 139.519 107.476 139.165 107.896 138.913C108.328 138.661 108.814 138.535 109.354 138.535C109.798 138.535 110.212 138.607 110.596 138.751C110.992 138.883 111.334 139.063 111.622 139.291C111.91 139.519 112.114 139.771 112.234 140.047V138.247C111.946 137.911 111.532 137.653 110.992 137.473C110.464 137.281 109.918 137.185 109.354 137.185C108.55 137.185 107.824 137.371 107.176 137.743C106.528 138.115 106.012 138.625 105.628 139.273C105.256 139.921 105.07 140.665 105.07 141.505C105.07 142.333 105.256 143.077 105.628 143.737C106.012 144.385 106.528 144.895 107.176 145.267C107.824 145.639 108.55 145.825 109.354 145.825C109.918 145.825 110.464 145.735 110.992 145.555C111.532 145.363 111.946 145.099 112.234 144.763V142.963C112.114 143.227 111.91 143.479 111.622 143.719C111.334 143.947 110.992 144.133 110.596 144.277C110.212 144.409 109.798 144.475 109.354 144.475C108.814 144.475 108.328 144.349 107.896 144.097C107.476 143.833 107.14 143.479 106.888 143.035C106.648 142.591 106.528 142.081 106.528 141.505ZM115.916 131.605H114.476V145.645H115.916V131.605ZM119.786 140.605V145.645H121.226V140.425C121.226 139.705 121.106 139.105 120.866 138.625C120.638 138.145 120.308 137.785 119.876 137.545C119.456 137.305 118.958 137.185 118.382 137.185C117.806 137.185 117.296 137.335 116.852 137.635C116.42 137.935 116.078 138.343 115.826 138.859C115.574 139.363 115.448 139.945 115.448 140.605H115.916C115.916 140.209 116 139.855 116.168 139.543C116.348 139.231 116.594 138.985 116.906 138.805C117.23 138.625 117.602 138.535 118.022 138.535C118.61 138.535 119.048 138.709 119.336 139.057C119.636 139.405 119.786 139.921 119.786 140.605Z" fill="#424254"/>
<g clip-path="url(#clip0_655_6556)">
<path d="M79.4 55.62L98 53.6445L116.6 55.62L131 75.0396L98 113.645L65 75.0396L79.4 55.62Z" fill="#FDB300"/>
<path d="M78.3667 74.6445L98 113.645L65 74.6445H78.3667Z" fill="#EA6C00"/>
<path d="M117.633 74.6445L98 113.645L131 74.6445H117.633Z" fill="#EA6C00"/>
<path d="M78.5 74.6445H117.5L98 113.645L78.5 74.6445Z" fill="#FDAD00"/>
<path d="M98 53.6445L79.5263 55.5835L78.5 74.6445L98 53.6445Z" fill="#FDD231"/>
<path d="M98 53.6445L116.474 55.5835L117.5 74.6445L98 53.6445Z" fill="#FDD231"/>
<path d="M131 74.6445L116 55.1445L117.077 74.6445H131Z" fill="#FDAD00"/>
<path d="M65 74.6445L80 55.1445L78.9237 74.6445H65Z" fill="#FDAD00"/>
<path d="M98 53.6445L78.5 74.6445H117.5L98 53.6445Z" fill="#FEEEB7"/>
</g>
<defs>
<filter id="filter0_d_655_6556" x="5.12939" y="2.83258" width="185.741" height="199.624" filterUnits="userSpaceOnUse" color-interpolation-filters="sRGB">
<feFlood flood-opacity="0" result="BackgroundImageFix"/>
<feColorMatrix in="SourceAlpha" type="matrix" values="0 0 0 0 0 0 0 0 0 0 0 0 0 0 0 0 0 0 127 0" result="hardAlpha"/>
<feOffset dy="4"/>
<feGaussianBlur stdDeviation="4"/>
<feColorMatrix type="matrix" values="0 0 0 0 0.0627451 0 0 0 0 0.0941176 0 0 0 0 0.156863 0 0 0 0.04 0"/>
<feBlend mode="normal" in2="BackgroundImageFix" result="effect1_dropShadow_655_6556"/>
<feBlend mode="normal" in="SourceGraphic" in2="effect1_dropShadow_655_6556" result="shape"/>
</filter>
<clipPath id="clip0_655_6556">
<rect width="66" height="60" fill="white" transform="translate(65 53.6445)"/>
</clipPath>
</defs>
</svg>
