<svg width="86" height="86" viewBox="0 0 86 86" fill="none" xmlns="http://www.w3.org/2000/svg">
<g filter="url(#filter0_d_138_8157)">
<circle cx="43" cy="39" r="35" fill="white"/>
</g>
<path d="M60.316 51.302C60.2246 51.6154 60.1421 51.9308 60.0411 52.2408C59.0494 55.288 56.0345 57.3078 52.8828 56.9614C50.2094 56.6673 48.3051 55.2502 47.1766 52.8022C47.1477 52.7404 47.1237 52.6765 47.0941 52.6146C47.0852 52.5954 47.066 52.5803 47.0378 52.5466C45.6805 52.9754 44.2778 53.2008 42.847 53.1981C41.4278 53.1947 40.0334 52.9878 38.6658 52.5411C38.4644 52.9232 38.2857 53.3135 38.0644 53.6771C35.8337 57.3387 30.8979 58.1002 27.6651 55.2873C27.3228 54.9897 27.283 54.6166 27.5682 54.3891C27.7998 54.2042 28.0396 54.2331 28.3345 54.488C29.265 55.2935 30.335 55.7711 31.5638 55.9079C34.3609 56.2185 37.0123 54.4564 37.7909 51.7549C38.7833 48.3125 36.5395 44.8543 32.9733 44.3285C29.8024 43.8612 26.7401 46.2528 26.4019 49.4347C26.2878 50.5068 26.4452 51.5198 26.8706 52.5012C27.0397 52.8916 26.9641 53.1892 26.6672 53.3225C26.3648 53.4579 26.1009 53.3184 25.9202 52.9287C24.3436 49.5152 25.9497 45.3285 29.4086 43.8337C29.522 43.7849 29.634 43.7306 29.7598 43.6736C28.8822 40.8634 28.8781 38.0616 29.7419 35.2885C29.2272 34.9889 28.6939 34.7435 28.2334 34.4006C25.9429 32.6935 24.9292 30.3919 25.4453 27.5866C25.9882 24.639 27.8499 22.8171 30.757 22.0722C30.8195 22.0564 30.8779 22.0247 30.9384 22C31.783 22 32.6277 22 33.4723 22C33.5314 22.0247 33.5877 22.0598 33.6496 22.0735C35.2 22.4343 36.5113 23.2034 37.4995 24.4521C37.9538 25.0266 38.2995 25.6871 38.705 26.3255C41.2945 25.7111 42.7315 25.2651 47.0556 26.3276C47.0646 26.3207 47.0783 26.3159 47.0825 26.307C47.134 26.1929 47.1821 26.0774 47.235 25.9647C48.0308 24.2658 49.2988 23.0645 51.0444 22.378C51.4313 22.2261 51.8375 22.1251 52.2354 22C53.08 22 53.9246 22 54.7693 22C54.8284 22.0247 54.8854 22.0577 54.9473 22.0728C57.5086 22.7106 59.2233 24.272 60.0741 26.7729C60.1683 27.0485 60.2363 27.3337 60.316 27.6141C60.316 28.4127 60.316 29.2112 60.316 30.0105C60.2926 30.0593 60.2583 30.1053 60.248 30.1569C59.8982 31.8434 59.0439 33.2227 57.6708 34.2549C57.1416 34.6528 56.5403 34.9552 55.9603 35.3071C56.8193 38.0732 56.8118 40.8724 55.9369 43.6756C56.0283 43.7162 56.0998 43.7485 56.1712 43.7801C57.8639 44.5223 59.0955 45.7326 59.8253 47.4314C60.0287 47.9056 60.1545 48.4135 60.316 48.9063C60.316 49.7048 60.316 50.5034 60.316 51.302ZM38.9613 27.3873C38.9572 27.4175 38.9476 27.4512 38.9496 27.4835C38.9531 27.5399 38.9634 27.5962 38.9723 27.6526C39.2946 29.6387 38.8245 31.4255 37.6171 33.0248C37.3497 33.3787 37.0741 33.444 36.8054 33.2419C36.5346 33.0392 36.5346 32.7368 36.8054 32.376C37.8377 31.0001 38.2074 29.4648 37.9325 27.7673C37.4329 24.6857 34.2984 22.4714 31.2333 23.0412C27.9166 23.6576 25.8549 26.6746 26.4844 29.9892C26.9593 32.4894 29.243 34.4735 31.7824 34.6109C32.9142 34.6721 33.9774 34.4604 34.9794 33.9264C35.3079 33.7512 35.6062 33.8281 35.7519 34.0962C35.9017 34.3711 35.8041 34.6673 35.4832 34.8377C34.1004 35.5703 32.6366 35.8363 31.0855 35.5861C30.9776 35.5689 30.8683 35.5614 30.7536 35.549C29.9481 38.1805 29.9447 40.7707 30.7597 43.3554C30.8594 43.3554 30.9185 43.365 30.9728 43.354C31.9164 43.1637 32.8517 43.2138 33.7864 43.4276C37.2178 44.211 39.5599 47.6575 38.9915 51.1329C38.9345 51.4827 39.0211 51.5721 39.331 51.66C41.1942 52.1872 43.0806 52.2758 44.9843 51.9707C45.5829 51.8745 46.1691 51.6992 46.7773 51.5556C46.5753 50.5763 46.589 49.6622 46.7594 48.7448C47.4192 45.1945 51.0836 42.6709 54.6325 43.3389C54.8586 43.3815 54.9534 43.3375 55.0194 43.1094C55.7238 40.671 55.7239 38.2361 55.0208 35.7978C54.9617 35.593 54.8785 35.5483 54.6627 35.5634C54.0408 35.6081 53.4092 35.6775 52.7928 35.6198C49.2995 35.2892 46.6206 32.3176 46.6289 28.8071C46.6302 28.3329 46.6955 27.8587 46.732 27.3825C44.8352 26.5571 40.9667 26.5571 38.9613 27.3873ZM53.5013 34.6288C56.7011 34.6494 59.3333 32.0289 59.3442 28.8113C59.3552 25.6149 56.7355 22.9807 53.5226 22.958C50.3297 22.9353 47.6859 25.5579 47.6639 28.7687C47.6426 31.9884 50.2513 34.6082 53.5013 34.6288ZM53.4951 44.2873C50.2747 44.2969 47.6645 46.9057 47.6639 50.1158C47.6632 53.3273 50.3214 55.9752 53.5288 55.9567C56.7293 55.9388 59.3621 53.2867 59.3449 50.0986C59.3277 46.8837 56.7045 44.2777 53.4951 44.2873Z" fill="#4583E6"/>
<path d="M30.3232 50.0174C30.3232 49.368 30.3184 48.7192 30.3246 48.0698C30.3301 47.4533 30.8778 47.1255 31.418 47.4306C32.5657 48.0794 33.7086 48.7385 34.8439 49.4085C35.3841 49.7274 35.3903 50.359 34.8508 50.6785C33.7065 51.3562 32.554 52.0207 31.3933 52.6702C30.8696 52.9629 30.3315 52.6296 30.3253 52.0331C30.3177 51.3617 30.3232 50.6895 30.3232 50.0174ZM31.3623 51.4957C32.2221 50.9974 33.0255 50.5322 33.8666 50.0449C33.0103 49.5522 32.2008 49.0855 31.3623 48.6031C31.3623 49.5927 31.3623 50.5136 31.3623 51.4957Z" fill="#4583E6"/>
<path d="M46.0268 41.5604C46.0268 39.7055 46.0268 37.9214 46.0268 36.1683C44.7382 36.6603 43.451 37.1524 42.117 37.6623C42.117 38.3901 42.117 39.2079 42.117 40.0512C42.5053 40.1694 42.9053 40.2855 43.3018 40.4127C43.686 40.535 43.8379 40.7762 43.7444 41.0924C43.6551 41.3941 43.3747 41.5088 42.9905 41.4002C42.9795 41.3968 42.9692 41.3927 42.9589 41.3879C42.2256 41.0271 41.4587 41.1961 40.6587 41.2394C40.6869 41.8676 40.713 42.4902 40.7425 43.1129C40.7632 43.5568 40.7906 44.0008 40.8106 44.4454C40.8284 44.8578 40.6319 45.1148 40.3061 45.1162C39.9969 45.1175 39.7935 44.8715 39.7756 44.486C39.7289 43.495 39.6801 42.5046 39.6299 41.5136C39.6251 41.425 39.6052 41.337 39.5907 41.2394C39.3722 41.2188 39.1674 41.2119 38.9674 41.1783C38.487 41.0979 38.1331 40.7295 38.1235 40.2436C38.1049 39.2973 38.1022 38.3503 38.1228 37.4039C38.1345 36.8486 38.5681 36.4528 39.1234 36.4452C39.7508 36.437 40.3879 36.3744 41.0037 36.4576C42.1184 36.6074 43.1053 36.2432 44.086 35.8281C44.6825 35.5759 45.2584 35.2748 45.8336 34.9759C45.9312 34.925 46.0178 34.7842 46.0398 34.6714C46.1127 34.2962 46.3003 34.0976 46.6088 34.123C46.9119 34.1478 47.092 34.3739 47.0927 34.7553C47.0954 36.5579 47.094 38.3599 47.094 40.1625C47.094 41.0635 47.0961 41.9652 47.0934 42.8661C47.092 43.2599 46.9264 43.4771 46.6212 43.5039C46.2858 43.5334 46.1237 43.363 46.0384 42.941C46.0178 42.8386 45.9305 42.7211 45.8398 42.6661C45.5581 42.495 45.2584 42.3541 44.9684 42.1954C44.644 42.0181 44.5416 41.7384 44.6914 41.458C44.8316 41.1954 45.1162 41.1164 45.4261 41.2607C45.6103 41.346 45.7897 41.4415 46.0268 41.5604ZM39.1798 37.4905C39.1798 38.3942 39.1798 39.2657 39.1798 40.1233C39.8175 40.1233 40.4271 40.1233 41.0422 40.1233C41.0422 39.2334 41.0422 38.3716 41.0422 37.4905C40.4147 37.4905 39.8045 37.4905 39.1798 37.4905Z" fill="#4583E6"/>
<path d="M29.5693 30.4676C29.0223 30.0037 28.6312 29.4422 28.4745 28.7371C28.2986 27.9475 28.3687 27.1723 28.6491 26.419C28.8443 25.8947 29.2917 25.8253 29.6401 26.2644C30.0586 26.7922 30.5823 27.151 31.2352 27.3166C31.3005 27.3331 31.3692 27.3338 31.4489 27.3434C31.4826 27.23 31.5121 27.1228 31.5458 27.0163C31.9169 25.8548 33.2186 25.3194 34.2824 25.9112C34.5023 26.0335 34.668 26.0527 34.8707 25.9125C35.138 25.7277 35.4219 25.5394 35.7373 25.8046C36.0686 26.0837 35.9407 26.4458 35.7669 26.707C35.3662 27.309 35.3037 27.9853 35.1813 28.6636C34.6089 31.8345 31.1974 33.2248 28.335 31.6496C28.1007 31.5204 27.988 31.326 28.0519 31.0531C28.1165 30.7762 28.3185 30.6717 28.5776 30.647C28.9006 30.6167 29.2243 30.5913 29.548 30.5638C29.5549 30.5329 29.5617 30.4999 29.5693 30.4676ZM30.6455 31.2318C32.5602 31.3349 34.1237 29.9254 34.2261 28.0808C34.2432 27.775 34.2824 27.4499 34.2013 27.1654C34.1154 26.8637 33.4907 26.6541 33.1588 26.7386C32.7629 26.8389 32.5141 27.1784 32.5059 27.6293C32.4928 28.3138 32.3506 28.4526 31.6757 28.4313C31.5623 28.4279 31.4489 28.4114 31.3362 28.3962C30.6469 28.3014 30.0366 28.0148 29.4587 27.5812C29.4442 27.6588 29.4319 27.6994 29.4298 27.7399C29.3652 28.812 29.8634 29.5398 30.8029 30.0092C31.3843 30.2999 31.4042 30.7322 30.8682 31.084C30.8146 31.1184 30.7617 31.1541 30.6455 31.2318Z" fill="#4583E6"/>
<path d="M53.5876 29.2098C53.5876 29.9301 53.5876 30.5898 53.5876 31.2503C53.5876 31.5465 53.5925 31.8434 53.5863 32.1396C53.578 32.545 53.3588 32.8007 53.0406 32.7897C52.7327 32.7787 52.5293 32.532 52.5265 32.143C52.5217 31.3107 52.5252 30.4785 52.5252 29.6462C52.5252 29.5219 52.5252 29.3975 52.5252 29.2126C52.3162 29.2126 52.1286 29.2167 51.941 29.2119C51.53 29.2016 51.2771 28.9913 51.2895 28.6752C51.3019 28.3659 51.5479 28.1728 51.9389 28.1687C52.119 28.1666 52.2997 28.168 52.5252 28.168C52.5252 27.7474 52.5245 27.3529 52.5252 26.9578C52.5272 25.6059 53.321 24.8122 54.6694 24.8115C54.8405 24.8115 55.013 24.7998 55.182 24.8184C55.4624 24.8486 55.6775 25.0933 55.6494 25.3558C55.6191 25.6348 55.4659 25.8217 55.1683 25.8403C54.9525 25.854 54.7346 25.841 54.5189 25.8527C53.9216 25.8843 53.6 26.2128 53.5897 26.8066C53.5821 27.2478 53.5883 27.6897 53.5883 28.168C53.8474 28.168 54.0728 28.1632 54.2976 28.1694C54.6481 28.1783 54.8934 28.403 54.8879 28.7006C54.8824 28.9892 54.659 29.1927 54.3127 29.2085C54.0873 29.2181 53.8612 29.2098 53.5876 29.2098Z" fill="#4583E6"/>
<path d="M53.4939 53.763C52.7757 53.763 52.0575 53.7664 51.3393 53.7623C50.4665 53.7568 49.857 53.1561 49.8515 52.2771C49.8432 50.8408 49.8446 49.4045 49.8508 47.9688C49.8549 47.0994 50.4198 46.485 51.2899 46.4699C52.7599 46.4438 54.2313 46.4452 55.702 46.4686C56.5878 46.483 57.1527 47.0981 57.1562 47.988C57.161 49.4127 57.1617 50.8374 57.1555 52.2627C57.1514 53.1595 56.5445 53.7588 55.6484 53.763C54.9302 53.7657 54.212 53.763 53.4939 53.763ZM53.5206 47.5228C52.8025 47.5228 52.085 47.5283 51.3668 47.5207C51.0507 47.5173 50.9078 47.6575 50.9084 47.9716C50.9112 49.3955 50.9071 50.8195 50.9112 52.2435C50.9126 52.5946 51.0328 52.7197 51.3847 52.7211C52.7977 52.7266 54.2106 52.7266 55.6236 52.7211C55.9741 52.7197 56.0971 52.594 56.0985 52.2428C56.104 50.8305 56.104 49.4175 56.0992 48.0045C56.0978 47.6121 56.003 47.5255 55.6057 47.5235C54.9109 47.52 54.2154 47.5228 53.5206 47.5228Z" fill="#4583E6"/>
<path d="M51.9531 50.1123C51.9545 49.2375 52.6362 48.5612 53.5145 48.564C54.3839 48.5667 55.0622 49.2588 55.0533 50.135C55.045 50.992 54.3647 51.6689 53.5084 51.6731C52.6411 51.6779 51.9518 50.9858 51.9531 50.1123ZM53.5049 50.6236C53.7915 50.623 54.0245 50.3872 54.0176 50.1041C54.0107 49.8361 53.7846 49.6051 53.5187 49.5955C53.2458 49.5852 52.9929 49.8292 52.9881 50.1075C52.9826 50.3886 53.2183 50.6243 53.5049 50.6236Z" fill="#4583E6"/>
<defs>
<filter id="filter0_d_138_8157" x="0" y="0" width="86" height="86" filterUnits="userSpaceOnUse" color-interpolation-filters="sRGB">
<feFlood flood-opacity="0" result="BackgroundImageFix"/>
<feColorMatrix in="SourceAlpha" type="matrix" values="0 0 0 0 0 0 0 0 0 0 0 0 0 0 0 0 0 0 127 0" result="hardAlpha"/>
<feOffset dy="4"/>
<feGaussianBlur stdDeviation="4"/>
<feColorMatrix type="matrix" values="0 0 0 0 0.0627451 0 0 0 0 0.0941176 0 0 0 0 0.156863 0 0 0 0.04 0"/>
<feBlend mode="normal" in2="BackgroundImageFix" result="effect1_dropShadow_138_8157"/>
<feBlend mode="normal" in="SourceGraphic" in2="effect1_dropShadow_138_8157" result="shape"/>
</filter>
</defs>
</svg>
