<svg width="80" height="80" viewBox="0 0 80 80" fill="none" xmlns="http://www.w3.org/2000/svg">
<circle cx="40" cy="40" r="40" fill="white"/>
<path d="M24.0912 27.2437C23.8149 27.2447 23.5376 27.2572 23.2623 27.2416C22.859 27.2186 22.624 26.9891 22.624 26.6426C22.623 26.2982 22.858 26.054 23.2592 26.0405C23.8244 26.0217 24.3918 26.0206 24.9571 26.0415C25.3519 26.0561 25.587 26.3139 25.5774 26.6582C25.5679 26.987 25.3392 27.2155 24.9603 27.2385C24.6713 27.2572 24.3802 27.2437 24.0912 27.2437Z" fill="#4285F4"/>
<path d="M63.9988 32.9377C63.4443 33.8192 62.5282 33.9252 61.6223 34.0519C60.7578 34.1729 60.5523 34.355 60.4123 35.2007C60.3882 35.3459 60.4674 35.5349 60.5546 35.6651C60.8279 36.0684 61.1367 36.4475 61.418 36.845C62.0448 37.7322 61.8577 38.8661 60.9898 39.5067C60.7131 39.7107 60.4387 39.9181 60.1666 40.1278C59.4732 40.6613 58.6431 40.6774 57.9439 40.1543C57.5651 39.8708 57.1931 39.5781 56.8337 39.2705C56.6145 39.0815 56.4101 38.9905 56.1552 39.1875C56.1219 39.2129 56.0795 39.2279 56.0381 39.2394C55.5525 39.3823 55.2724 39.6634 55.2586 40.2153C55.2494 40.6129 55.1449 41.0081 55.0703 41.4022C54.8981 42.3159 54.3057 42.8863 53.3918 42.9727C52.9521 43.0142 52.5032 43.0142 52.0635 42.9738C51.1336 42.8897 50.4918 42.256 50.3483 41.3273C50.2806 40.8883 50.2232 40.4481 50.1531 40.0091C50.0464 39.3465 49.1164 38.9674 48.5803 39.365C48.2347 39.6208 47.896 39.8858 47.5493 40.1381C46.7273 40.735 45.7744 40.6716 45.0477 39.9745C44.7894 39.7268 44.5333 39.4744 44.2877 39.214C43.6057 38.4927 43.5426 37.5479 44.1223 36.739C44.3898 36.3657 44.6608 35.9946 44.9478 35.6386C45.1246 35.4197 45.1636 35.2146 45.0109 34.9726C44.9581 34.8885 44.9191 34.7928 44.8904 34.6983C44.7813 34.3365 44.5862 34.1245 44.1694 34.098C43.7159 34.0692 43.2682 33.9563 42.817 33.8791C41.9318 33.727 41.3222 33.0091 41.313 32.1046C41.3084 31.6875 41.3084 31.2715 41.313 30.8544C41.3233 30.0144 41.8503 29.3288 42.6666 29.141C43.1671 29.0258 43.678 28.9613 44.1855 28.8772C44.9179 28.755 45.2968 27.8056 44.8502 27.2121C44.5999 26.8803 44.36 26.5392 44.1028 26.2131C43.6241 25.6059 43.5196 24.8973 43.9237 24.2877C44.3313 23.6701 44.8789 23.1044 45.4748 22.6665C46.0454 22.2471 46.7353 22.3681 47.3197 22.7921C47.7135 23.0779 48.1004 23.3774 48.4643 23.7001C48.7066 23.9144 48.9259 23.949 49.1934 23.7761C49.2886 23.715 49.3954 23.6678 49.5033 23.6309C49.8822 23.5019 50.0739 23.2645 50.1003 22.8405C50.1279 22.4003 50.2186 21.959 50.3196 21.5281C50.5366 20.6017 51.3035 20.0048 52.2415 20.0013C52.5847 20.0002 52.9292 19.999 53.2724 20.0013C54.1668 20.0094 54.8947 20.6132 55.06 21.4947C55.1553 22.0016 55.2356 22.5109 55.3137 23.0214C55.401 23.5975 56.3424 23.9927 56.8177 23.6448C57.1988 23.3659 57.5731 23.0755 57.9543 22.7967C58.7269 22.2309 59.6304 22.2816 60.3388 22.9384C60.612 23.1919 60.8715 23.4604 61.1298 23.7289C61.8382 24.4606 61.9059 25.4434 61.302 26.2742C61.0403 26.6337 60.7751 26.9909 60.5007 27.34C60.3354 27.5509 60.3354 27.7249 60.4192 27.998C60.6166 28.6386 61.0012 28.9313 61.6522 28.9417C61.8634 28.9451 62.0724 29.0316 62.2848 29.0454C63.0414 29.0938 63.6131 29.4371 64 30.0916C63.9988 31.0411 63.9988 31.9894 63.9988 32.9377ZM46.3335 23.7554C46.2348 23.8245 46.1338 23.8775 46.0545 23.9536C45.8261 24.1713 45.616 24.4087 45.3818 24.6196C45.1177 24.8569 45.0948 25.0816 45.3232 25.3616C45.6125 25.7177 45.88 26.091 46.1521 26.4609C46.6045 27.0762 46.702 27.7376 46.3955 28.4485C46.2991 28.672 46.2038 28.8956 46.1062 29.1191C45.8479 29.7102 45.4254 30.1032 44.7779 30.2184C44.5104 30.2656 44.2406 30.299 43.9754 30.352C42.6505 30.6182 42.8686 30.3048 42.8468 31.6345C42.8457 31.7347 42.8514 31.8361 42.8468 31.9364C42.8365 32.1979 42.9502 32.3282 43.2188 32.357C43.5299 32.3904 43.8365 32.486 44.1476 32.5091C45.2073 32.5886 45.9753 33.0333 46.26 34.1268C46.2773 34.1948 46.3209 34.2559 46.353 34.3204C46.6825 34.9991 46.6446 35.6536 46.2084 36.2712C45.9271 36.6699 45.6309 37.057 45.3404 37.4488C44.9972 37.912 44.9983 37.9754 45.4093 38.3833C46.3473 39.312 46.1303 39.3454 47.1349 38.51C48.136 37.6769 49.105 37.4269 50.3035 38.1056C51.005 38.5031 51.4252 38.9997 51.5377 39.7855C51.6066 40.2683 51.6858 40.7488 51.7845 41.2259C51.8098 41.3469 51.9281 41.537 52.0119 41.5416C52.4665 41.5669 52.9452 41.6222 53.3666 41.4978C53.5262 41.4506 53.5583 40.9528 53.6375 40.6578C53.6708 40.5345 53.6812 40.4043 53.6961 40.2753C53.9165 38.3879 54.4917 38.3729 56.0037 37.8186C56.8016 37.526 57.4307 38.1113 58.0484 38.5665C59.2711 39.4664 58.8543 39.5309 60.0334 38.389C60.2619 38.1678 60.2757 37.9719 60.0736 37.7184C59.7418 37.3047 59.4295 36.875 59.1218 36.4429C58.3745 35.3943 59.0128 33.3548 60.224 32.9123C60.3032 32.8835 60.3882 32.864 60.472 32.849C60.852 32.7821 61.2331 32.7234 61.612 32.6519C62.465 32.4906 62.4639 32.4883 62.4639 31.6034C62.4639 30.7208 62.4673 30.6781 61.6005 30.6159C60.2871 30.5203 59.3101 30.0617 58.9095 28.6709C58.7051 27.96 58.6707 27.3228 59.0863 26.7028C59.3101 26.3698 59.5604 26.0553 59.8015 25.7338C60.2711 25.107 60.2711 25.1081 59.7338 24.5643C58.9049 23.7277 59.0564 23.8095 58.1988 24.4663C57.7924 24.7774 57.3848 25.1173 56.9244 25.3213C56.2092 25.6382 55.5686 25.228 54.9268 24.9537C54.3734 24.7175 54.0198 24.3096 53.8637 23.7381C53.7776 23.4224 53.7477 23.0905 53.6857 22.7667C53.4148 21.3414 53.7294 21.5603 52.2139 21.5373C51.9384 21.5327 51.7903 21.6249 51.7593 21.9187C51.7053 22.4314 51.6261 22.9419 51.5549 23.4535C51.4596 24.1333 51.0475 24.555 50.4447 24.8178C50.2748 24.8915 50.0911 24.9387 49.9293 25.0252C49.175 25.4319 48.4735 25.3294 47.8053 24.8304C47.415 24.5389 47.027 24.2439 46.6366 23.9524C46.5482 23.8867 46.4506 23.8314 46.3335 23.7554Z" fill="#4285F4"/>
<path d="M21.3745 33.0253C21.5846 33.0253 21.7534 33.0253 21.921 33.0253C27.7635 33.0253 33.6072 33.0276 39.4497 33.0207C39.8159 33.0207 40.1156 33.1175 40.243 33.4713C40.3659 33.8112 40.2809 34.1476 39.9721 34.3458C39.8068 34.4518 39.5714 34.4841 39.367 34.4841C35.8436 34.4922 32.3214 34.4899 28.7979 34.4899C26.4926 34.4899 24.1861 34.4899 21.8808 34.4899C21.727 34.4899 21.5731 34.4899 21.3745 34.4899C21.3745 34.6535 21.3745 34.7779 21.3745 34.9035C21.3745 41.9899 21.3734 49.0751 21.3757 56.1615C21.3757 57.3402 21.9486 58.148 22.9818 58.4153C23.1862 58.4683 23.4055 58.4787 23.6178 58.4787C34.2868 58.4821 44.9558 58.4821 55.6248 58.4798C57.0243 58.4798 57.8773 57.5857 57.8785 56.1223C57.8819 51.7529 57.8797 47.3836 57.8797 43.0142C57.8797 42.8564 57.8751 42.6974 57.8877 42.5407C57.9187 42.1524 58.185 41.8804 58.5375 41.8677C58.8693 41.8562 59.1999 42.1362 59.2596 42.4877C59.2757 42.5856 59.2688 42.6881 59.2688 42.7884C59.2688 47.2868 59.2723 51.7864 59.2677 56.2848C59.2654 58.0592 58.1184 59.5007 56.3986 59.8763C56.0404 59.9547 55.6593 59.9501 55.2885 59.9501C44.8916 59.9535 34.4946 59.9524 24.0977 59.9547C23.7005 59.9547 23.2918 60.0411 22.9072 59.9754C21.2 59.6828 20.0037 58.2344 20.0026 56.4899C19.9991 47.4343 19.9991 38.3799 20.0026 29.3243C20.0026 27.453 21.5571 25.8042 23.4146 25.7961C29.558 25.7707 35.7024 25.7834 41.8457 25.7857C42.3199 25.7857 42.6103 26.06 42.6115 26.4725C42.6126 26.8781 42.3176 27.1661 41.8538 27.1742C41.1523 27.1857 40.4508 27.1788 39.7482 27.1788C34.4636 27.1788 29.1791 27.1788 23.8945 27.1788C22.1954 27.1788 21.3734 28.0073 21.3734 29.7195C21.3734 30.8084 21.3745 31.8961 21.3745 33.0253Z" fill="#4285F4"/>
<path d="M31.8566 46.9928C30.2389 46.9928 28.6202 46.9951 27.0025 46.9917C25.6547 46.9894 24.7351 46.071 24.7317 44.7229C24.7282 42.8113 24.7294 40.8997 24.7317 38.9881C24.7328 37.64 25.5927 36.6986 26.9256 36.6882C30.2332 36.664 33.5408 36.664 36.8484 36.6871C38.179 36.6963 39.0584 37.6377 39.063 38.9766C39.0699 40.8732 39.0687 42.771 39.063 44.6676C39.0596 46.0733 38.1457 46.9894 36.7531 46.9917C35.1217 46.994 33.4891 46.9928 31.8566 46.9928ZM31.8577 38.1009C30.2401 38.1009 28.6225 38.0986 27.0037 38.102C26.4561 38.1032 26.192 38.3406 26.1897 38.8706C26.1817 40.8248 26.1817 42.779 26.1897 44.7333C26.192 45.2518 26.4721 45.5283 26.9957 45.5295C30.2596 45.5341 33.5247 45.5341 36.7887 45.5295C37.3156 45.5283 37.5889 45.2645 37.5923 44.7321C37.6027 42.8067 37.6027 40.8813 37.5923 38.9559C37.5889 38.3567 37.3088 38.1032 36.7118 38.102C35.0941 38.0986 33.4754 38.0997 31.8577 38.1009Z" fill="#4285F4"/>
<path d="M39.6464 56.3851C34.9071 56.3851 30.1667 56.3851 25.4275 56.3851C24.7536 56.3851 24.3931 56.142 24.3897 55.688C24.3862 55.2351 24.7662 54.9644 25.4137 54.9644C34.9071 54.9644 44.4005 54.9644 53.8939 54.9644C54.5827 54.9644 54.9283 55.1983 54.9306 55.6603C54.9329 56.1224 54.5483 56.3851 53.864 56.3851C49.1248 56.3851 44.3856 56.3851 39.6464 56.3851Z" fill="#4285F4"/>
<path d="M39.6849 50.4277C44.3816 50.4277 49.0772 50.4277 53.774 50.4277C53.9312 50.4277 54.0897 50.4231 54.2458 50.4346C54.6385 50.4622 54.906 50.718 54.9278 51.0741C54.9484 51.4255 54.658 51.7666 54.2849 51.8161C54.1586 51.8334 54.0277 51.823 53.8991 51.823C44.4069 51.823 34.9135 51.823 25.4213 51.823C25.3788 51.823 25.3352 51.823 25.2927 51.823C24.7301 51.8196 24.3892 51.5557 24.3926 51.1271C24.396 50.7042 24.7439 50.43 25.2984 50.4288C30.0916 50.4265 34.8882 50.4277 39.6849 50.4277Z" fill="#4285F4"/>
<path d="M48.8157 45.8765C50.5608 45.8765 52.3058 45.8765 54.0509 45.8765C54.5997 45.8765 54.9177 46.1162 54.928 46.5367C54.9372 46.8859 54.6089 47.2696 54.0509 47.2661C50.547 47.2442 47.042 47.2557 43.538 47.2546C42.9858 47.2546 42.6873 47.0126 42.6885 46.5736C42.6896 46.1473 43.0145 45.8776 43.5369 45.8765C45.2969 45.8753 47.0557 45.8765 48.8157 45.8765Z" fill="#4285F4"/>
<path d="M25.3905 30.8509C25.1483 30.8509 24.9037 30.8682 24.6626 30.8474C24.2723 30.814 23.9715 30.4972 23.9727 30.1526C23.9738 29.8335 24.2585 29.4843 24.6213 29.4613C25.1609 29.4267 25.7062 29.4267 26.247 29.459C26.6373 29.482 26.875 29.7828 26.875 30.1446C26.875 30.5179 26.6109 30.8106 26.2057 30.8451C25.9347 30.8693 25.6615 30.8497 25.3905 30.8509Z" fill="#4285F4"/>
<path d="M28.7789 30.8521C28.5366 30.8521 28.2933 30.867 28.051 30.8486C27.6423 30.8175 27.3622 30.5352 27.3518 30.1711C27.3415 29.8242 27.6262 29.4786 28.0143 29.4544C28.5401 29.4221 29.0705 29.4221 29.5963 29.4544C30.0119 29.4797 30.2496 29.7816 30.2369 30.1688C30.2243 30.5479 29.9637 30.8163 29.5481 30.8474C29.2932 30.867 29.0349 30.8521 28.7789 30.8521Z" fill="#4285F4"/>
<path d="M32.1425 30.8532C31.914 30.8532 31.6856 30.8648 31.4583 30.8509C31.014 30.8256 30.7373 30.5571 30.7315 30.1653C30.7258 29.8001 30.9899 29.4774 31.3905 29.4533C31.9163 29.421 32.4468 29.4233 32.9726 29.4556C33.3629 29.4798 33.6143 29.7782 33.6201 30.1308C33.627 30.4949 33.3526 30.8072 32.9565 30.844C32.6878 30.8694 32.4146 30.8486 32.1437 30.8486C32.1425 30.8509 32.1425 30.8521 32.1425 30.8532Z" fill="#4285F4"/>
<path d="M43.7321 42.6995C43.6173 42.6995 43.5025 42.7064 43.3888 42.6984C42.9675 42.6719 42.6977 42.4149 42.6897 42.0381C42.6805 41.666 42.9882 41.3387 43.39 41.3122C43.6322 41.2972 43.8768 41.2984 44.119 41.3111C44.5185 41.3318 44.8159 41.6199 44.8285 41.9805C44.8411 42.3492 44.5312 42.665 44.119 42.6961C43.9893 42.7076 43.8607 42.6995 43.7321 42.6995Z" fill="#4285F4"/>
<path d="M57.3286 31.267C57.4468 33.795 55.455 35.9521 52.9097 36.0892C50.5332 36.2171 48.3059 34.2778 48.1153 31.812C47.919 29.2851 49.8432 27.0301 52.3655 26.8285C54.9567 26.6223 57.1265 28.5615 57.3286 31.267ZM55.8625 31.4387C55.8533 29.7172 54.4148 28.2757 52.7111 28.2827C50.997 28.2896 49.57 29.7241 49.5631 31.4479C49.5562 33.1959 50.9867 34.6177 52.7421 34.6051C54.4722 34.5924 55.8717 33.1728 55.8625 31.4387Z" fill="#4285F4"/>
</svg>
