<svg width="86" height="86" viewBox="0 0 86 86" fill="none" xmlns="http://www.w3.org/2000/svg">
<g filter="url(#filter0_d_138_8135)">
<circle cx="43" cy="39" r="35" fill="white"/>
</g>
<path d="M60.0143 35.7665C59.9038 36.4015 59.8343 37.0474 59.6763 37.6714C58.336 42.984 55.0252 46.4365 49.7601 47.9183C46.7854 48.7552 43.8326 48.4747 40.9749 47.2824C40.8909 47.2477 40.8068 47.2139 40.7209 47.1838C40.7017 47.1774 40.6771 47.1874 40.6515 47.1902C40.5419 47.3976 40.4478 47.6177 40.3189 47.8142C39.7452 48.6921 38.7201 49.1069 37.6722 48.8685C37.4703 48.8219 37.358 48.8657 37.2291 49.0009C36.914 49.3298 36.5896 49.6505 36.2635 49.9693C35.9793 50.2471 35.6842 50.2681 35.4549 50.0379C35.2329 49.8149 35.2576 49.5025 35.5353 49.2266C35.8578 48.9059 36.1904 48.5962 36.5074 48.2929C35.9803 47.763 35.4915 47.2715 35.042 46.8193C33.7666 48.0937 32.483 49.3755 31.2213 50.6363C31.6608 51.073 32.1578 51.5663 32.7251 52.13C33.0129 51.813 33.3262 51.4512 33.6579 51.1077C33.9493 50.8053 34.2645 50.7797 34.4929 51.0127C34.7231 51.2466 34.6765 51.5334 34.3933 51.8495C33.3683 52.9906 32.1495 53.8174 30.6878 54.3208C29.3137 54.7941 27.9671 55.3477 26.6149 55.8812C26.1326 56.0713 25.6986 56.053 25.3231 55.6812C24.9467 55.3075 24.9293 54.8708 25.1166 54.3903C25.7269 52.8234 26.3253 51.252 26.9283 49.6834C27.2937 48.7342 27.8428 47.9083 28.5673 47.1929C29.6938 46.0792 30.8129 44.9573 31.9248 43.83C32.007 43.7459 32.0783 43.5714 32.049 43.4682C31.6333 41.9845 32.2372 40.7703 33.6844 40.2157C33.7045 40.2075 33.7227 40.1938 33.752 40.1765C33.5647 39.6228 33.3573 39.0728 33.1929 38.511C31.0788 31.3173 35.2229 23.6924 42.4157 21.5865C43.3146 21.3234 44.2639 21.2348 45.1903 21.064C45.278 21.0475 45.3629 21.0219 45.4497 21C46.0426 21 46.6347 21 47.2276 21C47.3025 21.021 47.3756 21.0502 47.4523 21.0621C48.08 21.1571 48.7222 21.1937 49.3343 21.3508C54.8123 22.7541 58.2666 26.202 59.6736 31.6809C59.8389 32.325 59.9047 32.9947 60.0162 33.6524C60.0143 34.3532 60.0143 35.0594 60.0143 35.7665ZM46.3313 22.0369C39.3761 22.0342 33.6944 27.6967 33.6835 34.6391C33.6734 41.6401 39.324 47.3162 46.3131 47.3254C53.2975 47.3345 58.9938 41.6492 58.9874 34.6739C58.982 27.7077 53.3058 22.0397 46.3313 22.0369ZM38.2241 47.8836C38.8563 47.8872 39.377 47.5282 39.6018 46.9554C39.6794 46.7562 39.6675 46.6347 39.4611 46.5141C37.2986 45.2533 35.6039 43.5275 34.3787 41.345C34.2773 41.1641 34.175 41.154 33.9941 41.2097C32.9398 41.5386 32.5926 42.8286 33.3747 43.6271C34.6418 44.9199 35.93 46.1916 37.2127 47.4697C37.4895 47.7475 37.8266 47.8927 38.2241 47.8836ZM32.7772 44.5818C31.5036 45.8454 30.2127 47.1262 28.9638 48.366C29.4334 48.8337 29.9203 49.3198 30.3982 49.7958C31.6489 48.5441 32.9288 47.2642 34.1942 45.9979C33.7136 45.5174 33.2239 45.0286 32.7772 44.5818ZM28.2293 49.2613C27.9205 50.0433 27.6217 50.7861 27.3394 51.5353C27.3157 51.5992 27.386 51.7262 27.4472 51.7892C28.0292 52.3812 28.613 52.9714 29.2114 53.547C29.2836 53.6164 29.4562 53.6484 29.5531 53.6146C30.0985 53.4227 30.6357 53.209 31.172 52.9934C31.3538 52.9203 31.5255 52.8198 31.6973 52.7339C30.5434 51.5782 29.4188 50.4526 28.2293 49.2613ZM26.0056 54.9887C26.8114 54.6799 27.5258 54.4058 28.2165 54.1418C27.7423 53.6694 27.2965 53.2236 26.8525 52.7814C26.5894 53.4648 26.3162 54.1774 26.0056 54.9887Z" fill="#4583E6"/>
<path d="M46.3228 24.5411C44.0296 24.6078 41.9813 25.3095 40.1697 26.7009C39.9458 26.8726 39.6928 26.996 39.4598 26.7996C39.3283 26.689 39.2415 26.456 39.2442 26.2797C39.2469 26.1454 39.3995 25.9837 39.5247 25.886C41.0942 24.6681 42.8584 23.8888 44.8354 23.6604C49.0691 23.1716 52.5499 24.6042 55.171 27.947C58.2654 31.8938 58.2233 37.4795 55.1536 41.4482C55.0385 41.5971 54.8467 41.7488 54.674 41.7707C54.5242 41.7899 54.2656 41.6657 54.2099 41.5368C54.1395 41.3733 54.1624 41.1074 54.2537 40.9466C54.6649 40.2149 55.192 39.5397 55.5355 38.7805C58.1749 32.9545 54.6713 26.1006 48.4131 24.8216C47.7261 24.6818 47.0199 24.6325 46.3228 24.5411Z" fill="#4583E6"/>
<path d="M46.3414 44.8321C48.5907 44.7462 50.617 44.0783 52.4132 42.728C52.4863 42.6732 52.5557 42.6138 52.6334 42.5663C52.8901 42.4101 53.1632 42.4549 53.3341 42.6769C53.5058 42.8989 53.4839 43.173 53.2592 43.3803C53.1176 43.511 52.9586 43.6243 52.8015 43.7366C46.2774 48.3832 37.1332 44.8485 35.4604 37.018C34.7469 33.6761 35.4741 30.6356 37.5105 27.9021C37.8193 27.4874 38.2332 27.4536 38.4579 27.8163C38.6361 28.1031 38.4963 28.3334 38.3209 28.5599C37.5105 29.6078 36.945 30.7754 36.5887 32.0508C35.0593 37.5196 38.5995 43.3721 44.1506 44.5205C44.8714 44.6694 45.6105 44.7297 46.3414 44.8321Z" fill="#4583E6"/>
<path d="M48.3857 34.6877C48.3848 32.9463 49.7991 31.5284 51.5267 31.5367C53.2351 31.5449 54.6549 32.9674 54.6613 34.6758C54.6677 36.3997 53.2406 37.8195 51.5039 37.8167C49.7753 37.814 48.3857 36.4198 48.3857 34.6877ZM53.6006 34.6904C53.6042 33.5119 52.6797 32.5864 51.5039 32.5919C50.35 32.5973 49.4172 33.5274 49.4145 34.6749C49.4117 35.8251 50.3792 36.7935 51.524 36.7862C52.6714 36.7789 53.5969 35.8452 53.6006 34.6904Z" fill="#4583E6"/>
<path d="M40.6494 37.8149C39.8682 37.7975 39.1803 37.5417 38.6047 37.0064C38.295 36.7186 38.2548 36.4171 38.4796 36.1741C38.7061 35.9302 38.9967 35.9576 39.3164 36.2426C39.8034 36.6775 40.3661 36.8876 41.0121 36.7195C41.2185 36.6656 41.4268 36.5258 41.5757 36.3696C41.8197 36.1138 41.7914 35.7895 41.5218 35.5556C41.362 35.4167 41.1674 35.308 40.9728 35.223C40.5151 35.0239 40.0491 34.8421 39.5823 34.6621C38.982 34.43 38.6869 33.9604 38.6367 33.3556C38.5874 32.7618 38.8267 32.263 39.3292 31.9194C40.1999 31.3229 41.6991 31.4736 42.4336 32.2237C42.6328 32.4265 42.6602 32.7353 42.4793 32.9326C42.2719 33.1592 42.0161 33.183 41.7722 33.0103C41.3455 32.7079 40.8814 32.5517 40.3616 32.6193C40.1999 32.6403 40.0235 32.7024 39.8965 32.8002C39.5558 33.0633 39.6197 33.5402 40.0126 33.7083C40.4822 33.9093 40.9655 34.0792 41.435 34.2802C42.1659 34.5945 42.7314 35.0668 42.7726 35.9292C42.8201 36.8967 41.9156 37.7683 40.854 37.814C40.7855 37.8176 40.717 37.8149 40.6494 37.8149Z" fill="#4583E6"/>
<path d="M45.3921 32.6127C45.3921 33.1536 45.3921 33.6396 45.3921 34.1613C45.8753 34.1613 46.3404 34.1521 46.8054 34.164C47.1946 34.174 47.4065 34.3942 47.38 34.7286C47.3563 35.021 47.1398 35.2037 46.7835 35.2092C46.3294 35.2165 45.8753 35.211 45.3975 35.211C45.3975 35.7272 45.3975 36.2196 45.3975 36.7486C45.8077 36.7486 46.2033 36.7477 46.5989 36.7486C46.7469 36.7486 46.8958 36.7413 47.0429 36.7577C47.3526 36.7924 47.5801 37.0254 47.5545 37.2922C47.5253 37.5918 47.3408 37.7882 47.0448 37.7956C46.3047 37.8138 45.5638 37.8157 44.8238 37.7937C44.4958 37.7846 44.3323 37.5589 44.3268 37.177C44.3186 36.5732 44.3241 35.9693 44.3241 35.3654C44.3241 34.3284 44.3213 33.2924 44.3259 32.2555C44.3277 31.7265 44.4912 31.5639 45.0257 31.5602C45.6972 31.5566 46.3696 31.5529 47.0411 31.573C47.3545 31.5822 47.5673 31.8279 47.5573 32.0993C47.5472 32.3733 47.3207 32.5862 47.0119 32.6072C46.8986 32.6145 46.7844 32.6091 46.6702 32.6091C46.2508 32.6127 45.8315 32.6127 45.3921 32.6127Z" fill="#4583E6"/>
<defs>
<filter id="filter0_d_138_8135" x="0" y="0" width="86" height="86" filterUnits="userSpaceOnUse" color-interpolation-filters="sRGB">
<feFlood flood-opacity="0" result="BackgroundImageFix"/>
<feColorMatrix in="SourceAlpha" type="matrix" values="0 0 0 0 0 0 0 0 0 0 0 0 0 0 0 0 0 0 127 0" result="hardAlpha"/>
<feOffset dy="4"/>
<feGaussianBlur stdDeviation="4"/>
<feColorMatrix type="matrix" values="0 0 0 0 0.0627451 0 0 0 0 0.0941176 0 0 0 0 0.156863 0 0 0 0.04 0"/>
<feBlend mode="normal" in2="BackgroundImageFix" result="effect1_dropShadow_138_8135"/>
<feBlend mode="normal" in="SourceGraphic" in2="effect1_dropShadow_138_8135" result="shape"/>
</filter>
</defs>
</svg>
